<svg width="1253" height="1080" viewBox="0 0 1253 1080" fill="none" xmlns="http://www.w3.org/2000/svg">
<g clip-path="url(#clip0_20_2)">
<ellipse cx="618.5" cy="687" rx="568.5" ry="543" fill="url(#paint0_linear_20_2)"/>
<circle cx="618.5" cy="705.5" r="125.5" fill="#FFFFF1"/>
<path d="M616 560.5L615 562L613.5 560L606.5 556.5L601.5 557.5L606.5 554.5L615.5 559L625 556L630 561L625.5 558.5L616 560.5Z" fill="#50578D"/>
<path d="M581.5 533.5L592.5 521.5L579 532.5L569 518L574 532.5L577 546.5L581.5 533.5Z" fill="#50578D"/>
<path d="M650 532L630.5 529.5H651.5L666.5 545L691 550L702.5 562L690 553L660 551.5V545L650 532Z" fill="#50578D"/>
<path d="M354 346H510C510 346 500.768 330.873 490.873 328.599C482.049 326.572 468.268 333.746 468.268 333.746C468.268 333.746 457.302 317.312 446.408 312.178C422.186 300.766 382.815 337.912 382.815 337.912C382.815 337.912 374.037 334.18 368.408 335.216C361.465 336.494 354 346 354 346Z" fill="white"/>
<path d="M149 475H329C329 475 318.348 457.352 306.93 454.699C296.749 452.334 280.847 460.703 280.847 460.703C280.847 460.703 268.195 441.53 255.624 435.542C227.676 422.227 182.248 465.564 182.248 465.564C182.248 465.564 172.12 461.21 165.624 462.419C157.613 463.91 149 475 149 475Z" fill="white"/>
<path d="M831 357H925C925 357 919.437 347.756 913.475 346.366C908.158 345.127 899.854 349.511 899.854 349.511C899.854 349.511 893.246 339.468 886.682 336.331C872.086 329.357 848.363 352.057 848.363 352.057C848.363 352.057 843.171 352.825 839.878 353.857C835.7 355.167 831 357 831 357Z" fill="white"/>
<ellipse cx="884.5" cy="824.5" rx="30.5" ry="4.5" fill="#BCD389"/>
<path d="M909.5 654V765H344V691H378.5V541H418.5V632H439V714.5H476V691H496V654H532.5V719H551.5V654H544.5V640.5H551.5V617H548V613H551.5V563.5H555.5V613H560.5V617H555.5V640.5H564V654H555.5V719H564V674H624.5V582H639.5V711.5H657.5V668.5L680.5 624L705.5 607V691H731V632H764V607V559.5H782V681.5H804.5V613H818L822.5 559.5L843 525V509H862V726.5H869.5V704.5H884V654H909.5Z" fill="url(#paint1_linear_20_2)"/>
<ellipse cx="618.5" cy="807.5" rx="568.5" ry="53.5" fill="#CCE59D"/>
<ellipse cx="965.5" cy="828.5" rx="18.5" ry="2.5" fill="#C0D988"/>
</g>
<defs>
<linearGradient id="paint0_linear_20_2" x1="618.5" y1="144" x2="618.5" y2="740.5" gradientUnits="userSpaceOnUse">
<stop stop-color="#DBDAAF"/>
<stop offset="1" stop-color="#ECECC2" stop-opacity="0"/>
</linearGradient>
<linearGradient id="paint1_linear_20_2" x1="626.75" y1="509" x2="626.75" y2="765" gradientUnits="userSpaceOnUse">
<stop stop-color="#CDE39B"/>
<stop offset="1" stop-color="#F1FFFC"/>
</linearGradient>
<clipPath id="clip0_20_2">
<rect width="1253" height="1080" fill="white"/>
</clipPath>
</defs>
</svg>
