<svg width="1253" height="1080" viewBox="0 0 1253 1080" fill="none" xmlns="http://www.w3.org/2000/svg">
<g clip-path="url(#clip0_11_238)">
<ellipse cx="618.5" cy="687" rx="568.5" ry="543" fill="url(#paint0_linear_11_238)"/>
<path d="M1153.28 495.211L1168.67 504.008V751.055H66L53.5 711.5L51.5 662.5C64.9397 656.88 109.672 629.071 113.778 627.898C118.909 626.432 124.774 589.778 126.24 583.913C127.413 579.222 125.751 564.365 124.774 557.523C125.995 555.323 129.026 550.632 131.371 549.459C133.717 548.286 130.394 501.076 128.439 477.617L136.503 465.155L144.567 470.287L148.965 477.617L154.829 484.948C153.119 486.659 149.551 490.813 148.965 493.745C148.232 497.411 153.363 570.718 154.829 572.184C156.002 573.357 161.671 582.447 164.359 586.846L167.292 407.975C173.889 405.532 186.645 399.911 184.885 396.979C183.126 394.047 189.039 383.539 192.216 378.652H205.411C209.81 378.652 212.742 375.72 217.141 375.72C220.659 375.72 230.825 381.096 235.467 383.784V391.115C235.467 395.22 239.377 410.419 241.332 417.505L243.531 411.641V400.645L255.994 404.31C256.971 414.329 259.072 434.952 259.659 437.298C260.245 439.644 269.189 443.163 273.587 444.629V505.474L286.05 527.467V580.248C286.05 584.353 299.245 612.748 305.843 626.432C307.798 626.432 313.173 627.311 319.038 630.83C326.369 635.229 328.568 636.695 330.767 638.161C332.966 639.627 345.429 646.225 346.895 646.225C348.361 646.225 354.226 642.559 355.692 641.826C357.158 641.093 360.823 596.376 360.823 595.643C360.823 595.056 364.244 593.932 365.955 593.443L366.688 570.718L376.218 575.117V590.511L378.417 592.71C378.906 602.729 379.883 623.5 379.883 626.432C379.883 630.097 383.549 633.029 385.015 633.029C386.188 633.029 385.504 597.842 385.015 580.248L390.146 572.184V532.598C394.545 530.155 403.782 525.267 405.541 525.267C407.3 525.267 418.003 530.155 423.134 532.598C422.157 534.797 420.788 539.636 423.134 541.395C425.48 543.154 427.044 587.09 427.533 608.838L437.796 644.759L450.258 641.826C450.258 645.003 450.698 651.65 452.457 652.823C454.656 654.289 480.314 660.886 484.713 663.819C489.111 666.751 514.036 670.416 516.968 672.616C519.314 674.375 530.652 682.146 536.028 685.811L547.024 676.281C553.377 676.77 566.67 677.161 569.016 674.815C571.362 672.469 576.347 656.732 578.547 649.157C578.058 642.315 577.374 628.778 578.547 629.364C579.72 629.951 583.923 626.187 585.878 624.233V615.436L591.742 613.236C592.231 610.793 593.208 605.466 593.208 603.706C593.208 601.507 593.941 591.977 596.141 589.778C597.9 588.019 605.67 586.601 609.336 586.113L610.802 608.838L616.667 624.233L619.599 663.819C624.242 667.24 634.554 674.815 638.659 677.747C642.764 680.679 687.775 700.961 709.767 710.735L738.357 706.337H794.804L833.657 694.608C838.788 691.676 849.638 685.224 851.984 682.879C854.33 680.533 852.961 657.954 851.984 646.958L882.04 623.499C882.529 617.146 883.653 603.853 884.239 601.507C884.972 598.575 895.235 600.041 900.367 600.041C904.472 600.041 912.829 585.38 916.494 578.049L935.554 579.515C936.532 587.579 938.633 604.146 939.22 605.906C939.806 607.665 948.75 612.992 953.148 615.436L956.081 646.958C960.723 647.447 970.449 648.717 972.208 649.89C973.968 651.063 975.385 657.71 975.874 660.886L979.539 659.42L984.671 633.029L1002.26 620.567V608.105L1012.53 600.041V572.917H1033.79V594.176L1044.05 608.105V622.033L1046.98 620.567L1055.78 588.312L1082.9 583.18V532.598L1101.23 515.737L1108.56 468.088H1136.42L1153.28 495.211Z" fill="url(#paint1_linear_11_238)"/>
<path d="M1109.98 642.174C1117.61 639.598 1149.92 695.853 1168.5 698V765.5L65.3945 769.382L57 721.5L68 669C68.5 666.5 93.7099 656.827 104.273 663.912C114.836 670.997 151.221 666.864 168.093 663.912C174.45 665.522 189.806 670.514 200.37 677.599C213.574 686.455 266.39 658.276 294.999 655.056C317.886 652.479 362.242 659.886 381.559 663.912C387.672 669.011 401.365 680.497 407.233 685.65C414.569 692.091 492.326 720.27 498.928 729.931C505.531 739.592 569.35 705.778 605.295 705.778C634.05 705.778 656.399 712.219 663.979 715.439C669.848 717.586 683.639 721.558 691.855 720.27C702.125 718.66 736.602 729.931 740.27 729.931C743.938 729.931 774.013 721.88 786.484 715.439C796.46 710.286 921.214 684.845 982.344 672.768C986.99 664.985 998.043 649.42 1005.08 649.42C1012.13 649.42 1045.19 636.538 1060.84 630.097L1075.51 645.394C1083.82 645.394 1102.35 644.75 1109.98 642.174Z" fill="url(#paint2_linear_11_238)"/>
<path d="M1143.74 714.043C1149.02 715.609 1151.28 743.238 1163.5 746.5L1187 808H50.5L72 707C82.5 699.5 90.6181 692.335 98.1957 695.447C110.5 700.5 126.791 687.617 136.322 687.617C143.947 687.617 259.744 727.418 316.69 747.319H340.885L373.146 761.021C384.144 775.05 411.566 803.106 433.269 803.106C460.397 803.106 505.856 787.447 509.522 782.553C512.455 778.638 520.031 775.702 523.453 774.723C529.318 776.028 544.275 779.421 557.18 782.553C570.084 785.685 579.665 787.121 582.842 787.447L622.435 793.319C629.034 794.298 659.828 789.404 687.69 787.447C709.979 785.881 781.539 746.34 814.534 726.766L824.065 733.617C832.375 732.965 850.754 732.638 857.792 736.553C866.591 741.447 862.925 743.404 895.186 749.277C927.447 755.149 915.715 755.149 923.047 759.064C930.379 762.979 957.508 764.936 970.706 759.064C981.264 754.366 993.19 752.539 997.834 752.213C1001.26 753.518 1010.15 755.932 1018.36 755.149C1028.63 754.17 1044.03 745.362 1046.23 743.404C1048.42 741.447 1055.76 740.468 1066.02 736.553C1076.29 732.638 1092.42 722.851 1104.15 717.958C1115.88 713.064 1137.14 712.085 1143.74 714.043Z" fill="#D3D2AC"/>
<path d="M1164.78 701.7C1157.24 705.64 1153.03 706.744 1145.48 711.788C1142.41 713.835 1141.14 714.775 1140.72 715.168L1141.28 715.151C1141.28 715.151 1140.1 715.745 1140.72 715.168L1113.59 715.992C1109.56 711.35 1106.66 709.135 1101 705.903L1116.94 714.311C1112.81 705.619 1109.33 701.195 1101.84 694.133L1121.14 710.107C1119.4 697.642 1117.23 690.826 1111.91 679L1125.34 705.063L1131.21 679L1132.05 705.063L1150.51 689.929C1143.19 697.332 1139.79 701.933 1135.41 710.948L1164.78 701.7Z" fill="#D3D2AC"/>
<path d="M1108.28 571.858C1108.28 569.307 1104.78 567.653 1101.9 568.031C1098.54 568.473 1097.31 572.496 1096.8 575.047C1096.16 578.236 1098.79 622.279 1099.35 626.709C1099.99 631.811 1105.72 640.74 1109.55 643.291C1112.61 645.332 1120.61 645.417 1124.22 645.205V634.362H1116.57C1113.38 634.362 1112.74 633.724 1110.83 629.898C1108.91 626.071 1108.28 575.047 1108.28 571.858Z" fill="#D3D2AC"/>
<path d="M1148.46 601.251C1148.46 598.699 1151.96 597.046 1154.84 597.424C1158.19 597.865 1159.43 601.888 1159.94 604.44C1160.58 607.629 1157.94 651.671 1157.39 656.101C1156.75 661.203 1151.01 670.133 1147.18 672.684C1144.12 674.725 1136.13 674.81 1132.51 674.597V663.755H1140.17C1143.36 663.755 1143.99 663.117 1145.91 659.29C1147.82 655.463 1148.46 604.44 1148.46 601.251Z" fill="#D3D2AC"/>
<path d="M1118.7 563.213C1118.58 558.16 1122.64 554 1127.7 554H1129.68C1134.73 554 1138.79 558.16 1138.67 563.213L1135.21 709.624C1135.13 713.169 1132.23 716 1128.69 716V716V716C1125.14 716 1122.24 713.169 1122.16 709.624L1118.7 563.213Z" fill="#D3D2AC"/>
<path d="M947.376 540.141H684C684 540.141 699.586 514.45 716.293 510.588C731.19 507.145 754.457 519.329 754.457 519.329C754.457 519.329 772.971 491.418 791.364 482.7C832.257 463.317 898.727 526.405 898.727 526.405C898.727 526.405 913.547 520.067 923.052 521.826C934.773 523.996 947.376 540.141 947.376 540.141Z" fill="white"/>
<path d="M241 476H421C421 476 410.348 458.352 398.93 455.699C388.749 453.334 372.847 461.703 372.847 461.703C372.847 461.703 360.195 442.53 347.624 436.542C319.676 423.227 274.248 466.564 274.248 466.564C274.248 466.564 264.12 462.21 257.624 463.419C249.613 464.91 241 476 241 476Z" fill="white"/>
<path d="M590 395H684C684 395 678.437 385.756 672.475 384.366C667.158 383.127 658.854 387.511 658.854 387.511C658.854 387.511 652.246 377.468 645.682 374.331C631.086 367.357 607.363 390.057 607.363 390.057C607.363 390.057 602.171 390.825 598.878 391.857C594.7 393.167 590 395 590 395Z" fill="white"/>
<path d="M607 743.795C601.091 746.884 597.789 747.75 591.868 751.705C589.466 753.309 588.472 754.046 588.138 754.354L588.579 754.341C588.579 754.341 587.65 754.806 588.138 754.354L566.868 755C563.71 751.361 561.433 749.625 557 747.091L569.5 753.682C566.256 746.868 563.534 743.4 557.658 737.864L572.789 750.386C571.421 740.614 569.726 735.271 565.553 726L576.079 746.432L580.684 726L581.342 746.432L595.816 734.568C590.079 740.371 587.411 743.978 583.974 751.045L607 743.795Z" fill="#D3D2AC"/>
<path d="M563.078 646C563.078 644 560.335 642.703 558.078 643C555.444 643.346 554.478 646.5 554.078 648.5C553.578 651 555.643 685.527 556.078 689C556.578 693 561.078 700 564.078 702C566.478 703.6 572.744 703.667 575.578 703.5V695H569.578C567.078 695 566.578 694.5 565.078 691.5C563.578 688.5 563.078 648.5 563.078 646Z" fill="#D3D2AC"/>
<path d="M594.578 669.042C594.578 667.042 597.32 665.746 599.578 666.042C602.211 666.388 603.178 669.542 603.578 671.542C604.078 674.042 602.012 708.569 601.578 712.042C601.077 716.042 596.578 723.042 593.578 725.042C591.178 726.642 584.911 726.709 582.078 726.542V718.042H588.078C590.578 718.042 591.077 717.542 592.577 714.542C594.077 711.542 594.578 671.542 594.578 669.042Z" fill="#D3D2AC"/>
<path d="M571.267 639.998C571.163 635.612 574.691 632 579.078 632V632C583.466 632 586.993 635.612 586.889 639.998L584.196 754.001C584.131 756.781 581.858 759 579.078 759V759V759C576.298 759 574.026 756.781 573.96 754.001L571.267 639.998Z" fill="#D3D2AC"/>
<ellipse cx="884.5" cy="824.5" rx="30.5" ry="4.5" fill="#BCD389"/>
<path d="M185.078 600C185.078 598 182.335 596.703 180.078 597C177.444 597.346 176.478 600.5 176.078 602.5C175.578 605 177.643 639.527 178.078 643C178.578 647 183.078 654 186.078 656C188.478 657.6 194.744 657.667 197.578 657.5V649H191.578C189.078 649 188.578 648.5 187.078 645.5C185.578 642.5 185.078 602.5 185.078 600Z" fill="#D3D2AC"/>
<path d="M216.578 623.042C216.578 621.042 219.32 619.746 221.578 620.042C224.211 620.388 225.178 623.542 225.578 625.542C226.078 628.042 224.012 662.569 223.578 666.042C223.077 670.042 218.578 677.042 215.578 679.042C213.178 680.642 206.911 680.709 204.078 680.542V672.042H210.078C212.578 672.042 213.077 671.542 214.577 668.542C216.077 665.542 216.578 625.542 216.578 623.042Z" fill="#D3D2AC"/>
<path d="M193.267 593.998C193.163 589.612 196.691 586 201.078 586V586C205.466 586 208.993 589.612 208.889 593.998L206.196 708.001C206.131 710.781 203.858 713 201.078 713V713V713C198.298 713 196.026 710.781 195.96 708.001L193.267 593.998Z" fill="#D3D2AC"/>
<path d="M266 722.5C261.706 725.47 259.429 727.318 256.5 731L254 732.5L243 721.5L252 700C249.03 708.618 247.869 713.761 246.5 723.5L262.5 692C256.673 704.561 253.719 711.677 249 724.5L262.5 704.5C257.413 712.942 254.92 718.075 252 728L271.5 709C264.1 717.183 259.632 721.742 253.5 730L266 722.5Z" fill="#D3D2AC"/>
<path d="M223 706.5C218.706 709.47 216.429 711.318 213.5 715L211 716.5L200 705.5L209 684C206.03 692.618 204.869 697.761 203.5 707.5L219.5 676C213.673 688.561 210.719 695.677 206 708.5L219.5 688.5C214.413 696.942 211.92 702.075 209 712L228.5 693C221.1 701.183 216.632 705.742 210.5 714L223 706.5Z" fill="#D3D2AC"/>
<path d="M225.275 714.661C227.533 717.784 228.664 719.631 229.798 722.919L231.169 724.577L241.513 719.569L240.524 702.346C240.477 709.094 240.024 712.972 238.589 720.114L235.183 694.194C236.157 704.395 236.467 710.089 236.606 720.203L232.12 702.932C233.588 710.073 234.063 714.269 233.662 721.919L224.759 703.884C227.899 711.407 229.889 715.683 232.129 722.951L225.275 714.661Z" fill="#D3D2AC"/>
<path d="M182.275 698.661C184.533 701.784 185.664 703.631 186.798 706.919L188.169 708.577L198.513 703.569L197.524 686.346C197.477 693.094 197.024 696.972 195.589 704.114L192.183 678.194C193.157 688.395 193.467 694.089 193.606 704.203L189.12 686.932C190.588 694.073 191.063 698.269 190.662 705.919L181.759 687.884C184.899 695.407 186.889 699.683 189.129 706.951L182.275 698.661Z" fill="#D3D2AC"/>
<path d="M653 737C653 737 647.667 744.27 644.5 749C643.174 750.981 642 754.5 642 754.5H622C621.4 750.552 620.475 748.464 618 745L625 751.5C624.542 744.252 623.924 740.205 622 733L627 748C627 748 627.275 740.069 627 735C626.713 729.703 625.5 721.5 625.5 721.5L630 749.5C630 749.5 630.508 741.885 630.5 737C630.492 732.31 630 725 630 725L631.5 740.5C631.5 740.5 633.207 732.915 634 728C634.752 723.337 635.5 716 635.5 716L633.5 737L641 716C641 716 638.055 725.392 636.5 731.5C634.923 737.699 633 747.5 633 747.5L643 727.5C643 727.5 639.553 734.43 637.638 739C635.626 743.802 633 751.5 633 751.5L652 727.5C652 727.5 646.905 734.364 644 739C641.03 743.741 637 751.5 637 751.5L653 737Z" fill="#D3D2AC"/>
<path d="M254.296 649.597C254.296 648.226 256.176 647.337 257.723 647.54C259.529 647.777 260.191 649.939 260.465 651.31C260.808 653.024 259.392 676.692 259.094 679.072C258.751 681.814 255.667 686.613 253.611 687.984C251.965 689.08 247.67 689.126 245.728 689.012V683.185H249.84C251.554 683.185 251.896 682.843 252.925 680.786C253.953 678.73 254.296 651.31 254.296 649.597Z" fill="#D3D2AC"/>
<path d="M232.703 665.392C232.703 664.021 230.824 663.132 229.276 663.335C227.471 663.572 226.808 665.734 226.534 667.105C226.191 668.819 227.607 692.487 227.905 694.867C228.248 697.609 231.332 702.408 233.389 703.779C235.034 704.875 239.33 704.921 241.272 704.807V698.98H237.159C235.445 698.98 235.103 698.638 234.075 696.581C233.047 694.525 232.703 667.105 232.703 665.392Z" fill="#D3D2AC"/>
<path d="M248.683 645.482C248.754 642.476 246.336 640 243.328 640V640C240.321 640 237.903 642.476 237.974 645.482L239.82 723.63C239.865 725.535 241.422 727.056 243.328 727.056V727.056V727.056C245.234 727.056 246.792 725.535 246.837 723.63L248.683 645.482Z" fill="#D3D2AC"/>
<ellipse cx="618.5" cy="807.5" rx="568.5" ry="53.5" fill="#CCE59D"/>
<ellipse cx="467.5" cy="803.5" rx="30.5" ry="4.5" fill="#9EB768"/>
<ellipse cx="714" cy="798.5" rx="16" ry="2.5" fill="#9EB768"/>
</g>
<defs>
<linearGradient id="paint0_linear_11_238" x1="618.5" y1="144" x2="618.5" y2="740.5" gradientUnits="userSpaceOnUse">
<stop stop-color="#DBDAAF"/>
<stop offset="1" stop-color="#ECECC2" stop-opacity="0"/>
</linearGradient>
<linearGradient id="paint1_linear_11_238" x1="609.336" y1="375.72" x2="609.336" y2="751.055" gradientUnits="userSpaceOnUse">
<stop offset="0.466356" stop-color="#DDDCB2"/>
<stop offset="1" stop-color="#FBFBF3"/>
</linearGradient>
<linearGradient id="paint2_linear_11_238" x1="620.332" y1="630.097" x2="620.332" y2="769.382" gradientUnits="userSpaceOnUse">
<stop stop-color="#D9D7A0"/>
<stop offset="1" stop-color="#FBFBF2"/>
</linearGradient>
<clipPath id="clip0_11_238">
<rect width="1253" height="1080" fill="white"/>
</clipPath>
</defs>
</svg>
