<svg width="1253" height="1080" viewBox="0 0 1253 1080" fill="none" xmlns="http://www.w3.org/2000/svg">
<g clip-path="url(#clip0_14_35)">
<ellipse cx="618.5" cy="687" rx="568.5" ry="543" fill="url(#paint0_linear_14_35)"/>
<path d="M1117.38 588.141H854C854 588.141 869.586 562.45 886.293 558.588C901.19 555.145 924.457 567.329 924.457 567.329C924.457 567.329 942.971 539.418 961.364 530.7C1002.26 511.317 1068.73 574.405 1068.73 574.405C1068.73 574.405 1083.55 568.067 1093.05 569.826C1104.77 571.996 1117.38 588.141 1117.38 588.141Z" fill="white"/>
<path d="M241 476H421C421 476 410.348 458.352 398.93 455.699C388.749 453.334 372.847 461.703 372.847 461.703C372.847 461.703 360.195 442.53 347.624 436.542C319.676 423.227 274.248 466.564 274.248 466.564C274.248 466.564 264.12 462.21 257.624 463.419C249.613 464.91 241 476 241 476Z" fill="white"/>
<path d="M590 395H684C684 395 678.437 385.756 672.475 384.366C667.158 383.127 658.854 387.511 658.854 387.511C658.854 387.511 652.246 377.468 645.682 374.331C631.086 367.357 607.363 390.057 607.363 390.057C607.363 390.057 602.171 390.825 598.878 391.857C594.7 393.167 590 395 590 395Z" fill="white"/>
<ellipse cx="884.5" cy="824.5" rx="30.5" ry="4.5" fill="#BCD389"/>
<path d="M808.504 493.432C963.08 484.653 1187 612.504 1187 612.504V756H50V691.885C50 691.885 222.271 541.573 349.37 557.039C409.177 564.317 493.511 612.504 493.511 612.504C493.511 612.504 677.36 500.881 808.504 493.432Z" fill="url(#paint1_linear_14_35)"/>
<path d="M509.554 658.264C509.554 682.71 500.251 702.527 488.777 702.527C477.302 702.527 468 682.71 468 658.264C468 633.817 481.55 614 488.777 614C496.907 614 509.554 633.817 509.554 658.264Z" fill="url(#paint2_linear_14_35)"/>
<rect x="488.167" y="635.68" width="3.61335" height="79.4938" fill="#357765"/>
<path d="M479.133 679.727L481.749 677.234L489.973 686.267L489.973 691.687L479.133 679.727Z" fill="#357765"/>
<path d="M498.913 664.502L496.297 662.009L490.123 668.891L490.782 673.621L498.913 664.502Z" fill="#357765"/>
<path d="M482.032 648.134L484.648 645.641L490.9 652.605L490.266 657.36L482.032 648.134Z" fill="#357765"/>
<path d="M1142.19 604.235C1142.19 631.427 1133.29 653.47 1122.31 653.47C1111.33 653.47 1102.43 631.427 1102.43 604.235C1102.43 577.043 1111.33 555 1122.31 555C1133.29 555 1142.19 577.043 1142.19 604.235Z" fill="url(#paint3_linear_14_35)"/>
<path d="M1085.09 663.996C1101.82 687.863 1123.82 682.401 1131.95 672.885C1140.08 663.37 1133.11 636.308 1116.38 612.44C1099.65 588.573 1079.5 576.939 1071.36 586.455C1063.23 595.971 1068.35 640.129 1085.09 663.996Z" fill="url(#paint4_linear_14_35)"/>
<path d="M1155.87 663.996C1139.14 687.863 1117.13 682.401 1109 672.885C1100.87 663.37 1107.84 636.308 1124.57 612.44C1141.3 588.573 1161.46 576.939 1169.59 586.455C1177.72 595.971 1172.6 640.129 1155.87 663.996Z" fill="url(#paint5_linear_14_35)"/>
<path d="M1072.6 713.611C1096.1 731.362 1127.01 727.3 1138.43 720.223C1149.85 713.145 1140.06 693.018 1116.56 675.267C1093.06 657.515 1064.75 648.862 1053.32 655.94C1041.9 663.017 1049.1 695.86 1072.6 713.611Z" fill="url(#paint6_linear_14_35)"/>
<path d="M1172.02 713.611C1148.52 731.362 1117.62 727.3 1106.19 720.223C1094.77 713.145 1104.56 693.018 1128.06 675.267C1151.56 657.515 1179.87 648.862 1191.3 655.94C1202.72 663.017 1195.52 695.86 1172.02 713.611Z" fill="url(#paint7_linear_14_35)"/>
<rect x="1120.78" y="581.911" width="3.05808" height="201.833" rx="1.52904" fill="#155A45"/>
<path d="M1150.86 666.21C1151.54 665.71 1152.49 665.856 1152.99 666.537V666.537C1153.49 667.217 1153.35 668.174 1152.67 668.674L1122.59 690.784L1120.78 688.321L1150.86 666.21Z" fill="#155A45"/>
<path d="M1146.51 614.362C1147.19 613.861 1148.14 614.007 1148.64 614.688V614.688C1149.14 615.368 1149 616.325 1148.32 616.825L1122.59 635.739L1120.78 633.275L1146.51 614.362Z" fill="#155A45"/>
<path d="M1085.29 678.229C1084.61 677.729 1083.66 677.875 1083.16 678.555V678.555C1082.66 679.235 1082.8 680.192 1083.48 680.693L1122.16 709.133L1123.98 706.669L1085.29 678.229Z" fill="#155A45"/>
<path d="M1094.9 636.366C1094.22 635.866 1093.27 636.012 1092.77 636.692V636.692C1092.27 637.372 1092.41 638.329 1093.09 638.83L1122.16 660.204L1123.98 657.74L1094.9 636.366Z" fill="#155A45"/>
<ellipse cx="618.5" cy="807.5" rx="568.5" ry="53.5" fill="#CCE59D"/>
<ellipse cx="965.5" cy="828.5" rx="18.5" ry="2.5" fill="#C0D988"/>
<ellipse cx="467.5" cy="803.5" rx="30.5" ry="4.5" fill="#9EB768"/>
<path d="M939.526 629.624L940.266 748.369L929.906 750.456C929.906 750.456 925.604 707.866 925.715 689.688C925.896 660.013 939.526 629.624 939.526 629.624Z" fill="url(#paint8_linear_14_35)"/>
<path d="M968.499 687.974C974.871 668.808 982.446 638.171 982.446 638.171C982.446 638.171 962.68 666.592 953.255 686.54C942.979 708.286 933.26 744.793 933.26 744.793L942.016 753.116C942.016 753.116 959.836 714.033 968.499 687.974Z" fill="url(#paint9_linear_14_35)"/>
<path d="M952.781 747.044C969.956 713.196 978.988 695.466 994.789 666.393C994.789 666.393 975.95 685.552 965.606 699.245C955.486 712.643 942.432 735.461 942.432 735.461L952.781 747.044Z" fill="url(#paint10_linear_14_35)"/>
<path d="M997.874 677.327C987.821 683.536 967.578 696.665 967.578 696.665C967.578 696.665 983.264 678.205 993.228 666.833L1041.48 665.704C1041.48 665.704 1007.93 671.119 997.874 677.327Z" fill="url(#paint11_linear_14_35)"/>
<path d="M952.472 752.169C978.208 735.424 991.713 726.667 1014.55 712.709C1014.55 712.709 993.601 718.494 980.812 723.893C968.299 729.176 949.917 739.867 949.917 739.867L952.472 752.169Z" fill="url(#paint12_linear_14_35)"/>
<path d="M1012.28 721.615C1002.73 721.89 983.238 722.885 983.238 722.885C983.238 722.885 1001.7 716.312 1013.28 712.385L1047.52 731.135C1047.52 731.135 1021.84 721.339 1012.28 721.615Z" fill="url(#paint13_linear_14_35)"/>
<path d="M944.288 753.562C926.536 728.51 917.209 715.393 901.123 693.999C901.123 693.999 918.467 707.099 928.365 716.831C938.05 726.354 951.198 743.068 951.198 743.068L944.288 753.562Z" fill="url(#paint14_linear_14_35)"/>
<path d="M899.948 703.113C908.728 706.891 926.482 715 926.482 715C926.482 715 911.743 702.086 902.424 694.166L863.681 698.975C863.681 698.975 891.168 699.336 899.948 703.113Z" fill="url(#paint15_linear_14_35)"/>
<path d="M817.536 672.88C824.493 645.042 827.971 631.122 834.999 631.122C842.027 631.122 845.505 645.042 852.462 672.88L854.525 681.136C857.098 691.431 858.384 696.578 855.681 700.039C852.979 703.5 847.673 703.5 837.062 703.5L832.936 703.5C822.325 703.5 817.019 703.5 814.317 700.039C811.614 696.578 812.9 691.431 815.473 681.136L817.536 672.88Z" fill="url(#paint16_linear_14_35)"/>
<rect x="833.166" y="641.68" width="3.61335" height="79.4938" fill="#9B341F"/>
<path d="M824.132 685.727L826.748 683.234L834.972 692.267L834.972 697.687L824.132 685.727Z" fill="#9B341F"/>
<path d="M843.912 670.502L841.296 668.009L835.122 674.891L835.781 679.62L843.912 670.502Z" fill="#9B341F"/>
<path d="M827.031 654.134L829.647 651.641L835.899 658.605L835.265 663.36L827.031 654.134Z" fill="#9B341F"/>
<path d="M712.836 524.881C719.792 497.042 723.271 483.122 730.299 483.122C737.326 483.122 740.805 497.042 747.761 524.88L776.064 638.136C778.636 648.431 779.923 653.578 777.22 657.039C774.518 660.5 769.212 660.5 758.601 660.5L701.996 660.5C691.385 660.5 686.079 660.5 683.377 657.039C680.674 653.578 681.961 648.431 684.533 638.136L712.836 524.881Z" fill="url(#paint17_linear_14_35)"/>
<rect x="726.551" y="534.092" width="7.3885" height="162.547" fill="#1CAD81"/>
<path d="M708.078 624.157L713.426 619.06L730.243 637.531L730.243 648.614L708.078 624.157Z" fill="#1CAD81"/>
<path d="M748.524 593.027L743.175 587.929L730.551 602.002L731.898 611.672L748.524 593.027Z" fill="#1CAD81"/>
<path d="M714.007 559.558L719.355 554.461L732.138 568.7L730.842 578.424L714.007 559.558Z" fill="#1CAD81"/>
<path d="M435.046 681.33C428.454 692.65 424.875 713.296 424.875 713.296C424.875 713.296 426.178 696.832 424.875 686.416C423.15 672.609 414.704 652.27 414.704 652.27C421.292 681.31 419.532 697.692 407.439 727.1L448.123 722.741C452.893 708.853 456.988 702.19 467.012 692.228C467.012 692.228 456.011 697.322 450.303 702.399C444.409 707.641 437.952 718.382 437.952 718.382L459.021 655.903C459.021 655.903 441.915 669.536 435.046 681.33Z" fill="url(#paint18_linear_14_35)"/>
<path d="M245.518 724.003C250.181 732.136 252.712 746.969 252.712 746.969C252.712 746.969 251.791 735.141 252.712 727.657C253.933 717.738 259.906 703.125 259.906 703.125C255.247 723.989 256.492 735.758 265.045 756.886L236.268 753.754C232.895 743.777 229.999 738.99 222.908 731.832C222.908 731.832 230.689 735.493 234.727 739.14C238.896 742.906 243.463 750.623 243.463 750.623L228.56 705.735C228.56 705.735 240.66 715.53 245.518 724.003Z" fill="url(#paint19_linear_14_35)"/>
<path d="M210.249 579.86C260.579 565.086 158.469 434 158.469 434C158.469 434 52.3766 593.333 108.759 595.929C121.917 596.535 141.899 588.513 141.899 588.513C141.899 588.513 58.3788 682.966 96.3322 702.234C120.359 714.432 160.54 679.984 160.54 679.984C160.54 679.984 206.877 706.972 228.89 688.637C262.295 660.812 178.145 579.86 178.145 579.86C178.145 579.86 198.074 583.434 210.249 579.86Z" fill="url(#paint20_linear_14_35)"/>
<rect x="159.107" y="500.061" width="4.95455" height="260.939" fill="#1CAD81"/>
<rect x="135.271" y="647.905" width="4.51734" height="34.5493" transform="rotate(-45.9455 135.271 647.905)" fill="#1CAD81"/>
<rect x="136.067" y="558.642" width="5.07441" height="32.5577" transform="rotate(-46.6967 136.067 558.642)" fill="#1CAD81"/>
<rect width="4.94067" height="26.1119" transform="matrix(-0.685861 -0.727733 -0.727733 0.685861 181.313 539.245)" fill="#1CAD81"/>
<rect width="4.94067" height="36.3893" transform="matrix(-0.493313 -0.869852 -0.869852 0.493313 195.483 623.573)" fill="#1CAD81"/>
<path d="M219.554 698.264C219.554 722.71 210.251 742.527 198.777 742.527C187.302 742.527 178 722.71 178 698.264C178 673.817 191.55 654 198.777 654C206.907 654 219.554 673.817 219.554 698.264Z" fill="url(#paint21_linear_14_35)"/>
<rect x="198.167" y="675.68" width="3.61335" height="79.4938" fill="#357765"/>
<path d="M189.133 719.727L191.749 717.234L199.973 726.267L199.973 731.687L189.133 719.727Z" fill="#357765"/>
<path d="M208.913 704.502L206.297 702.009L200.123 708.891L200.782 713.621L208.913 704.502Z" fill="#357765"/>
<path d="M192.032 688.134L194.648 685.641L200.9 692.605L200.266 697.36L192.032 688.134Z" fill="#357765"/>
<path d="M381.858 605.549C413.103 596.377 349.713 515 349.713 515C349.713 515 283.852 613.913 318.854 615.525C327.022 615.901 339.427 610.921 339.427 610.921C339.427 610.921 287.578 669.557 311.14 681.518C326.055 689.091 350.999 667.706 350.999 667.706C350.999 667.706 379.766 684.46 393.431 673.077C414.169 655.804 361.929 605.549 361.929 605.549C361.929 605.549 374.301 607.768 381.858 605.549Z" fill="url(#paint22_linear_14_35)"/>
<rect x="350.11" y="556.01" width="3.07576" height="161.99" fill="#1CAD81"/>
<rect x="335.312" y="647.791" width="2.80434" height="21.4481" transform="rotate(-45.9455 335.312 647.791)" fill="#1CAD81"/>
<rect x="335.807" y="592.377" width="3.15017" height="20.2117" transform="rotate(-46.6967 335.807 592.377)" fill="#1CAD81"/>
<rect width="3.06714" height="16.2101" transform="matrix(-0.685861 -0.727733 -0.727733 0.685861 363.896 580.336)" fill="#1CAD81"/>
<rect width="3.06714" height="22.5903" transform="matrix(-0.493313 -0.869852 -0.869852 0.493313 372.692 632.686)" fill="#1CAD81"/>
<path d="M412.524 708.672L427.054 726.835L244.702 758.801C244.702 758.801 246.977 738.857 251.967 729.014C258.539 716.052 276.668 702.86 276.668 702.86L298.463 729.014L286.113 700.681C286.113 700.681 300.118 690.264 310.087 686.151C322.447 681.051 343.506 678.159 343.506 678.159V704.313L356.583 678.159L371.84 683.971L348.592 723.929L384.917 686.151L409.618 698.501L395.088 716.664L412.524 708.672Z" fill="url(#paint23_linear_14_35)"/>
<path d="M1182.43 785.852H1187V808.019L50 815.999V782.306H62.1849L67.5157 765.459L74.3697 778.759L82.7468 769.006L85.0315 758.366L94.1701 769.006L103.309 756.593L106.355 765.459L109.401 758.366L111.686 765.459L117.017 749.499L128.44 758.366V753.933L142.91 761.913V752.159L149.002 758.366L155.094 749.499L160.425 758.366L167.279 749.499L168.802 756.593L174.133 745.066L182.51 756.593L195.457 749.499V756.593L198.503 749.499L200.788 756.593L206.119 743.293L219.065 752.159V746.839L229.727 753.933L232.773 746.839L236.581 752.159L244.958 745.066L249.527 756.593L257.904 749.499L260.95 741.519L267.804 752.159L279.989 743.293L283.036 749.499L287.605 743.293V746.839L290.651 734.426L298.267 741.519H305.121L302.836 736.199L314.259 741.519H324.921L329.49 731.766L334.821 738.859L343.198 734.426L349.291 725.56L356.906 736.199L366.045 727.333V736.199L372.899 727.333L376.707 731.766L379.753 719.353L386.607 727.333V725.56L391.176 723.786L398.792 729.106L401.076 725.56H409.453L417.069 719.353L421.638 727.333L429.254 721.126L435.346 709.6L438.393 721.126H444.485L452.1 716.693L453.624 725.56L458.193 716.693L461.239 717.58L465.047 707.826L474.186 714.92L471.901 707.826L490.94 711.373L497.032 712.26L503.886 704.28L508.455 712.26L516.071 706.053L519.117 696.3L528.256 707.826L540.441 699.847L541.964 707.826L545.772 699.847L547.295 704.28L553.387 690.98L561.764 699.847L560.241 692.753L577.757 701.62L581.565 694.527L585.372 699.847L588.419 691.867L594.511 701.62L597.557 697.187L603.65 696.3L608.219 686.547L617.358 695.413L627.258 687.433V696.3L636.397 684.773L635.635 694.527L642.489 683L650.866 690.093H655.435V684.773L665.336 692.753L666.859 687.433L672.19 696.3L679.044 687.433L682.851 694.527L693.513 684.773V690.093L700.367 683.887L704.936 694.527L720.167 687.433L718.644 696.3L723.975 690.98V696.3L731.591 683.887L735.399 696.3L739.206 692.753L742.253 697.187L743.014 690.093L751.391 699.847V696.3L757.484 701.62L768.145 696.3L771.953 706.053H781.092L785.661 696.3L790.23 708.713L809.269 706.053V712.26L819.169 703.393V715.806L826.785 712.26L837.447 718.466V712.26L847.347 722.013L854.963 715.806L858.77 722.013L866.386 718.466L870.194 715.806L877.809 728.22L888.471 722.013L891.517 731.766L894.563 728.22L902.94 718.466L906.748 722.013L909.033 731.766H913.602V728.22L919.695 731.766L931.879 737.973L941.78 731.766L944.064 745.066L952.441 741.519L962.342 734.426V745.066L973.003 737.973V748.613L980.619 741.519L982.904 748.613L994.327 741.519V751.273H1003.47L1010.32 754.819H1018.7L1024.79 751.273V764.573H1035.45L1045.35 758.366L1047.64 767.233L1065.91 764.573V773.439L1078.86 758.366V767.233H1086.47L1094.85 773.439V754.819L1107.8 773.439L1117.7 764.573L1113.89 776.099H1124.55L1132.93 773.439L1136.74 782.306L1148.92 776.099V782.306L1151.21 779.646L1154.25 785.852L1162.63 773.439L1167.2 779.646H1171.01L1173.29 785.852L1176.34 779.646L1182.43 785.852Z" fill="url(#paint24_linear_14_35)"/>
<mask id="mask0_14_35" style="mask-type:alpha" maskUnits="userSpaceOnUse" x="50" y="683" width="1137" height="133">
<path d="M1182.43 785.852H1187V808.019L50 815.999V782.306H62.1849L67.5157 765.459L74.3697 778.759L82.7468 769.006L85.0315 758.366L94.1701 769.006L103.309 756.593L106.355 765.459L109.401 758.366L111.686 765.459L117.017 749.499L128.44 758.366V753.933L142.91 761.913V752.159L149.002 758.366L155.094 749.499L160.425 758.366L167.279 749.499L168.802 756.593L174.133 745.066L182.51 756.593L195.457 749.499V756.593L198.503 749.499L200.788 756.593L206.119 743.293L219.065 752.159V746.839L229.727 753.933L232.773 746.839L236.581 752.159L244.958 745.066L249.527 756.593L257.904 749.499L260.95 741.519L267.804 752.159L279.989 743.293L283.035 749.499L287.605 743.293V746.839L290.651 734.426L298.267 741.519H305.121L302.836 736.199L314.259 741.519H324.921L329.49 731.766L334.821 738.859L343.198 734.426L349.291 725.56L356.906 736.199L366.045 727.333V736.199L372.899 727.333L376.707 731.766L379.753 719.353L386.607 727.333V725.56L391.176 723.786L398.792 729.106L401.076 725.56H409.453L417.069 719.353L421.638 727.333L429.254 721.126L435.346 709.6L438.392 721.126H444.485L452.1 716.693L453.624 725.56L458.193 716.693L461.239 717.58L465.047 707.826L474.185 714.92L471.901 707.826L490.94 711.373L497.032 712.26L503.886 704.28L508.455 712.26L516.071 706.053L519.117 696.3L528.256 707.826L540.441 699.847L541.964 707.826L545.772 699.847L547.295 704.28L553.387 690.98L561.764 699.847L560.241 692.753L577.757 701.62L581.565 694.527L585.372 699.847L588.419 691.867L594.511 701.62L597.557 697.187L603.65 696.3L608.219 686.547L617.358 695.413L627.258 687.433V696.3L636.396 684.773L635.635 694.527L642.489 683L650.866 690.093H655.435V684.773L665.335 692.753L666.859 687.433L672.19 696.3L679.043 687.433L682.851 694.527L693.513 684.773V690.093L700.367 683.887L704.936 694.527L720.167 687.433L718.644 696.3L723.975 690.98V696.3L731.591 683.887L735.398 696.3L739.206 692.753L742.252 697.187L743.014 690.093L751.391 699.847V696.3L757.484 701.62L768.145 696.3L771.953 706.053H781.092L785.661 696.3L790.23 708.713L809.269 706.053V712.26L819.169 703.393V715.806L826.785 712.26L837.447 718.466V712.26L847.347 722.013L854.962 715.806L858.77 722.013L866.386 718.466L870.193 715.806L877.809 728.22L888.471 722.013L891.517 731.766L894.563 728.22L902.94 718.466L906.748 722.013L909.033 731.766H913.602V728.22L919.694 731.766L931.879 737.973L941.779 731.766L944.064 745.066L952.441 741.519L962.341 734.426V745.066L973.003 737.973V748.613L980.619 741.519L982.903 748.613L994.327 741.519V751.273H1003.47L1010.32 754.819H1018.7L1024.79 751.273V764.573H1035.45L1045.35 758.366L1047.64 767.233L1065.91 764.573V773.439L1078.86 758.366V767.233H1086.47L1094.85 773.439V754.819L1107.8 773.439L1117.7 764.573L1113.89 776.099H1124.55L1132.93 773.439L1136.74 782.306L1148.92 776.099V782.306L1151.21 779.646L1154.25 785.852L1162.63 773.439L1167.2 779.646H1171.01L1173.29 785.852L1176.34 779.646L1182.43 785.852Z" fill="url(#paint25_linear_14_35)"/>
</mask>
<g mask="url(#mask0_14_35)">
<path d="M654.674 803.132L658.482 813.772V819.979H88.0781L97.2168 807.565L98.7399 815.545H123.871L126.917 800.472L133.01 811.999L136.056 804.905L138.341 811.112V804.905L152.049 811.112V803.132L158.903 811.112L164.995 800.472L170.326 811.999L177.941 805.792L184.034 795.152L190.888 805.792L203.073 797.812V806.679L206.881 796.039L209.927 802.245L212.973 788.059L220.589 799.585L222.112 790.719L225.158 797.812L226.681 790.719L236.581 799.585V790.719L244.197 796.039L251.051 786.286L255.62 796.039L266.282 790.719L269.328 780.079L276.944 792.492L289.128 782.739V792.492L293.698 783.626L295.982 790.719L300.552 774.759L308.167 788.059V778.306L312.737 783.626V776.532L325.683 785.399L323.398 778.306L332.537 782.739L338.629 776.532L344.722 783.626L350.814 780.079L359.953 770.326L363.761 780.966L376.707 774.759V782.739L381.276 774.759L383.561 780.079L388.892 765.892L394.223 776.532L398.792 769.439L401.077 776.532V769.439L417.831 784.512L416.308 771.212L427.731 784.512L430.016 774.759L433.062 782.739L448.293 767.666L452.862 780.079L466.57 772.986L463.524 781.852L471.14 774.759V780.079L478.755 767.666L484.086 780.079L488.656 774.759L491.702 781.852V774.759L502.363 785.399L501.602 778.306L509.217 786.286L516.071 778.306L516.833 789.832L527.495 787.172L535.872 780.079L539.68 792.492L552.626 789.832L551.865 796.925L556.434 792.492L560.242 798.699L559.48 792.492L565.572 786.286L571.665 799.585L573.188 796.925L573.95 790.719L585.373 803.132L587.658 796.039L593.75 804.905L603.65 796.039V810.225L615.073 806.679L620.404 799.585L624.974 810.225L642.489 806.679L638.682 816.432L654.674 803.132Z" fill="#BCD389"/>
</g>
<ellipse cx="677.5" cy="829.5" rx="30.5" ry="4.5" fill="#C0D988"/>
<path d="M687.5 816.748C685.619 821.451 681.5 828.248 681.5 828.248L680 827.248C680 827.248 680.5 819.748 683 814.248C683.874 812.325 685.622 810.281 687.5 811.248C689.409 812.232 688.5 814.248 687.5 816.748Z" fill="url(#paint26_linear_14_35)"/>
<path d="M692.032 823.41C690.226 825.726 686.836 828.848 686.836 828.848L686.161 828.05C686.161 828.05 687.647 823.953 689.926 821.292C690.723 820.362 692.026 819.505 692.917 820.346C693.824 821.202 692.992 822.179 692.032 823.41Z" fill="url(#paint27_linear_14_35)"/>
<path d="M672.893 818.665C673.978 822.567 676.659 828.328 676.659 828.328L677.94 827.665C677.94 827.665 678.198 821.662 676.69 817.072C676.164 815.468 674.952 813.69 673.374 814.295C671.769 814.909 672.316 816.591 672.893 818.665Z" fill="url(#paint28_linear_14_35)"/>
<ellipse rx="46.413" ry="6.84783" transform="matrix(-1 0 0 1 305.5 827.152)" fill="#C0D988"/>
<path d="M290.282 807.747C293.145 814.904 299.413 825.247 299.413 825.247L301.695 823.725C301.695 823.725 300.934 812.312 297.13 803.942C295.8 801.017 293.139 797.905 290.282 799.377C287.377 800.874 288.761 803.943 290.282 807.747Z" fill="url(#paint29_linear_14_35)"/>
<path d="M283.386 817.885C286.134 821.41 291.293 826.161 291.293 826.161L292.32 824.945C292.32 824.945 290.059 818.711 286.591 814.662C285.378 813.247 283.394 811.943 282.038 813.223C280.659 814.525 281.925 816.011 283.386 817.885Z" fill="url(#paint30_linear_14_35)"/>
<path d="M312.511 810.664C310.859 816.602 306.779 825.369 306.779 825.369L304.831 824.36C304.831 824.36 304.438 815.224 306.732 808.241C307.534 805.799 309.378 803.094 311.779 804.014C314.221 804.949 313.388 807.508 312.511 810.664Z" fill="url(#paint31_linear_14_35)"/>
<path d="M958.079 815.748C959.96 820.451 964.079 827.248 964.079 827.248L965.579 826.248C965.579 826.248 965.079 818.748 962.579 813.248C961.705 811.325 959.957 809.281 958.079 810.248C956.17 811.232 957.079 813.248 958.079 815.748Z" fill="url(#paint32_linear_14_35)"/>
<path d="M953.547 822.41C955.353 824.726 958.743 827.848 958.743 827.848L959.418 827.05C959.418 827.05 957.932 822.953 955.653 820.292C954.856 819.362 953.553 818.505 952.662 819.346C951.756 820.202 952.587 821.179 953.547 822.41Z" fill="url(#paint33_linear_14_35)"/>
<path d="M972.467 817.665C971.382 821.567 968.701 827.328 968.701 827.328L967.421 826.665C967.421 826.665 967.163 820.662 968.67 816.072C969.197 814.468 970.409 812.69 971.986 813.295C973.591 813.909 973.044 815.591 972.467 817.665Z" fill="url(#paint34_linear_14_35)"/>
<path d="M968 596.5C950.698 648.254 944.132 678.225 938.5 733.5" stroke="#9B341F" stroke-linecap="round"/>
<rect x="958.689" y="603" width="11.5347" height="59" rx="5.76733" transform="rotate(15.4221 958.689 603)" fill="#F68E50"/>
<path d="M907.492 624C921.763 666.688 927.179 691.408 931.824 737" stroke="#9B341F" stroke-linecap="round"/>
<rect width="9.51398" height="48.6642" rx="4.75699" transform="matrix(-0.963993 0.265928 0.265928 0.963993 915.172 629.361)" fill="#F68E50"/>
</g>
<defs>
<linearGradient id="paint0_linear_14_35" x1="618.5" y1="144" x2="618.5" y2="740.5" gradientUnits="userSpaceOnUse">
<stop stop-color="#DBDAAF"/>
<stop offset="1" stop-color="#ECECC2" stop-opacity="0"/>
</linearGradient>
<linearGradient id="paint1_linear_14_35" x1="618.5" y1="493.432" x2="618.5" y2="637.651" gradientUnits="userSpaceOnUse">
<stop stop-color="#DBDAAF"/>
<stop offset="1" stop-color="#ECECC2" stop-opacity="0"/>
</linearGradient>
<linearGradient id="paint2_linear_14_35" x1="477.576" y1="621.588" x2="521.985" y2="680.054" gradientUnits="userSpaceOnUse">
<stop stop-color="#B7E987"/>
<stop offset="1" stop-color="#0AA370"/>
</linearGradient>
<linearGradient id="paint3_linear_14_35" x1="1082.25" y1="569.679" x2="1144.94" y2="722.277" gradientUnits="userSpaceOnUse">
<stop stop-color="#B7E987"/>
<stop offset="1" stop-color="#0AA370"/>
</linearGradient>
<linearGradient id="paint4_linear_14_35" x1="1082.25" y1="569.679" x2="1144.94" y2="722.277" gradientUnits="userSpaceOnUse">
<stop stop-color="#B7E987"/>
<stop offset="1" stop-color="#0AA370"/>
</linearGradient>
<linearGradient id="paint5_linear_14_35" x1="1082.25" y1="569.679" x2="1144.94" y2="722.277" gradientUnits="userSpaceOnUse">
<stop stop-color="#B7E987"/>
<stop offset="1" stop-color="#0AA370"/>
</linearGradient>
<linearGradient id="paint6_linear_14_35" x1="1082.25" y1="569.679" x2="1144.94" y2="722.277" gradientUnits="userSpaceOnUse">
<stop stop-color="#B7E987"/>
<stop offset="1" stop-color="#0AA370"/>
</linearGradient>
<linearGradient id="paint7_linear_14_35" x1="1082.25" y1="569.679" x2="1144.94" y2="722.277" gradientUnits="userSpaceOnUse">
<stop stop-color="#B7E987"/>
<stop offset="1" stop-color="#0AA370"/>
</linearGradient>
<linearGradient id="paint8_linear_14_35" x1="933.916" y1="639.6" x2="979.314" y2="664.531" gradientUnits="userSpaceOnUse">
<stop stop-color="#B7E987"/>
<stop offset="1" stop-color="#0AA370"/>
</linearGradient>
<linearGradient id="paint9_linear_14_35" x1="959.111" y1="644.228" x2="1008.61" y2="692.362" gradientUnits="userSpaceOnUse">
<stop stop-color="#B7E987"/>
<stop offset="1" stop-color="#0AA370"/>
</linearGradient>
<linearGradient id="paint10_linear_14_35" x1="975.896" y1="662.784" x2="959.554" y2="748.338" gradientUnits="userSpaceOnUse">
<stop stop-color="#83C770"/>
<stop offset="1" stop-color="#44905A"/>
</linearGradient>
<linearGradient id="paint11_linear_14_35" x1="1009.04" y1="659.508" x2="1000.87" y2="702.285" gradientUnits="userSpaceOnUse">
<stop stop-color="#236A59"/>
<stop offset="1" stop-color="#64AE61"/>
</linearGradient>
<linearGradient id="paint12_linear_14_35" x1="1002.78" y1="702.53" x2="956.691" y2="755.818" gradientUnits="userSpaceOnUse">
<stop stop-color="#83C770"/>
<stop offset="1" stop-color="#44905A"/>
</linearGradient>
<linearGradient id="paint13_linear_14_35" x1="1027.32" y1="713.658" x2="1004.27" y2="740.302" gradientUnits="userSpaceOnUse">
<stop stop-color="#236A59"/>
<stop offset="1" stop-color="#64AE61"/>
</linearGradient>
<linearGradient id="paint14_linear_14_35" x1="915.814" y1="688.874" x2="939.021" y2="755.4" gradientUnits="userSpaceOnUse">
<stop stop-color="#83C770"/>
<stop offset="1" stop-color="#44905A"/>
</linearGradient>
<linearGradient id="paint15_linear_14_35" x1="888.906" y1="690.176" x2="900.509" y2="723.439" gradientUnits="userSpaceOnUse">
<stop stop-color="#236A59"/>
<stop offset="1" stop-color="#64AE61"/>
</linearGradient>
<linearGradient id="paint16_linear_14_35" x1="834.999" y1="603" x2="834.999" y2="737" gradientUnits="userSpaceOnUse">
<stop stop-color="#FEDC79"/>
<stop offset="1" stop-color="#F26A3D"/>
</linearGradient>
<linearGradient id="paint17_linear_14_35" x1="730.299" y1="455" x2="730.299" y2="729" gradientUnits="userSpaceOnUse">
<stop stop-color="#4A937C"/>
<stop offset="1" stop-color="#15503E"/>
</linearGradient>
<linearGradient id="paint18_linear_14_35" x1="421.168" y1="658.684" x2="450.239" y2="723.597" gradientUnits="userSpaceOnUse">
<stop stop-color="#B7E987"/>
<stop offset="1" stop-color="#0AA370"/>
</linearGradient>
<linearGradient id="paint19_linear_14_35" x1="255.334" y1="707.733" x2="234.232" y2="754.124" gradientUnits="userSpaceOnUse">
<stop stop-color="#B7E987"/>
<stop offset="1" stop-color="#0AA370"/>
</linearGradient>
<linearGradient id="paint20_linear_14_35" x1="121.077" y1="457.216" x2="249.361" y2="656.865" gradientUnits="userSpaceOnUse">
<stop stop-color="#4F9982"/>
<stop offset="1" stop-color="#15503E"/>
</linearGradient>
<linearGradient id="paint21_linear_14_35" x1="187.576" y1="661.588" x2="231.985" y2="720.054" gradientUnits="userSpaceOnUse">
<stop stop-color="#B7E987"/>
<stop offset="1" stop-color="#0AA370"/>
</linearGradient>
<linearGradient id="paint22_linear_14_35" x1="326.501" y1="529.412" x2="406.139" y2="653.354" gradientUnits="userSpaceOnUse">
<stop stop-color="#4F9982"/>
<stop offset="1" stop-color="#15503E"/>
</linearGradient>
<linearGradient id="paint23_linear_14_35" x1="335.878" y1="678.159" x2="335.878" y2="758.801" gradientUnits="userSpaceOnUse">
<stop stop-color="#FEDC79"/>
<stop offset="1" stop-color="#F26A3D"/>
</linearGradient>
<linearGradient id="paint24_linear_14_35" x1="592.988" y1="666.154" x2="959.44" y2="795.316" gradientUnits="userSpaceOnUse">
<stop stop-color="#CCE59D"/>
<stop offset="1" stop-color="#BCD389"/>
</linearGradient>
<linearGradient id="paint25_linear_14_35" x1="592.988" y1="666.154" x2="959.44" y2="795.316" gradientUnits="userSpaceOnUse">
<stop stop-color="#BFCF6C"/>
<stop offset="1" stop-color="#8DB240"/>
</linearGradient>
<linearGradient id="paint26_linear_14_35" x1="684.308" y1="811" x2="684.308" y2="828.248" gradientUnits="userSpaceOnUse">
<stop stop-color="#FEDC79"/>
<stop offset="1" stop-color="#F26A3D"/>
</linearGradient>
<linearGradient id="paint27_linear_14_35" x1="691.178" y1="819.694" x2="688.402" y2="829.301" gradientUnits="userSpaceOnUse">
<stop stop-color="#FEDC79"/>
<stop offset="1" stop-color="#F26A3D"/>
</linearGradient>
<linearGradient id="paint28_linear_14_35" x1="675.934" y1="814.377" x2="674.426" y2="828.083" gradientUnits="userSpaceOnUse">
<stop stop-color="#FEDC79"/>
<stop offset="1" stop-color="#F26A3D"/>
</linearGradient>
<linearGradient id="paint29_linear_14_35" x1="298.674" y1="801.25" x2="285.748" y2="819.36" gradientUnits="userSpaceOnUse">
<stop stop-color="#B7E987"/>
<stop offset="1" stop-color="#0AA370"/>
</linearGradient>
<linearGradient id="paint30_linear_14_35" x1="287.018" y1="812.914" x2="282.738" y2="825.087" gradientUnits="userSpaceOnUse">
<stop stop-color="#B7E987"/>
<stop offset="1" stop-color="#0AA370"/>
</linearGradient>
<linearGradient id="paint31_linear_14_35" x1="305.269" y1="806.236" x2="317.121" y2="819.505" gradientUnits="userSpaceOnUse">
<stop stop-color="#B7E987"/>
<stop offset="1" stop-color="#0AA370"/>
</linearGradient>
<linearGradient id="paint32_linear_14_35" x1="963.593" y1="811.478" x2="955.1" y2="823.38" gradientUnits="userSpaceOnUse">
<stop stop-color="#4F9982"/>
<stop offset="1" stop-color="#15503E"/>
</linearGradient>
<linearGradient id="paint33_linear_14_35" x1="955.934" y1="819.143" x2="953.121" y2="827.143" gradientUnits="userSpaceOnUse">
<stop stop-color="#4F9982"/>
<stop offset="1" stop-color="#15503E"/>
</linearGradient>
<linearGradient id="paint34_linear_14_35" x1="967.708" y1="814.755" x2="975.497" y2="823.475" gradientUnits="userSpaceOnUse">
<stop stop-color="#4F9982"/>
<stop offset="1" stop-color="#15503E"/>
</linearGradient>
<clipPath id="clip0_14_35">
<rect width="1253" height="1080" fill="white"/>
</clipPath>
</defs>
</svg>
