<svg width="1253" height="1080" viewBox="0 0 1253 1080" fill="none" xmlns="http://www.w3.org/2000/svg">
<g clip-path="url(#clip0_45_68)">
<ellipse cx="618.5" cy="687" rx="568.5" ry="543" fill="url(#paint0_linear_45_68)"/>
<path d="M268.622 664.627C300.584 655.245 235.74 572 235.74 572C235.74 572 168.367 673.183 204.172 674.832C212.528 675.217 225.217 670.122 225.217 670.122C225.217 670.122 172.178 730.104 196.28 742.34C211.538 750.086 237.055 728.21 237.055 728.21C237.055 728.21 266.481 745.348 280.46 733.705C301.674 716.035 248.235 664.627 248.235 664.627C248.235 664.627 260.891 666.897 268.622 664.627Z" fill="url(#paint1_linear_45_68)"/>
<rect x="235" y="626" width="3" height="158" fill="#1CAD81"/>
<rect x="220.566" y="715.52" width="2.73527" height="20.9198" transform="rotate(-45.9455 220.566 715.52)" fill="#1CAD81"/>
<rect x="221.049" y="661.471" width="3.07258" height="19.7139" transform="rotate(-46.6967 221.049 661.471)" fill="#1CAD81"/>
<rect width="2.9916" height="15.8109" transform="matrix(-0.685861 -0.727733 -0.727733 0.685861 248.445 649.726)" fill="#1CAD81"/>
<rect width="2.9916" height="22.0339" transform="matrix(-0.493313 -0.869852 -0.869852 0.493313 257.025 700.787)" fill="#1CAD81"/>
<path d="M225 734.826C225 751.299 218.732 764.652 211 764.652C203.268 764.652 197 751.299 197 734.826C197 718.354 206.13 705 211 705C216.478 705 225 718.354 225 734.826Z" fill="url(#paint2_linear_45_68)"/>
<rect x="210.589" y="719.609" width="2.43478" height="53.5652" fill="#357765"/>
<path d="M204.502 749.288L206.265 747.609L211.807 753.696L211.806 757.348L204.502 749.288Z" fill="#357765"/>
<path d="M217.831 739.03L216.068 737.35L211.908 741.987L212.352 745.174L217.831 739.03Z" fill="#357765"/>
<path d="M206.455 728.001L208.218 726.321L212.43 731.013L212.003 734.218L206.455 728.001Z" fill="#357765"/>
<path d="M292.554 712.264C292.554 736.71 283.251 756.527 271.777 756.527C260.302 756.527 251 736.71 251 712.264C251 687.817 264.55 668 271.777 668C279.907 668 292.554 687.817 292.554 712.264Z" fill="url(#paint3_linear_45_68)"/>
<rect x="271.167" y="689.68" width="3.61335" height="79.4938" fill="#357765"/>
<path d="M262.133 733.727L264.749 731.234L272.973 740.267L272.973 745.687L262.133 733.727Z" fill="#357765"/>
<path d="M281.913 718.502L279.297 716.009L273.123 722.891L273.782 727.621L281.913 718.502Z" fill="#357765"/>
<path d="M265.032 702.134L267.648 699.641L273.9 706.605L273.266 711.36L265.032 702.134Z" fill="#357765"/>
<path d="M354 346H510C510 346 500.768 330.873 490.873 328.599C482.049 326.572 468.268 333.746 468.268 333.746C468.268 333.746 457.302 317.312 446.408 312.178C422.186 300.766 382.815 337.912 382.815 337.912C382.815 337.912 374.037 334.18 368.408 335.216C361.465 336.494 354 346 354 346Z" fill="white"/>
<path d="M149 475H329C329 475 318.348 457.352 306.93 454.699C296.749 452.333 280.847 460.703 280.847 460.703C280.847 460.703 268.195 441.53 255.624 435.541C227.676 422.226 182.248 465.564 182.248 465.564C182.248 465.564 172.12 461.21 165.624 462.419C157.613 463.91 149 475 149 475Z" fill="white"/>
<path d="M974.818 390H821C821 390 830.103 374.873 839.86 372.599C848.56 370.572 862.149 377.746 862.149 377.746C862.149 377.746 872.961 361.312 883.703 356.178C907.586 344.766 946.406 381.912 946.406 381.912C946.406 381.912 954.902 383.168 960.291 384.857C967.127 387 974.818 390 974.818 390Z" fill="white"/>
<ellipse cx="884.5" cy="824.5" rx="30.5" ry="4.5" fill="#BCD389"/>
<ellipse cx="618.5" cy="807.5" rx="568.5" ry="53.5" fill="#CCE59D"/>
<path d="M975.018 649.389C975.018 715.877 949.718 769.777 918.509 769.777C887.3 769.777 862 715.877 862 649.389C862 582.9 898.854 529 918.509 529C940.621 529 975.018 582.9 975.018 649.389Z" fill="url(#paint4_linear_45_68)"/>
<rect x="916.851" y="587.966" width="9.82764" height="216.208" fill="#357765"/>
<path d="M892.28 707.764L899.394 700.984L921.763 725.553L921.762 740.294L892.28 707.764Z" fill="#357765"/>
<path d="M946.078 666.356L938.964 659.576L922.171 678.294L923.963 691.157L946.078 666.356Z" fill="#357765"/>
<path d="M900.165 621.839L907.279 615.059L924.283 633.999L922.559 646.932L900.165 621.839Z" fill="#357765"/>
<path d="M624.288 384.535V361.59L547.626 388.458V485.838L624.288 384.535Z" fill="#D77048"/>
<path d="M585.045 384.535L558.578 397.312V406.439L585.045 393.662V384.535Z" fill="#ED8D67"/>
<path d="M623.376 368.108L596.909 380.885V390.011L623.376 377.234V368.108Z" fill="#ED8D67"/>
<path d="M595.084 397.312L573.181 407.96V415.565L595.084 404.918V397.312Z" fill="#ED8D67"/>
<path d="M584.132 417.39L553.103 432.297V442.944L584.132 428.038V417.39Z" fill="#ED8D67"/>
<path d="M673.571 335.253L819.593 557.024L817.768 799.786H517.51V557.024L673.571 335.253Z" fill="#DEBA97"/>
<path d="M490.131 440.206L337.72 655.589L338.632 799.786H635.24V661.065L490.131 440.206Z" fill="#EACCAF"/>
<circle cx="482.829" cy="586.229" r="24.6413" fill="url(#paint5_linear_45_68)" stroke="#2A4055" stroke-width="7.30112"/>
<circle cx="674.484" cy="520.519" r="31.9424" fill="url(#paint6_linear_45_68)" stroke="#2A4055" stroke-width="7.30112"/>
<rect x="413.468" y="650.113" width="146.022" height="98.5651" fill="url(#paint7_linear_45_68)" stroke="#2A4055" stroke-width="5.47584"/>
<path d="M819.593 557.024L833.283 557.937L673.571 326.126L541.238 507.742L545.801 517.781L673.571 335.253L819.593 557.024Z" fill="#2A4055"/>
<path d="M537.588 498.615L673.571 317L842.409 557.937H833.283L673.571 326.126L543.976 505.004L537.588 498.615Z" fill="#33595A"/>
<path d="M637.065 661.978L650.754 662.89L491.043 431.08L318.554 665.628L333.156 661.978L490.13 440.206L637.065 661.978Z" fill="#2A4055"/>
<path d="M308.515 665.628L491.043 421.953L659.881 662.89H650.754L491.043 431.08L318.554 665.628H308.515Z" fill="#33595A"/>
<path d="M675.396 799.786H293V808H675.396V799.786Z" fill="#C0C7C1"/>
<path d="M875.264 808V799.786L674.483 798.874V808H875.264Z" fill="#C0C7C1"/>
<path d="M533.024 393.662V372.671L631.589 336.165V358.981L533.024 393.662Z" fill="#2A4055"/>
<path d="M533.024 381.797L631.589 348.942V336.165L533.024 372.671V381.797Z" fill="#33595A"/>
<rect x="483.741" y="647.375" width="5.47584" height="100.39" fill="#2A4055"/>
<rect x="678.133" y="661.065" width="74.8364" height="135.071" fill="url(#paint8_linear_45_68)" stroke="#2A4055" stroke-width="5.47584"/>
<rect x="675.396" y="727.688" width="5.47584" height="80.3123" transform="rotate(-90 675.396 727.688)" fill="#2A4055"/>
<rect x="675.396" y="696.658" width="5.47584" height="80.3123" transform="rotate(-90 675.396 696.658)" fill="#2A4055"/>
<rect x="675.396" y="753.242" width="80.3123" height="45.632" fill="#2A4055"/>
<rect x="671.745" y="798.874" width="9.12639" height="87.6134" transform="rotate(-90 671.745 798.874)" fill="#1E3042"/>
<path d="M558.121 213C562.176 222.982 567.015 228.585 566.907 239.359C566.795 250.665 553.198 254.111 556.524 264.918C559.718 275.302 567.633 278.722 566.907 288.881C566.108 300.063 553.818 303.462 556.524 314.44C558.331 321.772 564.783 322.183 566.108 329.617C566.601 332.38 566.108 336.007 566.108 336.007" stroke="url(#paint9_linear_45_68)" stroke-width="3.19498" stroke-linecap="round"/>
<path d="M572.27 213C576.326 222.982 581.164 228.585 581.057 239.359C580.944 250.665 567.348 254.111 570.673 264.918C573.868 275.302 581.782 278.722 581.056 288.881C580.257 300.063 567.967 303.462 570.673 314.44C572.48 321.772 578.932 322.183 580.258 329.617C580.751 332.38 580.258 336.007 580.258 336.007" stroke="url(#paint10_linear_45_68)" stroke-width="3.19498" stroke-linecap="round"/>
<path d="M586.418 213C590.473 222.982 595.312 228.585 595.204 239.359C595.091 250.665 581.495 254.111 584.82 264.918C588.015 275.302 595.93 278.722 595.204 288.881C594.405 300.063 582.114 303.462 584.82 314.44C586.628 321.772 593.08 322.183 594.405 329.617C594.898 332.38 594.405 336.007 594.405 336.007" stroke="url(#paint11_linear_45_68)" stroke-width="3.19498" stroke-linecap="round"/>
<ellipse cx="965.5" cy="828.5" rx="18.5" ry="2.5" fill="#C0D988"/>
</g>
<defs>
<linearGradient id="paint0_linear_45_68" x1="618.5" y1="144" x2="618.5" y2="740.5" gradientUnits="userSpaceOnUse">
<stop stop-color="#DBDAAF"/>
<stop offset="1" stop-color="#ECECC2" stop-opacity="0"/>
</linearGradient>
<linearGradient id="paint1_linear_45_68" x1="211.994" y1="586.743" x2="293.46" y2="713.529" gradientUnits="userSpaceOnUse">
<stop stop-color="#4F9982"/>
<stop offset="1" stop-color="#15503E"/>
</linearGradient>
<linearGradient id="paint2_linear_45_68" x1="203.453" y1="710.113" x2="233.377" y2="749.509" gradientUnits="userSpaceOnUse">
<stop stop-color="#B7E987"/>
<stop offset="1" stop-color="#0AA370"/>
</linearGradient>
<linearGradient id="paint3_linear_45_68" x1="260.576" y1="675.588" x2="304.985" y2="734.054" gradientUnits="userSpaceOnUse">
<stop stop-color="#B7E987"/>
<stop offset="1" stop-color="#0AA370"/>
</linearGradient>
<linearGradient id="paint4_linear_45_68" x1="888.045" y1="549.638" x2="1008.83" y2="708.654" gradientUnits="userSpaceOnUse">
<stop stop-color="#B7E987"/>
<stop offset="1" stop-color="#0AA370"/>
</linearGradient>
<linearGradient id="paint5_linear_45_68" x1="439.26" y1="580.352" x2="513.446" y2="600.066" gradientUnits="userSpaceOnUse">
<stop stop-color="#DEF4FF"/>
<stop offset="1" stop-color="#77B7D9"/>
</linearGradient>
<linearGradient id="paint6_linear_45_68" x1="619.67" y1="513.125" x2="713.002" y2="537.927" gradientUnits="userSpaceOnUse">
<stop stop-color="#DEF4FF"/>
<stop offset="1" stop-color="#77B7D9"/>
</linearGradient>
<linearGradient id="paint7_linear_45_68" x1="369.826" y1="688.59" x2="554.786" y2="760.16" gradientUnits="userSpaceOnUse">
<stop stop-color="#DEF4FF"/>
<stop offset="1" stop-color="#77B7D9"/>
</linearGradient>
<linearGradient id="paint8_linear_45_68" x1="653.711" y1="714.004" x2="763.903" y2="730.736" gradientUnits="userSpaceOnUse">
<stop stop-color="#DEF4FF"/>
<stop offset="1" stop-color="#77B7D9"/>
</linearGradient>
<linearGradient id="paint9_linear_45_68" x1="561.477" y1="213" x2="561.477" y2="336.007" gradientUnits="userSpaceOnUse">
<stop stop-color="#B8B687"/>
<stop offset="1" stop-color="#DCDBB0" stop-opacity="0.13"/>
</linearGradient>
<linearGradient id="paint10_linear_45_68" x1="575.626" y1="213" x2="575.626" y2="336.007" gradientUnits="userSpaceOnUse">
<stop stop-color="#B8B687"/>
<stop offset="1" stop-color="#DCDBB0" stop-opacity="0.13"/>
</linearGradient>
<linearGradient id="paint11_linear_45_68" x1="589.774" y1="213" x2="589.774" y2="336.007" gradientUnits="userSpaceOnUse">
<stop stop-color="#B8B687"/>
<stop offset="1" stop-color="#DCDBB0" stop-opacity="0.13"/>
</linearGradient>
<clipPath id="clip0_45_68">
<rect width="1253" height="1080" fill="white"/>
</clipPath>
</defs>
</svg>
