<svg width="1253" height="1080" viewBox="0 0 1253 1080" fill="none" xmlns="http://www.w3.org/2000/svg">
<g clip-path="url(#clip0_11_2)">
<ellipse cx="618.5" cy="687" rx="568.5" ry="543" fill="url(#paint0_linear_11_2)"/>
<path d="M808.504 545.432C963.08 536.653 1187 664.504 1187 664.504V808H50V743.885C50 743.885 222.271 593.573 349.37 609.039C409.177 616.317 493.511 664.504 493.511 664.504C493.511 664.504 677.36 552.881 808.504 545.432Z" fill="url(#paint1_linear_11_2)"/>
<path d="M1094.38 516.141H831C831 516.141 846.586 490.45 863.293 486.588C878.19 483.145 901.457 495.329 901.457 495.329C901.457 495.329 919.971 467.418 938.364 458.7C979.257 439.317 1045.73 502.405 1045.73 502.405C1045.73 502.405 1060.55 496.067 1070.05 497.826C1081.77 499.996 1094.38 516.141 1094.38 516.141Z" fill="white"/>
<path d="M169 399H349C349 399 338.348 381.352 326.93 378.699C316.749 376.334 300.847 384.703 300.847 384.703C300.847 384.703 288.195 365.53 275.624 359.542C247.676 346.227 202.248 389.564 202.248 389.564C202.248 389.564 192.12 385.21 185.624 386.419C177.613 387.91 169 399 169 399Z" fill="white"/>
<path d="M590 395H684C684 395 678.437 385.756 672.475 384.366C667.158 383.127 658.854 387.511 658.854 387.511C658.854 387.511 652.246 377.468 645.682 374.331C631.086 367.357 607.363 390.057 607.363 390.057C607.363 390.057 602.171 390.825 598.878 391.857C594.7 393.167 590 395 590 395Z" fill="white"/>
<path d="M337.965 678.319C368.441 669.373 306.612 590 306.612 590C306.612 590 242.373 686.477 276.513 688.049C284.48 688.416 296.579 683.558 296.579 683.558C296.579 683.558 246.007 740.75 268.988 752.417C283.537 759.803 307.866 738.945 307.866 738.945C307.866 738.945 335.924 755.286 349.253 744.184C369.48 727.336 318.526 678.319 318.526 678.319C318.526 678.319 330.594 680.483 337.965 678.319Z" fill="url(#paint2_linear_11_2)"/>
<rect x="307" y="630" width="3" height="158" fill="#1CAD81"/>
<rect x="292.567" y="719.52" width="2.73527" height="20.9198" transform="rotate(-45.9455 292.567 719.52)" fill="#1CAD81"/>
<rect x="293.05" y="665.471" width="3.07258" height="19.7139" transform="rotate(-46.6967 293.05 665.471)" fill="#1CAD81"/>
<rect width="2.9916" height="15.8109" transform="matrix(-0.685861 -0.727733 -0.727733 0.685861 320.446 653.726)" fill="#1CAD81"/>
<rect width="2.9916" height="22.0339" transform="matrix(-0.493313 -0.869852 -0.869852 0.493313 329.025 704.787)" fill="#1CAD81"/>
<path d="M252 731.826C252 748.299 245.732 761.652 238 761.652C230.268 761.652 224 748.299 224 731.826C224 715.354 233.13 702 238 702C243.478 702 252 715.354 252 731.826Z" fill="url(#paint3_linear_11_2)"/>
<rect x="237.589" y="716.609" width="2.43478" height="53.5652" fill="#357765"/>
<path d="M231.502 746.288L233.264 744.609L238.806 750.696L238.806 754.348L231.502 746.288Z" fill="#357765"/>
<path d="M244.83 736.03L243.068 734.35L238.907 738.987L239.351 742.174L244.83 736.03Z" fill="#357765"/>
<path d="M233.455 725.001L235.218 723.321L239.43 728.013L239.003 731.218L233.455 725.001Z" fill="#357765"/>
<path d="M492.554 701.264C492.554 725.71 483.251 745.527 471.777 745.527C460.302 745.527 451 725.71 451 701.264C451 676.817 464.55 657 471.777 657C479.907 657 492.554 676.817 492.554 701.264Z" fill="url(#paint4_linear_11_2)"/>
<rect x="471.167" y="678.68" width="3.61335" height="79.4938" fill="#357765"/>
<path d="M462.133 722.727L464.749 720.234L472.973 729.267L472.973 734.687L462.133 722.727Z" fill="#357765"/>
<path d="M481.913 707.502L479.298 705.009L473.124 711.891L473.783 716.621L481.913 707.502Z" fill="#357765"/>
<path d="M465.032 691.134L467.648 688.641L473.9 695.605L473.266 700.36L465.032 691.134Z" fill="#357765"/>
<path d="M685.537 708.88C692.494 681.042 695.972 667.122 703 667.122C710.028 667.122 713.506 681.042 720.463 708.88L722.526 717.136C725.099 727.431 726.385 732.578 723.682 736.039C720.98 739.5 715.674 739.5 705.063 739.5H700.937C690.326 739.5 685.02 739.5 682.318 736.039C679.615 732.578 680.901 727.431 683.474 717.136L685.537 708.88Z" fill="url(#paint5_linear_11_2)"/>
<rect x="701.167" y="677.68" width="3.61335" height="79.4938" fill="#9B341F"/>
<path d="M692.133 721.727L694.749 719.234L702.973 728.267L702.973 733.687L692.133 721.727Z" fill="#9B341F"/>
<path d="M711.913 706.502L709.298 704.009L703.124 710.891L703.783 715.621L711.913 706.502Z" fill="#9B341F"/>
<path d="M695.032 690.134L697.648 687.641L703.9 694.605L703.266 699.36L695.032 690.134Z" fill="#9B341F"/>
<path d="M380.845 665.578C380.845 680.257 376.041 692.156 370.115 692.156C364.189 692.156 359.385 680.257 359.385 665.578C359.385 650.899 364.189 639 370.115 639C376.041 639 380.845 650.899 380.845 665.578Z" fill="url(#paint6_linear_11_2)"/>
<path d="M350.02 697.839C359.052 710.723 370.929 707.774 375.319 702.637C379.709 697.5 375.947 682.892 366.915 670.008C357.883 657.124 347.002 650.843 342.612 655.98C338.221 661.117 340.988 684.955 350.02 697.839Z" fill="url(#paint7_linear_11_2)"/>
<path d="M388.229 697.839C379.197 710.723 367.32 707.774 362.93 702.637C358.54 697.5 362.302 682.892 371.334 670.008C380.366 657.124 391.247 650.843 395.637 655.98C400.028 661.117 397.261 684.955 388.229 697.839Z" fill="url(#paint8_linear_11_2)"/>
<path d="M343.28 724.622C355.966 734.205 372.649 732.011 378.816 728.191C384.983 724.37 379.698 713.505 367.011 703.923C354.325 694.34 339.041 689.669 332.874 693.49C326.708 697.31 330.594 715.039 343.28 724.622Z" fill="url(#paint9_linear_11_2)"/>
<path d="M396.95 724.622C384.263 734.205 367.581 732.011 361.414 728.191C355.247 724.37 360.532 713.505 373.219 703.923C385.905 694.34 401.189 689.669 407.356 693.49C413.522 697.31 409.636 715.039 396.95 724.622Z" fill="url(#paint10_linear_11_2)"/>
<rect x="369.29" y="653.527" width="1.65082" height="108.954" rx="0.825411" fill="#155A45"/>
<path d="M385.523 699.034C385.891 698.764 386.407 698.843 386.677 699.21V699.21C386.947 699.577 386.869 700.094 386.501 700.364L370.268 712.3L369.29 710.97L385.523 699.034Z" fill="#155A45"/>
<path d="M383.176 671.045C383.544 670.775 384.06 670.854 384.33 671.221V671.221C384.6 671.588 384.521 672.105 384.154 672.375L370.267 682.585L369.289 681.255L383.176 671.045Z" fill="#155A45"/>
<path d="M350.132 705.522C349.765 705.252 349.248 705.331 348.978 705.698V705.698C348.708 706.065 348.787 706.582 349.154 706.852L370.036 722.205L371.014 720.875L350.132 705.522Z" fill="#155A45"/>
<path d="M355.321 682.923C354.953 682.653 354.437 682.732 354.167 683.099V683.099C353.897 683.467 353.976 683.983 354.343 684.253L370.036 695.791L371.014 694.461L355.321 682.923Z" fill="#155A45"/>
<path d="M607.878 572H619.633L626 758H613.265H602L607.878 572Z" fill="url(#paint11_linear_11_2)"/>
<rect x="654.973" y="477" width="22.7082" height="112.211" rx="11.3541" transform="rotate(29.6713 654.973 477)" fill="url(#paint12_linear_11_2)"/>
<rect x="699.101" y="627.19" width="22.7082" height="112.211" rx="11.3541" transform="rotate(130.473 699.101 627.19)" fill="url(#paint13_linear_11_2)"/>
<rect x="616.69" y="558.861" width="22.7082" height="112.211" rx="11.3541" transform="rotate(91.2797 616.69 558.861)" fill="url(#paint14_linear_11_2)"/>
<circle cx="614" cy="570" r="12" fill="#2A4055"/>
<g opacity="0.6">
<path d="M790.198 650.769H796.975L800.646 758H793.304H786.81L790.198 650.769Z" fill="url(#paint15_linear_11_2)"/>
<rect x="817.349" y="596" width="13.0915" height="64.6913" rx="6.54577" transform="rotate(29.6713 817.349 596)" fill="url(#paint16_linear_11_2)"/>
<rect x="842.789" y="682.586" width="13.0915" height="64.6913" rx="6.54577" transform="rotate(130.473 842.789 682.586)" fill="url(#paint17_linear_11_2)"/>
<rect x="795.278" y="643.194" width="13.0915" height="64.6913" rx="6.54577" transform="rotate(91.2797 795.278 643.194)" fill="url(#paint18_linear_11_2)"/>
<circle cx="793.728" cy="649.616" r="6.91815" fill="#2A4055"/>
</g>
<g opacity="0.4">
<path d="M980.38 708.441H984.27L986.378 770H982.163H978.435L980.38 708.441Z" fill="url(#paint19_linear_11_2)"/>
<rect x="995.966" y="677" width="7.51551" height="37.1376" rx="3.75776" transform="rotate(29.6713 995.966 677)" fill="url(#paint20_linear_11_2)"/>
<rect x="1010.57" y="726.707" width="7.51551" height="37.1376" rx="3.75776" transform="rotate(130.473 1010.57 726.707)" fill="url(#paint21_linear_11_2)"/>
<rect x="983.296" y="704.093" width="7.51551" height="37.1376" rx="3.75776" transform="rotate(91.2797 983.296 704.093)" fill="url(#paint22_linear_11_2)"/>
<circle cx="982.406" cy="707.779" r="3.97153" fill="#2A4055"/>
</g>
<path d="M643.556 756.419L581.899 757.84C581.899 757.84 570.411 751.659 574.296 749.711C576.385 748.664 580.261 750.171 580.261 750.171C580.261 750.171 580.606 748.151 581.507 747.352C583.45 745.63 587.655 749.883 587.655 749.883C587.655 749.883 586.239 739.802 590.659 737.6C595.522 735.177 602.628 744.694 602.628 744.694C602.628 744.694 626.229 720.691 629.675 731.862C630.954 736.008 628.822 742.94 628.822 742.94C628.822 742.94 638.691 731.963 640.097 736.78C640.882 739.47 638.025 743.649 638.025 743.649C638.025 743.649 645.654 741.084 646.716 744.319C647.712 747.35 641.275 750.414 641.275 750.414C641.275 750.414 650.515 749.07 650.19 752.644C649.92 755.613 643.556 756.419 643.556 756.419Z" fill="url(#paint23_linear_11_2)"/>
<path d="M643.556 756.419L581.899 757.84C581.899 757.84 570.411 751.659 574.296 749.711C576.385 748.664 580.261 750.171 580.261 750.171C580.261 750.171 580.606 748.151 581.507 747.352C583.45 745.63 587.655 749.883 587.655 749.883C587.655 749.883 586.239 739.802 590.659 737.6C595.522 735.177 602.628 744.694 602.628 744.694C602.628 744.694 626.229 720.691 629.675 731.862C630.954 736.008 628.822 742.94 628.822 742.94C628.822 742.94 638.691 731.963 640.097 736.78C640.882 739.47 638.025 743.649 638.025 743.649C638.025 743.649 645.654 741.084 646.716 744.319C647.712 747.35 641.275 750.414 641.275 750.414C641.275 750.414 650.515 749.07 650.19 752.644C649.92 755.613 643.556 756.419 643.556 756.419Z" fill="url(#paint24_linear_11_2)" fill-opacity="0.2"/>
<ellipse cx="618.5" cy="808.5" rx="568.5" ry="53.5" fill="#CCE59D"/>
<path d="M788 836L601 755H635.5L788 836Z" fill="#BCD389"/>
<path d="M852 785L787 757.5L800.5 758L852 785Z" fill="#BCD389"/>
<ellipse cx="482.5" cy="786.5" rx="10.5" ry="1.5" fill="#BCD389"/>
<ellipse cx="884.5" cy="824.5" rx="30.5" ry="4.5" fill="#BCD389"/>
<ellipse cx="492.5" cy="833.5" rx="30.5" ry="4.5" fill="#9EB768"/>
</g>
<defs>
<linearGradient id="paint0_linear_11_2" x1="618.5" y1="144" x2="618.5" y2="740.5" gradientUnits="userSpaceOnUse">
<stop stop-color="#DBDAAF"/>
<stop offset="1" stop-color="#ECECC2" stop-opacity="0"/>
</linearGradient>
<linearGradient id="paint1_linear_11_2" x1="618.5" y1="545.432" x2="618.5" y2="689.651" gradientUnits="userSpaceOnUse">
<stop stop-color="#DBDAAF"/>
<stop offset="1" stop-color="#ECECC2" stop-opacity="0"/>
</linearGradient>
<linearGradient id="paint2_linear_11_2" x1="283.971" y1="604.057" x2="361.648" y2="724.946" gradientUnits="userSpaceOnUse">
<stop stop-color="#4F9982"/>
<stop offset="1" stop-color="#15503E"/>
</linearGradient>
<linearGradient id="paint3_linear_11_2" x1="230.453" y1="707.113" x2="260.377" y2="746.509" gradientUnits="userSpaceOnUse">
<stop stop-color="#B7E987"/>
<stop offset="1" stop-color="#0AA370"/>
</linearGradient>
<linearGradient id="paint4_linear_11_2" x1="460.576" y1="664.588" x2="504.985" y2="723.054" gradientUnits="userSpaceOnUse">
<stop stop-color="#B7E987"/>
<stop offset="1" stop-color="#0AA370"/>
</linearGradient>
<linearGradient id="paint5_linear_11_2" x1="703" y1="639" x2="703" y2="773" gradientUnits="userSpaceOnUse">
<stop stop-color="#FEDC79"/>
<stop offset="1" stop-color="#F26A3D"/>
</linearGradient>
<linearGradient id="paint6_linear_11_2" x1="348.489" y1="646.924" x2="382.331" y2="729.3" gradientUnits="userSpaceOnUse">
<stop stop-color="#B7E987"/>
<stop offset="1" stop-color="#0AA370"/>
</linearGradient>
<linearGradient id="paint7_linear_11_2" x1="348.489" y1="646.924" x2="382.331" y2="729.3" gradientUnits="userSpaceOnUse">
<stop stop-color="#B7E987"/>
<stop offset="1" stop-color="#0AA370"/>
</linearGradient>
<linearGradient id="paint8_linear_11_2" x1="348.489" y1="646.924" x2="382.331" y2="729.3" gradientUnits="userSpaceOnUse">
<stop stop-color="#B7E987"/>
<stop offset="1" stop-color="#0AA370"/>
</linearGradient>
<linearGradient id="paint9_linear_11_2" x1="348.489" y1="646.924" x2="382.331" y2="729.3" gradientUnits="userSpaceOnUse">
<stop stop-color="#B7E987"/>
<stop offset="1" stop-color="#0AA370"/>
</linearGradient>
<linearGradient id="paint10_linear_11_2" x1="348.489" y1="646.924" x2="382.331" y2="729.3" gradientUnits="userSpaceOnUse">
<stop stop-color="#B7E987"/>
<stop offset="1" stop-color="#0AA370"/>
</linearGradient>
<linearGradient id="paint11_linear_11_2" x1="532.939" y1="594.664" x2="636.899" y2="668.973" gradientUnits="userSpaceOnUse">
<stop stop-color="#E2EC91"/>
<stop offset="1" stop-color="#6DA399"/>
</linearGradient>
<linearGradient id="paint12_linear_11_2" x1="589.629" y1="490.673" x2="655.485" y2="564.5" gradientUnits="userSpaceOnUse">
<stop stop-color="#E2EC91"/>
<stop offset="1" stop-color="#6DA399"/>
</linearGradient>
<linearGradient id="paint13_linear_11_2" x1="633.757" y1="640.863" x2="699.613" y2="714.69" gradientUnits="userSpaceOnUse">
<stop stop-color="#E2EC91"/>
<stop offset="1" stop-color="#6DA399"/>
</linearGradient>
<linearGradient id="paint14_linear_11_2" x1="551.347" y1="572.534" x2="617.203" y2="646.362" gradientUnits="userSpaceOnUse">
<stop stop-color="#E2EC91"/>
<stop offset="1" stop-color="#6DA399"/>
</linearGradient>
<linearGradient id="paint15_linear_11_2" x1="746.995" y1="663.835" x2="806.929" y2="706.675" gradientUnits="userSpaceOnUse">
<stop stop-color="#E2EC91"/>
<stop offset="1" stop-color="#6DA399"/>
</linearGradient>
<linearGradient id="paint16_linear_11_2" x1="779.677" y1="603.883" x2="817.644" y2="646.445" gradientUnits="userSpaceOnUse">
<stop stop-color="#E2EC91"/>
<stop offset="1" stop-color="#6DA399"/>
</linearGradient>
<linearGradient id="paint17_linear_11_2" x1="805.118" y1="690.469" x2="843.085" y2="733.031" gradientUnits="userSpaceOnUse">
<stop stop-color="#E2EC91"/>
<stop offset="1" stop-color="#6DA399"/>
</linearGradient>
<linearGradient id="paint18_linear_11_2" x1="757.607" y1="651.077" x2="795.574" y2="693.639" gradientUnits="userSpaceOnUse">
<stop stop-color="#E2EC91"/>
<stop offset="1" stop-color="#6DA399"/>
</linearGradient>
<linearGradient id="paint19_linear_11_2" x1="955.578" y1="715.942" x2="989.985" y2="740.535" gradientUnits="userSpaceOnUse">
<stop stop-color="#E2EC91"/>
<stop offset="1" stop-color="#6DA399"/>
</linearGradient>
<linearGradient id="paint20_linear_11_2" x1="974.34" y1="681.525" x2="996.135" y2="705.959" gradientUnits="userSpaceOnUse">
<stop stop-color="#E2EC91"/>
<stop offset="1" stop-color="#6DA399"/>
</linearGradient>
<linearGradient id="paint21_linear_11_2" x1="988.945" y1="731.232" x2="1010.74" y2="755.666" gradientUnits="userSpaceOnUse">
<stop stop-color="#E2EC91"/>
<stop offset="1" stop-color="#6DA399"/>
</linearGradient>
<linearGradient id="paint22_linear_11_2" x1="961.67" y1="708.618" x2="983.466" y2="733.052" gradientUnits="userSpaceOnUse">
<stop stop-color="#E2EC91"/>
<stop offset="1" stop-color="#6DA399"/>
</linearGradient>
<linearGradient id="paint23_linear_11_2" x1="573.035" y1="750.46" x2="632.349" y2="752.682" gradientUnits="userSpaceOnUse">
<stop stop-color="#C5EC86"/>
<stop offset="1" stop-color="#296555"/>
</linearGradient>
<linearGradient id="paint24_linear_11_2" x1="613.672" y1="727.943" x2="611.195" y2="760.097" gradientUnits="userSpaceOnUse">
<stop stop-color="#4F9982"/>
<stop offset="1" stop-color="#276353"/>
</linearGradient>
<clipPath id="clip0_11_2">
<rect width="1253" height="1080" fill="white"/>
</clipPath>
</defs>
</svg>
