<svg width="1253" height="1080" viewBox="0 0 1253 1080" fill="none" xmlns="http://www.w3.org/2000/svg">
<g clip-path="url(#clip0_45_294)">
<ellipse cx="618.5" cy="687" rx="568.5" ry="543" fill="url(#paint0_linear_45_294)"/>
<circle cx="618.5" cy="705.5" r="125.5" fill="#FFFFF1"/>
<path d="M616 560.5L615 562L613.5 560L606.5 556.5L601.5 557.5L606.5 554.5L615.5 559L625 556L630 561L625.5 558.5L616 560.5Z" fill="#50578D"/>
<path d="M581.5 533.5L592.5 521.5L579 532.5L569 518L574 532.5L577 546.5L581.5 533.5Z" fill="#50578D"/>
<path d="M650 532L630.5 529.5H651.5L666.5 545L691 550L702.5 562L690 553L660 551.5V545L650 532Z" fill="#50578D"/>
<path d="M1161.78 565.491L1177.17 574.288V821.335H74.5L62 781.78L60 732.78C73.4397 727.16 118.172 699.351 122.278 698.178C127.409 696.712 133.274 660.058 134.74 654.193C135.913 649.502 134.251 634.645 133.274 627.803C134.495 625.603 137.526 620.912 139.871 619.739C142.217 618.566 138.894 571.356 136.939 547.897L145.003 535.435L153.067 540.567L157.465 547.897L163.329 555.228C161.619 556.939 158.051 561.093 157.465 564.025C156.732 567.691 161.863 640.998 163.329 642.464C164.502 643.637 170.171 652.727 172.859 657.126L175.792 478.255C182.389 475.812 195.145 470.191 193.385 467.259C191.626 464.327 197.539 453.819 200.716 448.932H213.911C218.31 448.932 221.242 446 225.641 446C229.159 446 239.325 451.376 243.967 454.064V461.395C243.967 465.5 247.877 480.699 249.832 487.785L252.031 481.921V470.925L264.494 474.59C265.471 484.609 267.572 505.232 268.159 507.578C268.745 509.924 277.689 513.443 282.087 514.909V575.754L294.55 597.747V650.528C294.55 654.633 307.745 683.028 314.343 696.712C316.298 696.712 321.673 697.591 327.538 701.11C334.869 705.509 337.068 706.975 339.267 708.441C341.466 709.907 353.929 716.505 355.395 716.505C356.861 716.505 362.726 712.839 364.192 712.106C365.658 711.373 369.323 666.656 369.323 665.923C369.323 665.336 372.744 664.212 374.455 663.723L375.188 640.998L384.718 645.397V660.791L386.917 662.99C387.406 673.009 388.383 693.78 388.383 696.712C388.383 700.377 392.049 703.309 393.515 703.309C394.688 703.309 394.004 668.122 393.515 650.528L398.646 642.464V602.878C403.045 600.435 412.282 595.547 414.041 595.547C415.8 595.547 426.503 600.435 431.634 602.878C430.657 605.077 429.288 609.916 431.634 611.675C433.98 613.434 435.544 657.37 436.033 679.118L446.296 715.039L458.758 712.106C458.758 715.283 459.198 721.93 460.957 723.103C463.156 724.569 488.814 731.166 493.213 734.099C497.611 737.031 522.536 740.696 525.468 742.896C527.814 744.655 539.152 752.426 544.528 756.091L555.524 746.561C561.877 747.05 575.17 747.441 577.516 745.095C579.862 742.749 584.847 727.012 587.047 719.437C586.558 712.595 585.874 699.058 587.047 699.644C588.22 700.231 592.423 696.467 594.378 694.513V685.716L600.242 683.516C600.731 681.073 601.708 675.746 601.708 673.986C601.708 671.787 602.441 662.257 604.641 660.058C606.4 658.299 614.17 656.881 617.836 656.393L619.302 679.118L625.167 694.513L628.099 734.099C632.742 737.52 643.054 745.095 647.159 748.027C651.264 750.959 696.275 771.241 718.267 781.015L746.857 776.617H803.304L842.157 764.888C847.288 761.956 858.138 755.504 860.484 753.159C862.83 750.813 861.461 728.234 860.484 717.238L890.54 693.779C891.029 687.426 892.153 674.133 892.739 671.787C893.472 668.855 903.735 670.321 908.867 670.321C912.972 670.321 921.329 655.66 924.994 648.329L944.054 649.795C945.032 657.859 947.133 674.426 947.72 676.186C948.306 677.945 957.25 683.272 961.648 685.716L964.581 717.238C969.223 717.727 978.949 718.997 980.708 720.17C982.468 721.343 983.885 727.99 984.374 731.166L988.039 729.7L993.171 703.309L1010.76 690.847V678.385L1021.03 670.321V643.197H1042.29V664.456L1052.55 678.385V692.313L1055.48 690.847L1064.28 658.592L1091.4 653.46V602.878L1109.73 586.017L1117.06 538.368H1144.92L1161.78 565.491Z" fill="url(#paint1_linear_45_294)"/>
<path d="M354 346H510C510 346 500.768 330.873 490.873 328.599C482.049 326.572 468.268 333.746 468.268 333.746C468.268 333.746 457.302 317.312 446.408 312.178C422.186 300.766 382.815 337.912 382.815 337.912C382.815 337.912 374.037 334.18 368.408 335.216C361.465 336.494 354 346 354 346Z" fill="white"/>
<path d="M865 548H1045C1045 548 1034.35 530.352 1022.93 527.699C1012.75 525.334 996.847 533.703 996.847 533.703C996.847 533.703 984.195 514.53 971.624 508.542C943.676 495.227 898.248 538.564 898.248 538.564C898.248 538.564 888.12 534.21 881.624 535.419C873.613 536.91 865 548 865 548Z" fill="white"/>
<path d="M831 357H925C925 357 919.437 347.756 913.475 346.366C908.158 345.127 899.854 349.511 899.854 349.511C899.854 349.511 893.246 339.468 886.682 336.331C872.086 329.357 848.363 352.057 848.363 352.057C848.363 352.057 843.171 352.825 839.878 353.857C835.7 355.167 831 357 831 357Z" fill="white"/>
<ellipse cx="884.5" cy="824.5" rx="30.5" ry="4.5" fill="#BCD389"/>
<path d="M158.869 708.469L159.327 781.849L152.924 783.139C152.924 783.139 150.266 756.82 150.335 745.586C150.447 727.248 158.869 708.469 158.869 708.469Z" fill="url(#paint2_linear_45_294)"/>
<path d="M176.773 744.527C180.71 732.683 185.391 713.751 185.391 713.751C185.391 713.751 173.177 731.314 167.353 743.641C161.003 757.08 154.997 779.639 154.997 779.639L160.407 784.783C160.407 784.783 171.419 760.631 176.773 744.527Z" fill="url(#paint3_linear_45_294)"/>
<path d="M167.061 781.03C177.675 760.113 183.256 749.157 193.02 731.191C193.02 731.191 181.378 743.03 174.987 751.492C168.732 759.772 160.665 773.872 160.665 773.872L167.061 781.03Z" fill="url(#paint4_linear_45_294)"/>
<path d="M194.926 737.948C188.714 741.785 176.204 749.898 176.204 749.898C176.204 749.898 185.898 738.49 192.055 731.463L221.871 730.765C221.871 730.765 201.139 734.112 194.926 737.948Z" fill="url(#paint5_linear_45_294)"/>
<path d="M166.87 784.197C182.773 773.849 191.119 768.438 205.233 759.812C205.233 759.812 192.285 763.387 184.383 766.724C176.65 769.988 165.29 776.595 165.29 776.595L166.87 784.197Z" fill="url(#paint6_linear_45_294)"/>
<path d="M203.831 765.316C197.927 765.486 185.881 766.101 185.881 766.101C185.881 766.101 197.289 762.039 204.447 759.612L225.607 771.199C225.607 771.199 209.735 765.146 203.831 765.316Z" fill="url(#paint7_linear_45_294)"/>
<path d="M161.811 785.058C150.841 769.577 145.078 761.471 135.137 748.25C135.137 748.25 145.855 756.346 151.972 762.36C157.957 768.245 166.082 778.573 166.082 778.573L161.811 785.058Z" fill="url(#paint8_linear_45_294)"/>
<path d="M134.411 753.883C139.837 756.217 150.808 761.228 150.808 761.228C150.808 761.228 141.7 753.248 135.941 748.354L112 751.326C112 751.326 128.986 751.549 134.411 753.883Z" fill="url(#paint9_linear_45_294)"/>
<path d="M176.464 688C165.772 719.982 161.715 738.503 158.234 772.661" stroke="#9B341F" stroke-width="0.61796" stroke-linecap="round"/>
<rect x="170.71" y="692.017" width="7.12795" height="36.4596" rx="3.56398" transform="rotate(15.4221 170.71 692.017)" fill="#F68E50"/>
<path d="M139.073 704.994C147.892 731.373 151.239 746.65 154.109 774.823" stroke="#9B341F" stroke-width="0.61796" stroke-linecap="round"/>
<rect width="5.87926" height="30.0726" rx="2.93963" transform="matrix(-0.963993 0.265928 0.265928 0.963993 143.819 708.307)" fill="#F68E50"/>
<ellipse cx="618.5" cy="807.5" rx="568.5" ry="53.5" fill="#CCE59D"/>
<path d="M864.857 661.326C864.857 710.66 846.085 750.652 822.929 750.652C799.772 750.652 781 710.66 781 661.326C781 611.993 808.345 572 822.929 572C839.335 572 864.857 611.993 864.857 661.326Z" fill="url(#paint10_linear_45_294)"/>
<rect x="821.698" y="615.752" width="7.29192" height="160.422" fill="#357765"/>
<path d="M803.468 704.639L808.746 699.609L825.343 717.838L825.343 728.777L803.468 704.639Z" fill="#357765"/>
<path d="M843.384 673.916L838.106 668.885L825.646 682.773L826.975 692.317L843.384 673.916Z" fill="#357765"/>
<path d="M809.319 640.885L814.598 635.854L827.214 649.907L825.935 659.503L809.319 640.885Z" fill="#357765"/>
<ellipse cx="965.5" cy="828.5" rx="18.5" ry="2.5" fill="#C0D988"/>
<path d="M369 814.086C365 812.586 358 812.086 358 812.086L344 811.586C344 811.586 343.18 814.603 343 816.586C342.733 819.509 343.5 824.086 343.5 824.086C343.5 824.086 378.5 826.586 378.5 823.586C378.5 818.339 373.912 815.928 369 814.086Z" fill="url(#paint11_linear_45_294)"/>
<path d="M368.5 822.586C359.705 822.586 343 821.586 343 821.586V825.086L365.5 826.086C365.5 826.086 372.668 826.597 376.5 825.086C377.719 824.606 379 823.586 379 823.586L378.5 820.586C378.5 820.586 374 822.586 368.5 822.586Z" fill="#722437"/>
<path d="M370 814.586C370 814.586 367.366 814.706 366.5 815.586C365.762 816.335 365.5 818.086 365.5 818.086" stroke="white" stroke-linecap="round"/>
<path d="M365 813.086C365 813.086 361.866 813.206 361 814.086C360.262 814.835 360 816.586 360 816.586" stroke="white" stroke-linecap="round"/>
<path d="M358 812.086V806.586H344L344.5 811.586C344.5 811.586 349.182 814.935 352.5 814.586C354.846 814.339 358 812.086 358 812.086Z" fill="#FFC5D4"/>
<path d="M288.711 810.373C285.793 807.253 279.742 803.698 279.742 803.698L267.419 797.035C267.419 797.035 265.346 799.375 264.304 801.072C262.767 803.573 261.422 808.014 261.422 808.014C261.422 808.014 291.675 825.791 293.007 823.103C295.336 818.401 292.296 814.205 288.711 810.373Z" fill="url(#paint12_linear_45_294)"/>
<path d="M284.491 817.768C276.609 813.864 262.084 805.552 262.084 805.552L260.531 808.689L280.249 819.572C280.249 819.572 286.445 823.212 290.549 823.559C291.855 823.67 293.455 823.325 293.455 823.325L294.339 820.415C294.339 820.415 289.419 820.209 284.491 817.768Z" fill="#722437"/>
<path d="M289.386 811.265C289.386 811.265 286.973 810.203 285.806 810.607C284.812 810.951 283.8 812.404 283.8 812.404" stroke="white" stroke-linecap="round"/>
<path d="M285.571 807.701C285.571 807.701 282.71 806.418 281.543 806.822C280.549 807.166 279.537 808.618 279.537 808.618" stroke="white" stroke-linecap="round"/>
<path d="M279.743 803.698L282.185 798.77L269.64 792.555L267.868 797.257C267.868 797.257 270.577 802.337 273.705 803.497C275.917 804.317 279.743 803.698 279.743 803.698Z" fill="#FFC5D4"/>
<path d="M432 541.086H430V557.086H432V541.086Z" fill="#3B5975"/>
<path d="M424.5 542.086H422.5V556.586H424.5L425.5 558.086H430V540.586H425.5L424.5 542.086Z" fill="#2A4055"/>
<path d="M385 536.586V533.086H388.5V536.586H402L405 539.086L420.5 539.586L423 541.586V557.086L422 559.086L404.5 560.086L402 561.586H398V567.086H380V561.586H376.5L374 560.086V538.586L376.5 536.586H385Z" fill="#2A4055"/>
<rect x="380.5" y="527.586" width="13" height="5" fill="#466481" stroke="#2A4055"/>
<rect x="386.588" y="564.831" width="5" height="242" rx="2.5" transform="rotate(8.43222 386.588 564.831)" fill="#2A4055"/>
<rect width="5" height="242" rx="2.5" transform="matrix(-0.98919 0.146639 0.146639 0.98919 390.946 565.086)" fill="#2A4055"/>
<rect width="5" height="26.2656" rx="2.5" transform="matrix(-0.243922 -0.969795 -0.969795 0.243922 414.692 740.663)" fill="#2A4055"/>
<rect x="363" y="739.935" width="5" height="26.2656" rx="2.5" transform="rotate(-75.8819 363 739.935)" fill="#2A4055"/>
<rect width="3.28869" height="17.2758" rx="1.64434" transform="matrix(-0.243922 -0.969795 -0.969795 0.243922 406 666.754)" fill="#2A4055"/>
<rect x="372" y="666.275" width="3.28869" height="17.2758" rx="1.64434" transform="rotate(-75.8819 372 666.275)" fill="#2A4055"/>
<path d="M387.005 808.594C387.002 809.969 388.117 811.086 389.492 811.086C390.874 811.086 391.991 809.96 391.979 808.578L390.01 570.332C390.005 569.642 389.444 569.086 388.754 569.086C388.061 569.086 387.499 569.647 387.497 570.34L387.005 808.594Z" fill="#2A4055"/>
<path d="M370.5 724.586C369.184 700.491 364.5 663.086 364.5 663.086L290.5 661.086L287 688.586C287 688.586 282.775 722.135 277.5 743.086C272.841 761.589 262.5 789.586 262.5 789.586C262.5 789.586 271.304 795.452 277.5 798.086C285.128 801.329 298 803.586 298 803.586C298 803.586 309.807 777.57 315 760.086C322.002 736.513 326 698.086 326 698.086C326 698.086 330.699 726.934 332 745.586C333.617 768.766 332 805.086 332 805.086C332 805.086 343.851 807.4 351.5 807.086C359.038 806.777 370.5 803.586 370.5 803.586C370.5 803.586 372.183 755.392 370.5 724.586Z" fill="url(#paint13_linear_45_294)"/>
<path d="M352 569.586C344.237 567.399 331.5 567.086 331.5 567.086H318.5C318.5 567.086 293.484 578.503 285 592.586C277.96 604.27 273.145 613.502 277 626.586C279.495 635.056 290 645.086 290 645.086C290 645.086 286.072 652.038 287 656.586C287.736 660.196 289.538 661.845 292 664.586C300.751 674.332 319.12 671.527 336.5 669.586C347.938 668.309 359.992 672.448 365 662.086C367.139 657.659 366.5 649.586 366.5 649.586L358 618.086C358 618.086 384.657 627.731 398 619.586C414.855 609.296 410.5 570.586 410.5 570.586L405.5 571.586L402 568.586C402 568.586 394.826 586.836 384.5 590.086C370.186 594.59 366.443 573.656 352 569.586Z" fill="url(#paint14_linear_45_294)"/>
<path d="M342.5 558.586C349.622 552.17 344 534.086 344 534.086L320 540.586L319 567.586C319 567.586 322.381 570.646 325 570.586C327.712 570.524 331 567.086 331 567.086V563.086C331 563.086 338.917 561.814 342.5 558.586Z" fill="#FFC5D4"/>
<path d="M338 544.086C338 544.086 336.422 543.21 335.5 543.586C334.042 544.18 335 547.586 335 547.586M336 544.586C336 544.586 336.323 546.034 337 546.586C337.771 547.215 339.5 547.086 339.5 547.086" stroke="#2A4055" stroke-linecap="round"/>
<path d="M350 527.586C348.36 530.479 347.004 531.898 344.5 534.086C342.705 535.655 339.5 537.586 339.5 537.586L340 543.586L336 540.586C336 540.586 333.199 541.927 332.5 543.586C331.563 545.812 334 549.586 334 549.586L328.5 559.586H322H319.5C319.5 559.586 306.667 555.086 306.5 553.586C306.333 552.086 305.5 547.686 303.5 542.086C301.5 536.486 298.667 533.753 297.5 533.086C296.333 532.419 305.5 531.086 305.5 531.086C306.667 528.586 310.624 524.033 313.5 521.086C317 517.5 323.333 513.253 326 510.586C328.667 507.919 327 513.086 327 513.086C327 513.086 343.433 503.556 346 510.586C346.276 511.342 346.5 512.586 346.5 512.586C346.5 512.586 349.584 509.975 352 509.586C358.983 508.463 353.489 521.434 350 527.586Z" fill="#2A4055"/>
<rect x="376" y="540.086" width="21" height="14" fill="#466481"/>
<path d="M409.5 567.086L410 570.586C410 570.586 407.655 572.3 406 572.086C404.335 571.87 402.5 569.586 402.5 569.586L404 565.586C404 565.586 401.255 560.838 402 557.586C402.804 554.076 404.414 551.902 408 551.586C412.163 551.219 412.5 553.907 412.5 558.086C412.5 562.586 409.5 567.086 409.5 567.086Z" fill="#FFC5D4"/>
</g>
<defs>
<linearGradient id="paint0_linear_45_294" x1="618.5" y1="144" x2="618.5" y2="740.5" gradientUnits="userSpaceOnUse">
<stop stop-color="#DBDAAF"/>
<stop offset="1" stop-color="#ECECC2" stop-opacity="0"/>
</linearGradient>
<linearGradient id="paint1_linear_45_294" x1="617.836" y1="446" x2="617.836" y2="821.335" gradientUnits="userSpaceOnUse">
<stop offset="0.466356" stop-color="#DDDCB2"/>
<stop offset="1" stop-color="#FBFBF3"/>
</linearGradient>
<linearGradient id="paint2_linear_45_294" x1="155.403" y1="714.634" x2="183.457" y2="730.04" gradientUnits="userSpaceOnUse">
<stop stop-color="#B7E987"/>
<stop offset="1" stop-color="#0AA370"/>
</linearGradient>
<linearGradient id="paint3_linear_45_294" x1="170.971" y1="717.494" x2="201.562" y2="747.239" gradientUnits="userSpaceOnUse">
<stop stop-color="#B7E987"/>
<stop offset="1" stop-color="#0AA370"/>
</linearGradient>
<linearGradient id="paint4_linear_45_294" x1="181.345" y1="728.961" x2="171.247" y2="781.83" gradientUnits="userSpaceOnUse">
<stop stop-color="#83C770"/>
<stop offset="1" stop-color="#44905A"/>
</linearGradient>
<linearGradient id="paint5_linear_45_294" x1="201.825" y1="726.936" x2="196.775" y2="753.371" gradientUnits="userSpaceOnUse">
<stop stop-color="#236A59"/>
<stop offset="1" stop-color="#64AE61"/>
</linearGradient>
<linearGradient id="paint6_linear_45_294" x1="197.961" y1="753.522" x2="169.477" y2="786.452" gradientUnits="userSpaceOnUse">
<stop stop-color="#83C770"/>
<stop offset="1" stop-color="#44905A"/>
</linearGradient>
<linearGradient id="paint7_linear_45_294" x1="213.121" y1="760.399" x2="198.879" y2="776.864" gradientUnits="userSpaceOnUse">
<stop stop-color="#236A59"/>
<stop offset="1" stop-color="#64AE61"/>
</linearGradient>
<linearGradient id="paint8_linear_45_294" x1="144.215" y1="745.083" x2="158.557" y2="786.194" gradientUnits="userSpaceOnUse">
<stop stop-color="#83C770"/>
<stop offset="1" stop-color="#44905A"/>
</linearGradient>
<linearGradient id="paint9_linear_45_294" x1="127.587" y1="745.888" x2="134.758" y2="766.443" gradientUnits="userSpaceOnUse">
<stop stop-color="#236A59"/>
<stop offset="1" stop-color="#64AE61"/>
</linearGradient>
<linearGradient id="paint10_linear_45_294" x1="800.325" y1="587.313" x2="889.945" y2="705.3" gradientUnits="userSpaceOnUse">
<stop stop-color="#B7E987"/>
<stop offset="1" stop-color="#0AA370"/>
</linearGradient>
<linearGradient id="paint11_linear_45_294" x1="362.5" y1="823.5" x2="363.5" y2="809" gradientUnits="userSpaceOnUse">
<stop stop-color="#873243"/>
<stop offset="1" stop-color="#D9A372"/>
</linearGradient>
<linearGradient id="paint12_linear_45_294" x1="278.708" y1="815.923" x2="286.041" y2="803.374" gradientUnits="userSpaceOnUse">
<stop stop-color="#873243"/>
<stop offset="1" stop-color="#D9A372"/>
</linearGradient>
<linearGradient id="paint13_linear_45_294" x1="364" y1="682.5" x2="305.5" y2="792" gradientUnits="userSpaceOnUse">
<stop stop-color="#FFE699"/>
<stop offset="1" stop-color="#EDC283"/>
</linearGradient>
<linearGradient id="paint14_linear_45_294" x1="358.5" y1="572" x2="319.5" y2="655" gradientUnits="userSpaceOnUse">
<stop stop-color="#FEC170"/>
<stop offset="1" stop-color="#F1693B"/>
</linearGradient>
<clipPath id="clip0_45_294">
<rect width="1253" height="1080" fill="white"/>
</clipPath>
</defs>
</svg>
