<svg width="1253" height="1080" viewBox="0 0 1253 1080" fill="none" xmlns="http://www.w3.org/2000/svg">
<g clip-path="url(#clip0_14_224)">
<ellipse cx="618.5" cy="687" rx="568.5" ry="543" fill="url(#paint0_linear_14_224)"/>
<path d="M354 346H510C510 346 500.768 330.873 490.873 328.599C482.049 326.572 468.268 333.746 468.268 333.746C468.268 333.746 457.302 317.312 446.408 312.178C422.186 300.766 382.815 337.912 382.815 337.912C382.815 337.912 374.037 334.18 368.408 335.216C361.465 336.494 354 346 354 346Z" fill="white"/>
<path d="M149 475H329C329 475 318.348 457.352 306.93 454.699C296.749 452.334 280.847 460.703 280.847 460.703C280.847 460.703 268.195 441.53 255.624 435.542C227.676 422.227 182.248 465.564 182.248 465.564C182.248 465.564 172.12 461.21 165.624 462.419C157.613 463.91 149 475 149 475Z" fill="white"/>
<path d="M831 357H925C925 357 919.437 347.756 913.475 346.366C908.158 345.127 899.854 349.511 899.854 349.511C899.854 349.511 893.246 339.468 886.682 336.331C872.086 329.357 848.363 352.057 848.363 352.057C848.363 352.057 843.171 352.825 839.878 353.857C835.7 355.167 831 357 831 357Z" fill="white"/>
<ellipse cx="884.5" cy="824.5" rx="30.5" ry="4.5" fill="#BCD389"/>
<path d="M871 508C1025.58 499.221 1187 612.504 1187 612.504V756H50V691.885C50 691.885 222.271 541.573 349.37 557.039C409.177 564.316 493.511 612.504 493.511 612.504C493.511 612.504 739.856 515.448 871 508Z" fill="url(#paint1_linear_14_224)"/>
<ellipse cx="618.5" cy="807.5" rx="568.5" ry="53.5" fill="#CCE59D"/>
<ellipse cx="965.5" cy="828.5" rx="18.5" ry="2.5" fill="#C0D988"/>
<ellipse cx="467.5" cy="803.5" rx="30.5" ry="4.5" fill="#9EB768"/>
<path d="M699.43 700.27V649.759H703.553L704.584 700.27H699.43Z" fill="#8B6D70"/>
<path d="M746.848 498.227L781.896 495.135L601.501 397.206L496.356 462.148L467.493 502.351L746.848 498.227Z" fill="#8C4245"/>
<path d="M684.998 478.642L680.875 485.857L676.752 486.888L678.813 483.796L675.721 478.642H684.998Z" fill="#C87C0C"/>
<path d="M704.584 640.483L748.91 497.198C748.91 497.198 666.067 479.494 612.84 479.674C560.399 479.85 485.018 498.229 485.018 498.229L525.22 644.606L704.584 640.483Z" fill="url(#paint2_linear_14_224)"/>
<path d="M704.584 640.483L748.91 497.198C748.91 497.198 666.067 479.494 612.84 479.674C560.399 479.85 485.018 498.229 485.018 498.229L525.22 644.606L704.584 640.483Z" fill="url(#paint3_linear_14_224)" fill-opacity="0.2"/>
<path d="M582.947 610.588L581.916 605.433L578.823 610.588L581.916 637.389L582.947 610.588Z" fill="#C9774D"/>
<path d="M586.039 605.433L582.946 610.588L614.902 606.464L608.717 602.341L586.039 605.433Z" fill="#EB9365"/>
<path d="M699.43 491.012L703.553 483.796L670.566 446.686L699.43 491.012Z" fill="#C87C0C"/>
<path d="M722.108 483.796H703.553L699.43 491.012H719.015L722.108 483.796Z" fill="#E39015"/>
<path d="M652.011 485.857L648.919 492.042L622.117 425.039L652.011 485.857Z" fill="#C87C0C"/>
<path d="M520.067 614.711L513.882 619.865L532.437 615.742L534.498 611.618L520.067 614.711Z" fill="#EB9365"/>
<path d="M537.592 626.05L534.499 611.618L532.438 615.742L536.561 634.297L537.592 626.05Z" fill="#C9774D"/>
<path d="M541.714 612.649L537.591 617.803L556.146 614.711L559.238 609.557L541.714 612.649Z" fill="#EB9365"/>
<path d="M582.945 610.588L614.901 606.464L608.716 642.543H522.127L513.88 619.865L532.435 615.742L536.558 630.173L537.589 617.803L556.144 614.711L560.267 631.204V614.711L578.822 610.588L581.915 634.297L582.945 610.588Z" fill="url(#paint4_linear_14_224)"/>
<path d="M572.637 611.618L566.452 613.68L574.699 641.512L572.637 611.618Z" fill="url(#paint5_linear_14_224)"/>
<path d="M538.62 637.389L532.435 615.742L524.188 617.803L538.62 637.389Z" fill="url(#paint6_linear_14_224)"/>
<path d="M556.145 614.711L559.237 609.557L560.268 634.297L556.145 614.711Z" fill="#C9774D"/>
<path d="M662.319 700.27V649.759H666.443L667.473 700.27H662.319Z" fill="#8B6D70"/>
<path d="M720.046 544.615C720.046 544.615 723.635 532.329 727.262 525.029C732.459 514.566 744.554 500.616 744.554 500.616L744.786 498.227L731.385 496.166L724.169 514.721L719.015 516.782L722.107 521.936L714.892 542.553L720.046 544.615Z" fill="#CE4837"/>
<path d="M497.387 548.738C497.387 548.738 493.798 536.452 490.171 529.152C484.973 518.689 472.879 504.74 472.879 504.74L472.647 502.351L486.048 500.289L493.264 518.844L498.418 520.906L495.325 526.06L502.541 546.676L497.387 548.738Z" fill="url(#paint7_linear_14_224)"/>
<path d="M629.334 482.765H619.026H614.902L616.964 511.628H620.056L621.087 535.337H625.211V511.628H627.272L629.334 482.765Z" fill="#CE4837"/>
<path d="M550.991 518.844V510.597L547.921 492.183L546.867 488.95H558.206L561.299 540.491H555.114V526.06L550.991 518.844Z" fill="#CE4837"/>
<path d="M691.182 515.751V507.505L694.251 489.09L695.306 485.857H683.967L680.874 537.399H687.059V522.967L691.182 515.751Z" fill="#CE4837"/>
<path d="M703.552 541.522L714.892 502.351L705.614 541.522L691.183 603.372L703.552 541.522Z" fill="#4A3537"/>
<path d="M720.046 424.008L708.707 434.316L692.214 421.946L565.422 402.36L531.404 414.73L514.911 405.453L575.73 363.189C575.73 363.189 567.979 349.562 560.268 343.603C551.986 337.203 535.528 333.295 535.528 333.295L560.268 313.709L575.73 333.295L565.422 310.617L572.638 305.462L586.038 330.202L574.699 301.339L595.316 299.277L596.347 303.401L605.624 302.37L607.686 290L611.809 321.956L612.84 306.493L620.056 305.462L621.086 301.339L629.333 302.37L624.179 355.973L720.046 424.008Z" fill="#FFAA2E"/>
<path d="M580.884 340.511L560.268 313.709L548.929 322.986L580.884 340.511Z" fill="url(#paint8_linear_14_224)"/>
<path d="M567.483 314.74L560.268 313.709L576.761 335.356L567.483 314.74Z" fill="#E39015"/>
<path d="M657.165 391.021C639.454 385.659 624.179 357.004 624.179 357.004L616.963 348.757L630.364 332.264L623.148 349.788L693.244 395.144C693.244 395.144 676.705 403.99 671.597 397.206C670.514 395.768 670.7 394.456 669.535 393.083C666.367 389.348 661.853 392.44 657.165 391.021Z" fill="url(#paint9_linear_14_224)"/>
<path d="M590.162 358.035L573.669 341.541C573.669 341.541 576.197 355.122 573.669 363.189C568.052 381.108 532.436 387.929 532.436 387.929C532.436 387.929 549.712 388.582 560.268 385.867C571.951 382.862 582.931 383.366 588.1 372.466C590.54 367.322 590.162 358.035 590.162 358.035Z" fill="url(#paint10_linear_14_224)"/>
<path d="M707.676 436.378L720.046 424.008L698.399 408.545L543.774 391.021L514.911 405.453L531.404 415.761L565.422 402.36L691.183 422.977L707.676 436.378Z" fill="#E06F21"/>
<path d="M595.048 532.688L591.746 492.042L593.028 532.277L595.048 605.433L595.048 532.688Z" fill="#8C3946"/>
<path d="M464.401 504.412L451 505.443L532.435 414.73L565.422 402.36L691.183 421.946L787.05 496.166C766.285 489.764 754.078 487.856 731.385 487.919L713.861 467.302L722.108 483.796H703.553L675.721 453.902L697.368 481.734L689.121 483.796L684.998 478.642H675.721L678.813 483.796L652.012 485.857L625.21 434.316L645.827 481.734C645.827 481.734 630.817 478.28 621.087 478.642C609.085 479.088 591.193 485.857 591.193 485.857L587.069 418.854V485.857L532.435 491.012V481.734L529.343 491.012H520.065L522.127 483.796L514.911 493.073L474.709 500.289L497.387 471.426L464.401 504.412Z" fill="url(#paint11_linear_14_224)"/>
<path d="M696.337 489.981L684.998 493.073L689.121 483.796L697.368 481.734L696.337 489.981Z" fill="#F4A126"/>
<path d="M617.994 643.574C617.994 643.574 625.047 556.973 658.484 560.171C689.715 563.158 695.306 641.512 695.306 641.512L617.994 643.574Z" fill="#8C3946" stroke="#C54A43" stroke-width="10.3083"/>
<path d="M719.015 682.746L727.262 649.759L719.015 648.728L720.046 660.067L714.892 680.684L711.8 649.759H708.707L714.892 700.27H721.077L719.015 682.746Z" fill="url(#paint12_linear_14_224)"/>
<path d="M513.881 669.345L528.312 649.759H522.127L512.85 665.221L515.942 649.759H511.819L503.572 701.3L511.819 719L513.881 669.345Z" fill="url(#paint13_linear_14_224)"/>
<path d="M611.809 673.468L577.792 650.79V649.759H572.638L607.686 679.653L602.532 701.3L637.58 702.331L631.395 675.53L653.042 649.759H646.857L629.333 667.283L627.272 658.006L634.487 649.759H605.624L614.902 658.006L611.809 673.468Z" fill="#9A4943"/>
<path d="M619.025 656.975L605.624 649.759L614.902 658.006L611.809 673.468L577.792 650.79V647.697H570.576L607.686 679.653L602.532 701.3H612.84L619.025 656.975Z" fill="#873E39"/>
<path d="M498.418 649.759V642.543H615.932C674.483 642.543 726.231 637.733 744.786 635.327L738.601 649.759H498.418Z" fill="#EB4F39"/>
<path d="M592.224 598.218C598.757 598.218 604.243 594.103 607.945 588.344C611.669 582.551 613.871 574.736 613.871 566.262C613.871 557.788 611.669 549.973 607.945 544.18C604.243 538.421 598.757 534.306 592.224 534.306C585.691 534.306 580.205 538.421 576.502 544.18C572.778 549.973 570.576 557.788 570.576 566.262C570.576 574.736 572.778 582.551 576.502 588.344C580.205 594.103 585.691 598.218 592.224 598.218Z" fill="#8C3946" stroke="#C54A43" stroke-width="6.18497"/>
<rect x="658.196" y="692.023" width="47.4181" height="4.12331" fill="#4A3537"/>
<rect x="658.196" y="675.53" width="47.4181" height="4.12331" fill="#4A3537"/>
<rect x="658.196" y="659.036" width="47.4181" height="4.12331" fill="#4A3537"/>
<path d="M616.964 352.881L607.686 336.387L597.378 352.881C597.378 352.881 586.709 369.638 589.131 380.713C592.942 398.132 629.334 402.36 629.334 402.36C629.334 402.36 638.704 381.249 633.457 369.374C629.775 361.042 616.964 352.881 616.964 352.881Z" fill="url(#paint14_linear_14_224)"/>
<path d="M607.686 340.511L608.716 373.497L627.271 399.268" stroke="#B38B19" stroke-width="2.06166" stroke-linecap="round"/>
<path d="M600.47 350.819C589.82 352.833 573.669 362.158 573.669 362.158C573.669 362.158 589.628 357.034 599.44 355.973C610.246 354.805 631.395 354.942 631.395 354.942L626.241 349.788C626.241 349.788 610.755 348.874 600.47 350.819Z" fill="url(#paint15_linear_14_224)"/>
<path d="M608.717 363.189L569.545 367.312L560.268 372.466L608.717 369.374L657.165 371.435L653.042 367.312L608.717 363.189Z" fill="url(#paint16_linear_14_224)"/>
<rect x="654.074" y="564.2" width="4.12331" height="74.2196" fill="#C54A43"/>
<rect x="590.162" y="537.399" width="4.12331" height="59.788" fill="#C54A43"/>
<rect x="569.545" y="568.324" width="4.12331" height="45.3564" transform="rotate(-90 569.545 568.324)" fill="#C54A43"/>
<circle cx="593.255" cy="565.231" r="5.15414" fill="#F59B96"/>
<rect x="621.087" y="603.372" width="4.12331" height="70.0963" transform="rotate(-90 621.087 603.372)" fill="#C54A43"/>
<path d="M464.401 504.412L451 505.443L453.062 510.597L466.462 509.566L464.401 504.412Z" fill="#F4A126"/>
<path d="M475.74 499.258L466.463 509.566L464.401 504.412L475.74 493.073L497.388 471.426L475.74 499.258Z" fill="#E39015"/>
<path d="M475.74 499.258L471.616 502.351L477.801 504.412L518.003 497.196L514.911 493.073L475.74 499.258Z" fill="#F4A126"/>
<path d="M518.004 497.196L514.911 493.073L523.158 481.734L520.065 491.012L518.004 497.196Z" fill="#E39015"/>
<path d="M599.439 608.526L582.946 610.588L581.915 641.512H593.254L599.439 608.526Z" fill="url(#paint17_linear_14_224)"/>
<path d="M522.127 495.135L520.065 491.012H529.343L531.405 495.135H522.127Z" fill="#F4A126"/>
<path d="M531.404 495.135L529.343 491.012L532.435 479.672V491.012L531.404 495.135Z" fill="#E39015"/>
<path d="M537.59 496.166L532.436 491.012L587.069 485.857L591.193 491.012L537.59 496.166Z" fill="#F4A126"/>
<path d="M591.193 491.011L587.069 485.857V411.638L591.193 485.857V491.011Z" fill="#E39015"/>
<path d="M620.056 477.611C608.348 478.217 591.192 485.857 591.192 485.857L596.347 491.012C596.347 491.012 610.523 485.659 620.056 484.827C629.714 483.983 643.765 486.888 643.765 486.888L645.826 481.734C645.826 481.734 630.631 477.063 620.056 477.611Z" fill="#F4A126"/>
<path d="M648.919 492.042L652.011 485.857L678.813 483.796L675.72 489.981L648.919 492.042Z" fill="#E39015"/>
<path d="M680.875 484.827L684.998 478.642L689.122 483.796L684.998 493.073L680.875 484.827Z" fill="#E39015"/>
<path d="M778.804 502.351L787.05 496.166C787.05 496.166 770.442 489.512 759.218 487.919C748.456 486.392 731.385 487.919 731.385 487.919L728.293 496.166C728.293 496.166 746.68 494.195 758.187 496.166C766.472 497.585 778.804 502.351 778.804 502.351Z" fill="#C87C0C"/>
<path d="M731.385 487.919L728.292 496.166L709.737 460.087L731.385 487.919Z" fill="#A76505"/>
<path d="M514.912 493.073L475.74 499.258L558.206 421.946L514.912 493.073Z" fill="url(#paint18_linear_14_224)"/>
<path d="M615.933 416.792L652.012 485.857L666.443 484.827L615.933 416.792Z" fill="url(#paint19_linear_14_224)"/>
<path d="M564.391 609.557L560.268 614.711L578.822 610.588L581.915 605.433L564.391 609.557Z" fill="#EB9365"/>
<path d="M498.419 520.906L493.265 518.844L486.049 522.967L489.141 528.121L495.326 526.06L498.419 520.906Z" fill="#FA7663"/>
<path d="M550.99 518.844V510.597H560.268L561.299 527.09H555.114L550.99 518.844Z" fill="#FA7663"/>
<path d="M530.373 544.615L519.034 505.443L528.312 544.615L542.743 606.464L530.373 544.615Z" fill="#8C3946"/>
<path d="M565.422 576.57L559.237 541.522L563.361 576.57L570.576 607.495L565.422 576.57Z" fill="#8C3946"/>
<path d="M576.761 306.493L572.638 305.462L586.038 330.202L576.761 306.493Z" fill="#E39015"/>
<path d="M596.347 303.401L595.316 299.277L605.625 302.37L596.347 303.401Z" fill="#E39015"/>
<path d="M612.84 306.493L607.686 290L611.809 324.017L612.84 306.493Z" fill="#E39015"/>
<path d="M620.056 305.462L621.086 301.339L612.84 305.462V306.493L620.056 305.462Z" fill="#D0800A"/>
<path d="M590.162 340.511L574.699 301.339L583.977 300.308L590.162 340.511Z" fill="url(#paint20_linear_14_224)"/>
<path d="M608.717 374.528L606.655 388.96" stroke="#B38B19" stroke-width="2.06166" stroke-linecap="round"/>
<path d="M608.718 374.086L621.331 381.396" stroke="#B38B19" stroke-width="2.06166" stroke-linecap="round"/>
<path d="M627.272 511.628H616.963L615.933 496.166H628.303L627.272 511.628Z" fill="#FA7663"/>
<path d="M691.183 515.751V505.443H682.936L681.905 523.998H687.059L691.183 515.751Z" fill="#FA7663"/>
<path d="M719.016 516.782L724.17 514.721L731.386 517.813L727.262 525.029L722.108 521.936L719.016 516.782Z" fill="#FA7663"/>
<path d="M738.601 649.759L742.724 640.482L721.077 644.605L498.418 649.759H738.601Z" fill="#C63824"/>
<path d="M342.997 626.124L342.257 744.869L352.617 746.956C352.617 746.956 356.918 704.366 356.807 686.188C356.626 656.513 342.997 626.124 342.997 626.124Z" fill="url(#paint21_linear_14_224)"/>
<path d="M314.024 684.474C307.653 665.308 300.078 634.671 300.078 634.671C300.078 634.671 319.843 663.092 329.269 683.04C339.544 704.786 349.263 741.293 349.263 741.293L340.508 749.616C340.508 749.616 322.688 710.533 314.024 684.474Z" fill="url(#paint22_linear_14_224)"/>
<path d="M329.741 743.544C312.566 709.696 303.534 691.967 287.733 662.893C287.733 662.893 306.573 682.052 316.916 695.745C327.037 709.143 340.091 731.961 340.091 731.961L329.741 743.544Z" fill="url(#paint23_linear_14_224)"/>
<path d="M284.648 673.827C294.702 680.036 314.945 693.165 314.945 693.165C314.945 693.165 299.258 674.705 289.295 663.333L241.046 662.204C241.046 662.204 274.595 667.619 284.648 673.827Z" fill="url(#paint24_linear_14_224)"/>
<path d="M330.051 748.669C304.315 731.924 290.81 723.167 267.971 709.209C267.971 709.209 288.923 714.994 301.711 720.393C314.224 725.676 332.607 736.367 332.607 736.367L330.051 748.669Z" fill="url(#paint25_linear_14_224)"/>
<path d="M270.239 718.115C279.793 718.39 299.285 719.385 299.285 719.385C299.285 719.385 280.825 712.812 269.242 708.885L235 727.635C235 727.635 260.685 717.839 270.239 718.115Z" fill="url(#paint26_linear_14_224)"/>
<path d="M338.235 750.062C355.986 725.01 365.313 711.893 381.4 690.498C381.4 690.498 364.056 703.599 354.157 713.331C344.472 722.854 331.324 739.568 331.324 739.568L338.235 750.062Z" fill="url(#paint27_linear_14_224)"/>
<path d="M382.574 699.613C373.794 703.391 356.041 711.5 356.041 711.5C356.041 711.5 370.779 698.586 380.099 690.666L418.841 695.475C418.841 695.475 391.354 695.836 382.574 699.613Z" fill="url(#paint28_linear_14_224)"/>
<path d="M314.523 593C331.826 644.754 338.392 674.725 344.023 730" stroke="#9B341F" stroke-linecap="round"/>
<rect width="11.5347" height="59" rx="5.76733" transform="matrix(-0.963993 0.265928 0.265928 0.963993 323.834 599.5)" fill="#F68E50"/>
<path d="M375.031 620.5C360.76 663.188 355.344 687.908 350.699 733.5" stroke="#9B341F" stroke-linecap="round"/>
<rect x="367.352" y="625.861" width="9.51398" height="48.6642" rx="4.75699" transform="rotate(15.4221 367.352 625.861)" fill="#F68E50"/>
<path d="M435.046 681.33C428.454 692.65 424.875 713.296 424.875 713.296C424.875 713.296 426.178 696.832 424.875 686.416C423.15 672.609 414.704 652.27 414.704 652.27C421.292 681.31 419.532 697.692 407.439 727.1L448.123 722.741C452.893 708.853 456.988 702.19 467.012 692.228C467.012 692.228 456.011 697.322 450.303 702.399C444.409 707.641 437.952 718.382 437.952 718.382L459.021 655.903C459.021 655.903 441.915 669.536 435.046 681.33Z" fill="url(#paint29_linear_14_224)"/>
<path d="M245.518 724.003C250.181 732.136 252.712 746.969 252.712 746.969C252.712 746.969 251.791 735.141 252.712 727.657C253.933 717.738 259.906 703.125 259.906 703.125C255.247 723.989 256.492 735.758 265.045 756.886L236.268 753.754C232.895 743.777 229.999 738.99 222.908 731.832C222.908 731.832 230.689 735.493 234.727 739.14C238.896 742.906 243.463 750.623 243.463 750.623L228.56 705.735C228.56 705.735 240.66 715.53 245.518 724.003Z" fill="url(#paint30_linear_14_224)"/>
<path d="M1182.43 785.852H1187V808.019L50 815.999V782.306H62.1849L67.5157 765.459L74.3697 778.759L82.7468 769.006L85.0315 758.366L94.1701 769.006L103.309 756.593L106.355 765.459L109.401 758.366L111.686 765.459L117.017 749.499L128.44 758.366V753.933L142.91 761.913V752.159L149.002 758.366L155.094 749.499L160.425 758.366L167.279 749.499L168.802 756.593L174.133 745.066L182.51 756.593L195.457 749.499V756.593L198.503 749.499L200.788 756.593L206.119 743.293L219.065 752.159V746.839L229.727 753.933L232.773 746.839L236.581 752.159L244.958 745.066L249.527 756.593L257.904 749.499L260.95 741.519L267.804 752.159L279.989 743.293L283.036 749.499L287.605 743.293V746.839L290.651 734.426L298.267 741.519H305.121L302.836 736.199L314.259 741.519H324.921L329.49 731.766L334.821 738.859L343.198 734.426L349.291 725.56L356.906 736.199L366.045 727.333V736.199L372.899 727.333L376.707 731.766L379.753 719.353L386.607 727.333V725.56L391.176 723.786L398.792 729.106L401.076 725.56H409.453L417.069 719.353L421.638 727.333L429.254 721.126L435.346 709.6L438.393 721.126H444.485L452.1 716.693L453.624 725.56L458.193 716.693L461.239 717.58L465.047 707.826L474.186 714.92L471.901 707.826L490.94 711.373L497.032 712.26L503.886 704.28L508.455 712.26L516.071 706.053L519.117 696.3L528.256 707.826L540.441 699.846L541.964 707.826L545.772 699.846L547.295 704.28L553.387 690.98L561.764 699.846L560.241 692.753L577.757 701.62L581.565 694.527L585.372 699.846L588.419 691.867L594.511 701.62L597.557 697.186L603.65 696.3L608.219 686.547L617.358 695.413L627.258 687.433V696.3L636.397 684.773L635.635 694.527L642.489 683L650.866 690.093H655.435V684.773L665.336 692.753L666.859 687.433L672.19 696.3L679.044 687.433L682.851 694.527L693.513 684.773V690.093L700.367 683.887L704.936 694.527L720.167 687.433L718.644 696.3L723.975 690.98V696.3L731.591 683.887L735.399 696.3L739.206 692.753L742.253 697.186L743.014 690.093L751.391 699.846V696.3L757.484 701.62L768.145 696.3L771.953 706.053H781.092L785.661 696.3L790.23 708.713L809.269 706.053V712.26L819.169 703.393V715.806L826.785 712.26L837.447 718.466V712.26L847.347 722.013L854.963 715.806L858.77 722.013L866.386 718.466L870.194 715.806L877.809 728.22L888.471 722.013L891.517 731.766L894.563 728.22L902.94 718.466L906.748 722.013L909.033 731.766H913.602V728.22L919.695 731.766L931.879 737.973L941.78 731.766L944.064 745.066L952.441 741.519L962.342 734.426V745.066L973.003 737.973V748.613L980.619 741.519L982.904 748.613L994.327 741.519V751.273H1003.47L1010.32 754.819H1018.7L1024.79 751.273V764.573H1035.45L1045.35 758.366L1047.64 767.232L1065.91 764.573V773.439L1078.86 758.366V767.232H1086.47L1094.85 773.439V754.819L1107.8 773.439L1117.7 764.573L1113.89 776.099H1124.55L1132.93 773.439L1136.74 782.306L1148.92 776.099V782.306L1151.21 779.646L1154.25 785.852L1162.63 773.439L1167.2 779.646H1171.01L1173.29 785.852L1176.34 779.646L1182.43 785.852Z" fill="url(#paint31_linear_14_224)"/>
<mask id="mask0_14_224" style="mask-type:alpha" maskUnits="userSpaceOnUse" x="50" y="683" width="1137" height="133">
<path d="M1182.43 785.852H1187V808.019L50 815.999V782.306H62.1849L67.5157 765.459L74.3697 778.759L82.7468 769.006L85.0315 758.366L94.1701 769.006L103.309 756.593L106.355 765.459L109.401 758.366L111.686 765.459L117.017 749.499L128.44 758.366V753.933L142.91 761.913V752.159L149.002 758.366L155.094 749.499L160.425 758.366L167.279 749.499L168.802 756.593L174.133 745.066L182.51 756.593L195.457 749.499V756.593L198.503 749.499L200.788 756.593L206.119 743.293L219.065 752.159V746.839L229.727 753.933L232.773 746.839L236.581 752.159L244.958 745.066L249.527 756.593L257.904 749.499L260.95 741.519L267.804 752.159L279.989 743.293L283.035 749.499L287.605 743.293V746.839L290.651 734.426L298.267 741.519H305.121L302.836 736.199L314.259 741.519H324.921L329.49 731.766L334.821 738.859L343.198 734.426L349.291 725.56L356.906 736.199L366.045 727.333V736.199L372.899 727.333L376.707 731.766L379.753 719.353L386.607 727.333V725.56L391.176 723.786L398.792 729.106L401.076 725.56H409.453L417.069 719.353L421.638 727.333L429.254 721.126L435.346 709.6L438.392 721.126H444.485L452.1 716.693L453.624 725.56L458.193 716.693L461.239 717.58L465.047 707.826L474.185 714.92L471.901 707.826L490.94 711.373L497.032 712.26L503.886 704.28L508.455 712.26L516.071 706.053L519.117 696.3L528.256 707.826L540.441 699.846L541.964 707.826L545.772 699.846L547.295 704.28L553.387 690.98L561.764 699.846L560.241 692.753L577.757 701.62L581.565 694.527L585.372 699.846L588.419 691.867L594.511 701.62L597.557 697.187L603.65 696.3L608.219 686.547L617.358 695.413L627.258 687.433V696.3L636.396 684.773L635.635 694.527L642.489 683L650.866 690.093H655.435V684.773L665.335 692.753L666.859 687.433L672.19 696.3L679.043 687.433L682.851 694.527L693.513 684.773V690.093L700.367 683.887L704.936 694.527L720.167 687.433L718.644 696.3L723.975 690.98V696.3L731.591 683.887L735.398 696.3L739.206 692.753L742.252 697.187L743.014 690.093L751.391 699.846V696.3L757.484 701.62L768.145 696.3L771.953 706.053H781.092L785.661 696.3L790.23 708.713L809.269 706.053V712.26L819.169 703.393V715.806L826.785 712.26L837.447 718.466V712.26L847.347 722.013L854.962 715.806L858.77 722.013L866.386 718.466L870.193 715.806L877.809 728.22L888.471 722.013L891.517 731.766L894.563 728.22L902.94 718.466L906.748 722.013L909.033 731.766H913.602V728.22L919.694 731.766L931.879 737.973L941.779 731.766L944.064 745.066L952.441 741.519L962.341 734.426V745.066L973.003 737.973V748.613L980.619 741.519L982.903 748.613L994.327 741.519V751.273H1003.47L1010.32 754.819H1018.7L1024.79 751.273V764.573H1035.45L1045.35 758.366L1047.64 767.232L1065.91 764.573V773.439L1078.86 758.366V767.232H1086.47L1094.85 773.439V754.819L1107.8 773.439L1117.7 764.573L1113.89 776.099H1124.55L1132.93 773.439L1136.74 782.306L1148.92 776.099V782.306L1151.21 779.646L1154.25 785.852L1162.63 773.439L1167.2 779.646H1171.01L1173.29 785.852L1176.34 779.646L1182.43 785.852Z" fill="url(#paint32_linear_14_224)"/>
</mask>
<g mask="url(#mask0_14_224)">
<path d="M654.674 803.132L658.482 813.772V819.979H88.0781L97.2168 807.565L98.7399 815.545H123.871L126.917 800.472L133.01 811.999L136.056 804.905L138.341 811.112V804.905L152.049 811.112V803.132L158.903 811.112L164.995 800.472L170.326 811.999L177.941 805.792L184.034 795.152L190.888 805.792L203.073 797.812V806.679L206.881 796.039L209.927 802.245L212.973 788.059L220.589 799.585L222.112 790.719L225.158 797.812L226.681 790.719L236.581 799.585V790.719L244.197 796.039L251.051 786.286L255.62 796.039L266.282 790.719L269.328 780.079L276.944 792.492L289.128 782.739V792.492L293.698 783.626L295.982 790.719L300.552 774.759L308.167 788.059V778.306L312.737 783.626V776.532L325.683 785.399L323.398 778.306L332.537 782.739L338.629 776.532L344.722 783.626L350.814 780.079L359.953 770.326L363.761 780.966L376.707 774.759V782.739L381.276 774.759L383.561 780.079L388.892 765.892L394.223 776.532L398.792 769.439L401.077 776.532V769.439L417.831 784.512L416.308 771.212L427.731 784.512L430.016 774.759L433.062 782.739L448.293 767.666L452.862 780.079L466.57 772.986L463.524 781.852L471.14 774.759V780.079L478.755 767.666L484.086 780.079L488.656 774.759L491.702 781.852V774.759L502.363 785.399L501.602 778.306L509.217 786.286L516.071 778.306L516.833 789.832L527.495 787.172L535.872 780.079L539.68 792.492L552.626 789.832L551.865 796.925L556.434 792.492L560.242 798.699L559.48 792.492L565.572 786.286L571.665 799.585L573.188 796.925L573.95 790.719L585.373 803.132L587.658 796.039L593.75 804.905L603.65 796.039V810.225L615.073 806.679L620.404 799.585L624.974 810.225L642.489 806.679L638.682 816.432L654.674 803.132Z" fill="#BCD389"/>
<path d="M1017.6 814.24L1021.4 824.88V831.086H451L460.139 818.673L461.662 826.653H486.793L489.839 811.58L495.932 823.106L498.978 816.013L501.263 822.22V816.013L514.971 822.22V814.24L521.825 822.22L527.917 811.58L533.248 823.106L540.863 816.9L546.956 806.26L553.81 816.9L565.995 808.92V817.786L569.802 807.146L572.849 813.353L575.895 799.166L583.51 810.693L585.034 801.826L588.08 808.92L589.603 801.826L599.503 810.693V801.826L607.119 807.146L613.973 797.393L618.542 807.146L629.204 801.826L632.25 791.187L639.865 803.6L652.05 793.847V803.6L656.62 794.733L658.904 801.826L663.474 785.867L671.089 799.166V789.413L675.658 794.733V787.64L688.605 796.506L686.32 789.413L695.459 793.847L701.551 787.64L707.644 794.733L713.736 791.187L722.875 781.433L726.683 792.073L739.629 785.867V793.847L744.198 785.867L746.483 791.187L751.814 777L757.145 787.64L761.714 780.547L763.999 787.64V780.547L780.753 795.62L779.23 782.32L790.653 795.62L792.938 785.867L795.984 793.847L811.215 778.773L815.784 791.187L829.492 784.093L826.446 792.96L834.062 785.867V791.187L841.677 778.773L847.008 791.187L851.577 785.867L854.624 792.96V785.867L865.285 796.506L864.524 789.413L872.139 797.393L878.993 789.413L879.755 800.94L890.417 798.28L898.794 791.187L902.602 803.6L915.548 800.94L914.786 808.033L919.356 803.6L923.163 809.806L922.402 803.6L928.494 797.393L934.587 810.693L936.11 808.033L936.871 801.826L948.295 814.24L950.579 807.146L956.672 816.013L966.572 807.146V821.333L977.995 817.786L983.326 810.693L987.896 821.333L1005.41 817.786L1001.6 827.54L1017.6 814.24Z" fill="#BCD389"/>
</g>
<ellipse cx="677.5" cy="829.5" rx="30.5" ry="4.5" fill="#C0D988"/>
<path d="M687.5 816.748C685.619 821.451 681.5 828.248 681.5 828.248L680 827.248C680 827.248 680.5 819.748 683 814.248C683.874 812.325 685.622 810.281 687.5 811.248C689.409 812.232 688.5 814.248 687.5 816.748Z" fill="url(#paint33_linear_14_224)"/>
<path d="M692.032 823.41C690.226 825.726 686.836 828.848 686.836 828.848L686.161 828.05C686.161 828.05 687.647 823.953 689.926 821.292C690.723 820.362 692.026 819.505 692.917 820.346C693.824 821.202 692.992 822.179 692.032 823.41Z" fill="url(#paint34_linear_14_224)"/>
<path d="M672.893 818.665C673.978 822.567 676.659 828.328 676.659 828.328L677.94 827.665C677.94 827.665 678.198 821.662 676.69 817.072C676.164 815.468 674.952 813.69 673.374 814.295C671.769 814.909 672.316 816.591 672.893 818.665Z" fill="url(#paint35_linear_14_224)"/>
<ellipse rx="46.413" ry="6.84783" transform="matrix(-1 0 0 1 305.5 827.152)" fill="#C0D988"/>
<path d="M290.282 807.747C293.145 814.904 299.413 825.247 299.413 825.247L301.695 823.725C301.695 823.725 300.934 812.312 297.13 803.942C295.8 801.017 293.139 797.905 290.282 799.377C287.377 800.874 288.761 803.943 290.282 807.747Z" fill="url(#paint36_linear_14_224)"/>
<path d="M283.386 817.885C286.134 821.41 291.293 826.161 291.293 826.161L292.32 824.945C292.32 824.945 290.059 818.711 286.591 814.662C285.378 813.247 283.394 811.943 282.038 813.223C280.659 814.525 281.925 816.011 283.386 817.885Z" fill="url(#paint37_linear_14_224)"/>
<path d="M312.511 810.664C310.859 816.602 306.779 825.369 306.779 825.369L304.831 824.36C304.831 824.36 304.438 815.224 306.732 808.241C307.534 805.799 309.378 803.094 311.779 804.014C314.221 804.949 313.388 807.508 312.511 810.664Z" fill="url(#paint38_linear_14_224)"/>
<path d="M958.079 815.748C959.96 820.451 964.079 827.248 964.079 827.248L965.579 826.248C965.579 826.248 965.079 818.748 962.579 813.248C961.705 811.325 959.957 809.281 958.079 810.248C956.17 811.232 957.079 813.248 958.079 815.748Z" fill="url(#paint39_linear_14_224)"/>
<path d="M953.547 822.41C955.353 824.726 958.743 827.848 958.743 827.848L959.418 827.05C959.418 827.05 957.932 822.953 955.653 820.292C954.856 819.362 953.553 818.505 952.662 819.346C951.756 820.202 952.587 821.179 953.547 822.41Z" fill="url(#paint40_linear_14_224)"/>
<path d="M972.467 817.665C971.382 821.567 968.701 827.328 968.701 827.328L967.421 826.665C967.421 826.665 967.163 820.662 968.67 816.072C969.197 814.468 970.409 812.69 971.986 813.295C973.591 813.909 973.044 815.591 972.467 817.665Z" fill="url(#paint41_linear_14_224)"/>
<path d="M939.527 629.624L940.267 748.369L929.907 750.456C929.907 750.456 925.605 707.866 925.716 689.688C925.897 660.013 939.527 629.624 939.527 629.624Z" fill="url(#paint42_linear_14_224)"/>
<path d="M968.499 687.974C974.871 668.808 982.446 638.171 982.446 638.171C982.446 638.171 962.68 666.592 953.255 686.54C942.979 708.286 933.26 744.793 933.26 744.793L942.016 753.116C942.016 753.116 959.836 714.033 968.499 687.974Z" fill="url(#paint43_linear_14_224)"/>
<path d="M952.782 747.044C969.957 713.196 978.989 695.467 994.79 666.393C994.79 666.393 975.951 685.552 965.607 699.245C955.487 712.643 942.433 735.461 942.433 735.461L952.782 747.044Z" fill="url(#paint44_linear_14_224)"/>
<path d="M997.875 677.327C987.822 683.536 967.579 696.665 967.579 696.665C967.579 696.665 983.265 678.205 993.229 666.833L1041.48 665.704C1041.48 665.704 1007.93 671.119 997.875 677.327Z" fill="url(#paint45_linear_14_224)"/>
<path d="M952.472 752.169C978.208 735.424 991.713 726.667 1014.55 712.709C1014.55 712.709 993.601 718.494 980.812 723.893C968.299 729.176 949.917 739.867 949.917 739.867L952.472 752.169Z" fill="url(#paint46_linear_14_224)"/>
<path d="M1012.28 721.615C1002.73 721.89 983.238 722.885 983.238 722.885C983.238 722.885 1001.7 716.312 1013.28 712.385L1047.52 731.135C1047.52 731.135 1021.84 721.339 1012.28 721.615Z" fill="url(#paint47_linear_14_224)"/>
<path d="M944.289 753.562C926.537 728.51 917.21 715.393 901.124 693.998C901.124 693.998 918.468 707.099 928.366 716.831C938.051 726.354 951.199 743.068 951.199 743.068L944.289 753.562Z" fill="url(#paint48_linear_14_224)"/>
<path d="M899.949 703.113C908.729 706.891 926.483 715 926.483 715C926.483 715 911.744 702.086 902.425 694.166L863.682 698.975C863.682 698.975 891.169 699.336 899.949 703.113Z" fill="url(#paint49_linear_14_224)"/>
<path d="M968 596.5C950.698 648.254 944.132 678.225 938.5 733.5" stroke="#9B341F" stroke-linecap="round"/>
<rect x="958.689" y="603" width="11.5347" height="59" rx="5.76733" transform="rotate(15.4221 958.689 603)" fill="#F68E50"/>
<path d="M907.492 624C921.763 666.688 927.179 691.408 931.824 737" stroke="#9B341F" stroke-linecap="round"/>
<rect width="9.51398" height="48.6642" rx="4.75699" transform="matrix(-0.963993 0.265928 0.265928 0.963993 915.172 629.361)" fill="#F68E50"/>
</g>
<defs>
<linearGradient id="paint0_linear_14_224" x1="618.5" y1="144" x2="618.5" y2="740.5" gradientUnits="userSpaceOnUse">
<stop stop-color="#DBDAAF"/>
<stop offset="1" stop-color="#ECECC2" stop-opacity="0"/>
</linearGradient>
<linearGradient id="paint1_linear_14_224" x1="618.5" y1="493.432" x2="618.5" y2="637.651" gradientUnits="userSpaceOnUse">
<stop stop-color="#DBDAAF"/>
<stop offset="1" stop-color="#ECECC2" stop-opacity="0"/>
</linearGradient>
<linearGradient id="paint2_linear_14_224" x1="413.767" y1="545.01" x2="638.551" y2="676.533" gradientUnits="userSpaceOnUse">
<stop stop-color="#D7A071"/>
<stop offset="1" stop-color="#873243"/>
</linearGradient>
<linearGradient id="paint3_linear_14_224" x1="565.422" y1="562.139" x2="556.145" y2="630.173" gradientUnits="userSpaceOnUse">
<stop stop-opacity="0"/>
<stop offset="1"/>
</linearGradient>
<linearGradient id="paint4_linear_14_224" x1="564.906" y1="607.495" x2="564.906" y2="642.543" gradientUnits="userSpaceOnUse">
<stop stop-color="#FDB691"/>
<stop offset="1" stop-color="#E88E5F"/>
</linearGradient>
<linearGradient id="paint5_linear_14_224" x1="570.575" y1="611.618" x2="570.575" y2="641.512" gradientUnits="userSpaceOnUse">
<stop stop-color="#F9C2A5"/>
<stop offset="1" stop-color="#FBB18A" stop-opacity="0.42"/>
</linearGradient>
<linearGradient id="paint6_linear_14_224" x1="531.404" y1="615.742" x2="535.528" y2="637.389" gradientUnits="userSpaceOnUse">
<stop stop-color="#F9C2A5"/>
<stop offset="1" stop-color="#FCB38D" stop-opacity="0"/>
</linearGradient>
<linearGradient id="paint7_linear_14_224" x1="479.863" y1="527.091" x2="499.449" y2="519.875" gradientUnits="userSpaceOnUse">
<stop stop-color="#EB6554"/>
<stop offset="1" stop-color="#CE4837"/>
</linearGradient>
<linearGradient id="paint8_linear_14_224" x1="555.114" y1="315.771" x2="575.73" y2="339.48" gradientUnits="userSpaceOnUse">
<stop stop-color="#FFC546"/>
<stop offset="1" stop-color="#FFC546" stop-opacity="0"/>
</linearGradient>
<linearGradient id="paint9_linear_14_224" x1="634.542" y1="337.83" x2="653.34" y2="399.759" gradientUnits="userSpaceOnUse">
<stop stop-color="#866304"/>
<stop offset="1" stop-color="#A37D0C"/>
</linearGradient>
<linearGradient id="paint10_linear_14_224" x1="545.744" y1="345.523" x2="558.566" y2="390.228" gradientUnits="userSpaceOnUse">
<stop stop-color="#866304"/>
<stop offset="1" stop-color="#A37D0C"/>
</linearGradient>
<linearGradient id="paint11_linear_14_224" x1="602.532" y1="489.981" x2="667.474" y2="392.052" gradientUnits="userSpaceOnUse">
<stop stop-color="#FFAA2E"/>
<stop offset="1" stop-color="#E4931D"/>
</linearGradient>
<linearGradient id="paint12_linear_14_224" x1="703.697" y1="669.768" x2="729.496" y2="672.287" gradientUnits="userSpaceOnUse">
<stop stop-color="#D7A071"/>
<stop offset="1" stop-color="#873243"/>
</linearGradient>
<linearGradient id="paint13_linear_14_224" x1="496.892" y1="670.799" x2="531.041" y2="675.244" gradientUnits="userSpaceOnUse">
<stop stop-color="#D7A071"/>
<stop offset="1" stop-color="#873243"/>
</linearGradient>
<linearGradient id="paint14_linear_14_224" x1="599.347" y1="342.042" x2="627.796" y2="395.654" gradientUnits="userSpaceOnUse">
<stop stop-color="#866304"/>
<stop offset="1" stop-color="#A37D0C"/>
</linearGradient>
<linearGradient id="paint15_linear_14_224" x1="600.986" y1="349.955" x2="600.986" y2="361.127" gradientUnits="userSpaceOnUse">
<stop stop-color="#C54E36"/>
<stop offset="1" stop-color="#9B341F"/>
</linearGradient>
<linearGradient id="paint16_linear_14_224" x1="600.47" y1="363.189" x2="600.47" y2="373.497" gradientUnits="userSpaceOnUse">
<stop stop-color="#C54E36"/>
<stop offset="1" stop-color="#9B341F"/>
</linearGradient>
<linearGradient id="paint17_linear_14_224" x1="590.677" y1="608.526" x2="590.677" y2="641.512" gradientUnits="userSpaceOnUse">
<stop offset="0.310102" stop-color="#F9C2A5"/>
<stop offset="1" stop-color="#FBB18A" stop-opacity="0"/>
</linearGradient>
<linearGradient id="paint18_linear_14_224" x1="503.573" y1="500.289" x2="562.33" y2="419.884" gradientUnits="userSpaceOnUse">
<stop stop-color="#FFC82E"/>
<stop offset="1" stop-color="#FFC82E" stop-opacity="0"/>
</linearGradient>
<linearGradient id="paint19_linear_14_224" x1="662.32" y1="485.857" x2="645.439" y2="408.515" gradientUnits="userSpaceOnUse">
<stop stop-color="#FFC82E"/>
<stop offset="1" stop-color="#FFC82E" stop-opacity="0"/>
</linearGradient>
<linearGradient id="paint20_linear_14_224" x1="582.43" y1="300.308" x2="582.43" y2="340.511" gradientUnits="userSpaceOnUse">
<stop stop-color="#FFCE54"/>
<stop offset="1" stop-color="#FFC32E" stop-opacity="0"/>
</linearGradient>
<linearGradient id="paint21_linear_14_224" x1="348.606" y1="636.1" x2="303.208" y2="661.031" gradientUnits="userSpaceOnUse">
<stop stop-color="#B7E987"/>
<stop offset="1" stop-color="#0AA370"/>
</linearGradient>
<linearGradient id="paint22_linear_14_224" x1="323.413" y1="640.728" x2="273.91" y2="688.862" gradientUnits="userSpaceOnUse">
<stop stop-color="#B7E987"/>
<stop offset="1" stop-color="#0AA370"/>
</linearGradient>
<linearGradient id="paint23_linear_14_224" x1="306.626" y1="659.284" x2="322.968" y2="744.838" gradientUnits="userSpaceOnUse">
<stop stop-color="#83C770"/>
<stop offset="1" stop-color="#44905A"/>
</linearGradient>
<linearGradient id="paint24_linear_14_224" x1="273.486" y1="656.008" x2="281.656" y2="698.785" gradientUnits="userSpaceOnUse">
<stop stop-color="#236A59"/>
<stop offset="1" stop-color="#64AE61"/>
</linearGradient>
<linearGradient id="paint25_linear_14_224" x1="279.739" y1="699.03" x2="325.832" y2="752.318" gradientUnits="userSpaceOnUse">
<stop stop-color="#83C770"/>
<stop offset="1" stop-color="#44905A"/>
</linearGradient>
<linearGradient id="paint26_linear_14_224" x1="255.205" y1="710.158" x2="278.252" y2="736.802" gradientUnits="userSpaceOnUse">
<stop stop-color="#236A59"/>
<stop offset="1" stop-color="#64AE61"/>
</linearGradient>
<linearGradient id="paint27_linear_14_224" x1="366.709" y1="685.374" x2="343.501" y2="751.9" gradientUnits="userSpaceOnUse">
<stop stop-color="#83C770"/>
<stop offset="1" stop-color="#44905A"/>
</linearGradient>
<linearGradient id="paint28_linear_14_224" x1="393.617" y1="686.676" x2="382.013" y2="719.939" gradientUnits="userSpaceOnUse">
<stop stop-color="#236A59"/>
<stop offset="1" stop-color="#64AE61"/>
</linearGradient>
<linearGradient id="paint29_linear_14_224" x1="421.168" y1="658.684" x2="450.239" y2="723.597" gradientUnits="userSpaceOnUse">
<stop stop-color="#B7E987"/>
<stop offset="1" stop-color="#0AA370"/>
</linearGradient>
<linearGradient id="paint30_linear_14_224" x1="255.334" y1="707.733" x2="234.232" y2="754.124" gradientUnits="userSpaceOnUse">
<stop stop-color="#B7E987"/>
<stop offset="1" stop-color="#0AA370"/>
</linearGradient>
<linearGradient id="paint31_linear_14_224" x1="592.988" y1="666.154" x2="959.44" y2="795.316" gradientUnits="userSpaceOnUse">
<stop stop-color="#CCE59D"/>
<stop offset="1" stop-color="#BCD389"/>
</linearGradient>
<linearGradient id="paint32_linear_14_224" x1="592.988" y1="666.154" x2="959.44" y2="795.316" gradientUnits="userSpaceOnUse">
<stop stop-color="#BFCF6C"/>
<stop offset="1" stop-color="#8DB240"/>
</linearGradient>
<linearGradient id="paint33_linear_14_224" x1="684.308" y1="811" x2="684.308" y2="828.248" gradientUnits="userSpaceOnUse">
<stop stop-color="#FEDC79"/>
<stop offset="1" stop-color="#F26A3D"/>
</linearGradient>
<linearGradient id="paint34_linear_14_224" x1="691.178" y1="819.694" x2="688.402" y2="829.301" gradientUnits="userSpaceOnUse">
<stop stop-color="#FEDC79"/>
<stop offset="1" stop-color="#F26A3D"/>
</linearGradient>
<linearGradient id="paint35_linear_14_224" x1="675.934" y1="814.377" x2="674.426" y2="828.083" gradientUnits="userSpaceOnUse">
<stop stop-color="#FEDC79"/>
<stop offset="1" stop-color="#F26A3D"/>
</linearGradient>
<linearGradient id="paint36_linear_14_224" x1="298.674" y1="801.25" x2="285.748" y2="819.36" gradientUnits="userSpaceOnUse">
<stop stop-color="#B7E987"/>
<stop offset="1" stop-color="#0AA370"/>
</linearGradient>
<linearGradient id="paint37_linear_14_224" x1="287.018" y1="812.914" x2="282.738" y2="825.087" gradientUnits="userSpaceOnUse">
<stop stop-color="#B7E987"/>
<stop offset="1" stop-color="#0AA370"/>
</linearGradient>
<linearGradient id="paint38_linear_14_224" x1="305.269" y1="806.236" x2="317.121" y2="819.505" gradientUnits="userSpaceOnUse">
<stop stop-color="#B7E987"/>
<stop offset="1" stop-color="#0AA370"/>
</linearGradient>
<linearGradient id="paint39_linear_14_224" x1="963.593" y1="811.478" x2="955.1" y2="823.38" gradientUnits="userSpaceOnUse">
<stop stop-color="#4F9982"/>
<stop offset="1" stop-color="#15503E"/>
</linearGradient>
<linearGradient id="paint40_linear_14_224" x1="955.934" y1="819.143" x2="953.121" y2="827.143" gradientUnits="userSpaceOnUse">
<stop stop-color="#4F9982"/>
<stop offset="1" stop-color="#15503E"/>
</linearGradient>
<linearGradient id="paint41_linear_14_224" x1="967.708" y1="814.755" x2="975.497" y2="823.475" gradientUnits="userSpaceOnUse">
<stop stop-color="#4F9982"/>
<stop offset="1" stop-color="#15503E"/>
</linearGradient>
<linearGradient id="paint42_linear_14_224" x1="933.917" y1="639.6" x2="979.315" y2="664.531" gradientUnits="userSpaceOnUse">
<stop stop-color="#B7E987"/>
<stop offset="1" stop-color="#0AA370"/>
</linearGradient>
<linearGradient id="paint43_linear_14_224" x1="959.111" y1="644.228" x2="1008.61" y2="692.362" gradientUnits="userSpaceOnUse">
<stop stop-color="#B7E987"/>
<stop offset="1" stop-color="#0AA370"/>
</linearGradient>
<linearGradient id="paint44_linear_14_224" x1="975.897" y1="662.784" x2="959.555" y2="748.338" gradientUnits="userSpaceOnUse">
<stop stop-color="#83C770"/>
<stop offset="1" stop-color="#44905A"/>
</linearGradient>
<linearGradient id="paint45_linear_14_224" x1="1009.04" y1="659.508" x2="1000.87" y2="702.285" gradientUnits="userSpaceOnUse">
<stop stop-color="#236A59"/>
<stop offset="1" stop-color="#64AE61"/>
</linearGradient>
<linearGradient id="paint46_linear_14_224" x1="1002.78" y1="702.53" x2="956.691" y2="755.818" gradientUnits="userSpaceOnUse">
<stop stop-color="#83C770"/>
<stop offset="1" stop-color="#44905A"/>
</linearGradient>
<linearGradient id="paint47_linear_14_224" x1="1027.32" y1="713.658" x2="1004.27" y2="740.302" gradientUnits="userSpaceOnUse">
<stop stop-color="#236A59"/>
<stop offset="1" stop-color="#64AE61"/>
</linearGradient>
<linearGradient id="paint48_linear_14_224" x1="915.815" y1="688.874" x2="939.022" y2="755.4" gradientUnits="userSpaceOnUse">
<stop stop-color="#83C770"/>
<stop offset="1" stop-color="#44905A"/>
</linearGradient>
<linearGradient id="paint49_linear_14_224" x1="888.907" y1="690.176" x2="900.51" y2="723.439" gradientUnits="userSpaceOnUse">
<stop stop-color="#236A59"/>
<stop offset="1" stop-color="#64AE61"/>
</linearGradient>
<clipPath id="clip0_14_224">
<rect width="1253" height="1080" fill="white"/>
</clipPath>
</defs>
</svg>
