<svg width="1253" height="1080" viewBox="0 0 1253 1080" fill="none" xmlns="http://www.w3.org/2000/svg">
<ellipse rx="400" ry="22" transform="matrix(-1 0 0 1 627 957.12)" fill="#F0F0F0"/>
<path d="M423.782 941.455C434.105 933.6 457 941.455 457 941.455V952.91H415C415 952.91 419.296 944.869 423.782 941.455Z" fill="#07122A"/>
<path d="M435.5 935.338C418.707 935.338 414 953.338 414 953.338H457C457 953.338 452.293 935.338 435.5 935.338Z" fill="#07122A"/>
<path d="M749.218 809.237C738.895 801.381 716 809.237 716 809.237V820.691H758C758 820.691 753.704 812.65 749.218 809.237Z" fill="#07122A"/>
<path d="M737.5 803.119C754.293 803.119 759 821.119 759 821.119H716C716 821.119 720.707 803.119 737.5 803.119Z" fill="#07122A"/>
<path d="M737 652.119C706.904 596.833 596.5 573.119 596.5 573.119L453 576.619L441 945.838H456.5C456.5 945.838 494.263 825.442 511 751.338C516.147 728.551 524.5 663.838 524.5 663.838C524.5 663.838 646.676 638.304 690 687.119C723.351 724.697 716 809.619 716 809.619L727 813.119C727 813.119 767.119 707.448 737 652.119Z" fill="#07122A"/>
<path d="M566.367 275L565.722 247.186C565.722 247.186 559.867 245.531 556.444 243.733C550.878 240.809 544.295 233.198 544.295 233.198L539.681 275.596L566.367 275Z" fill="#FFDAB8"/>
<path d="M550.426 245.216C546.743 241.399 544.295 233.198 544.295 233.198L565.966 247.402L565.775 250.19L565.584 252.979C565.584 252.979 555.043 250.003 550.426 245.216Z" fill="#EDC199"/>
<ellipse cx="573.236" cy="196.381" rx="36.5" ry="53.7363" transform="rotate(25.7745 573.236 196.381)" fill="#FFDAB8"/>
<path d="M600.29 124.787C628.561 120.111 646.698 143.772 636.099 158.037C625.5 172.301 585.53 162.528 585.53 162.528C584.415 165.021 583.21 168.035 579.307 174.877C575.404 181.719 564.429 181.657 559.429 180.771L550.135 195.267C550.135 195.267 546.065 183.299 541.806 184.562C536.847 186.033 539.602 208.386 539.602 208.386C518.849 204.036 511.998 166.016 534.393 142.892C542.902 134.105 553.239 137.264 560.272 138.062C561.551 137.167 572.019 129.462 600.29 124.787Z" fill="#07122A"/>
<path d="M773.427 215.906C776.738 215.594 778.993 231.155 778.993 231.155L770.595 231.246C770.595 231.246 770.115 216.218 773.427 215.906Z" fill="#FFDAB8"/>
<path d="M769.175 277.79C752.13 346.649 650.937 266.04 588.592 297.43C568.062 307.766 550.967 325.411 557.548 347.433C563.84 368.488 585.441 374.675 607.387 373.555C687.812 369.448 793.778 384.858 802.019 304.58C805.155 274.032 779.692 229.183 779.692 229.183L768.735 229.599C768.735 229.599 773.697 259.521 769.175 277.79Z" fill="#7546FB"/>
<path d="M778.806 288.812C761.761 357.672 653.397 270.83 591.052 302.22C570.522 312.556 553.427 330.201 560.008 352.223C566.3 373.278 587.901 379.465 609.847 378.345C690.272 374.238 796.238 389.648 804.479 309.37C807.615 278.822 779.694 228.965 779.694 228.965L776.209 229.293C776.209 229.293 783.328 270.544 778.806 288.812Z" fill="#5226CF"/>
<path d="M654.324 427.366C685.923 335.366 613.109 269.272 543.323 264.366C478.215 259.788 425.646 316.928 418.823 375.866C411.5 439.119 445.157 542.199 453.323 582.866L634 579.119C630.5 551.119 622.723 519.366 654.324 427.366Z" fill="#6638EB"/>
<path d="M710.971 217.945C714.246 217.364 717.758 232.691 717.758 232.691L709.395 233.465C709.395 233.465 707.696 218.525 710.971 217.945Z" fill="#FFDAB8"/>
<path d="M709.666 281.127C695.23 350.58 591.069 273.844 529.952 307.562C509.827 318.665 493.409 336.942 500.816 358.7C507.897 379.503 529.716 384.872 551.604 382.924C631.817 375.788 738.289 387.191 743.497 306.66C745.479 276.015 718.343 232.158 718.343 232.158L707.409 232.987C707.409 232.987 713.496 262.7 709.666 281.127Z" fill="#7546FB"/>
<path d="M723 817.119C808.915 817.119 833 953.119 833 953.119H613C613 953.119 637.085 817.119 723 817.119Z" fill="#F0F0F0"/>
<path d="M711 821.119C781 821.119 814 953.119 814 953.119L613.5 952.619C613.5 952.619 641 821.119 711 821.119Z" fill="#D3D6DA"/>
<ellipse cx="689.672" cy="859.402" rx="4.5" ry="12.5" transform="rotate(20.9483 689.672 859.402)" fill="#6A737D"/>
<ellipse cx="711.819" cy="871.795" rx="2.33874" ry="6.49651" transform="rotate(20.9483 711.819 871.795)" fill="#6A737D"/>
<ellipse cx="737.567" cy="855.05" rx="1.33166" ry="3.69907" transform="rotate(20.9483 737.567 855.05)" fill="#6A737D"/>
<path fill-rule="evenodd" clip-rule="evenodd" d="M911.135 774.16C914.646 772.419 919.327 774.438 917.375 779.041C915.283 783.97 907.55 784.031 903.182 783.933C903.619 783.91 905.027 779.391 905.509 778.708C906.93 776.693 908.977 775.233 911.135 774.16ZM870.706 863.967C869.466 865.028 870.605 864.067 870.706 863.967V863.967ZM915.216 797.044C917.316 798.633 917.414 801.441 915.698 803.342C913.654 805.605 909.923 805.525 907.139 805.306C905.879 805.206 899.153 804.676 900.748 803.586C900.625 803.631 900.369 803.743 900.095 803.894C899.947 804.428 899.792 804.96 899.63 805.49C899.67 805.513 899.704 805.537 899.746 805.56C899.7 805.54 899.668 805.519 899.628 805.499C898.008 810.792 895.703 815.832 892.686 820.548C893.814 820.108 894.982 819.774 896.167 819.625C899.676 819.184 907.056 821.881 903.129 826.51C899.363 830.947 893.507 826.192 889.236 825.538C885.09 831.266 880.519 836.756 875.73 842.063C876.023 842.154 876.28 842.343 876.428 842.638C878.349 841.672 880.35 840.291 882.128 839.916C884.693 839.377 889.952 839.047 891.889 841.32C894.272 844.114 891.715 846.386 888.898 846.924C884.813 847.703 879.468 845.73 875.538 844.397C875.089 844.475 874.598 844.346 874.305 843.99C874.218 843.961 874.131 843.934 874.047 843.907C869.197 849.188 864.161 854.295 859.156 859.29C859.209 859.287 859.262 859.284 859.318 859.281C860.623 858.432 862.023 857.736 863.541 857.371C867.051 856.522 871.18 856.516 874.027 859.03C876.863 861.532 877.866 865.911 874.929 868.725C869.051 874.357 860.402 861.527 857.439 860.993C852.353 866.016 846.975 870.709 841.512 875.307C842.133 875.12 842.769 874.982 843.426 874.92C848.78 874.41 861.343 880.904 854.77 887.303C849.041 892.879 842.419 882.155 837.807 878.406C832.659 882.692 827.484 886.949 822.454 891.372C825.197 890.649 827.847 890.542 830.786 891.42C833.827 892.33 838.734 894.602 836.809 898.67C834.852 902.807 828.959 900.928 825.889 899.616C824.216 898.901 820.86 896.486 817.913 895.469C809.886 902.974 802.933 911.24 797.666 920.976C794.379 927.055 791.883 933.549 790.125 940.223C789.003 944.483 786.793 951.638 787.232 957.181C785.132 946.086 788.946 932.756 793.052 922.836C796.828 913.713 802.475 905.704 809.088 898.493C807.432 893.553 793.474 886.434 801.823 881.84C806.256 879.41 810.794 883.435 811.761 887.7C812.424 890.631 811.409 894.314 810.331 897.159C812.412 894.961 814.574 892.834 816.803 890.777C819.883 887.934 823.036 885.174 826.219 882.448C820.978 877.572 816.023 863.628 823.055 861.343C833.439 857.979 828.43 877.006 827.704 880.572C827.498 880.584 827.338 880.523 827.22 880.391C827.278 880.717 827.346 881.067 827.428 881.419C833.521 876.229 839.704 871.142 845.684 865.828C845.146 865.434 844.29 863.928 843.618 863.127C842.101 861.321 840.649 859.433 839.588 857.32C837.912 853.979 836.297 848.651 840.745 846.683C845.581 844.54 847.876 850.566 847.907 854.162C847.929 856.649 847.244 859.012 846.887 861.449C846.775 862.21 847.202 865.636 846.157 864.162C846.206 864.706 846.213 865.1 846.188 865.379C847.262 864.42 848.327 863.451 849.386 862.475C849.337 862.352 849.301 862.217 849.292 862.062C849.236 860.99 850.326 860.576 851.089 860.89C852.486 859.575 853.869 858.244 855.228 856.886C858.107 854.01 861.028 851.052 863.929 848.03C863.301 847.495 863.551 846.754 862.963 846.186C862.376 845.62 861.219 845.307 860.529 844.781C858.793 843.456 857.353 841.526 856.312 839.627C854.594 836.488 852.374 829.903 857.4 828.404C862.58 826.856 865.205 833.195 865.536 837.159C865.6 837.926 865.016 844.846 864.571 847.359C869.939 841.744 875.218 835.918 880.002 829.991C878.552 829.979 874.444 827.04 873.614 826.238C871.588 824.281 868.368 819.958 871.923 817.667C875.084 815.635 878.977 818.574 880.327 821.431C880.549 821.901 881.33 826.28 881.39 828.246C883.37 825.732 885.259 823.204 887.016 820.668C888.188 818.982 889.283 817.252 890.308 815.484C890.062 815.346 889.83 815.105 889.611 814.805C884.341 813.922 877.626 805.782 883.818 802.945C886.766 801.597 889.961 804.376 891.404 806.652C891.699 807.118 892.177 809.46 892.566 811.307C895.515 805.452 897.769 799.255 899.486 792.9C899.027 792.788 898.638 792.441 898.588 791.844C896.03 790.401 894.01 789.199 892.225 786.422C891.116 784.697 889.12 780.756 892.381 779.796C896.624 778.548 899.287 784.965 899.632 788.126C899.672 788.493 899.67 789.56 899.656 790.538C899.803 790.518 899.952 790.521 900.098 790.546C901.075 786.612 901.854 782.626 902.475 778.635C900.16 777.898 899.765 765.853 901.308 764.137C904.757 760.295 907.186 765.841 907 768.773C906.781 772.23 905.197 775.376 903.312 778.168C903.11 778.464 903.168 778.449 903.116 778.037C903.087 778.241 903.018 778.391 902.916 778.5C903.012 780.32 903.201 782.183 903.109 783.793C902.846 788.405 902.301 793.043 901.511 797.596C901.319 798.703 901.099 799.801 900.852 800.89C902.715 799.319 905.225 797.922 906.207 797.485C908.757 796.352 912.685 795.129 915.216 797.044ZM786.815 956.743C786.938 958.225 787.304 959.578 788.023 960.686C787.495 959.419 787.099 958.1 786.815 956.743Z" fill="#E4E7E8"/>
<path fill-rule="evenodd" clip-rule="evenodd" d="M779.368 735.314C781.144 731.82 786.104 730.643 787.288 735.5C788.556 740.702 782.391 745.372 778.83 747.903C779.167 747.623 777.595 743.158 777.574 742.322C777.51 739.857 778.278 737.464 779.368 735.314ZM800.608 831.484C800.248 833.076 800.587 831.624 800.608 831.484V831.484ZM796.314 751.226C798.947 751.246 800.703 753.438 800.463 755.988C800.176 759.024 797.136 761.189 794.773 762.677C793.703 763.35 787.993 766.943 788.621 765.116C788.55 765.226 788.411 765.468 788.281 765.754C788.482 766.27 788.675 766.789 788.862 767.311C788.908 767.305 788.949 767.305 788.997 767.298C788.948 767.309 788.91 767.311 788.865 767.319C790.729 772.532 791.892 777.951 792.29 783.535C792.932 782.508 793.67 781.542 794.531 780.715C797.081 778.264 804.61 776.017 804.227 782.076C803.859 787.884 796.321 787.57 792.505 789.597C792.603 796.668 792.219 803.801 791.549 810.918C791.838 810.816 792.158 810.814 792.452 810.962C793.415 809.04 794.195 806.736 795.397 805.374C797.131 803.409 801.152 800.002 804.063 800.667C807.643 801.484 806.95 804.834 805.013 806.948C802.203 810.014 796.737 811.625 792.79 812.904C792.476 813.236 792.005 813.425 791.558 813.314C791.471 813.344 791.385 813.373 791.301 813.402C790.567 820.535 789.58 827.639 788.551 834.635C788.593 834.601 788.633 834.566 788.676 834.531C789.216 833.071 789.923 831.676 790.921 830.476C793.229 827.698 796.536 825.226 800.321 825.541C804.09 825.853 807.511 828.766 806.837 832.776C805.489 840.804 790.888 835.684 788.192 837.026C787.115 844.093 785.607 851.07 783.974 858.021C784.36 857.5 784.787 857.009 785.277 856.567C789.266 852.959 803.22 850.66 801.772 859.719C800.51 867.613 788.793 862.97 782.854 862.72C781.288 869.232 779.681 875.738 778.29 882.289C780.058 880.071 782.118 878.402 785 877.35C787.982 876.262 793.275 875.152 794.162 879.565C795.064 884.052 789.216 886.066 785.971 886.848C784.201 887.275 780.067 887.343 777.097 888.288C775.145 899.103 774.508 909.886 776.102 920.839C777.098 927.678 778.976 934.376 781.555 940.778C783.2 944.864 785.703 951.922 789.367 956.105C781.054 948.463 776.148 935.495 773.513 925.087C771.09 915.516 770.832 905.719 771.827 895.986C767.548 893.014 752.102 895.645 756.051 886.973C758.155 882.376 764.198 882.892 767.521 885.735C769.805 887.688 771.191 891.248 772.027 894.174C772.382 891.168 772.845 888.17 773.403 885.189C774.174 881.07 775.054 876.972 775.978 872.884C768.862 872.106 756.556 863.885 760.83 857.851C767.146 848.95 774.499 867.2 776.047 870.493C775.889 870.626 775.724 870.672 775.551 870.637C775.793 870.864 776.055 871.103 776.331 871.337C778.117 863.535 780.035 855.761 781.656 847.927C780.989 847.933 779.403 847.236 778.385 846.996C776.089 846.454 773.797 845.808 771.683 844.747C768.344 843.069 763.865 839.761 766.256 835.527C768.853 830.918 774.294 834.379 776.468 837.244C777.971 839.225 778.834 841.529 780.003 843.697C780.368 844.374 782.758 846.866 781.039 846.309C781.403 846.715 781.644 847.027 781.791 847.265C782.079 845.855 782.355 844.442 782.62 843.026C782.507 842.957 782.398 842.871 782.298 842.751C781.613 841.925 782.239 840.942 783.039 840.738C783.374 838.849 783.688 836.955 783.966 835.054C784.556 831.028 785.131 826.91 785.652 822.754C784.828 822.701 784.586 821.957 783.775 821.853C782.966 821.749 781.852 822.189 780.984 822.18C778.8 822.155 776.492 821.468 774.523 820.566C771.269 819.076 765.555 815.122 768.689 810.917C771.918 806.582 777.811 810.096 780.445 813.076C780.955 813.653 784.621 819.551 785.765 821.832C786.714 814.122 787.467 806.296 787.762 798.686C786.592 799.542 781.542 799.64 780.397 799.493C777.603 799.134 772.438 797.591 773.92 793.63C775.24 790.112 780.118 790.142 782.908 791.627C783.367 791.872 786.61 794.917 787.832 796.457C787.918 793.258 787.922 790.103 787.816 787.019C787.748 784.967 787.593 782.925 787.358 780.895C787.078 780.932 786.748 780.877 786.394 780.767C781.64 783.207 771.392 780.692 774.662 774.718C776.22 771.875 780.443 772.195 782.96 773.158C783.475 773.355 785.257 774.947 786.673 776.196C785.539 769.74 783.644 763.423 781.224 757.302C780.789 757.486 780.27 757.44 779.873 756.992C776.959 757.363 774.621 757.606 771.531 756.445C769.611 755.724 765.655 753.757 767.697 751.039C770.354 747.503 776.323 751.058 778.489 753.386C778.74 753.656 779.376 754.513 779.949 755.306C780.055 755.202 780.176 755.115 780.308 755.048C778.741 751.31 776.985 747.648 775.098 744.077C772.8 744.869 765.287 735.446 765.499 733.148C765.969 728.007 771.231 731.003 772.834 733.465C774.724 736.368 775.333 739.837 775.49 743.202C775.505 743.56 775.542 743.514 775.254 743.215C775.353 743.395 775.387 743.557 775.37 743.705C776.535 745.107 777.799 746.488 778.688 747.834C781.232 751.69 783.567 755.735 785.654 759.857C786.161 760.86 786.641 761.872 787.094 762.892C787.648 760.519 788.827 757.899 789.353 756.962C790.721 754.531 793.14 751.202 796.314 751.226ZM788.771 956.003C789.755 957.118 790.856 957.984 792.095 958.443C790.915 957.743 789.809 956.922 788.771 956.003Z" fill="#E4E7E8"/>
<rect x="627.865" y="205.101" width="48" height="18" transform="rotate(-8.28209 627.865 205.101)" fill="#6A737D"/>
<rect x="674.645" y="193.239" width="48" height="28" transform="rotate(-8.28209 674.645 193.239)" fill="#D3D6DA"/>
<rect x="721.495" y="181.871" width="109" height="37" transform="rotate(-8.28209 721.495 181.871)" fill="#F0F0F0"/>
</svg>
