<svg width="1253" height="1080" viewBox="0 0 1253 1080" fill="none" xmlns="http://www.w3.org/2000/svg">
<path d="M351.616 793.112C394.552 725.953 277.435 602.958 277.435 602.958" stroke="#D1D5DA" stroke-width="3.5" stroke-linecap="round"/>
<path d="M271.378 574.318C262.824 561.54 239.12 551.741 239.12 551.741C239.12 551.741 240.391 578.895 251.157 590.554C259.889 600.011 280.566 605.44 280.566 605.44C280.566 605.44 278.427 584.849 271.378 574.318Z" fill="#959DA5"/>
<path d="M320.756 604.242C324.611 589.356 316.164 565.137 316.164 565.137C316.164 565.137 296.731 584.144 295.184 599.937C293.929 612.749 303.625 631.8 303.625 631.8C303.625 631.8 317.58 616.51 320.756 604.242Z" fill="#EDF0F2"/>
<path d="M356.038 656.051C359.892 641.166 351.445 616.947 351.445 616.947C351.445 616.947 332.012 635.954 330.465 651.747C329.21 664.558 338.906 683.61 338.906 683.61C338.906 683.61 352.861 668.319 356.038 656.051Z" fill="#EDF0F2"/>
<path d="M380.191 707.913C385.98 693.668 380.811 668.544 380.811 668.544C380.811 668.544 359.034 684.814 355.412 700.264C352.473 712.797 359.564 732.963 359.564 732.963C359.564 732.963 375.42 719.653 380.191 707.913Z" fill="#EDF0F2"/>
<path d="M277.457 655.71C292.161 660.209 316.725 652.825 316.725 652.825C316.725 652.825 298.582 632.582 282.871 630.349C270.126 628.537 250.67 637.395 250.67 637.395C250.67 637.395 265.339 652.003 277.457 655.71Z" fill="#D1D5DA"/>
<path d="M307.724 706.592C322.428 711.09 346.992 703.706 346.992 703.706C346.992 703.706 328.849 683.463 313.138 681.23C300.393 679.419 280.937 688.276 280.937 688.276C280.937 688.276 295.606 702.884 307.724 706.592Z" fill="#D1D5DA"/>
<path d="M322.022 759.701C336.725 764.199 361.289 756.815 361.289 756.815C361.289 756.815 343.146 736.573 327.435 734.339C314.691 732.528 295.235 741.385 295.235 741.385C295.235 741.385 309.904 755.993 322.022 759.701Z" fill="#D1D5DA"/>
<path d="M327.5 690.721C327.5 690.721 328.67 615.814 312 572.221C300.815 542.971 272 502.721 272 502.721" stroke="#D1D5DA"/>
<rect x="342" y="368" width="698" height="432.095" rx="23.7415" fill="#F0F0F0"/>
<circle cx="417.973" cy="439.225" r="14.2449" fill="#07122A"/>
<circle cx="463.082" cy="439.225" r="14.2449" fill="#6638EB"/>
<circle cx="508.191" cy="439.225" r="14.2449" fill="#38C0EB"/>
<path d="M423.865 504.252L425.821 507.329L412.83 515.173L430.74 526.056L428.651 529.114L409.164 516.996V513.35L423.865 504.252ZM429.164 533.084L425.783 531.545L442.877 496.237L446.22 497.813L429.164 533.084ZM465.312 500.871L464.818 518.06H461.21L460.678 500.871H465.312ZM463.033 521.84C463.856 521.84 464.54 522.124 465.084 522.694C465.641 523.251 465.92 523.922 465.92 524.708C465.92 525.505 465.641 526.189 465.084 526.759C464.54 527.316 463.856 527.594 463.033 527.594C462.235 527.594 461.558 527.316 461.001 526.759C460.444 526.189 460.165 525.505 460.165 524.708C460.165 523.922 460.444 523.251 461.001 522.694C461.558 522.124 462.235 521.84 463.033 521.84ZM482.068 498.554V509.475C482.879 508.487 483.828 507.747 484.917 507.253C486.006 506.746 487.127 506.493 488.279 506.493C490.166 506.493 491.571 507.019 492.496 508.069C493.42 509.108 493.882 510.57 493.882 512.457V527.082H489.628V513.122C489.628 511.919 489.4 511.058 488.944 510.539C488.488 510.007 487.754 509.741 486.741 509.741C486.108 509.741 485.5 509.886 484.917 510.178C484.347 510.456 483.816 510.823 483.322 511.279C482.841 511.735 482.423 512.223 482.068 512.742V527.082H477.814V499.01L482.068 498.554ZM517.343 526.018C516.608 526.487 515.728 526.866 514.703 527.158C513.677 527.449 512.607 527.594 511.493 527.594C509.163 527.594 507.39 526.993 506.175 525.79C504.972 524.575 504.37 522.979 504.37 521.004V510.121H499.907V507.025H504.37V502.542L508.625 502.03V507.025H515.387L514.912 510.121H508.625V520.966C508.625 522.042 508.891 522.846 509.423 523.378C509.967 523.897 510.853 524.157 512.082 524.157C512.816 524.157 513.494 524.068 514.114 523.891C514.734 523.714 515.298 523.486 515.804 523.207L517.343 526.018ZM537.195 506.493C537.955 506.493 538.638 506.658 539.246 506.987C539.854 507.316 540.329 507.892 540.671 508.715C541.025 509.538 541.202 510.691 541.202 512.172V527.082H537.423V512.761C537.423 511.71 537.347 510.956 537.195 510.501C537.056 510.045 536.682 509.817 536.074 509.817C535.593 509.817 535.106 509.969 534.612 510.273C534.118 510.564 533.618 511.07 533.111 511.792V527.082H529.674V512.761C529.674 511.71 529.598 510.956 529.446 510.501C529.306 510.045 528.933 509.817 528.325 509.817C527.831 509.817 527.337 509.969 526.844 510.273C526.362 510.564 525.869 511.07 525.362 511.792V527.082H521.563V507.025H524.773L525.058 509.19C525.628 508.392 526.248 507.747 526.92 507.253C527.591 506.746 528.401 506.493 529.351 506.493C530.11 506.493 530.8 506.683 531.421 507.063C532.041 507.443 532.497 508.107 532.788 509.057C533.346 508.297 533.979 507.683 534.688 507.215C535.397 506.734 536.233 506.493 537.195 506.493ZM554.958 498.972V521.612C554.958 522.536 555.236 523.194 555.793 523.587C556.363 523.967 557.098 524.157 557.997 524.157C558.579 524.157 559.13 524.093 559.649 523.967C560.168 523.84 560.675 523.682 561.168 523.492L562.251 526.455C561.656 526.759 560.922 527.025 560.048 527.253C559.187 527.481 558.199 527.594 557.085 527.594C555.072 527.594 553.502 527.031 552.375 525.904C551.26 524.764 550.703 523.207 550.703 521.232V502.106H544.644V498.972H554.958ZM570.593 504.252L585.275 513.331V516.996L570.707 526.075L568.618 523.074L581.628 515.173L568.618 507.386L570.593 504.252Z" fill="#959DA5"/>
<path d="M423.634 641.027H417.06C411.008 641.027 406.102 645.933 406.102 651.985V658.559C406.102 664.611 411.008 669.517 417.06 669.517H423.634C429.686 669.517 434.592 664.611 434.592 658.559V651.985C434.592 645.933 429.686 641.027 423.634 641.027Z" fill="#6638EB"/>
<path d="M575.445 641.027H462.303C456.177 641.027 451.211 645.933 451.211 651.985V658.559C451.211 664.611 456.177 669.517 462.303 669.517H575.445C581.571 669.517 586.537 664.611 586.537 658.559V651.985C586.537 645.933 581.571 641.027 575.445 641.027Z" fill="white"/>
<path d="M701.223 641.027H614.3C608.146 641.027 603.156 645.933 603.156 651.985V658.559C603.156 664.611 608.146 669.517 614.3 669.517H701.223C707.378 669.517 712.367 664.611 712.367 658.559V651.985C712.367 645.933 707.378 641.027 701.223 641.027Z" fill="#6638EB"/>
<path d="M544.676 698.007H417.1C411.026 698.007 406.102 702.913 406.102 708.964V715.539C406.102 721.591 411.026 726.497 417.1 726.497H544.676C550.75 726.497 555.673 721.591 555.673 715.539V708.964C555.673 702.913 550.75 698.007 544.676 698.007Z" fill="white"/>
<path d="M684.725 698.007H583.315C577.227 698.007 572.292 702.913 572.292 708.964V715.539C572.292 721.591 577.227 726.497 583.315 726.497H684.725C690.813 726.497 695.748 721.591 695.748 715.539V708.964C695.748 702.913 690.813 698.007 684.725 698.007Z" fill="#6638EB"/>
<path d="M869.998 698.007H725.675C719.636 698.007 714.741 702.913 714.741 708.964V715.539C714.741 721.591 719.636 726.497 725.675 726.497H869.998C876.037 726.497 880.932 721.591 880.932 715.539V708.964C880.932 702.913 876.037 698.007 869.998 698.007Z" fill="white"/>
<path d="M499.683 584.048H416.984C410.974 584.048 406.102 588.953 406.102 595.005V601.58C406.102 607.632 410.974 612.537 416.984 612.537H499.683C505.693 612.537 510.565 607.632 510.565 601.58V595.005C510.565 588.953 505.693 584.048 499.683 584.048Z" fill="#6638EB"/>
<path d="M675.37 584.048H540.439C534.429 584.048 529.558 588.953 529.558 595.005V601.58C529.558 607.632 534.429 612.537 540.439 612.537H675.37C681.38 612.537 686.251 607.632 686.251 601.58V595.005C686.251 588.953 681.38 584.048 675.37 584.048Z" fill="white"/>
<path d="M850.904 584.048H716.279C710.185 584.048 705.245 588.953 705.245 595.005V601.58C705.245 607.632 710.185 612.537 716.279 612.537H850.904C856.998 612.537 861.939 607.632 861.939 601.58V595.005C861.939 588.953 856.998 584.048 850.904 584.048Z" fill="#E5E6E6"/>
<g filter="url(#filter0_d_98_156)">
<circle cx="1009.5" cy="352.5" r="72.5" fill="#6638EB"/>
</g>
<path d="M992.872 370.608L967.272 359.792C965.309 358.981 964.328 357.573 964.328 355.568C964.328 354.587 964.562 353.776 965.032 353.136C965.544 352.453 966.29 351.899 967.272 351.472L992.872 340.592C993.597 340.293 994.237 340.229 994.792 340.4C995.389 340.571 995.858 340.891 996.2 341.36C996.541 341.829 996.733 342.363 996.776 342.96C996.818 343.557 996.69 344.133 996.392 344.688C996.136 345.2 995.645 345.605 994.92 345.904L967.016 357.616V353.648L994.92 365.36C995.645 365.659 996.136 366.085 996.392 366.64C996.69 367.152 996.818 367.707 996.776 368.304C996.733 368.859 996.541 369.371 996.2 369.84C995.858 370.309 995.389 370.629 994.792 370.8C994.237 370.971 993.597 370.907 992.872 370.608ZM1005.01 375.856C1004.75 376.667 1004.35 377.243 1003.79 377.584C1003.24 377.968 1002.62 378.16 1001.93 378.16C1001.29 378.16 1000.7 377.989 1000.14 377.648C999.588 377.307 999.204 376.816 998.991 376.176C998.735 375.579 998.735 374.853 998.991 374L1013.77 328.112C1014.03 327.301 1014.44 326.704 1014.99 326.32C1015.59 325.936 1016.21 325.765 1016.85 325.808C1017.49 325.808 1018.08 325.979 1018.64 326.32C1019.19 326.661 1019.58 327.131 1019.79 327.728C1020.05 328.325 1020.05 329.051 1019.79 329.904L1005.01 375.856ZM1026.03 370.608C1025.3 370.907 1024.64 370.971 1024.05 370.8C1023.49 370.629 1023.04 370.309 1022.7 369.84C1022.36 369.371 1022.17 368.859 1022.13 368.304C1022.08 367.707 1022.21 367.152 1022.51 366.64C1022.81 366.085 1023.3 365.659 1023.98 365.36L1051.89 353.648V357.616L1023.98 345.904C1023.3 345.605 1022.81 345.2 1022.51 344.688C1022.21 344.133 1022.08 343.557 1022.13 342.96C1022.17 342.363 1022.36 341.829 1022.7 341.36C1023.04 340.891 1023.49 340.571 1024.05 340.4C1024.64 340.229 1025.3 340.293 1026.03 340.592L1051.63 351.472C1053.59 352.283 1054.57 353.648 1054.57 355.568C1054.57 356.549 1054.32 357.403 1053.81 358.128C1053.34 358.811 1052.61 359.365 1051.63 359.792L1026.03 370.608Z" fill="white"/>
<rect x="276" y="528.001" width="26.1911" height="77" rx="13.0955" transform="rotate(-24.8356 276 528.001)" fill="#F3F7F9"/>
<defs>
<filter id="filter0_d_98_156" x="877" y="224" width="265" height="265" filterUnits="userSpaceOnUse" color-interpolation-filters="sRGB">
<feFlood flood-opacity="0" result="BackgroundImageFix"/>
<feColorMatrix in="SourceAlpha" type="matrix" values="0 0 0 0 0 0 0 0 0 0 0 0 0 0 0 0 0 0 127 0" result="hardAlpha"/>
<feOffset dy="4"/>
<feGaussianBlur stdDeviation="30"/>
<feComposite in2="hardAlpha" operator="out"/>
<feColorMatrix type="matrix" values="0 0 0 0 0 0 0 0 0 0 0 0 0 0 0 0 0 0 0.07 0"/>
<feBlend mode="normal" in2="BackgroundImageFix" result="effect1_dropShadow_98_156"/>
<feBlend mode="normal" in="SourceGraphic" in2="effect1_dropShadow_98_156" result="shape"/>
</filter>
</defs>
</svg>
