<svg width="1253" height="1080" viewBox="0 0 1253 1080" fill="none" xmlns="http://www.w3.org/2000/svg">
<ellipse rx="208.5" ry="22" transform="matrix(-1 0 0 1 607.354 947.719)" fill="#F0F0F0"/>
<path d="M481.736 931.836C492.059 923.98 514.954 931.836 514.954 931.836V943.29H472.954C472.954 943.29 477.25 935.249 481.736 931.836Z" fill="#07122A"/>
<path d="M493.454 925.719C476.662 925.719 471.954 943.719 471.954 943.719H514.954C514.954 943.719 510.247 925.719 493.454 925.719Z" fill="#07122A"/>
<path d="M743.172 931.836C732.849 923.98 709.954 931.836 709.954 931.836V943.29H751.954C751.954 943.29 747.658 935.249 743.172 931.836Z" fill="#07122A"/>
<path d="M731.454 925.719C748.247 925.719 752.954 943.719 752.954 943.719H709.954C709.954 943.719 714.662 925.719 731.454 925.719Z" fill="#07122A"/>
<path d="M724.454 936.219L660.954 586.219L489.954 524.719L498.954 936.219H514.454C514.454 936.219 552.217 815.823 568.954 741.719C574.101 718.931 582.454 654.219 582.454 654.219C582.454 654.219 619.896 727.168 629.454 753.719C655.057 824.835 710.454 936.219 710.454 936.219H724.454Z" fill="#07122A"/>
<path d="M765.93 475.733C766.294 479.04 750.77 481.538 750.77 481.538L750.547 473.142C750.547 473.142 765.566 472.427 765.93 475.733Z" fill="#FFC998"/>
<path d="M704.392 439.532C703.302 405.26 720.954 360.719 720.954 360.719L704.392 439.532C704.874 454.675 709.014 467.813 719.954 474.219C727.843 478.838 751.854 472 751.854 472L752.354 482.5L691.954 498.719L704.392 439.532Z" fill="#5226CF"/>
<path d="M624.32 265.38L623.675 237.567C623.675 237.567 617.82 235.912 614.398 234.114C608.831 231.189 602.249 223.579 602.249 223.579L597.635 265.977L624.32 265.38Z" fill="#FFDAB8"/>
<path d="M608.379 235.597C604.696 231.779 602.248 223.579 602.248 223.579L623.919 237.782L623.728 240.571L623.537 243.359C623.537 243.359 612.996 240.383 608.379 235.597Z" fill="#EDC199"/>
<ellipse cx="632.214" cy="184.584" rx="36.5" ry="53.7363" transform="rotate(15.3328 632.214 184.584)" fill="#FFDAB8"/>
<path d="M677.826 116.606C669.334 115.659 656.784 124.909 652.745 128.593C652.745 128.593 637.04 127.217 627.167 128.731C610.527 131.283 587.877 135.401 582.632 145.665C574.894 160.809 584.763 181.477 591.463 197.107C594.699 204.655 593.957 202.919 593.957 202.919L619.654 192.233C617.965 192.041 617.692 191.644 614.702 189.486C610.963 186.789 602.487 173.006 613.084 170.206C621.429 168 621.78 181.686 623.72 186.875L623.615 164.152C623.837 164.803 625.277 166.02 629.263 165.685C633.249 165.351 635.848 160.45 636.65 158.041C637.938 159.438 641.834 162.423 647.116 163.184C652.399 163.945 656.955 158.847 658.573 156.202C663.237 155.978 673.516 160.821 682.417 156.863C693.542 151.916 693.234 118.324 677.826 116.606Z" fill="#07122A"/>
<path d="M703.455 318.719C680.481 284.567 615.455 260.719 615.455 260.719L598.354 256.5C598.354 256.5 541.525 288.46 520.955 318.719C484.769 371.946 472.369 445.318 483.454 508.719C496.122 581.175 660.955 586.719 660.955 586.719C660.955 586.719 677.628 545.368 698.455 478.219C716.916 418.696 738.239 370.427 703.455 318.719Z" fill="#6638EB"/>
<path d="M764.424 281.389C764.424 281.389 761.155 297.294 777.03 299.902C792.904 302.511 811.296 342.898 811.296 342.898L830.906 330.931C830.906 330.931 797.198 285.52 807.348 275.705L764.424 281.389Z" fill="#68E1FD"/>
<path d="M851.612 264.317L882.559 253.913L878.875 217.667L845.014 219.86C845.014 219.86 842.294 239.855 851.612 264.317Z" fill="#68E1FD"/>
<path d="M790.285 237.054C790.285 237.054 817.944 232.994 861.558 174.601L876.854 295.964C876.854 295.964 829.85 266.164 797.806 278.019C797.806 278.019 780.45 259.445 790.285 237.054Z" fill="#38C0EB"/>
<path d="M886.599 296.517C905.644 294.586 918.189 264.474 914.619 229.26C911.048 194.046 892.714 167.066 873.668 168.997C854.622 170.928 842.077 201.04 845.648 236.254C849.219 271.468 867.553 298.448 886.599 296.517Z" fill="#07122A"/>
<path d="M764.424 281.389C764.424 281.389 761.155 297.294 777.03 299.902C792.904 302.511 811.296 342.898 811.296 342.898L830.906 330.931C830.906 330.931 797.198 285.52 807.348 275.705L764.424 281.389Z" fill="#6638EB"/>
<path d="M851.612 264.317L882.559 253.913L878.875 217.667L845.014 219.86C845.014 219.86 842.294 239.855 851.612 264.317Z" fill="#4F23CA"/>
<path d="M882.56 253.924C887.975 253.375 891.542 244.815 890.527 234.804C889.512 224.793 884.299 217.123 878.884 217.672C873.468 218.221 869.901 226.781 870.916 236.792C871.931 246.803 877.144 254.473 882.56 253.924Z" fill="#38C0EB"/>
<path d="M793.564 236.231C793.564 236.231 747.889 247.072 745.331 256.694C742.773 266.316 750.792 288.159 762.14 287.763C773.487 287.367 796.974 277.075 796.974 277.075C796.974 277.075 785.282 254.725 793.564 236.231Z" fill="#24285B"/>
<path d="M800.669 276.598L809.378 295.365L818.574 290.169C819.671 289.563 820.505 288.572 820.916 287.388C821.326 286.203 821.284 284.909 820.796 283.754L817.284 275.299C817.284 275.299 807.348 273.695 800.669 276.598Z" fill="#24285B"/>
<path d="M820.77 325.82C823.932 326.851 819.811 342.025 819.811 342.025L812.07 338.768C812.07 338.768 817.607 324.789 820.77 325.82Z" fill="#FFDAB8"/>
<path d="M782.853 392.958C737.405 447.425 696.648 305.113 626.854 306.069C603.871 306.384 584.804 315.315 581.089 337.997C577.537 359.683 594.255 374.696 614.48 383.288C688.599 414.775 759.827 475.586 802.354 407C818.536 380.902 817.354 344.5 817.354 344.5L811.854 342.5C811.854 342.5 794.911 378.508 782.853 392.958Z" fill="#5226CF"/>
<path d="M789.859 380.94C744.41 435.407 688.672 318.654 618.877 319.61C595.895 319.925 572.804 328.315 569.089 350.997C565.537 372.683 582.255 387.696 602.48 396.288C676.599 427.774 765.149 487.984 807.676 419.398C823.858 393.3 820.579 341.831 820.579 341.831L810.543 337.412C810.543 337.412 801.917 366.489 789.859 380.94Z" fill="#7546FB"/>
<path d="M917.354 170L976.354 110" stroke="#D1D5DA" stroke-width="5" stroke-linecap="round"/>
<path d="M931.854 209.384L1014.25 192.285" stroke="#D1D5DA" stroke-width="5" stroke-linecap="round"/>
<path d="M934.854 258.482L1018 271.434" stroke="#D1D5DA" stroke-width="5" stroke-linecap="round"/>
<rect x="279" y="310" width="11" height="634" fill="#F0F0F0"/>
<path d="M285 236L328.301 311H241.699L285 236Z" fill="#6638EB"/>
<rect x="248" y="390" width="74" height="11" rx="3" fill="#6A737D"/>
<rect x="260" y="453" width="50" height="4" rx="2" fill="#D1D5DA"/>
<rect x="248" y="509" width="74" height="11" rx="3" fill="#6A737D"/>
<rect x="260" y="572" width="50" height="4" rx="2" fill="#D1D5DA"/>
<rect x="248" y="628" width="74" height="11" rx="3" fill="#6A737D"/>
<rect x="260" y="691" width="50" height="4" rx="2" fill="#D1D5DA"/>
<rect x="248" y="747" width="74" height="11" rx="3" fill="#6A737D"/>
<rect x="260" y="810" width="50" height="4" rx="2" fill="#D1D5DA"/>
<path d="M353.8 764.36C350.8 764.36 348.508 763.232 346.924 760.976C345.34 758.696 344.548 755.456 344.548 751.256C344.548 748.424 344.896 746.048 345.592 744.128C346.312 742.184 347.356 740.72 348.724 739.736C350.116 738.752 351.808 738.26 353.8 738.26C356.824 738.26 359.116 739.364 360.676 741.572C362.26 743.78 363.052 746.996 363.052 751.22C363.052 754.028 362.692 756.416 361.972 758.384C361.276 760.328 360.244 761.816 358.876 762.848C357.508 763.856 355.816 764.36 353.8 764.36ZM353.8 760.58C355.432 760.58 356.632 759.824 357.4 758.312C358.192 756.8 358.588 754.436 358.588 751.22C358.588 748.004 358.192 745.676 357.4 744.236C356.632 742.772 355.432 742.04 353.8 742.04C352.192 742.04 350.992 742.772 350.2 744.236C349.408 745.676 349.012 748.004 349.012 751.22C349.012 754.436 349.408 756.8 350.2 758.312C350.992 759.824 352.192 760.58 353.8 760.58Z" fill="#07122A"/>
<path d="M354.016 650.36C352.744 650.36 351.448 650.192 350.128 649.856C348.808 649.52 347.596 649.004 346.492 648.308C346.036 648.02 345.724 647.684 345.556 647.3C345.412 646.892 345.376 646.496 345.448 646.112C345.544 645.704 345.724 645.368 345.988 645.104C346.276 644.816 346.612 644.648 346.996 644.6C347.404 644.552 347.848 644.66 348.328 644.924C349.216 645.428 350.116 645.812 351.028 646.076C351.94 646.34 352.912 646.472 353.944 646.472C354.952 646.472 355.816 646.292 356.536 645.932C357.256 645.572 357.808 645.068 358.192 644.42C358.576 643.772 358.768 643.016 358.768 642.152C358.768 640.808 358.36 639.728 357.544 638.912C356.728 638.072 355.612 637.652 354.196 637.652C353.428 637.652 352.684 637.784 351.964 638.048C351.244 638.288 350.536 638.72 349.84 639.344C349.624 639.536 349.348 639.728 349.012 639.92C348.676 640.088 348.316 640.172 347.932 640.172C347.332 640.172 346.876 640.016 346.564 639.704C346.252 639.392 346.096 638.96 346.096 638.408V626.636C346.096 625.988 346.264 625.496 346.6 625.16C346.96 624.8 347.464 624.62 348.112 624.62H359.956C360.604 624.62 361.096 624.788 361.432 625.124C361.792 625.436 361.972 625.904 361.972 626.528C361.972 627.128 361.792 627.596 361.432 627.932C361.096 628.268 360.604 628.436 359.956 628.436H350.596V636.5H349.408C350.032 635.66 350.86 635.012 351.892 634.556C352.924 634.1 354.052 633.872 355.276 633.872C356.884 633.872 358.276 634.22 359.452 634.916C360.652 635.588 361.576 636.536 362.224 637.76C362.896 638.96 363.232 640.364 363.232 641.972C363.232 643.628 362.86 645.092 362.116 646.364C361.372 647.612 360.304 648.596 358.912 649.316C357.544 650.012 355.912 650.36 354.016 650.36ZM375.386 650.36C372.386 650.36 370.094 649.232 368.51 646.976C366.926 644.696 366.134 641.456 366.134 637.256C366.134 634.424 366.482 632.048 367.178 630.128C367.898 628.184 368.942 626.72 370.31 625.736C371.702 624.752 373.394 624.26 375.386 624.26C378.41 624.26 380.702 625.364 382.262 627.572C383.846 629.78 384.638 632.996 384.638 637.22C384.638 640.028 384.278 642.416 383.558 644.384C382.862 646.328 381.83 647.816 380.462 648.848C379.094 649.856 377.402 650.36 375.386 650.36ZM375.386 646.58C377.018 646.58 378.218 645.824 378.986 644.312C379.778 642.8 380.174 640.436 380.174 637.22C380.174 634.004 379.778 631.676 378.986 630.236C378.218 628.772 377.018 628.04 375.386 628.04C373.778 628.04 372.578 628.772 371.786 630.236C370.994 631.676 370.598 634.004 370.598 637.22C370.598 640.436 370.994 642.8 371.786 644.312C372.578 645.824 373.778 646.58 375.386 646.58Z" fill="#07122A"/>
<path d="M353.8 528.36C351.832 528.36 350.14 528.084 348.724 527.532C347.332 526.956 346.252 526.128 345.484 525.048C344.74 523.968 344.368 522.672 344.368 521.16C344.368 519.96 344.608 518.904 345.088 517.992C345.592 517.056 346.276 516.3 347.14 515.724C348.004 515.148 348.988 514.788 350.092 514.644V515.4C348.556 515.064 347.32 514.332 346.384 513.204C345.472 512.052 345.016 510.684 345.016 509.1C345.016 507.66 345.376 506.436 346.096 505.428C346.816 504.396 347.836 503.616 349.156 503.088C350.476 502.536 352.024 502.26 353.8 502.26C355.6 502.26 357.16 502.536 358.48 503.088C359.8 503.616 360.82 504.396 361.54 505.428C362.26 506.436 362.62 507.66 362.62 509.1C362.62 510.156 362.404 511.128 361.972 512.016C361.564 512.904 360.976 513.636 360.208 514.212C359.464 514.788 358.588 515.172 357.58 515.364V514.644C359.26 514.884 360.616 515.592 361.648 516.768C362.704 517.92 363.232 519.384 363.232 521.16C363.232 522.672 362.848 523.968 362.08 525.048C361.336 526.128 360.256 526.956 358.84 527.532C357.448 528.084 355.768 528.36 353.8 528.36ZM353.8 524.76C355.504 524.76 356.788 524.436 357.652 523.788C358.516 523.116 358.948 522.132 358.948 520.836C358.948 519.54 358.516 518.568 357.652 517.92C356.788 517.272 355.504 516.948 353.8 516.948C352.12 516.948 350.836 517.272 349.948 517.92C349.084 518.568 348.652 519.54 348.652 520.836C348.652 522.132 349.084 523.116 349.948 523.788C350.836 524.436 352.12 524.76 353.8 524.76ZM353.8 513.348C354.76 513.348 355.576 513.204 356.248 512.916C356.92 512.604 357.436 512.16 357.796 511.584C358.156 511.008 358.336 510.336 358.336 509.568C358.336 508.416 357.928 507.516 357.112 506.868C356.32 506.196 355.216 505.86 353.8 505.86C352.384 505.86 351.28 506.196 350.488 506.868C349.696 507.516 349.3 508.416 349.3 509.568C349.3 510.744 349.696 511.668 350.488 512.34C351.28 513.012 352.384 513.348 353.8 513.348ZM375.386 528.36C372.386 528.36 370.094 527.232 368.51 524.976C366.926 522.696 366.134 519.456 366.134 515.256C366.134 512.424 366.482 510.048 367.178 508.128C367.898 506.184 368.942 504.72 370.31 503.736C371.702 502.752 373.394 502.26 375.386 502.26C378.41 502.26 380.702 503.364 382.262 505.572C383.846 507.78 384.638 510.996 384.638 515.22C384.638 518.028 384.278 520.416 383.558 522.384C382.862 524.328 381.83 525.816 380.462 526.848C379.094 527.856 377.402 528.36 375.386 528.36ZM375.386 524.58C377.018 524.58 378.218 523.824 378.986 522.312C379.778 520.8 380.174 518.436 380.174 515.22C380.174 512.004 379.778 509.676 378.986 508.236C378.218 506.772 377.018 506.04 375.386 506.04C373.778 506.04 372.578 506.772 371.786 508.236C370.994 509.676 370.598 512.004 370.598 515.22C370.598 518.436 370.994 520.8 371.786 522.312C372.578 523.824 373.778 524.58 375.386 524.58Z" fill="#07122A"/>
<path d="M348.616 412C347.992 412 347.5 411.832 347.14 411.496C346.804 411.136 346.636 410.656 346.636 410.056C346.636 409.432 346.804 408.964 347.14 408.652C347.5 408.34 347.992 408.184 348.616 408.184H352.648V390.508H354.88L349.588 393.712C349.132 393.976 348.7 394.084 348.292 394.036C347.908 393.964 347.572 393.796 347.284 393.532C347.02 393.244 346.84 392.908 346.744 392.524C346.648 392.14 346.672 391.756 346.816 391.372C346.984 390.964 347.296 390.628 347.752 390.364L352.72 387.376C353.2 387.088 353.68 386.848 354.16 386.656C354.64 386.44 355.084 386.332 355.492 386.332C355.996 386.332 356.416 386.476 356.752 386.764C357.088 387.028 357.256 387.472 357.256 388.096V408.184H360.928C361.552 408.184 362.032 408.34 362.368 408.652C362.728 408.964 362.908 409.432 362.908 410.056C362.908 410.68 362.728 411.16 362.368 411.496C362.032 411.832 361.552 412 360.928 412H348.616ZM375.386 412.36C372.386 412.36 370.094 411.232 368.51 408.976C366.926 406.696 366.134 403.456 366.134 399.256C366.134 396.424 366.482 394.048 367.178 392.128C367.898 390.184 368.942 388.72 370.31 387.736C371.702 386.752 373.394 386.26 375.386 386.26C378.41 386.26 380.702 387.364 382.262 389.572C383.846 391.78 384.638 394.996 384.638 399.22C384.638 402.028 384.278 404.416 383.558 406.384C382.862 408.328 381.83 409.816 380.462 410.848C379.094 411.856 377.402 412.36 375.386 412.36ZM375.386 408.58C377.018 408.58 378.218 407.824 378.986 406.312C379.778 404.8 380.174 402.436 380.174 399.22C380.174 396.004 379.778 393.676 378.986 392.236C378.218 390.772 377.018 390.04 375.386 390.04C373.778 390.04 372.578 390.772 371.786 392.236C370.994 393.676 370.598 396.004 370.598 399.22C370.598 402.436 370.994 404.8 371.786 406.312C372.578 407.824 373.778 408.58 375.386 408.58ZM396.972 412.36C393.972 412.36 391.68 411.232 390.096 408.976C388.512 406.696 387.72 403.456 387.72 399.256C387.72 396.424 388.068 394.048 388.764 392.128C389.484 390.184 390.528 388.72 391.896 387.736C393.288 386.752 394.98 386.26 396.972 386.26C399.996 386.26 402.288 387.364 403.848 389.572C405.432 391.78 406.224 394.996 406.224 399.22C406.224 402.028 405.864 404.416 405.144 406.384C404.448 408.328 403.416 409.816 402.048 410.848C400.68 411.856 398.988 412.36 396.972 412.36ZM396.972 408.58C398.604 408.58 399.804 407.824 400.572 406.312C401.364 404.8 401.76 402.436 401.76 399.22C401.76 396.004 401.364 393.676 400.572 392.236C399.804 390.772 398.604 390.04 396.972 390.04C395.364 390.04 394.164 390.772 393.372 392.236C392.58 393.676 392.184 396.004 392.184 399.22C392.184 402.436 392.58 404.8 393.372 406.312C394.164 407.824 395.364 408.58 396.972 408.58Z" fill="#07122A"/>
</svg>
