<svg width="1253" height="1080" viewBox="0 0 1253 1080" fill="none" xmlns="http://www.w3.org/2000/svg">
<path d="M772.5 724.5C757.578 646.199 912 575.5 912 575.5" stroke="#D1D5DA" stroke-width="3.5" stroke-linecap="round"/>
<path d="M928.261 551.158C940.949 542.471 966.597 542.178 966.597 542.178C966.597 542.178 955.332 566.917 941.006 573.743C929.385 579.28 908.172 576.642 908.172 576.642C908.172 576.642 917.805 558.317 928.261 551.158Z" fill="#959DA5"/>
<path d="M871.301 560.602C873.251 545.35 890.088 526 890.088 526C890.088 526 901.072 550.865 896.643 566.103C893.05 578.464 876.971 592.552 876.971 592.552C876.971 592.552 869.693 573.172 871.301 560.602Z" fill="#EDF0F2"/>
<path d="M819.301 595.602C821.251 580.35 838.088 561 838.088 561C838.088 561 849.072 585.865 844.643 601.103C841.05 613.464 824.971 627.552 824.971 627.552C824.971 627.552 817.693 608.172 819.301 595.602Z" fill="#EDF0F2"/>
<path d="M777.613 634.783C777.529 619.407 791.66 598 791.66 598C791.66 598 805.836 621.194 803.461 636.884C801.534 649.612 787.46 665.702 787.46 665.702C787.46 665.702 777.683 647.455 777.613 634.783Z" fill="#EDF0F2"/>
<path d="M892.387 624.471C877.064 623.186 857 607.207 857 607.207C857 607.207 881.363 595.151 896.78 598.913C909.286 601.964 924.06 617.414 924.06 617.414C924.06 617.414 905.015 625.529 892.387 624.471Z" fill="#D1D5DA"/>
<path d="M845.387 660.47C830.064 659.186 810 643.207 810 643.207C810 643.207 834.363 631.151 849.78 634.913C862.286 637.964 877.06 653.414 877.06 653.414C877.06 653.414 858.015 661.529 845.387 660.47Z" fill="#D1D5DA"/>
<path d="M812.387 704.47C797.064 703.186 777 687.207 777 687.207C777 687.207 801.363 675.151 816.78 678.913C829.286 681.964 844.06 697.414 844.06 697.414C844.06 697.414 825.015 705.529 812.387 704.47Z" fill="#D1D5DA"/>
<path d="M495.616 757.39C538.552 690.232 421.435 567.237 421.435 567.237" stroke="#D1D5DA" stroke-width="3.5" stroke-linecap="round"/>
<path d="M415.378 538.597C406.824 525.819 383.12 516.02 383.12 516.02C383.12 516.02 384.391 543.174 395.157 554.832C403.889 564.289 424.566 569.719 424.566 569.719C424.566 569.719 422.427 549.127 415.378 538.597Z" fill="#959DA5"/>
<path d="M464.756 568.52C468.611 553.635 460.164 529.416 460.164 529.416C460.164 529.416 440.731 548.423 439.184 564.216C437.929 577.027 447.625 596.079 447.625 596.079C447.625 596.079 461.58 580.788 464.756 568.52Z" fill="#EDF0F2"/>
<path d="M500.038 620.33C503.892 605.445 495.445 581.226 495.445 581.226C495.445 581.226 476.012 600.232 474.465 616.026C473.21 628.837 482.906 647.889 482.906 647.889C482.906 647.889 496.861 632.598 500.038 620.33Z" fill="#EDF0F2"/>
<path d="M524.191 672.191C529.98 657.946 524.811 632.823 524.811 632.823C524.811 632.823 503.034 649.093 499.412 664.543C496.473 677.075 503.564 697.242 503.564 697.242C503.564 697.242 519.42 683.931 524.191 672.191Z" fill="#EDF0F2"/>
<path d="M421.457 619.989C436.161 624.487 460.725 617.104 460.725 617.104C460.725 617.104 442.582 596.861 426.871 594.628C414.126 592.816 394.67 601.673 394.67 601.673C394.67 601.673 409.339 616.281 421.457 619.989Z" fill="#D1D5DA"/>
<path d="M451.724 670.87C466.428 675.369 490.992 667.985 490.992 667.985C490.992 667.985 472.849 647.742 457.138 645.509C444.393 643.698 424.937 652.555 424.937 652.555C424.937 652.555 439.606 667.163 451.724 670.87Z" fill="#D1D5DA"/>
<path d="M466.022 723.979C480.725 728.478 505.289 721.094 505.289 721.094C505.289 721.094 487.146 700.851 471.435 698.618C458.691 696.807 439.235 705.664 439.235 705.664C439.235 705.664 453.904 720.272 466.022 723.979Z" fill="#D1D5DA"/>
<path d="M471.5 655C471.5 655 472.67 580.093 456 536.5C444.815 507.25 416 467 416 467" stroke="#D1D5DA"/>
<path d="M690.002 687.72C649.578 599.204 812.164 470.545 812.164 470.545" stroke="#D1D5DA" stroke-width="3.5" stroke-linecap="round"/>
<path d="M824.38 436.96C836.902 422.977 867.229 415.183 867.229 415.183C867.229 415.183 861.054 447.788 846.048 460.041C833.876 469.98 807.955 473.01 807.955 473.01C807.955 473.01 814.059 448.485 824.38 436.96Z" fill="#959DA5"/>
<path d="M759.579 464.693C757.464 446.042 771.812 418.21 771.812 418.21C771.812 418.21 792.055 444.505 791.226 463.86C790.554 479.561 775.578 500.933 775.578 500.933C775.578 500.933 761.322 480.065 759.579 464.693Z" fill="#EDF0F2"/>
<path d="M708.079 521.29C705.964 502.639 720.312 474.807 720.312 474.807C720.312 474.807 740.555 501.102 739.726 520.458C739.053 536.158 724.078 557.53 724.078 557.53C724.078 557.53 709.822 536.662 708.079 521.29Z" fill="#EDF0F2"/>
<path d="M670.021 579.851C665.458 561.643 675.999 532.158 675.999 532.158C675.999 532.158 699.542 555.545 701.28 574.84C702.69 590.491 690.673 613.657 690.673 613.657C690.673 613.657 673.782 594.857 670.021 579.851Z" fill="#EDF0F2"/>
<path d="M803.123 534.306C784.581 537.231 756.151 524.108 756.151 524.108C756.151 524.108 781.54 502.74 800.913 502.725C816.628 502.713 838.632 516.744 838.632 516.744C838.632 516.744 818.404 531.895 803.123 534.306Z" fill="#D1D5DA"/>
<path d="M757.842 590.637C739.3 593.562 710.87 580.439 710.87 580.439C710.87 580.439 736.259 559.071 755.632 559.056C771.346 559.044 793.351 573.075 793.351 573.075C793.351 573.075 773.123 588.226 757.842 590.637Z" fill="#D1D5DA"/>
<path d="M731.484 652.391C712.942 655.316 684.512 642.193 684.512 642.193C684.512 642.193 709.902 620.824 729.274 620.81C744.989 620.798 766.993 634.829 766.993 634.829C766.993 634.829 746.766 649.98 731.484 652.391Z" fill="#D1D5DA"/>
<rect x="468" y="271" width="318" height="493" rx="27" fill="#F0F0F0"/>
<circle cx="627.5" cy="481.5" r="72.5" fill="#6638EB"/>
<path d="M657.708 460.112L617.169 500.652L598.742 482.225" stroke="white" stroke-width="7.37083" stroke-linecap="round" stroke-linejoin="round"/>
<rect x="561.5" y="579" width="132" height="25" rx="6" fill="white"/>
<rect x="555.5" y="629" width="144" height="51.1402" rx="13" fill="#6638EB"/>
</svg>
