<svg width="1253" height="1080" viewBox="0 0 1253 1080" fill="none" xmlns="http://www.w3.org/2000/svg">
<rect width="1253" height="1080" fill="white"/>
<rect x="601" y="80" width="318" height="493" rx="27" fill="#F0F0F0"/>
<circle cx="760.5" cy="290.5" r="72.5" fill="#6638EB"/>
<path d="M790.708 269.112L750.169 309.652L731.742 291.225" stroke="white" stroke-width="7.37083" stroke-linecap="round" stroke-linejoin="round"/>
<rect x="694.5" y="388" width="132" height="25" rx="6" fill="white"/>
<rect x="688.5" y="438" width="144" height="51.1402" rx="13" fill="#6638EB"/>
<path d="M732.585 989.365C675.81 933.416 762.697 787.488 762.697 787.488" stroke="#D1D5DA" stroke-width="3.5" stroke-linecap="round"/>
<path d="M762.245 758.218C767.748 743.86 788.685 729.043 788.685 729.043C788.685 729.043 793.475 755.801 785.566 769.559C779.151 780.719 760.196 790.603 760.196 790.603C760.196 790.603 757.709 770.051 762.245 758.218Z" fill="#959DA5"/>
<path d="M720.742 798.357C713.679 784.699 716.538 759.209 716.538 759.209C716.538 759.209 739.706 773.427 744.721 788.483C748.789 800.696 743.565 821.425 743.565 821.425C743.565 821.425 726.563 809.614 720.742 798.357Z" fill="#EDF0F2"/>
<path d="M697.844 856.707C690.781 843.049 693.64 817.559 693.64 817.559C693.64 817.559 716.808 831.777 721.823 846.833C725.891 859.046 720.667 879.775 720.667 879.775C720.667 879.775 703.665 867.964 697.844 856.707Z" fill="#EDF0F2"/>
<path d="M685.808 912.637C677.001 900.033 676.463 874.388 676.463 874.388C676.463 874.388 701.308 885.417 708.27 899.678C713.918 911.245 711.481 932.483 711.481 932.483C711.481 932.483 693.066 923.024 685.808 912.637Z" fill="#EDF0F2"/>
<path d="M774.387 838.929C761.05 846.579 735.459 844.833 735.459 844.833C735.459 844.833 748.655 821.068 763.479 815.402C775.503 810.806 796.439 815.123 796.439 815.123C796.439 815.123 785.38 832.623 774.387 838.929Z" fill="#D1D5DA"/>
<path d="M756.172 895.26C742.834 902.91 717.244 901.164 717.244 901.164C717.244 901.164 730.44 877.399 745.263 871.733C757.287 867.137 778.224 871.454 778.224 871.454C778.224 871.454 767.165 888.954 756.172 895.26Z" fill="#D1D5DA"/>
<path d="M754.023 950.218C740.685 957.868 715.095 956.122 715.095 956.122C715.095 956.122 728.29 932.357 743.114 926.691C755.138 922.095 776.075 926.412 776.075 926.412C776.075 926.412 765.015 943.912 754.023 950.218Z" fill="#D1D5DA"/>
<path d="M694.79 976.049C740.243 910.568 627.874 783.219 627.874 783.219" stroke="#D1D5DA" stroke-width="3.5" stroke-linecap="round"/>
<path d="M622.908 754.369C614.845 741.276 591.53 730.586 591.53 730.586C591.53 730.586 591.769 757.768 602.085 769.826C610.453 779.608 630.909 785.817 630.909 785.817C630.909 785.817 629.553 765.16 622.908 754.369Z" fill="#959DA5"/>
<path d="M671.116 786.144C675.532 771.416 668.01 746.894 668.01 746.894C668.01 746.894 647.87 765.15 645.725 780.873C643.985 793.628 652.951 813.034 652.951 813.034C652.951 813.034 667.477 798.283 671.116 786.144Z" fill="#EDF0F2"/>
<path d="M704.407 839.255C708.823 824.526 701.301 800.004 701.301 800.004C701.301 800.004 681.16 818.26 679.015 833.984C677.276 846.738 686.242 866.144 686.242 866.144C686.242 866.144 700.767 851.394 704.407 839.255Z" fill="#EDF0F2"/>
<path d="M625.896 835.934C640.418 840.987 665.245 834.54 665.245 834.54C665.245 834.54 647.883 813.623 632.268 810.796C619.601 808.502 599.823 816.615 599.823 816.615C599.823 816.615 613.927 831.769 625.896 835.934Z" fill="#D1D5DA"/>
<path d="M654.212 887.926C668.734 892.979 693.56 886.532 693.56 886.532C693.56 886.532 676.198 865.616 660.583 862.789C647.916 860.495 628.139 868.608 628.139 868.608C628.139 868.608 642.243 883.762 654.212 887.926Z" fill="#D1D5DA"/>
<path d="M666.484 941.539C681.007 946.592 705.833 940.145 705.833 940.145C705.833 940.145 688.471 919.229 672.856 916.402C660.189 914.108 640.412 922.221 640.412 922.221C640.412 922.221 654.516 937.375 666.484 941.539Z" fill="#D1D5DA"/>
<path d="M674.575 872.817C674.575 872.817 678.585 798.008 663.58 753.815C653.513 724.162 626.245 682.848 626.245 682.848" stroke="#D1D5DA"/>
<path d="M709.028 999.731C675.443 999.731 666.028 963.731 666.028 963.731H752.028C752.028 963.731 742.613 999.731 709.028 999.731Z" fill="#D9D9D9"/>
<path d="M343.782 988.154C354.105 980.298 377 988.154 377 988.154V999.608H335C335 999.608 339.296 991.567 343.782 988.154Z" fill="#07122A"/>
<path d="M355.5 982.037C338.707 982.037 334 1000.04 334 1000.04H377C377 1000.04 372.293 982.037 355.5 982.037Z" fill="#07122A"/>
<path d="M605.218 988.154C594.895 980.298 572 988.154 572 988.154V999.608H614C614 999.608 609.704 991.567 605.218 988.154Z" fill="#07122A"/>
<path d="M593.5 982.037C610.293 982.037 615 1000.04 615 1000.04H572C572 1000.04 576.707 982.037 593.5 982.037Z" fill="#07122A"/>
<path d="M586.5 992.537L523 642.537L352 581.037L361 992.537H376.5C376.5 992.537 414.263 872.141 431 798.037C436.147 775.249 444.5 710.537 444.5 710.537C444.5 710.537 481.941 783.486 491.5 810.037C517.103 881.153 572.5 992.537 572.5 992.537H586.5Z" fill="#07122A"/>
<path d="M628.076 529.27C628.44 532.576 612.916 535.075 612.916 535.075L612.693 526.679C612.693 526.679 627.712 525.963 628.076 529.27Z" fill="#FFC998"/>
<path d="M566.438 495.85C565.348 461.578 583 417.037 583 417.037L566.438 495.85C566.919 510.993 571.06 524.132 582 530.537C589.889 535.156 613.5 526.537 613.5 526.537L614.5 540.537L554 555.037L566.438 495.85Z" fill="#5226CF"/>
<path d="M639.5 487.537L622 487.037L613 528.537L629 531.037L639.5 487.537Z" fill="#38C0EB"/>
<path d="M565.5 375.037C542.527 340.886 477.5 317.037 477.5 317.037L449.5 309.037C449.5 309.037 403.571 344.778 383 375.037C346.815 428.264 334.415 501.636 345.5 565.037C358.168 637.493 523 643.037 523 643.037C523 643.037 539.673 601.687 560.5 534.537C578.961 475.015 600.284 426.745 565.5 375.037Z" fill="#6638EB"/>
<path d="M630.165 528.747C631.798 531.645 618.5 540.037 618.5 540.037L615 532.402C615 532.402 628.533 525.849 630.165 528.747Z" fill="#FFDAB8"/>
<path d="M572 551.037C501.778 561.091 557.196 440.211 504.696 394.211C487.409 379.064 464.637 369.844 446.696 384.211C429.544 397.947 431.919 420.291 441.196 440.211C475.196 513.211 488 589.537 565.5 567.037C594.991 558.475 618.5 540.537 618.5 540.537L614.5 532.037C614.5 532.037 590.63 548.369 572 551.037Z" fill="#5226CF"/>
<path d="M570.5 549.037C500.278 559.091 537 435.037 484.5 389.037C467.213 373.889 444.441 364.669 426.5 379.037C409.348 392.773 411.722 415.117 421 435.037C455 508.037 480.5 612.037 558 589.537C587.491 580.975 619.5 540.537 619.5 540.537L615 530.537C615 530.537 589.13 546.369 570.5 549.037Z" fill="#7546FB"/>
<path d="M475.5 316.537L485 294.537C485 294.537 480.364 290.596 478 287.537C474.155 282.561 471 273.037 471 273.037L449.5 309.537L475.5 316.537Z" fill="#FFDAB8"/>
<path d="M472 286.037C470.071 281.095 470.5 272.537 470.5 272.537L485.5 294.037L484.25 296.537L483 299.037C483 299.037 474.418 292.232 472 286.037Z" fill="#EDC199"/>
<ellipse cx="508.556" cy="246.964" rx="36.5" ry="53.7363" transform="rotate(20.1278 508.556 246.964)" fill="#FFDAB8"/>
<path d="M583.5 184.537C589.903 156.464 588 111.537 555 113.037C548.832 113.317 545.091 116.691 542 122.037C539.332 126.65 540 135.537 540 135.537C540 135.537 540.002 140.708 537 142.537C533.715 144.537 527 144.537 527 144.537C527 144.537 513.933 142.457 506 144.537C493.492 147.815 494.825 161.67 483.5 163.037C472.175 164.403 457.5 161.537 451 168.537C444.5 175.537 451.495 182.144 448.5 191.537C445.1 202.199 433.5 206.037 433.5 213.037C433.5 220.037 434.529 227.714 437.5 236.537C444.276 256.652 461.833 265.537 473.5 278.537L491 259.537C491 259.537 473.182 242.105 491 236.537C499 234.037 499 251.537 499 251.537L506 220.037C506 220.037 533.059 233.132 548.5 226.537C565.962 219.077 579.277 203.05 583.5 184.537Z" fill="#07122A"/>
</svg>
