<svg width="1253" height="1080" viewBox="0 0 1253 1080" fill="none" xmlns="http://www.w3.org/2000/svg">
<path opacity="0.2" fill-rule="evenodd" clip-rule="evenodd" d="M491.135 461.041C494.646 459.3 499.327 461.319 497.375 465.922C495.283 470.851 487.55 470.912 483.182 470.814C483.619 470.791 485.027 466.271 485.509 465.588C486.93 463.574 488.977 462.113 491.135 461.041ZM450.706 550.848C449.466 551.909 450.605 550.948 450.706 550.848V550.848ZM495.216 483.925C497.316 485.514 497.414 488.321 495.698 490.223C493.654 492.486 489.923 492.405 487.139 492.186C485.879 492.087 479.153 491.557 480.748 490.466C480.625 490.512 480.369 490.624 480.095 490.775C479.947 491.309 479.792 491.841 479.63 492.371C479.67 492.394 479.704 492.418 479.746 492.441C479.7 492.421 479.668 492.4 479.628 492.379C478.008 497.673 475.703 502.713 472.686 507.429C473.814 506.989 474.982 506.655 476.167 506.506C479.676 506.065 487.056 508.762 483.129 513.391C479.363 517.828 473.507 513.072 469.236 512.418C465.09 518.147 460.519 523.637 455.73 528.944C456.023 529.035 456.28 529.224 456.428 529.519C458.349 528.553 460.35 527.172 462.128 526.797C464.693 526.257 469.952 525.928 471.889 528.201C474.272 530.995 471.715 533.267 468.898 533.805C464.813 534.584 459.468 532.611 455.538 531.277C455.089 531.356 454.598 531.226 454.305 530.87C454.218 530.842 454.131 530.815 454.047 530.788C449.197 536.069 444.161 541.176 439.156 546.171C439.209 546.168 439.262 546.164 439.318 546.162C440.623 545.313 442.023 544.617 443.541 544.252C447.051 543.403 451.18 543.397 454.027 545.91C456.863 548.413 457.866 552.792 454.929 555.606C449.051 561.237 440.402 548.408 437.439 547.874C432.353 552.897 426.975 557.59 421.512 562.188C422.133 562.001 422.769 561.863 423.426 561.801C428.78 561.291 441.343 567.785 434.77 574.184C429.041 579.76 422.419 569.036 417.807 565.287C412.659 569.573 407.484 573.83 402.454 578.252C405.197 577.53 407.847 577.422 410.786 578.301C413.827 579.211 418.734 581.483 416.809 585.551C414.852 589.688 408.959 587.809 405.889 586.497C404.216 585.782 400.86 583.366 397.913 582.35C389.886 589.855 382.933 598.121 377.666 607.857C374.379 613.936 371.883 620.43 370.125 627.104C369.003 631.364 366.793 638.519 367.232 644.062C365.132 632.966 368.946 619.637 373.052 609.717C376.828 600.594 382.475 592.585 389.088 585.374C387.432 580.434 373.474 573.315 381.823 568.72C386.256 566.291 390.794 570.316 391.761 574.581C392.424 577.512 391.409 581.195 390.331 584.04C392.412 581.842 394.574 579.715 396.803 577.658C399.883 574.815 403.036 572.055 406.219 569.329C400.978 564.453 396.023 550.509 403.055 548.224C413.439 544.86 408.43 563.887 407.704 567.453C407.498 567.465 407.338 567.404 407.22 567.272C407.278 567.598 407.346 567.947 407.428 568.3C413.521 563.11 419.704 558.022 425.684 552.709C425.146 552.315 424.29 550.809 423.618 550.008C422.101 548.201 420.649 546.314 419.588 544.201C417.912 540.86 416.297 535.532 420.745 533.564C425.581 531.421 427.876 537.447 427.907 541.043C427.929 543.53 427.244 545.892 426.887 548.33C426.775 549.09 427.202 552.517 426.157 551.043C426.206 551.587 426.213 551.98 426.188 552.26C427.262 551.301 428.327 550.332 429.386 549.356C429.337 549.233 429.301 549.098 429.292 548.943C429.236 547.871 430.326 547.457 431.089 547.771C432.486 546.456 433.869 545.125 435.228 543.767C438.107 540.891 441.028 537.933 443.929 534.911C443.301 534.376 443.551 533.635 442.963 533.067C442.376 532.501 441.219 532.188 440.529 531.661C438.793 530.337 437.353 528.407 436.312 526.507C434.594 523.369 432.374 516.784 437.4 515.285C442.58 513.737 445.205 520.076 445.536 524.039C445.6 524.807 445.016 531.727 444.571 534.239C449.939 528.624 455.218 522.799 460.002 516.872C458.552 516.86 454.444 513.921 453.614 513.119C451.588 511.162 448.368 506.838 451.923 504.548C455.084 502.516 458.977 505.454 460.327 508.311C460.549 508.782 461.33 513.161 461.39 515.126C463.37 512.613 465.259 510.085 467.016 507.549C468.188 505.863 469.283 504.133 470.308 502.365C470.062 502.227 469.83 501.986 469.611 501.686C464.341 500.803 457.626 492.663 463.818 489.826C466.766 488.477 469.961 491.257 471.404 493.533C471.699 493.999 472.177 496.34 472.566 498.188C475.515 492.333 477.769 486.135 479.486 479.781C479.027 479.669 478.638 479.322 478.588 478.725C476.03 477.282 474.01 476.08 472.225 473.303C471.116 471.578 469.12 467.636 472.381 466.677C476.624 465.429 479.287 471.846 479.632 475.007C479.672 475.374 479.67 476.441 479.656 477.419C479.803 477.399 479.952 477.401 480.098 477.427C481.075 473.492 481.854 469.507 482.475 465.516C480.16 464.779 479.765 452.733 481.308 451.018C484.757 447.175 487.186 452.722 487 455.654C486.781 459.111 485.197 462.257 483.312 465.049C483.11 465.344 483.168 465.33 483.116 464.918C483.087 465.122 483.018 465.272 482.916 465.381C483.012 467.201 483.201 469.064 483.109 470.674C482.846 475.286 482.301 479.924 481.511 484.477C481.319 485.584 481.099 486.682 480.852 487.771C482.715 486.199 485.225 484.803 486.207 484.366C488.757 483.233 492.685 482.01 495.216 483.925ZM366.815 643.624C366.938 645.106 367.304 646.459 368.023 647.566C367.495 646.3 367.099 644.981 366.815 643.624Z" fill="#E4E7E8"/>
<g opacity="0.5">
<path fill-rule="evenodd" clip-rule="evenodd" d="M469.223 592.04C473.425 586.048 481.224 570.83 487.138 568.689C490.948 567.31 489.837 581.576 489.884 584.296C490.067 594.819 489.043 605.276 487.778 615.712C485.498 634.532 478.045 651.293 467.822 667.311C462.562 675.553 456.391 683.895 447.845 689.038C443.912 691.406 439.179 691.803 435.294 693.843C430.769 696.219 433.233 694.298 431.194 699.013C428.363 705.559 427.457 714.003 426.147 720.988C420.132 753.05 405.568 922.54 408.093 955.154C408.317 958.044 404.287 958.736 404.085 955.207C403.016 936.495 412.27 806.918 416.94 764.542C421.609 722.167 426.334 684.73 431.071 670.069C436.819 652.283 447.199 630.893 455.84 614.307C459.854 606.601 464.229 599.161 469.223 592.04Z" fill="#F1F3F3"/>
<path fill-rule="evenodd" clip-rule="evenodd" d="M500.414 799.873C511.349 791.845 523.186 806.997 513.29 815.026C507.82 819.464 502.101 817.885 498.882 814.187C496.792 816.734 494.836 819.398 492.956 821.648C487.229 828.504 481.817 835.524 476.644 842.707C465.898 857.63 456.689 873.396 447.06 888.874C437.558 904.15 428.132 919.503 419.519 935.166C412.223 948.436 402.498 964.048 400 978.595C403.79 947.742 418.172 918.086 435.298 890.886C452.285 863.91 471.779 834.448 498.081 813.159C495.404 809.222 495.33 803.603 500.414 799.873Z" fill="#F1F3F3"/>
<path fill-rule="evenodd" clip-rule="evenodd" d="M292.913 724.626C299.032 725.823 309.031 739.666 314.075 744.94C320.07 751.207 325.508 757.888 330.635 764.887C341.671 779.953 351.541 795.971 359.934 812.675C373.616 839.906 384.578 867.86 392.533 897.513C397.403 915.665 400.556 934.478 402.424 953.161C402.777 956.684 406.471 983.848 401.148 984.58C396.361 985.24 397.84 963.954 397.609 961.059C394.998 928.393 387.177 896.61 376.299 865.822C373.929 859.115 371.728 850.9 367.938 844.864C365.209 840.517 367.919 842.033 363.123 840.387C359.005 838.974 354.313 839.319 350.096 837.589C340.936 833.832 333.601 826.539 327.171 819.203C314.676 804.947 304.774 789.524 299.613 771.256C296.749 761.127 294.118 750.939 292.658 740.497C292.281 737.798 288.972 723.855 292.913 724.626Z" fill="#E4E7E8"/>
<path fill-rule="evenodd" clip-rule="evenodd" d="M317.061 494.311C340.111 534.286 359.053 578.197 371.283 622.672C378.694 649.619 383.876 677.27 389.025 704.722C396.997 747.228 404.538 789.73 406.683 832.991C408.841 876.502 413.108 926.687 398.861 968.595C405.978 926.047 399.202 880.758 398.002 837.945C397.429 817.507 395.768 797.269 393.588 776.951C391.473 757.241 388.018 737.624 384.801 718.069C383.234 708.546 381.588 699.036 379.912 689.532C379.411 686.696 379.2 678.282 377.401 676.345C375.591 674.395 366.354 673.6 363.454 672.17C357.615 669.288 352.122 665.195 347.261 660.87C337.942 652.579 329.835 641.747 323.436 631.068C308.631 606.359 302.712 576.206 303.011 547.59C303.068 542.034 312.003 482.205 308.415 481.382C308.631 481.128 308.835 480.867 309.028 480.595C311.745 485.144 314.411 489.724 317.061 494.311Z" fill="#E4E7E8"/>
<path fill-rule="evenodd" clip-rule="evenodd" d="M565.846 638.483C566.202 637.97 568.517 634.402 567.351 634.63C569.724 634.166 564.087 638.565 570 635.866C567.192 638.517 568.813 641.962 568.85 645.531C568.911 651.325 567.942 657.072 566.851 662.742C565.126 671.704 562.557 680.418 558.828 688.755C550.701 706.921 536.901 724.41 520.518 735.767C512.43 741.375 504.504 743.284 495.28 745.866C489.453 747.496 488.991 750.51 485.898 756.164C479.46 767.94 473.136 779.674 467.457 791.847C460.677 806.383 454.095 820.935 447.886 835.727C426.969 885.553 409.945 937.173 401.005 990.595C400.786 959.114 408.069 926.691 417.255 896.684C423.947 874.821 432.658 853.746 441.95 832.885C444.201 827.831 447.613 821.33 448.57 815.75C449.239 811.841 447.192 808.081 446.255 803.963C442.601 787.925 442.863 769.958 446.071 753.835C449.609 736.056 459.839 727.804 477.145 725.286C483.474 724.365 491.519 724.703 497.322 722.004C503.645 719.065 506.253 709.406 509.849 703.205C519.506 686.549 530.98 670.575 544.155 656.54C547.803 652.654 551.726 649.069 555.888 645.746C558.513 643.649 564.058 641.066 565.846 638.483Z" fill="#F1F3F3"/>
<path fill-rule="evenodd" clip-rule="evenodd" d="M371.792 956.595H433.209C435.97 956.595 438.209 958.834 438.209 961.595C438.209 961.84 438.191 962.083 438.155 962.325L433.408 994.513C431.961 1004.33 423.541 1011.6 413.622 1011.6H391.378C381.459 1011.6 373.039 1004.33 371.592 994.513L366.845 962.325C366.442 959.593 368.33 957.052 371.062 956.649C371.304 956.613 371.548 956.595 371.792 956.595Z" fill="#6A737D"/>
</g>
<ellipse cx="818.5" cy="1012" rx="208.5" ry="22" fill="#F0F0F0"/>
<path d="M944.118 996.117C933.795 988.262 910.9 996.117 910.9 996.117V1007.57H952.9C952.9 1007.57 948.604 999.53 944.118 996.117Z" fill="#07122A"/>
<path d="M932.4 990C949.192 990 953.9 1008 953.9 1008H910.9C910.9 1008 915.607 990 932.4 990Z" fill="#07122A"/>
<path d="M682.682 996.117C693.005 988.262 715.9 996.117 715.9 996.117V1007.57H673.9C673.9 1007.57 678.196 999.53 682.682 996.117Z" fill="#07122A"/>
<path d="M694.4 990C677.607 990 672.9 1008 672.9 1008H715.9C715.9 1008 711.192 990 694.4 990Z" fill="#07122A"/>
<path d="M701.4 1000.5L764.9 650.5L935.9 589L926.9 1000.5H911.4C911.4 1000.5 873.637 880.104 856.9 806C851.753 783.212 843.4 718.5 843.4 718.5C843.4 718.5 805.958 791.449 796.4 818C770.797 889.116 715.4 1000.5 715.4 1000.5H701.4Z" fill="#07122A"/>
<path d="M659.824 537.233C659.46 540.539 674.984 543.038 674.984 543.038L675.207 534.642C675.207 534.642 660.188 533.927 659.824 537.233Z" fill="#FFC998"/>
<path d="M721.462 503.813C722.552 469.541 704.9 425 704.9 425L721.462 503.813C720.98 518.956 716.84 532.095 705.9 538.5C698.011 543.119 674.4 534.5 674.4 534.5L673.4 548.5L733.9 563L721.462 503.813Z" fill="#5226CF"/>
<path d="M648.4 495.5L665.9 495L674.9 536.5L658.9 539L648.4 495.5Z" fill="#38C0EB"/>
<path d="M722.4 383C745.373 348.849 810.4 325 810.4 325L838.4 317C838.4 317 884.329 352.741 904.9 383C941.085 436.227 953.485 509.599 942.4 573C929.732 645.456 764.9 651 764.9 651C764.9 651 748.226 609.65 727.4 542.5C708.939 482.978 687.616 434.708 722.4 383Z" fill="#6638EB"/>
<path d="M657.735 536.71C656.102 539.608 669.4 548 669.4 548L672.9 540.365C672.9 540.365 659.367 533.812 657.735 536.71Z" fill="#FFDAB8"/>
<path d="M715.9 559C786.122 569.054 730.704 448.174 783.204 402.174C800.491 387.027 823.263 377.807 841.204 392.174C858.356 405.91 855.981 428.254 846.704 448.174C812.704 521.174 799.9 597.5 722.4 575C692.909 566.438 669.4 548.5 669.4 548.5L673.4 540C673.4 540 697.27 556.332 715.9 559Z" fill="#5226CF"/>
<path d="M717.4 557C787.622 567.054 750.9 443 803.4 397C820.687 381.853 843.459 372.632 861.4 387C878.552 400.736 876.178 423.08 866.9 443C832.9 516 807.4 620 729.9 597.5C700.409 588.938 668.4 548.5 668.4 548.5L672.9 538.5C672.9 538.5 698.77 554.332 717.4 557Z" fill="#7546FB"/>
<path d="M803.9 442C803.9 453.598 813.302 463 824.9 463C836.498 463 845.9 453.598 845.9 442C845.9 430.402 836.498 421 824.9 421C813.302 421 803.9 430.402 803.9 442Z" fill="#38C0EB"/>
<path d="M812.4 324.5L802.9 302.5C802.9 302.5 807.536 298.559 809.9 295.5C813.745 290.525 816.9 281 816.9 281L838.4 317.5L812.4 324.5Z" fill="#FFDAB8"/>
<path d="M815.9 294C817.829 289.058 817.4 280.5 817.4 280.5L802.4 302L803.65 304.5L804.9 307C804.9 307 813.482 300.195 815.9 294Z" fill="#EDC199"/>
<ellipse rx="36.5" ry="53.7363" transform="matrix(-0.938927 0.344116 0.344116 0.938927 779.344 254.928)" fill="#FFDAB8"/>
<path d="M788.489 257.111L781.522 222.24C781.522 222.24 748.065 240.338 733.257 227.222C721.041 216.401 708.039 192.787 721.812 184.602C732.166 178.449 738.986 191.724 750.175 195.672C779.829 206.135 813.594 184.809 827.798 215.598C839.49 240.944 814.363 287 814.363 287L796.45 265.967C796.45 265.967 806.526 257.624 804.909 249.915C803.557 243.472 800.812 238.231 794.957 239.399C788.351 240.716 788.489 257.111 788.489 257.111Z" fill="#07122A"/>
<path d="M680.205 358.493C680.205 358.493 575.558 378.174 558.644 332.687C543.242 291.263 611.31 278.595 615.011 234.555C623.573 132.638 369.5 119.5 369.5 119.5" stroke="#D9D9D9" stroke-width="3.39555" stroke-dasharray="12.9 12.9"/>
<path d="M345.618 92.1558L362.77 121.823L344.449 122.794L345.618 92.1558Z" fill="#959DA5"/>
<path d="M346.432 69.397L227.4 99.6545L343.562 145.765L346.432 69.397Z" fill="#F0F0F0"/>
<path d="M345.618 92.1558L362.77 121.823L344.449 122.794L345.618 92.1558Z" fill="#959DA5"/>
<path d="M227.4 100.655L345.619 92.1552L344.657 117.454L227.4 100.655Z" fill="#D1D5DA"/>
</svg>
