<svg width="1253" height="1080" viewBox="0 0 1253 1080" fill="none" xmlns="http://www.w3.org/2000/svg">
<rect x="146" y="548" width="962" height="10" rx="5" fill="#F0F0F0"/>
<circle cx="323" cy="548" r="28.5" fill="white" stroke="#6638EB" stroke-width="21"/>
<circle cx="627" cy="548" r="28.5" fill="white" stroke="#EDF0F2" stroke-width="21"/>
<circle cx="931" cy="548" r="28.5" fill="white" stroke="#EDF0F2" stroke-width="21"/>
<path d="M323 352.5V509.5" stroke="#EDF0F2" stroke-width="5" stroke-dasharray="8 8"/>
<rect x="273" y="252" width="100" height="100" rx="12" fill="#EDF0F2"/>
<path d="M315.488 317C314.656 317 314 316.776 313.52 316.328C313.072 315.848 312.848 315.208 312.848 314.408C312.848 313.576 313.072 312.952 313.52 312.536C314 312.12 314.656 311.912 315.488 311.912H320.864V288.344H323.84L316.784 292.616C316.176 292.968 315.6 293.112 315.056 293.048C314.544 292.952 314.096 292.728 313.712 292.376C313.36 291.992 313.12 291.544 312.992 291.032C312.864 290.52 312.896 290.008 313.088 289.496C313.312 288.952 313.728 288.504 314.336 288.152L320.96 284.168C321.6 283.784 322.24 283.464 322.88 283.208C323.52 282.92 324.112 282.776 324.656 282.776C325.328 282.776 325.888 282.968 326.336 283.352C326.784 283.704 327.008 284.296 327.008 285.128V311.912H331.904C332.736 311.912 333.376 312.12 333.824 312.536C334.304 312.952 334.544 313.576 334.544 314.408C334.544 315.24 334.304 315.88 333.824 316.328C333.376 316.776 332.736 317 331.904 317H315.488Z" fill="#959DA5"/>
<rect x="577" y="252" width="100" height="100" rx="12" fill="#EDF0F2"/>
<path d="M618.384 317C617.36 317 616.608 316.776 616.128 316.328C615.68 315.848 615.456 315.16 615.456 314.264C615.456 313.72 615.6 313.192 615.888 312.68C616.176 312.168 616.592 311.624 617.136 311.048L626.784 300.776C628.256 299.24 629.312 297.848 629.952 296.6C630.592 295.32 630.912 294.04 630.912 292.76C630.912 291.16 630.4 289.944 629.376 289.112C628.384 288.28 626.928 287.864 625.008 287.864C623.92 287.864 622.832 288.024 621.744 288.344C620.656 288.632 619.552 289.144 618.432 289.88C617.856 290.264 617.312 290.424 616.8 290.36C616.32 290.296 615.888 290.088 615.504 289.736C615.152 289.384 614.912 288.952 614.784 288.44C614.656 287.928 614.672 287.416 614.832 286.904C615.024 286.36 615.408 285.896 615.984 285.512C617.36 284.584 618.896 283.88 620.592 283.4C622.32 282.92 624.048 282.68 625.776 282.68C628.208 282.68 630.256 283.048 631.92 283.784C633.584 284.52 634.848 285.592 635.712 287C636.576 288.408 637.008 290.12 637.008 292.136C637.008 293.48 636.784 294.792 636.336 296.072C635.92 297.352 635.264 298.648 634.368 299.96C633.504 301.272 632.368 302.664 630.96 304.136L621.936 313.544V311.912H636.048C636.912 311.912 637.568 312.12 638.016 312.536C638.464 312.952 638.688 313.576 638.688 314.408C638.688 315.24 638.464 315.88 638.016 316.328C637.568 316.776 636.912 317 636.048 317H618.384Z" fill="#959DA5"/>
<rect x="881" y="252" width="100" height="100" rx="12" fill="#EDF0F2"/>
<path d="M929.728 317.48C928 317.48 926.208 317.256 924.352 316.808C922.496 316.36 920.88 315.688 919.504 314.792C918.864 314.376 918.432 313.896 918.208 313.352C917.984 312.808 917.92 312.296 918.016 311.816C918.144 311.304 918.384 310.872 918.736 310.52C919.12 310.168 919.584 309.96 920.128 309.896C920.704 309.832 921.328 309.976 922 310.328C923.312 311.032 924.576 311.544 925.792 311.864C927.008 312.152 928.256 312.296 929.536 312.296C930.944 312.296 932.128 312.104 933.088 311.72C934.048 311.336 934.768 310.76 935.248 309.992C935.76 309.224 936.016 308.296 936.016 307.208C936.016 305.608 935.472 304.424 934.384 303.656C933.328 302.856 931.776 302.456 929.728 302.456H926.656C925.76 302.456 925.072 302.232 924.592 301.784C924.144 301.336 923.92 300.712 923.92 299.912C923.92 299.112 924.144 298.488 924.592 298.04C925.072 297.592 925.76 297.368 926.656 297.368H929.152C930.368 297.368 931.408 297.176 932.272 296.792C933.136 296.376 933.808 295.8 934.288 295.064C934.768 294.328 935.008 293.432 935.008 292.376C935.008 290.904 934.512 289.784 933.52 289.016C932.56 288.248 931.152 287.864 929.296 287.864C928.112 287.864 926.992 288.008 925.936 288.296C924.912 288.552 923.776 289.048 922.528 289.784C921.952 290.136 921.392 290.28 920.848 290.216C920.336 290.152 919.904 289.944 919.552 289.592C919.2 289.24 918.96 288.824 918.832 288.344C918.704 287.832 918.736 287.32 918.928 286.808C919.12 286.264 919.52 285.8 920.128 285.416C921.504 284.52 923.024 283.848 924.688 283.4C926.352 282.92 928.064 282.68 929.824 282.68C932.16 282.68 934.16 283.048 935.824 283.784C937.488 284.488 938.752 285.512 939.616 286.856C940.512 288.168 940.96 289.768 940.96 291.656C940.96 293 940.704 294.232 940.192 295.352C939.68 296.44 938.96 297.368 938.032 298.136C937.104 298.904 935.984 299.448 934.672 299.768V299.192C936.976 299.576 938.768 300.536 940.048 302.072C941.328 303.576 941.968 305.464 941.968 307.736C941.968 309.72 941.472 311.448 940.48 312.92C939.488 314.392 938.08 315.528 936.256 316.328C934.432 317.096 932.256 317.48 929.728 317.48Z" fill="#959DA5"/>
<rect x="399" y="744" width="201" height="85" rx="13" fill="#F0F0F0"/>
<path d="M455.768 802.384C454.776 802.384 454.008 802.112 453.464 801.568C452.952 800.992 452.696 800.208 452.696 799.216V771.28C452.696 770.256 452.968 769.488 453.512 768.976C454.056 768.432 454.824 768.16 455.816 768.16H467.384C471.096 768.16 473.96 769.088 475.976 770.944C477.992 772.8 479 775.392 479 778.72C479 782.048 477.992 784.656 475.976 786.544C473.96 788.4 471.096 789.328 467.384 789.328H458.84V799.216C458.84 800.208 458.584 800.992 458.072 801.568C457.56 802.112 456.792 802.384 455.768 802.384ZM458.84 784.48H466.424C468.6 784.48 470.248 784 471.368 783.04C472.488 782.048 473.048 780.608 473.048 778.72C473.048 776.832 472.488 775.408 471.368 774.448C470.248 773.488 468.6 773.008 466.424 773.008H458.84V784.48ZM486.036 802.384C485.044 802.384 484.276 802.128 483.732 801.616C483.22 801.072 482.964 800.304 482.964 799.312V781.168C482.964 780.176 483.22 779.424 483.732 778.912C484.244 778.4 484.964 778.144 485.892 778.144C486.82 778.144 487.54 778.4 488.052 778.912C488.564 779.424 488.82 780.176 488.82 781.168V784.192H488.34C488.788 782.272 489.668 780.816 490.98 779.824C492.292 778.832 494.036 778.24 496.212 778.048C496.884 777.984 497.412 778.16 497.796 778.576C498.212 778.96 498.452 779.568 498.516 780.4C498.58 781.2 498.388 781.856 497.94 782.368C497.524 782.848 496.884 783.136 496.02 783.232L494.964 783.328C493.012 783.52 491.54 784.128 490.548 785.152C489.556 786.144 489.06 787.552 489.06 789.376V799.312C489.06 800.304 488.804 801.072 488.292 801.616C487.78 802.128 487.028 802.384 486.036 802.384ZM512.954 802.48C510.298 802.48 508.01 801.984 506.09 800.992C504.17 800 502.682 798.592 501.626 796.768C500.602 794.944 500.09 792.784 500.09 790.288C500.09 787.856 500.586 785.728 501.578 783.904C502.602 782.08 503.994 780.656 505.754 779.632C507.546 778.576 509.578 778.048 511.85 778.048C513.514 778.048 515.002 778.32 516.314 778.864C517.658 779.408 518.794 780.192 519.722 781.216C520.682 782.24 521.402 783.488 521.882 784.96C522.394 786.4 522.65 788.032 522.65 789.856C522.65 790.432 522.442 790.88 522.026 791.2C521.642 791.488 521.082 791.632 520.346 791.632H504.938V788.176H518.426L517.658 788.896C517.658 787.424 517.434 786.192 516.986 785.2C516.57 784.208 515.946 783.456 515.114 782.944C514.314 782.4 513.306 782.128 512.09 782.128C510.746 782.128 509.594 782.448 508.634 783.088C507.706 783.696 506.986 784.576 506.474 785.728C505.994 786.848 505.754 788.192 505.754 789.76V790.096C505.754 792.72 506.362 794.688 507.578 796C508.826 797.28 510.65 797.92 513.05 797.92C513.882 797.92 514.81 797.824 515.834 797.632C516.89 797.408 517.882 797.04 518.81 796.528C519.482 796.144 520.074 795.984 520.586 796.048C521.098 796.08 521.498 796.256 521.786 796.576C522.106 796.896 522.298 797.296 522.362 797.776C522.426 798.224 522.33 798.688 522.074 799.168C521.85 799.648 521.45 800.064 520.874 800.416C519.754 801.12 518.458 801.648 516.986 802C515.546 802.32 514.202 802.48 512.954 802.48ZM536.53 802.384C535.73 802.384 535.026 802.176 534.418 801.76C533.842 801.344 533.362 800.704 532.978 799.84L525.346 782.128C525.058 781.424 524.946 780.768 525.01 780.16C525.106 779.552 525.394 779.072 525.874 778.72C526.386 778.336 527.074 778.144 527.938 778.144C528.674 778.144 529.266 778.32 529.714 778.672C530.162 778.992 530.562 779.616 530.914 780.544L537.394 796.72H535.954L542.626 780.496C542.978 779.6 543.378 778.992 543.826 778.672C544.306 778.32 544.946 778.144 545.746 778.144C546.45 778.144 547.01 778.336 547.426 778.72C547.842 779.072 548.098 779.552 548.194 780.16C548.29 780.736 548.178 781.376 547.858 782.08L540.082 799.84C539.73 800.704 539.25 801.344 538.642 801.76C538.066 802.176 537.362 802.384 536.53 802.384Z" fill="#959DA5"/>
<rect x="649" y="744" width="207" height="85" rx="13" fill="#6638EB"/>
<path d="M705.576 802.384C704.648 802.384 703.928 802.128 703.416 801.616C702.936 801.104 702.696 800.368 702.696 799.408V770.848C702.696 769.856 702.936 769.104 703.416 768.592C703.928 768.048 704.584 767.776 705.384 767.776C706.12 767.776 706.664 767.92 707.016 768.208C707.4 768.464 707.848 768.912 708.36 769.552L726.744 793.408H725.496V770.704C725.496 769.776 725.736 769.056 726.216 768.544C726.728 768.032 727.448 767.776 728.376 767.776C729.304 767.776 730.008 768.032 730.488 768.544C730.968 769.056 731.208 769.776 731.208 770.704V799.504C731.208 800.4 730.984 801.104 730.536 801.616C730.088 802.128 729.48 802.384 728.712 802.384C727.976 802.384 727.384 802.24 726.936 801.952C726.52 801.664 726.056 801.2 725.544 800.56L707.208 776.704H708.408V799.408C708.408 800.368 708.168 801.104 707.688 801.616C707.208 802.128 706.504 802.384 705.576 802.384ZM749.594 802.48C746.938 802.48 744.65 801.984 742.73 800.992C740.81 800 739.322 798.592 738.266 796.768C737.242 794.944 736.73 792.784 736.73 790.288C736.73 787.856 737.226 785.728 738.218 783.904C739.242 782.08 740.634 780.656 742.394 779.632C744.186 778.576 746.218 778.048 748.49 778.048C750.154 778.048 751.642 778.32 752.954 778.864C754.298 779.408 755.434 780.192 756.362 781.216C757.322 782.24 758.042 783.488 758.522 784.96C759.034 786.4 759.29 788.032 759.29 789.856C759.29 790.432 759.082 790.88 758.666 791.2C758.282 791.488 757.722 791.632 756.986 791.632H741.578V788.176H755.066L754.298 788.896C754.298 787.424 754.074 786.192 753.626 785.2C753.21 784.208 752.586 783.456 751.754 782.944C750.954 782.4 749.946 782.128 748.73 782.128C747.386 782.128 746.234 782.448 745.274 783.088C744.346 783.696 743.626 784.576 743.114 785.728C742.634 786.848 742.394 788.192 742.394 789.76V790.096C742.394 792.72 743.002 794.688 744.218 796C745.466 797.28 747.29 797.92 749.69 797.92C750.522 797.92 751.45 797.824 752.474 797.632C753.53 797.408 754.522 797.04 755.45 796.528C756.122 796.144 756.714 795.984 757.226 796.048C757.738 796.08 758.138 796.256 758.426 796.576C758.746 796.896 758.938 797.296 759.002 797.776C759.066 798.224 758.97 798.688 758.714 799.168C758.49 799.648 758.09 800.064 757.514 800.416C756.394 801.12 755.098 801.648 753.626 802C752.186 802.32 750.842 802.48 749.594 802.48ZM765.533 802.24C764.829 802.24 764.237 802.048 763.757 801.664C763.309 801.248 763.069 800.72 763.037 800.08C763.037 799.44 763.309 798.768 763.853 798.064L771.629 788.464V791.296L764.333 782.32C763.757 781.616 763.485 780.944 763.517 780.304C763.549 779.664 763.789 779.152 764.237 778.768C764.717 778.352 765.309 778.144 766.013 778.144C766.749 778.144 767.357 778.272 767.837 778.528C768.349 778.784 768.813 779.184 769.229 779.728L774.989 787.12H772.877L778.685 779.728C779.133 779.184 779.597 778.784 780.077 778.528C780.557 778.272 781.149 778.144 781.853 778.144C782.589 778.144 783.181 778.352 783.629 778.768C784.077 779.184 784.301 779.712 784.301 780.352C784.333 780.992 784.061 781.664 783.485 782.368L776.237 791.248V788.56L784.013 798.064C784.589 798.736 784.861 799.392 784.829 800.032C784.797 800.672 784.541 801.2 784.061 801.616C783.613 802.032 783.021 802.24 782.285 802.24C781.581 802.24 780.989 802.112 780.509 801.856C780.029 801.6 779.565 801.2 779.117 800.656L772.877 792.784H774.893L768.701 800.656C768.285 801.168 767.837 801.568 767.357 801.856C766.877 802.112 766.269 802.24 765.533 802.24ZM800.856 802.48C798.776 802.48 797.032 802.128 795.624 801.424C794.248 800.72 793.224 799.696 792.552 798.352C791.88 796.976 791.544 795.28 791.544 793.264V783.04H789.048C788.28 783.04 787.688 782.848 787.272 782.464C786.856 782.048 786.648 781.488 786.648 780.784C786.648 780.048 786.856 779.488 787.272 779.104C787.688 778.72 788.28 778.528 789.048 778.528H791.544V774.16C791.544 773.168 791.8 772.416 792.312 771.904C792.856 771.392 793.608 771.136 794.568 771.136C795.528 771.136 796.264 771.392 796.776 771.904C797.288 772.416 797.544 773.168 797.544 774.16V778.528H802.632C803.4 778.528 803.992 778.72 804.408 779.104C804.824 779.488 805.032 780.048 805.032 780.784C805.032 781.488 804.824 782.048 804.408 782.464C803.992 782.848 803.4 783.04 802.632 783.04H797.544V792.928C797.544 794.464 797.88 795.616 798.552 796.384C799.224 797.152 800.312 797.536 801.816 797.536C802.36 797.536 802.84 797.488 803.256 797.392C803.672 797.296 804.04 797.232 804.36 797.2C804.744 797.168 805.064 797.296 805.32 797.584C805.576 797.84 805.704 798.384 805.704 799.216C805.704 799.856 805.592 800.432 805.368 800.944C805.176 801.424 804.808 801.76 804.264 801.952C803.848 802.08 803.304 802.192 802.632 802.288C801.96 802.416 801.368 802.48 800.856 802.48Z" fill="white"/>
</svg>
