<svg width="1253" height="1080" viewBox="0 0 1253 1080" fill="none" xmlns="http://www.w3.org/2000/svg">
<rect x="292.138" y="703.014" width="206.628" height="51.344" rx="11.2706" fill="#CACED2"/>
<rect x="351.622" y="774.395" width="87.6606" height="20.0367" rx="10.0183" fill="#EDF0F2"/>
<circle cx="394.826" cy="463.826" r="177.826" fill="#F0F0F0"/>
<mask id="mask0_132_2" style="mask-type:alpha" maskUnits="userSpaceOnUse" x="217" y="286" width="356" height="356">
<circle cx="394.826" cy="463.826" r="177.826" fill="#F0F0F0"/>
</mask>
<g mask="url(#mask0_132_2)">
<path d="M376.601 526.662L377.92 471.917C377.92 471.917 388.763 475.624 393.75 474.555C402.984 472.576 405.623 471.917 405.623 471.917L409.58 526.662H376.601Z" fill="#FFDAB8"/>
<ellipse rx="48.1495" ry="70.887" transform="matrix(1 0 0 -1 391.697 409.822)" fill="#EDC199"/>
<ellipse rx="48.1495" ry="70.887" transform="matrix(1 0 0 -1 391.697 405.863)" fill="#FFDAB8"/>
<path d="M349.195 381.559L344.723 407.278C340.678 402.003 331.947 388.418 329.392 376.284C326.198 361.116 350.472 328.143 387.522 315.613C417.162 305.59 442.457 320.669 451.4 329.462C460.343 338.255 443.735 350.565 443.735 350.565C443.735 350.565 460.023 358.108 460.982 367.711C462.105 378.947 441.819 388.813 441.819 388.813C441.819 388.813 445.798 393.845 446.291 397.387C447.118 403.332 438.625 409.916 438.625 409.916V393.43C438.625 388.682 435.431 384.857 433.515 383.538C434.367 384.197 432.365 385.648 420.1 386.176C407.835 386.703 384.754 373.206 374.746 366.392C364.738 359.577 349.195 381.559 349.195 381.559Z" fill="#07122A"/>
<ellipse cx="395.069" cy="677.706" rx="153.023" ry="178.087" fill="#6638EB"/>
<mask id="mask1_132_2" style="mask-type:alpha" maskUnits="userSpaceOnUse" x="242" y="499" width="307" height="357">
<ellipse cx="395.069" cy="677.706" rx="153.023" ry="178.087" fill="#6638EB"/>
</mask>
<g mask="url(#mask1_132_2)">
<path d="M451.805 512.039C451.805 522.276 445.785 532.156 434.804 539.719C423.847 547.265 408.402 552.112 391.069 552.112C373.736 552.112 358.29 547.265 347.333 539.719C336.352 532.156 330.333 522.276 330.333 512.039C330.333 501.802 336.352 491.922 347.333 484.359C358.29 476.814 373.736 471.966 391.069 471.966C408.402 471.966 423.847 476.814 434.804 484.359C445.785 491.922 451.805 501.802 451.805 512.039Z" fill="#FFDAB8" stroke="black" stroke-width="11.2706"/>
</g>
</g>
<rect x="755.486" y="703.014" width="206.628" height="51.344" rx="11.2706" fill="#CACED2"/>
<rect x="814.97" y="774.395" width="87.6606" height="20.0367" rx="10.0183" fill="#EDF0F2"/>
<circle cx="858.174" cy="463.826" r="177.826" fill="#F0F0F0"/>
<mask id="mask2_132_2" style="mask-type:alpha" maskUnits="userSpaceOnUse" x="680" y="286" width="356" height="356">
<circle cx="858.174" cy="463.826" r="177.826" fill="#F0F0F0"/>
</mask>
<g mask="url(#mask2_132_2)">
<path d="M839.95 526.662L841.269 471.917C841.269 471.917 852.112 475.624 857.099 474.555C866.333 472.577 868.971 471.917 868.971 471.917L872.929 526.662H839.95Z" fill="#FFDAB8"/>
<ellipse rx="48.1495" ry="70.887" transform="matrix(1 0 0 -1 855.046 409.822)" fill="#EDC199"/>
<ellipse rx="48.1495" ry="70.887" transform="matrix(1 0 0 -1 855.046 405.863)" fill="#FFDAB8"/>
<path d="M857.402 390.697C837.366 390.697 838.618 375.669 838.618 375.669C835.905 375.669 828.349 376.796 819.834 381.305C811.318 385.813 808.291 402.802 809.335 410.733H805.432C804.597 404.054 803.428 386.063 805.432 367.529C807.937 344.362 831.73 333.717 863.038 331.213C888.083 329.209 895.597 350.832 896.223 361.894C897.893 360.642 902.735 360.015 908.746 367.529C914.757 375.043 907.014 399.463 904.509 410.733H901.232C901.65 409.481 902.234 404.597 901.232 395.08C900.231 385.562 888.292 378.174 882.448 375.669C882.448 375.669 879.944 390.697 857.402 390.697Z" fill="#07122A"/>
<ellipse cx="858.418" cy="677.706" rx="153.023" ry="178.087" fill="#6638EB"/>
<mask id="mask3_132_2" style="mask-type:alpha" maskUnits="userSpaceOnUse" x="705" y="499" width="307" height="357">
<ellipse cx="858.418" cy="677.706" rx="153.023" ry="178.087" fill="#6638EB"/>
</mask>
<g mask="url(#mask3_132_2)">
<path d="M915.154 512.039C915.154 522.276 909.134 532.156 898.153 539.719C887.196 547.265 871.75 552.112 854.417 552.112C837.084 552.112 821.639 547.265 810.682 539.719C799.701 532.156 793.681 522.276 793.681 512.039C793.681 501.802 799.701 491.922 810.682 484.359C821.639 476.814 837.084 471.966 854.417 471.966C871.75 471.966 887.196 476.814 898.153 484.359C909.134 491.922 915.154 501.802 915.154 512.039Z" fill="#FFDAB8" stroke="black" stroke-width="11.2706"/>
</g>
</g>
</svg>
