<svg width="1253" height="1080" viewBox="0 0 1253 1080" fill="none" xmlns="http://www.w3.org/2000/svg">
<ellipse rx="201.5" ry="22" transform="matrix(-1 0 0 1 992.5 930)" fill="#F0F0F0"/>
<path d="M1137.5 920.5L1086 578.5L918 572L914 921H930.5L996 685L1122 921L1137.5 920.5Z" fill="#07122A"/>
<path d="M831 457.851L726.5 270.351L917 191.351L1017 367.851L831 457.851Z" fill="#F8F8F8"/>
<path d="M799.5 360.351L896.5 317.851" stroke="#6A737D" stroke-width="2" stroke-linecap="round"/>
<path d="M772 307.351L803 365.851" stroke="#FFD200" stroke-width="2" stroke-linecap="round"/>
<path d="M798.5 295.851L829.5 354.351" stroke="#FFD200" stroke-width="2" stroke-linecap="round"/>
<path d="M752 282.351L856 236.351" stroke="#6A737D" stroke-width="6" stroke-linecap="round"/>
<path d="M760.5 293.851L796.5 278.851" stroke="#DFDFDF" stroke-width="6" stroke-linecap="round"/>
<path d="M1024.5 260.903C993.703 260.103 968.503 268.406 934.503 286.903C882.942 314.954 896.001 346.798 898.501 388.851C901.001 430.903 905.336 538.57 909.003 585.903H1099C1101.84 563.403 1108.5 493.003 1112.5 391.403C1117.5 264.403 1063 261.903 1024.5 260.903Z" fill="#6638EB"/>
<path d="M960.5 295.906C944.789 288.479 931.391 287.837 916 295.906C864.5 322.906 893.771 404.972 843 438.406C830.5 446.638 804 413.406 804 413.406L771 460C808.333 519.167 814.5 528.406 845.5 527.906C889.292 527.2 955 452.906 975 400.906C995 348.906 994.85 312.143 960.5 295.906Z" fill="#7546FB"/>
<path d="M826.5 432.351C826.5 432.351 813.715 419.343 807 409.851C804.31 406.048 800.5 399.851 800.5 399.851L763 449L783.5 488L826.5 432.351Z" fill="#F0F0F0"/>
<path d="M974.582 272.952L975.227 245.139C975.227 245.139 981.082 243.484 984.504 241.686C990.071 238.761 996.653 231.151 996.653 231.151L1001.27 273.549L974.582 272.952Z" fill="#FFDAB8"/>
<path d="M990.523 243.169C994.206 239.351 996.654 231.151 996.654 231.151L974.984 245.354L975.175 248.142L975.366 250.931C975.366 250.931 985.906 247.955 990.523 243.169Z" fill="#EDC199"/>
<ellipse rx="36.5" ry="53.7363" transform="matrix(-0.97914 0.203186 0.203186 0.97914 972.157 193.882)" fill="#FFDAB8"/>
<path d="M1005 218.851C1017.61 217.419 1009.39 175.351 1009.39 175.351L944.5 184.293L957.407 203.479C957.407 203.479 958.213 188.479 964.733 188.479C981 188.479 954 224.639 1005 218.851Z" fill="#07122A"/>
<path d="M958.38 221.302C958.475 214.539 954.025 194.07 951.5 185.851L957.5 184.85L957.509 184.893C959.014 192.423 962.816 211.44 962.856 215.326C962.906 220.192 962.595 227.787 961.479 231.378C960.586 234.25 963 242.851 963 242.851C963 242.851 960.965 241.891 959 240.851C957.272 239.936 953.025 234.217 950.5 232.85C947.975 231.484 956.9 231.679 956.9 231.679C956.942 230.955 958.285 228.071 958.38 221.302Z" fill="#F0F0F0"/>
<path d="M989.413 181.378C976.986 183.279 937.856 187.211 919.845 188.939L929.545 184.242C929.327 179.567 928.101 170.968 930.584 163.072C934.077 151.964 943.467 145.089 949.061 139.671L949.656 136.385C955.176 135.3 970.282 134.106 986.555 138.011C1002.83 141.917 1010.11 164.323 1011.72 175.038L1015.6 176.406C1012.05 177.271 1001.84 179.477 989.413 181.378Z" fill="#F8F8F8"/>
<path d="M931 180.851C936 180.184 951.7 177.951 974.5 174.351C997.3 170.751 1006 169.184 1007.5 168.851" stroke="#F0F0F0" stroke-width="3" stroke-linecap="round"/>
<path d="M742 307.85L796 406.5L773 435L726 307.85C726 307.85 733.4 293.05 738.5 291.85C744.438 290.453 742 307.85 742 307.85Z" fill="#FFDAB8"/>
<path d="M800.5 359.351L811 321.851" stroke="#6A737D" stroke-width="2" stroke-linecap="round"/>
<path d="M826.5 348.351L786 332.851" stroke="#6A737D" stroke-width="2" stroke-linecap="round"/>
<path d="M785 331.851L812 320.851" stroke="#6A737D" stroke-width="2" stroke-linecap="round"/>
<path d="M897.782 918.117C908.105 910.262 931 918.117 931 918.117V929.572H889C889 929.572 893.296 921.531 897.782 918.117Z" fill="#07122A"/>
<path d="M909.5 912C892.707 912 888 930 888 930H931C931 930 926.293 912 909.5 912Z" fill="#07122A"/>
<path d="M1103.78 918.117C1114.11 910.262 1137 918.117 1137 918.117V929.572H1095C1095 929.572 1099.3 921.531 1103.78 918.117Z" fill="#07122A"/>
<path d="M1115.5 912C1098.71 912 1094 930 1094 930H1137C1137 930 1132.29 912 1115.5 912Z" fill="#07122A"/>
<ellipse rx="357.5" ry="18" transform="matrix(-1 0 0 1 483.5 724)" fill="#F0F0F0"/>
<path fill-rule="evenodd" clip-rule="evenodd" d="M831.693 607.812C834.041 606.647 837.173 607.998 835.866 611.077C834.467 614.374 829.294 614.415 826.373 614.349C826.665 614.334 827.607 611.311 827.929 610.854C828.88 609.506 830.249 608.529 831.693 607.812ZM804.649 667.887C803.819 668.596 804.581 667.953 804.649 667.887V667.887ZM834.422 623.12C835.827 624.183 835.893 626.061 834.745 627.332C833.377 628.846 830.882 628.792 829.019 628.646C828.177 628.58 823.678 628.225 824.744 627.495C824.662 627.526 824.491 627.601 824.308 627.702C824.209 628.059 824.105 628.415 823.997 628.769C824.023 628.784 824.046 628.801 824.074 628.816C824.043 628.803 824.022 628.788 823.995 628.775C822.911 632.316 821.369 635.688 819.351 638.842C820.106 638.548 820.887 638.324 821.68 638.225C824.027 637.93 828.964 639.734 826.337 642.83C823.818 645.798 819.9 642.617 817.044 642.18C814.27 646.012 811.213 649.684 808.009 653.234C808.205 653.295 808.377 653.421 808.476 653.619C809.761 652.973 811.1 652.049 812.289 651.798C814.005 651.437 817.523 651.217 818.819 652.737C820.412 654.606 818.702 656.126 816.818 656.486C814.085 657.007 810.509 655.687 807.881 654.795C807.58 654.848 807.252 654.761 807.056 654.523C806.998 654.504 806.94 654.485 806.883 654.467C803.639 658 800.27 661.416 796.922 664.757C796.958 664.756 796.993 664.753 797.031 664.751C797.904 664.184 798.84 663.718 799.855 663.474C802.203 662.906 804.966 662.902 806.87 664.583C808.767 666.258 809.438 669.187 807.473 671.069C803.541 674.836 797.756 666.254 795.774 665.897C792.371 669.257 788.774 672.396 785.12 675.472C785.535 675.347 785.96 675.255 786.4 675.213C789.982 674.872 798.386 679.216 793.988 683.496C790.156 687.226 785.727 680.053 782.641 677.545C779.198 680.412 775.736 683.26 772.371 686.218C774.206 685.735 775.979 685.663 777.945 686.25C779.979 686.859 783.262 688.379 781.974 691.1C780.664 693.868 776.722 692.611 774.669 691.733C773.55 691.255 771.305 689.639 769.334 688.959C763.964 693.979 759.313 699.509 755.79 706.021C753.591 710.088 751.922 714.432 750.746 718.896C749.995 721.746 748.517 726.532 748.81 730.24C747.406 722.818 749.957 713.901 752.704 707.265C755.229 701.163 759.007 695.805 763.431 690.982C762.323 687.677 752.986 682.915 758.571 679.842C761.536 678.217 764.571 680.909 765.218 683.762C765.662 685.722 764.983 688.186 764.262 690.09C765.654 688.619 767.1 687.196 768.591 685.82C770.651 683.919 772.761 682.072 774.89 680.249C771.384 676.987 768.069 667.659 772.773 666.131C779.719 663.881 776.369 676.608 775.883 678.994C775.745 679.002 775.638 678.961 775.559 678.873C775.598 679.091 775.644 679.325 775.698 679.56C779.774 676.089 783.91 672.685 787.911 669.131C787.55 668.868 786.978 667.86 786.528 667.324C785.513 666.116 784.542 664.854 783.833 663.44C782.712 661.205 781.632 657.641 784.606 656.325C787.842 654.891 789.376 658.922 789.398 661.327C789.412 662.991 788.954 664.571 788.715 666.202C788.64 666.711 788.926 669.003 788.227 668.017C788.26 668.381 788.264 668.644 788.248 668.831C788.966 668.189 789.679 667.541 790.387 666.888C790.354 666.806 790.33 666.716 790.324 666.612C790.287 665.895 791.015 665.618 791.526 665.828C792.461 664.948 793.386 664.058 794.295 663.15C796.221 661.226 798.175 659.247 800.115 657.226C799.695 656.868 799.862 656.372 799.469 655.992C799.076 655.613 798.303 655.404 797.841 655.052C796.679 654.166 795.716 652.875 795.02 651.604C793.871 649.505 792.386 645.1 795.747 644.097C799.212 643.062 800.969 647.302 801.19 649.953C801.233 650.467 800.842 655.096 800.544 656.776C804.135 653.02 807.667 649.124 810.867 645.159C809.897 645.151 807.149 643.185 806.594 642.648C805.238 641.339 803.084 638.447 805.462 636.915C807.577 635.556 810.181 637.521 811.084 639.432C811.233 639.747 811.755 642.677 811.795 643.991C813.12 642.31 814.383 640.619 815.559 638.923C816.343 637.795 817.075 636.637 817.761 635.455C817.596 635.362 817.441 635.201 817.294 635C813.769 634.41 809.278 628.965 813.419 627.067C815.391 626.165 817.529 628.024 818.494 629.547C818.691 629.858 819.011 631.425 819.271 632.66C821.244 628.744 822.752 624.598 823.9 620.348C823.593 620.272 823.333 620.04 823.299 619.641C821.588 618.676 820.237 617.872 819.043 616.014C818.301 614.86 816.966 612.224 819.147 611.582C821.986 610.747 823.767 615.039 823.998 617.154C824.025 617.4 824.023 618.113 824.014 618.768C824.112 618.754 824.212 618.756 824.31 618.773C824.963 616.141 825.484 613.475 825.9 610.805C824.351 610.312 824.087 602.255 825.119 601.107C827.426 598.537 829.051 602.247 828.927 604.208C828.78 606.521 827.721 608.625 826.46 610.493C826.325 610.691 826.363 610.681 826.328 610.406C826.309 610.542 826.263 610.642 826.194 610.715C826.259 611.932 826.385 613.178 826.324 614.256C826.148 617.341 825.783 620.443 825.255 623.489C825.126 624.229 824.979 624.964 824.814 625.692C826.06 624.641 827.739 623.707 828.396 623.415C830.102 622.657 832.73 621.838 834.422 623.12ZM748.531 729.947C748.614 730.938 748.858 731.843 749.339 732.584C748.986 731.737 748.721 730.855 748.531 729.947Z" fill="#E4E7E8"/>
<path fill-rule="evenodd" clip-rule="evenodd" d="M743.55 581.827C744.738 579.489 748.056 578.702 748.848 581.951C749.696 585.431 745.572 588.554 743.19 590.247C743.416 590.06 742.364 587.073 742.35 586.514C742.307 584.866 742.821 583.264 743.55 581.827ZM757.758 646.157C757.517 647.222 757.744 646.251 757.758 646.157V646.157ZM754.885 592.47C756.647 592.484 757.822 593.95 757.661 595.656C757.469 597.687 755.436 599.135 753.855 600.13C753.139 600.58 749.32 602.984 749.739 601.762C749.692 601.835 749.599 601.997 749.512 602.188C749.647 602.534 749.776 602.881 749.901 603.23C749.931 603.226 749.959 603.226 749.991 603.221C749.958 603.229 749.933 603.23 749.903 603.236C751.149 606.722 751.928 610.347 752.194 614.083C752.623 613.396 753.117 612.75 753.693 612.196C755.399 610.557 760.435 609.054 760.179 613.107C759.932 616.992 754.89 616.782 752.338 618.138C752.404 622.868 752.146 627.639 751.698 632.4C751.892 632.332 752.105 632.33 752.302 632.43C752.947 631.144 753.468 629.603 754.272 628.691C755.432 627.377 758.122 625.098 760.069 625.543C762.464 626.089 762.001 628.33 760.704 629.744C758.825 631.795 755.169 632.873 752.528 633.728C752.319 633.95 752.003 634.077 751.704 634.003C751.646 634.023 751.588 634.042 751.532 634.062C751.041 638.833 750.381 643.585 749.693 648.265C749.72 648.242 749.748 648.219 749.776 648.195C750.138 647.218 750.61 646.285 751.278 645.483C752.822 643.625 755.034 641.971 757.566 642.182C760.087 642.391 762.375 644.339 761.925 647.022C761.023 652.392 751.256 648.967 749.453 649.865C748.732 654.592 747.723 659.258 746.631 663.908C746.889 663.56 747.175 663.232 747.503 662.936C750.171 660.522 759.505 658.984 758.537 665.044C757.692 670.325 749.855 667.219 745.882 667.052C744.834 671.408 743.759 675.76 742.829 680.142C744.011 678.659 745.39 677.542 747.317 676.838C749.312 676.111 752.853 675.368 753.446 678.32C754.049 681.321 750.137 682.669 747.967 683.192C746.783 683.477 744.018 683.523 742.031 684.155C740.725 691.389 740.299 698.602 741.365 705.929C742.031 710.504 743.288 714.985 745.013 719.267C746.113 722.001 747.788 726.722 750.239 729.52C744.678 724.407 741.396 715.733 739.633 708.771C738.012 702.369 737.84 695.815 738.506 689.304C735.643 687.316 725.311 689.076 727.953 683.275C729.36 680.2 733.402 680.546 735.625 682.447C737.153 683.754 738.08 686.135 738.639 688.092C738.877 686.082 739.187 684.076 739.56 682.082C740.076 679.326 740.664 676.585 741.282 673.851C736.522 673.33 728.29 667.831 731.149 663.795C735.375 657.84 740.293 670.048 741.328 672.251C741.223 672.34 741.112 672.371 740.996 672.347C741.158 672.499 741.334 672.66 741.519 672.816C742.713 667.597 743.996 662.396 745.08 657.156C744.634 657.16 743.573 656.694 742.892 656.533C741.356 656.171 739.823 655.739 738.41 655.029C736.176 653.907 733.18 651.694 734.779 648.861C736.516 645.779 740.156 648.094 741.61 650.01C742.616 651.335 743.192 652.876 743.975 654.327C744.219 654.779 745.817 656.447 744.668 656.074C744.912 656.346 745.073 656.554 745.171 656.714C745.364 655.77 745.548 654.825 745.725 653.878C745.65 653.832 745.577 653.774 745.51 653.694C745.052 653.141 745.471 652.484 746.006 652.347C746.23 651.084 746.439 649.817 746.626 648.545C747.02 645.852 747.405 643.097 747.753 640.317C747.202 640.282 747.041 639.784 746.498 639.714C745.957 639.645 745.211 639.94 744.631 639.933C743.17 639.917 741.626 639.457 740.309 638.854C738.133 637.857 734.31 635.212 736.407 632.4C738.567 629.499 742.508 631.85 744.27 633.844C744.612 634.23 747.064 638.175 747.829 639.701C748.464 634.543 748.968 629.308 749.165 624.218C748.382 624.79 745.004 624.856 744.238 624.757C742.369 624.518 738.914 623.485 739.905 620.836C740.789 618.482 744.052 618.503 745.918 619.496C746.225 619.659 748.394 621.696 749.212 622.726C749.269 620.587 749.272 618.476 749.201 616.413C749.156 615.04 749.052 613.674 748.895 612.317C748.708 612.341 748.487 612.304 748.25 612.231C745.07 613.864 738.215 612.181 740.402 608.185C741.444 606.283 744.269 606.497 745.953 607.141C746.297 607.273 747.489 608.338 748.436 609.173C747.678 604.855 746.41 600.629 744.791 596.535C744.5 596.658 744.153 596.627 743.887 596.327C741.939 596.575 740.375 596.738 738.307 595.962C737.023 595.479 734.377 594.163 735.743 592.345C737.52 589.98 741.513 592.358 742.962 593.915C743.13 594.096 743.555 594.669 743.939 595.2C744.01 595.13 744.09 595.072 744.179 595.027C743.13 592.526 741.956 590.077 740.693 587.688C739.157 588.218 734.131 581.915 734.273 580.378C734.587 576.938 738.107 578.943 739.179 580.59C740.443 582.532 740.851 584.852 740.956 587.103C740.966 587.342 740.991 587.311 740.798 587.111C740.864 587.232 740.887 587.34 740.876 587.439C741.655 588.377 742.501 589.301 743.095 590.202C744.797 592.78 746.359 595.486 747.755 598.244C748.094 598.915 748.415 599.592 748.718 600.274C749.089 598.687 749.877 596.934 750.229 596.307C751.144 594.681 752.762 592.454 754.885 592.47ZM749.84 729.452C750.498 730.197 751.235 730.777 752.063 731.083C751.274 730.615 750.534 730.066 749.84 729.452Z" fill="#E4E7E8"/>
<rect x="302.74" y="110" width="16.1578" height="613.995" fill="#6A737D"/>
<rect x="505.521" y="110" width="16.1578" height="613.995" fill="#6A737D"/>
<rect x="302.741" y="458.2" width="218.938" height="14.542" fill="#6A737D"/>
<rect width="304.585" height="14.3182" transform="matrix(0.611465 -0.791271 0.775848 0.63092 314.554 707.288)" fill="#6A737D"/>
<rect width="304.585" height="14.3182" transform="matrix(-0.611465 -0.791271 -0.775848 0.63092 511.906 707.288)" fill="#6A737D"/>
<rect x="302.741" y="709.453" width="218.938" height="14.542" fill="#6A737D"/>
<rect x="302.741" y="207.754" width="218.938" height="14.542" fill="#6A737D"/>
<rect width="304.585" height="14.3182" transform="matrix(0.611465 -0.791271 0.775848 0.63092 314.554 456.843)" fill="#6A737D"/>
<rect width="304.585" height="14.3182" transform="matrix(-0.611465 -0.791271 -0.775848 0.63092 511.906 456.843)" fill="#6A737D"/>
<rect x="302.741" y="459.008" width="218.938" height="14.542" fill="#6A737D"/>
<rect x="555.74" y="374" width="9.21039" height="349.995" fill="#6A737D"/>
<rect x="671.331" y="374" width="9.21039" height="349.995" fill="#6A737D"/>
<rect x="555.74" y="572.484" width="124.801" height="8.28935" fill="#6A737D"/>
<rect width="173.622" height="8.16181" transform="matrix(0.611465 -0.791271 0.775848 0.63092 562.474 714.472)" fill="#6A737D"/>
<rect width="173.622" height="8.16181" transform="matrix(-0.611465 -0.791271 -0.775848 0.63092 674.97 714.472)" fill="#6A737D"/>
<rect x="555.74" y="715.706" width="124.801" height="8.28935" fill="#6A737D"/>
<rect x="555.74" y="429.723" width="124.801" height="8.28935" fill="#6A737D"/>
<rect width="173.622" height="8.16181" transform="matrix(0.611465 -0.791271 0.775848 0.63092 562.474 571.711)" fill="#6A737D"/>
<rect width="173.622" height="8.16181" transform="matrix(-0.611465 -0.791271 -0.775848 0.63092 674.97 571.711)" fill="#6A737D"/>
<rect x="555.74" y="572.945" width="124.801" height="8.28935" fill="#6A737D"/>
</svg>
