<svg width="1253" height="1080" viewBox="0 0 1253 1080" fill="none" xmlns="http://www.w3.org/2000/svg">
<path d="M898.531 428L906.304 429.891L893.773 481.389L886 479.497L898.531 428Z" fill="#F0F0F0"/>
<path d="M916.5 422C911.3 421.2 902.167 425.833 898.5 428C900.833 429.667 905 431.5 906 430.5C907.166 429.334 917 429.167 922 429.5C922.333 427.333 921.7 422.8 916.5 422Z" fill="#F0F0F0"/>
<rect x="800" y="473" width="113" height="132" fill="#D9D9D9"/>
<rect x="248" y="614" width="758" height="335" fill="#D1D5DA"/>
<rect x="291" y="657" width="206" height="250" fill="#F0F0F0"/>
<rect x="524" y="657" width="207" height="250" fill="#F0F0F0"/>
<rect x="758" y="657" width="206" height="250" fill="#F0F0F0"/>
<ellipse rx="527.5" ry="22" transform="matrix(-1 0 0 1 626.5 961)" fill="#F0F0F0"/>
<path d="M514.05 602.281C515.437 599.257 501.487 592 501.487 592L498.634 599.899C498.634 599.899 512.664 605.305 514.05 602.281Z" fill="#FFDAB8"/>
<path d="M499.5 307.5C519.272 299.623 563.718 282.409 580.5 295.5C599.514 310.332 596.47 354.384 594.5 380C590.999 425.5 484.423 425.995 460 465.5C422.609 525.981 503 590 503 590V605C503 605 382.014 512.332 388.5 438.5C394.139 374.301 438 332 499.5 307.5Z" fill="#7546FB"/>
<path d="M610.831 285.999L610.187 258.185C610.187 258.185 604.331 256.53 600.909 254.732C595.342 251.808 588.76 244.198 588.76 244.198L584.146 286.595L610.831 285.999Z" fill="#FFDAB8"/>
<path d="M594.89 256.216C591.208 252.398 588.76 244.198 588.76 244.198L610.43 258.401L610.239 261.19L610.048 263.978C610.048 263.978 599.508 261.002 594.89 256.216Z" fill="#EDC199"/>
<ellipse cx="609.369" cy="204.383" rx="36.5" ry="53.7363" transform="rotate(-6.23686 609.369 204.383)" fill="#FFDAB8"/>
<path d="M614.49 151.252C633.61 148.774 643.989 153.392 640.49 170C636.991 186.607 625.258 163.326 625.258 163.326C624.143 165.819 621.394 165.658 617.491 172.5C613.588 179.341 602.613 179.28 597.613 178.394L589.862 196.065C589.862 196.065 585.793 184.097 581.533 185.36C576.574 186.831 579.329 209.184 579.329 209.184C558.577 204.834 549.595 188.624 571.99 165.5C580.5 156.713 581.122 155.931 588.991 154.5C599.991 152.5 587.99 154.686 614.49 151.252Z" fill="#07122A"/>
<path d="M718.535 442.258C732.726 346.023 677.32 284.164 607.534 279.258C542.427 274.68 489.858 331.82 483.034 390.758C475.711 454.012 510.333 556.333 518.5 597L686.5 603C693 574.381 704.211 539.392 718.535 442.258Z" fill="#6638EB"/>
<mask id="mask0_153_144" style="mask-type:alpha" maskUnits="userSpaceOnUse" x="482" y="279" width="239" height="324">
<path d="M718.535 442.258C732.726 346.023 677.32 284.164 607.534 279.258C542.427 274.68 489.858 331.82 483.034 390.758C475.711 454.012 510.333 556.333 518.5 597L686.5 603C693 574.381 704.211 539.392 718.535 442.258Z" fill="#6638EB"/>
</mask>
<g mask="url(#mask0_153_144)">
<path d="M721 428.5C721 428.5 694.704 414.559 680.5 402C672.636 395.047 661.5 383 661.5 383C667.667 396.833 678.606 412.015 684.5 432.5C702.311 494.401 661.167 552.333 648.5 603.5C662 604.667 687.6 606.3 688 603.5C688.4 600.7 711.5 482.5 721 428.5Z" fill="#5226CF"/>
<circle cx="563" cy="360" r="7" fill="#07122A"/>
<circle cx="624" cy="360" r="7" fill="#07122A"/>
<circle cx="555" cy="410" r="7" fill="#07122A"/>
<circle cx="616" cy="410" r="7" fill="#07122A"/>
<circle cx="554" cy="460" r="7" fill="#07122A"/>
<circle cx="615" cy="460" r="7" fill="#07122A"/>
<circle cx="563" cy="511" r="7" fill="#07122A"/>
<circle cx="624" cy="511" r="7" fill="#07122A"/>
</g>
<path d="M601.018 285.109C596.567 286.098 585.152 283.872 580 282.636V272.127C583.091 272.127 589.644 272.374 591.127 273.363C592.611 274.352 594.012 277.897 594.836 279.545H598.545C598.545 279.545 598.785 278.208 599.782 275.218C601.018 271.509 610.085 271.921 614 272.127V280.781C611.527 281.812 605.469 284.119 601.018 285.109Z" fill="#07122A"/>
<path d="M700.17 602.281C698.784 599.257 712.733 592 712.733 592L715.587 599.899C715.587 599.899 701.556 605.305 700.17 602.281Z" fill="#FFDAB8"/>
<path d="M714.721 307.499C694.949 299.622 676.281 297.908 659.499 310.999C640.485 325.832 644.499 372.5 670 394.5C711.557 430.354 729.798 425.995 754.221 465.5C791.611 525.981 711.221 590 711.221 590V605C711.221 605 832.206 512.332 825.721 438.5C820.081 374.301 776.221 331.999 714.721 307.499Z" fill="#7546FB"/>
<path d="M755.218 945.117C744.895 937.262 722 945.117 722 945.117V956.572H764C764 956.572 759.704 948.531 755.218 945.117Z" fill="#07122A"/>
<path d="M743.5 939C760.293 939 765 957 765 957H722C722 957 726.707 939 743.5 939Z" fill="#07122A"/>
<path d="M498.782 945.117C509.105 937.262 532 945.117 532 945.117V956.572H490C490 956.572 494.296 948.531 498.782 945.117Z" fill="#07122A"/>
<path d="M510.5 939C493.707 939 489 957 489 957H532C532 957 527.293 939 510.5 939Z" fill="#07122A"/>
<path d="M738 945L686.5 603L518.5 596.5L514.5 945.5H531L596.5 709.5L722.5 945.5L738 945Z" fill="#07122A"/>
<path d="M641 176L643 133L559.151 151.815L558 184C560.532 184.253 555.5 184.624 578 182.624C593.133 181.279 627.579 179.545 641 176Z" fill="url(#paint0_linear_153_144)"/>
<path d="M574.344 109.275C564.698 114.646 559.91 133.584 559.91 133.584C555.859 134.85 545.523 137.01 540.159 141.181C533.322 146.499 531.803 158.653 531.043 170.808C530.284 182.962 539.578 194.252 552.314 195.876C569.835 198.111 569.533 169.541 574.344 156.374C576.623 157.134 583.915 158.349 594.854 157.134C605.793 155.918 611.994 146.584 612.5 140C619.59 142.026 638.076 141 642.5 141C648.365 141 654.107 130.546 654.867 117.632C655.627 104.718 644.383 101.408 633.597 98.6399C620.875 95.3748 609.541 105.477 601.691 109.275C601.691 109.275 583.675 104.08 574.344 109.275Z" fill="#F0F0F0"/>
<path d="M598.5 286.5V338.5H547.5C540.333 364.5 532.523 401.465 532.5 442.5C532.468 499.252 556.667 559.667 564 598.5" stroke="black" stroke-width="4" stroke-linecap="round"/>
<rect x="364" y="603" width="4" height="11" fill="#D9D9D9"/>
<rect x="386" y="607" width="4" height="7" fill="#D9D9D9"/>
<rect x="408" y="603" width="4" height="11" fill="#D9D9D9"/>
<rect x="833" y="603" width="4" height="11" fill="#D9D9D9"/>
<rect x="855" y="607" width="4" height="7" fill="#D9D9D9"/>
<rect x="877" y="603" width="4" height="11" fill="#D9D9D9"/>
<path d="M346 585H430L417 603H360L346 585Z" fill="#D9D9D9"/>
<rect x="294" y="589" width="60" height="4" rx="2" fill="#D9D9D9"/>
<defs>
<linearGradient id="paint0_linear_153_144" x1="555.076" y1="134.921" x2="563.941" y2="195.536" gradientUnits="userSpaceOnUse">
<stop stop-color="#F0F0F0"/>
<stop offset="1" stop-color="#D1D5DA"/>
</linearGradient>
</defs>
</svg>
