<svg width="1253" height="1080" viewBox="0 0 1253 1080" fill="none" xmlns="http://www.w3.org/2000/svg">
<ellipse rx="400" ry="22" transform="matrix(-1 0 0 1 607 945)" fill="#F0F0F0"/>
<path d="M499.5 291.5C519.272 283.623 563.718 266.409 580.5 279.5C599.514 294.332 596.47 338.384 594.5 364C590.999 409.5 500.688 425.648 476.265 465.153C438.875 525.634 518 617 518 617V625.5V637C518 637 394.766 515.153 401.251 441.321C406.891 377.122 438 316 499.5 291.5Z" fill="#7546FB"/>
<path d="M718.535 426.258C732.726 330.023 677.32 268.164 607.534 263.258C542.427 258.68 489.858 315.82 483.034 374.758C475.711 438.012 510.333 540.333 518.5 581L686.5 587C693 558.381 704.211 523.392 718.535 426.258Z" fill="#6638EB"/>
<mask id="mask0_142_100" style="mask-type:alpha" maskUnits="userSpaceOnUse" x="482" y="263" width="239" height="324">
<path d="M718.535 426.258C732.726 330.023 677.32 268.164 607.534 263.258C542.427 258.68 489.858 315.82 483.034 374.758C475.711 438.012 510.333 540.333 518.5 581L686.5 587C693 558.381 704.211 523.392 718.535 426.258Z" fill="#6638EB"/>
</mask>
<g mask="url(#mask0_142_100)">
<path d="M557.001 498.531L557.001 379.5L570.5 265L596 260L624.5 272C624.5 272 598.765 338.595 585 384C571.234 429.405 557.001 498.531 557.001 498.531Z" fill="#F8F8F8"/>
<path d="M557 388.5L589.5 272.5L607.5 259L583.5 390L557 498V388.5Z" fill="#07122A"/>
</g>
<path d="M586.66 269.999L587.305 242.186C587.305 242.186 593.16 240.531 596.582 238.733C602.149 235.809 608.731 228.198 608.731 228.198L613.345 270.596L586.66 269.999Z" fill="#FFDAB8"/>
<path d="M602.601 240.216C606.284 236.399 608.732 228.198 608.732 228.198L587.061 242.402L587.252 245.19L587.443 247.979C587.443 247.979 597.983 245.003 602.601 240.216Z" fill="#EDC199"/>
<ellipse rx="36.5" ry="53.7363" transform="matrix(-0.900513 0.43483 0.43483 0.900513 579.791 191.381)" fill="#FFDAB8"/>
<path d="M556 141C536.764 139.713 529.502 154.392 533.001 171C536.5 187.608 567.497 157.528 567.497 157.528C568.612 160.021 569.818 163.035 573.72 169.877C577.623 176.718 588.598 176.657 593.598 175.771L602.893 190.266C602.893 190.266 606.962 178.299 611.222 179.562C616.181 181.033 613.425 203.386 613.425 203.386C634.178 199.035 641.029 161.016 618.635 137.892C610.125 129.105 599.789 132.263 592.756 133.061C591.476 132.167 584.592 142.912 556 141Z" fill="#07122A"/>
<path d="M745.856 629.234C749.181 629.299 750.272 613.613 750.272 613.613L741.89 614.147C741.89 614.147 742.53 629.17 745.856 629.234Z" fill="#FFDAB8"/>
<path d="M686.08 299.168C666.308 291.291 649.739 288.066 631.58 299.168C609.661 312.569 611.302 362.626 623 385.5C645.5 429.5 639 414 659.5 454.5C691.612 517.942 639.5 585 639.5 585L686.5 587C686.5 587 694.098 563.722 701 530C704.38 513.48 713.68 482.512 712 462.5C711.197 452.936 710 446.276 705 439.5C666.735 387.643 747.58 323.668 686.08 299.168Z" fill="#5226CF"/>
<path d="M686.081 289.168C666.308 281.291 649.739 278.066 631.581 289.168C609.661 302.568 608.302 325.126 620 348C642.5 392 672.077 396.995 696.5 436.5C733.89 496.981 738.081 614.668 738.081 614.668H754C754 614.668 797.222 497.815 778.081 426.168C761.447 363.905 747.58 313.667 686.081 289.168Z" fill="#7546FB"/>
<path d="M738 929L686.5 587L518.5 580.5L514.5 929.5H531L596.5 693.5L722.5 929.5L738 929Z" fill="#07122A"/>
<rect x="684" y="637" width="131" height="79" fill="#F0F0F0"/>
<rect x="727" y="622" width="39" height="4" fill="#6A737D"/>
<rect x="727" y="637" width="12" height="4" transform="rotate(-90 727 637)" fill="#6A737D"/>
<rect x="762" y="637" width="12" height="4" transform="rotate(-90 762 637)" fill="#6A737D"/>
<path d="M815 716L698.999 716C698.999 716 760.5 712 782.5 700.5C804.5 689 815 669.5 815 669.5L815 716Z" fill="#E1E1E1"/>
<path d="M571.557 263.108C580.404 253.744 615.363 253.518 623.245 263.108C625.882 266.317 624.765 272 624.765 272H569.024C569.024 272 568.577 266.263 571.557 263.108Z" fill="url(#paint0_linear_142_100)"/>
<rect x="588" y="255" width="19" height="19" rx="4" fill="#6A737D"/>
<path d="M755.218 929.117C744.895 921.262 722 929.117 722 929.117V940.572H764C764 940.572 759.704 932.531 755.218 929.117Z" fill="#07122A"/>
<path d="M743.5 923C760.293 923 765 941 765 941H722C722 941 726.707 923 743.5 923Z" fill="#07122A"/>
<path d="M498.782 929.117C509.105 921.262 532 929.117 532 929.117V940.572H490C490 940.572 494.296 932.531 498.782 929.117Z" fill="#07122A"/>
<path d="M510.5 923C493.707 923 489 941 489 941H532C532 941 527.293 923 510.5 923Z" fill="#07122A"/>
<defs>
<linearGradient id="paint0_linear_142_100" x1="567.074" y1="256.6" x2="568.409" y2="275.854" gradientUnits="userSpaceOnUse">
<stop stop-color="#F0F0F0"/>
<stop offset="1" stop-color="#D1D5DA"/>
</linearGradient>
</defs>
</svg>
