<svg width="1253" height="1080" viewBox="0 0 1253 1080" fill="none" xmlns="http://www.w3.org/2000/svg">
<rect x="346.156" y="329.46" width="119.395" height="202.544" rx="6.39614" fill="#F8F8F8"/>
<rect width="96.1109" height="4.89737" transform="translate(356.816 358.243)" fill="#F8F8F8"/>
<rect x="356.816" y="358.243" width="18.3651" height="4.89737" fill="#FFD200"/>
<rect x="381.915" y="358.243" width="37.3425" height="4.89737" fill="#38C0EB"/>
<rect x="425.992" y="358.243" width="26.9355" height="4.89737" fill="#6638EB"/>
<rect width="62.4415" height="4.89737" transform="translate(368.448 369.874)" fill="#F8F8F8"/>
<rect x="368.448" y="369.874" width="18.3651" height="4.89737" fill="#D9D9D9"/>
<rect x="394.159" y="369.874" width="36.7303" height="4.89737" fill="#6638EB"/>
<rect width="62.4415" height="4.89737" transform="translate(368.448 380.281)" fill="#F8F8F8"/>
<rect x="368.448" y="380.281" width="18.3651" height="4.89737" fill="#D9D9D9"/>
<rect x="394.159" y="380.281" width="36.7303" height="4.89737" fill="#6638EB"/>
<rect width="66.1145" height="4.89737" transform="translate(356.816 391.912)" fill="#F8F8F8"/>
<rect x="356.816" y="391.912" width="18.3651" height="4.89737" fill="#FFD200"/>
<rect x="382.644" y="391.912" width="69.2915" height="4.89737" fill="#6638EB"/>
<rect width="56.3198" height="4.89737" transform="translate(361.715 403.543)" fill="#F8F8F8"/>
<rect x="361.715" y="403.543" width="18.3651" height="4.89737" fill="#38C0EB"/>
<rect x="386.813" y="403.543" width="31.2207" height="4.89737" fill="#FFD200"/>
<rect x="384.977" y="415.174" width="20.8138" height="4.89737" fill="#F8F8F8"/>
<rect width="96.1109" height="4.89737" transform="translate(356.816 430.732)" fill="#F8F8F8"/>
<rect x="356.816" y="430.732" width="18.3651" height="4.89737" fill="#FFD200"/>
<rect x="381.915" y="430.732" width="37.3425" height="4.89737" fill="#38C0EB"/>
<rect x="425.992" y="430.732" width="26.9355" height="4.89737" fill="#6638EB"/>
<rect width="62.4415" height="4.89737" transform="translate(368.448 442.363)" fill="#F8F8F8"/>
<rect x="368.448" y="442.363" width="18.3651" height="4.89737" fill="#D9D9D9"/>
<rect x="394.159" y="442.363" width="36.7303" height="4.89737" fill="#6638EB"/>
<rect width="62.4415" height="4.89737" transform="translate(368.448 452.77)" fill="#F8F8F8"/>
<rect x="368.448" y="452.77" width="18.3651" height="4.89737" fill="#D9D9D9"/>
<rect x="394.159" y="452.77" width="36.7303" height="4.89737" fill="#6638EB"/>
<rect width="66.1145" height="4.89737" transform="translate(356.816 464.401)" fill="#F8F8F8"/>
<rect x="356.816" y="464.401" width="18.3651" height="4.89737" fill="#FFD200"/>
<rect x="382.644" y="464.401" width="69.2915" height="4.89737" fill="#6638EB"/>
<rect width="56.3198" height="4.89737" transform="translate(361.715 476.033)" fill="#F8F8F8"/>
<rect x="361.715" y="476.033" width="18.3651" height="4.89737" fill="#38C0EB"/>
<rect x="386.813" y="476.033" width="31.2207" height="4.89737" fill="#FFD200"/>
<rect x="384.977" y="487.664" width="20.8138" height="4.89737" fill="#F8F8F8"/>
<circle cx="359.132" cy="342.436" r="2.31584" fill="#38C0EB"/>
<circle cx="365.896" cy="342.436" r="2.31584" fill="#6638EB"/>
<circle cx="372.66" cy="342.436" r="2.31584" fill="#FFD200"/>
<rect x="477.277" y="329.46" width="276.1" height="202.544" rx="6.39614" fill="#F8F8F8"/>
<mask id="mask0_159_2" style="mask-type:alpha" maskUnits="userSpaceOnUse" x="477" y="329" width="277" height="204">
<path d="M477.277 342.252C477.277 336.222 477.277 333.207 479.151 331.333C481.024 329.46 484.039 329.46 490.07 329.46H740.585C746.615 329.46 749.63 329.46 751.504 331.333C753.377 333.207 753.377 336.222 753.377 342.252V519.212C753.377 525.242 753.377 528.257 751.504 530.131C749.63 532.004 746.615 532.004 740.585 532.004H490.07C484.039 532.004 481.024 532.004 479.151 530.131C477.277 528.257 477.277 525.242 477.277 519.212V342.252Z" fill="#D55151"/>
</mask>
<g mask="url(#mask0_159_2)">
<rect width="242.325" height="4.89737" transform="translate(490.068 356.11)" fill="#F8F8F8"/>
<rect x="490.068" y="356.11" width="18.3651" height="4.89737" fill="#FFD200"/>
<rect x="514.83" y="356.11" width="37.3425" height="4.89737" fill="#38C0EB"/>
<rect x="558.568" y="356.11" width="37.3425" height="4.89737" fill="#38C0EB"/>
<rect x="602.307" y="356.11" width="37.3425" height="4.89737" fill="#38C0EB"/>
<rect x="646.045" y="356.11" width="86.3478" height="4.89737" fill="#6638EB"/>
<rect width="88.1024" height="4.89737" transform="translate(506.48 367.741)" fill="#F8F8F8"/>
<rect x="506.48" y="367.741" width="18.3651" height="4.89737" fill="#D9D9D9"/>
<rect x="532.308" y="367.741" width="132.187" height="4.89737" fill="#6638EB"/>
<rect x="671.957" y="367.741" width="18.3651" height="4.89737" fill="#D9D9D9"/>
<rect width="88.1024" height="4.89737" transform="translate(506.48 378.148)" fill="#F8F8F8"/>
<rect x="506.48" y="378.148" width="18.3651" height="4.89737" fill="#D9D9D9"/>
<rect x="532.308" y="378.148" width="132.187" height="4.89737" fill="#6638EB"/>
<rect x="671.957" y="378.148" width="18.3651" height="4.89737" fill="#D9D9D9"/>
<rect width="133.866" height="4.26409" transform="translate(490.068 390.223)" fill="#F8F8F8"/>
<rect x="490.068" y="390.223" width="18.3651" height="4.89737" fill="#FFD200"/>
<rect x="515.896" y="390.223" width="63.9614" height="4.89737" fill="#6638EB"/>
<rect x="587.319" y="390.223" width="18.1224" height="5.33011" fill="#6638EB"/>
<rect x="612.903" y="390.223" width="18.1224" height="5.33011" fill="#6638EB"/>
<rect x="638.488" y="390.223" width="18.1224" height="5.33011" fill="#6638EB"/>
<rect x="664.073" y="390.223" width="18.1224" height="5.33011" fill="#6638EB"/>
<rect width="79.4649" height="4.89737" transform="translate(496.979 401.411)" fill="#F8F8F8"/>
<rect x="496.979" y="401.411" width="18.3651" height="4.89737" fill="#38C0EB"/>
<rect x="522.079" y="401.41" width="137.517" height="4.89737" fill="#FFD200"/>
<rect width="242.325" height="4.89737" transform="translate(490.068 424.335)" fill="#F8F8F8"/>
<rect x="490.068" y="424.335" width="18.3651" height="4.89737" fill="#FFD200"/>
<rect x="514.83" y="424.335" width="37.3425" height="4.89737" fill="#38C0EB"/>
<rect x="558.568" y="424.335" width="37.3425" height="4.89737" fill="#38C0EB"/>
<rect x="602.307" y="424.335" width="37.3425" height="4.89737" fill="#38C0EB"/>
<rect x="646.045" y="424.335" width="86.3478" height="4.89737" fill="#6638EB"/>
<rect width="88.1024" height="4.89737" transform="translate(506.48 435.966)" fill="#F8F8F8"/>
<rect x="506.48" y="435.966" width="18.3651" height="4.89737" fill="#D9D9D9"/>
<rect x="532.308" y="435.966" width="132.187" height="4.89737" fill="#6638EB"/>
<rect x="671.957" y="435.966" width="18.3651" height="4.89737" fill="#D9D9D9"/>
<rect width="88.1024" height="4.89737" transform="translate(506.48 446.374)" fill="#F8F8F8"/>
<rect x="506.48" y="446.374" width="18.3651" height="4.89737" fill="#D9D9D9"/>
<rect x="532.308" y="446.374" width="132.187" height="4.89737" fill="#6638EB"/>
<rect x="671.957" y="446.374" width="18.3651" height="4.89737" fill="#D9D9D9"/>
<rect width="133.866" height="4.26409" transform="translate(490.068 458.448)" fill="#F8F8F8"/>
<rect x="490.068" y="458.448" width="18.3651" height="4.89737" fill="#FFD200"/>
<rect x="515.896" y="458.448" width="63.9614" height="4.89737" fill="#6638EB"/>
<rect x="587.319" y="458.448" width="18.1224" height="5.33011" fill="#6638EB"/>
<rect x="612.903" y="458.448" width="18.1224" height="5.33011" fill="#6638EB"/>
<rect x="638.488" y="458.448" width="18.1224" height="5.33011" fill="#6638EB"/>
<rect x="664.073" y="458.448" width="18.1224" height="5.33011" fill="#6638EB"/>
<rect width="79.4649" height="4.89737" transform="translate(496.979 469.636)" fill="#F8F8F8"/>
<rect x="496.979" y="469.636" width="18.3651" height="4.89737" fill="#38C0EB"/>
<rect x="522.079" y="469.636" width="137.517" height="4.89737" fill="#FFD200"/>
<circle cx="491.32" cy="342.436" r="2.31584" fill="#38C0EB"/>
<circle cx="498.083" cy="342.436" r="2.31584" fill="#6638EB"/>
<circle cx="504.847" cy="342.436" r="2.31584" fill="#FFD200"/>
<rect width="276.1" height="34.1127" transform="translate(477.277 497.892)" fill="#F0F0F0"/>
<circle cx="616.926" cy="513.882" r="9.5942" fill="#D9D9D9"/>
</g>
<rect x="765.104" y="329.46" width="119.395" height="202.544" rx="6.39614" fill="#F8F8F8"/>
<rect width="96.1109" height="4.89737" transform="translate(775.765 358.243)" fill="#F8F8F8"/>
<rect x="775.765" y="358.243" width="18.3651" height="4.89737" fill="#FFD200"/>
<rect x="800.863" y="358.243" width="37.3425" height="4.89737" fill="#38C0EB"/>
<rect x="844.94" y="358.243" width="26.9355" height="4.89737" fill="#6638EB"/>
<rect width="62.4415" height="4.89737" transform="translate(787.396 369.874)" fill="#F8F8F8"/>
<rect x="787.396" y="369.874" width="18.3651" height="4.89737" fill="#D9D9D9"/>
<rect x="813.107" y="369.874" width="36.7303" height="4.89737" fill="#6638EB"/>
<rect width="62.4415" height="4.89737" transform="translate(787.396 380.281)" fill="#F8F8F8"/>
<rect x="787.396" y="380.281" width="18.3651" height="4.89737" fill="#D9D9D9"/>
<rect x="813.107" y="380.281" width="36.7303" height="4.89737" fill="#6638EB"/>
<rect width="66.1145" height="4.89737" transform="translate(775.765 391.912)" fill="#F8F8F8"/>
<rect x="775.765" y="391.912" width="18.3651" height="4.89737" fill="#FFD200"/>
<rect x="801.592" y="391.912" width="69.2915" height="4.89737" fill="#6638EB"/>
<rect width="56.3198" height="4.89737" transform="translate(780.663 403.543)" fill="#F8F8F8"/>
<rect x="780.663" y="403.543" width="18.3651" height="4.89737" fill="#38C0EB"/>
<rect x="805.762" y="403.543" width="31.2207" height="4.89737" fill="#FFD200"/>
<rect x="803.925" y="415.174" width="20.8138" height="4.89737" fill="#F8F8F8"/>
<rect width="96.1109" height="4.89737" transform="translate(775.765 430.732)" fill="#F8F8F8"/>
<rect x="775.765" y="430.732" width="18.3651" height="4.89737" fill="#FFD200"/>
<rect x="800.863" y="430.732" width="37.3425" height="4.89737" fill="#38C0EB"/>
<rect x="844.94" y="430.732" width="26.9355" height="4.89737" fill="#6638EB"/>
<rect width="62.4415" height="4.89737" transform="translate(787.396 442.363)" fill="#F8F8F8"/>
<rect x="787.396" y="442.363" width="18.3651" height="4.89737" fill="#D9D9D9"/>
<rect x="813.107" y="442.363" width="36.7303" height="4.89737" fill="#6638EB"/>
<rect width="62.4415" height="4.89737" transform="translate(787.396 452.77)" fill="#F8F8F8"/>
<rect x="787.396" y="452.77" width="18.3651" height="4.89737" fill="#D9D9D9"/>
<rect x="813.107" y="452.77" width="36.7303" height="4.89737" fill="#6638EB"/>
<rect width="66.1145" height="4.89737" transform="translate(775.765 464.401)" fill="#F8F8F8"/>
<rect x="775.765" y="464.401" width="18.3651" height="4.89737" fill="#FFD200"/>
<rect x="801.592" y="464.401" width="69.2915" height="4.89737" fill="#6638EB"/>
<rect width="56.3198" height="4.89737" transform="translate(780.663 476.033)" fill="#F8F8F8"/>
<rect x="780.663" y="476.033" width="18.3651" height="4.89737" fill="#38C0EB"/>
<rect x="805.762" y="476.033" width="31.2207" height="4.89737" fill="#FFD200"/>
<rect x="803.925" y="487.664" width="20.8138" height="4.89737" fill="#F8F8F8"/>
<circle cx="778.08" cy="342.436" r="2.31584" fill="#38C0EB"/>
<circle cx="784.843" cy="342.436" r="2.31584" fill="#6638EB"/>
<circle cx="791.607" cy="342.436" r="2.31584" fill="#FFD200"/>
<path d="M592.408 532.004H639.313L652.105 584.239H580.148L592.408 532.004Z" fill="#D9D9D9"/>
<ellipse rx="562.327" ry="75.1546" transform="matrix(-1 0 0 1 615.327 795.845)" fill="#F0F0F0"/>
<path d="M1106.96 776.489C1073.92 743.931 1124.48 659.013 1124.48 659.013" stroke="#D1D5DA" stroke-width="2.0367" stroke-linecap="round"/>
<path d="M1124.22 641.98C1127.42 633.625 1139.6 625.003 1139.6 625.003C1139.6 625.003 1142.39 640.574 1137.79 648.58C1134.05 655.074 1123.02 660.825 1123.02 660.825C1123.02 660.825 1121.58 648.866 1124.22 641.98Z" fill="#959DA5"/>
<path d="M1100.07 665.338C1095.96 657.39 1097.62 642.557 1097.62 642.557C1097.62 642.557 1111.1 650.831 1114.02 659.592C1116.39 666.699 1113.35 678.761 1113.35 678.761C1113.35 678.761 1103.45 671.888 1100.07 665.338Z" fill="#EDF0F2"/>
<path d="M1086.74 699.293C1082.63 691.345 1084.29 676.512 1084.29 676.512C1084.29 676.512 1097.78 684.785 1100.7 693.547C1103.06 700.653 1100.02 712.716 1100.02 712.716C1100.02 712.716 1090.13 705.843 1086.74 699.293Z" fill="#EDF0F2"/>
<path d="M1079.74 731.839C1074.61 724.504 1074.3 709.582 1074.3 709.582C1074.3 709.582 1088.76 715.999 1092.81 724.298C1096.09 731.029 1094.68 743.388 1094.68 743.388C1094.68 743.388 1083.96 737.884 1079.74 731.839Z" fill="#EDF0F2"/>
<path d="M1131.28 688.947C1123.52 693.399 1108.63 692.383 1108.63 692.383C1108.63 692.383 1116.31 678.553 1124.94 675.256C1131.93 672.582 1144.12 675.094 1144.12 675.094C1144.12 675.094 1137.68 685.278 1131.28 688.947Z" fill="#D1D5DA"/>
<path d="M1120.68 721.727C1112.92 726.179 1098.03 725.163 1098.03 725.163C1098.03 725.163 1105.71 711.334 1114.33 708.037C1121.33 705.362 1133.52 707.874 1133.52 707.874C1133.52 707.874 1127.08 718.058 1120.68 721.727Z" fill="#D1D5DA"/>
<path d="M1119.43 753.708C1111.67 758.16 1096.78 757.144 1096.78 757.144C1096.78 757.144 1104.46 743.314 1113.08 740.017C1120.08 737.343 1132.26 739.855 1132.26 739.855C1132.26 739.855 1125.83 750.038 1119.43 753.708Z" fill="#D1D5DA"/>
<path d="M1084.97 768.735C1111.42 730.631 1046.03 656.524 1046.03 656.524" stroke="#D1D5DA" stroke-width="2.0367" stroke-linecap="round"/>
<path d="M1043.14 639.736C1038.45 632.118 1024.88 625.896 1024.88 625.896C1024.88 625.896 1025.02 641.714 1031.02 648.731C1035.89 654.423 1047.79 658.037 1047.79 658.037C1047.79 658.037 1047 646.016 1043.14 639.736Z" fill="#959DA5"/>
<path d="M1071.19 658.227C1073.76 649.656 1069.38 635.387 1069.38 635.387C1069.38 635.387 1057.66 646.01 1056.42 655.16C1055.4 662.582 1060.62 673.874 1060.62 673.874C1060.62 673.874 1069.07 665.291 1071.19 658.227Z" fill="#EDF0F2"/>
<path d="M1090.56 689.133C1093.13 680.563 1088.75 666.293 1088.75 666.293C1088.75 666.293 1077.03 676.916 1075.79 686.066C1074.77 693.488 1079.99 704.781 1079.99 704.781C1079.99 704.781 1088.44 696.197 1090.56 689.133Z" fill="#EDF0F2"/>
<path d="M1044.88 687.2C1053.33 690.141 1067.77 686.389 1067.77 686.389C1067.77 686.389 1057.67 674.218 1048.58 672.572C1041.21 671.238 1029.7 675.959 1029.7 675.959C1029.7 675.959 1037.91 684.777 1044.88 687.2Z" fill="#D1D5DA"/>
<path d="M1061.35 717.456C1069.8 720.396 1084.25 716.645 1084.25 716.645C1084.25 716.645 1074.15 704.473 1065.06 702.828C1057.69 701.493 1046.18 706.214 1046.18 706.214C1046.18 706.214 1054.39 715.032 1061.35 717.456Z" fill="#D1D5DA"/>
<path d="M1068.49 748.654C1076.94 751.594 1091.39 747.843 1091.39 747.843C1091.39 747.843 1081.29 735.671 1072.2 734.026C1064.83 732.691 1053.32 737.412 1053.32 737.412C1053.32 737.412 1061.53 746.231 1068.49 748.654Z" fill="#D1D5DA"/>
<path d="M1073.2 708.664C1073.2 708.664 1075.54 665.131 1066.8 639.414C1060.95 622.159 1045.08 598.118 1045.08 598.118" stroke="#D1D5DA" stroke-width="0.581914"/>
<path d="M1093.25 782.52C1073.71 782.52 1068.23 761.571 1068.23 761.571H1118.27C1118.27 761.571 1112.79 782.52 1093.25 782.52Z" fill="#D9D9D9"/>
<rect x="268.337" y="571.447" width="695.047" height="219.601" fill="#D1D5DA"/>
<rect x="211.838" y="546.929" width="808.045" height="24.5185" fill="#F8F8F8"/>
<rect x="233.158" y="791.048" width="244.119" height="35.1787" transform="rotate(-90 233.158 791.048)" fill="#F8F8F8"/>
<rect x="963.384" y="791.048" width="244.119" height="35.1787" transform="rotate(-90 963.384 791.048)" fill="#F8F8F8"/>
<rect x="814.141" y="791.048" width="244.119" height="20.2544" transform="rotate(-90 814.141 791.048)" fill="#F8F8F8"/>
<rect x="814.141" y="755.869" width="184.422" height="35.1787" fill="#F8F8F8"/>
<path d="M424.271 473.086C410.611 449.327 458.423 390.886 472.653 381.871C486.882 372.855 484.605 377.628 484.605 377.628L472.653 521.345C462.217 515.158 437.932 496.844 424.271 473.086Z" fill="#7546FB"/>
<path d="M711.269 388.624C689.441 367.729 608.397 360.908 608.397 360.908C613.195 414.92 614.142 484.259 669.694 527.74C717.955 565.516 767.768 548.705 813.607 546.396V531.471C813.607 531.471 755.476 533.255 725.66 502.689C691.826 468.004 746.269 422.131 711.269 388.624Z" fill="#7546FB"/>
<path d="M621.287 602.91C621.287 602.91 753.455 425.497 676.187 380.112C642.854 360.532 615.561 360.475 576.243 360.392L575.448 360.39C535.702 360.306 509.996 359.896 475.775 380.112C399.819 424.983 513.086 602.91 513.086 602.91H621.287Z" fill="#6638EB"/>
<path d="M592.242 363.522L591.555 333.872C591.555 333.872 585.313 332.108 581.665 330.191C575.731 327.074 568.714 318.961 568.714 318.961L563.795 364.158L592.242 363.522Z" fill="#FFDAB8"/>
<path d="M575.248 331.772C571.322 327.702 568.712 318.961 568.712 318.961L591.813 334.102L591.61 337.074L591.406 340.047C591.406 340.047 580.17 336.875 575.248 331.772Z" fill="#EDC199"/>
<ellipse cx="594.827" cy="279.231" rx="38.9098" ry="57.2841" transform="rotate(11.7233 594.827 279.231)" fill="#FFDAB8"/>
<path d="M559.816 305.849C614.508 307.455 585.4 273.472 602.741 273.472C609.691 273.472 610.55 289.463 610.55 289.463L624.31 269.009L639.312 266.032C639.312 266.032 637.702 232.231 628.652 226.056C616.546 217.797 600.669 216.844 587.077 222.325C544.97 228.721 551.366 264.966 551.366 264.966C551.366 264.966 547.102 305.475 559.816 305.849Z" fill="#07122A"/>
<path d="M509.258 613.022L512.989 602.362H622.256C622.256 602.362 670.519 632.277 675.024 664.191C682.013 713.704 582.28 779.855 582.28 779.855V765.463C582.28 765.463 619.193 716.786 613.728 682.847C610.486 662.718 580.681 648.734 580.681 648.734C580.681 648.734 538.118 643.432 524.715 668.988C507.55 701.719 562.559 760.133 562.559 760.133L562.559 771.326C562.559 771.326 470.116 723.92 471.947 679.115C473.157 649.5 509.258 613.022 509.258 613.022Z" fill="#07122A"/>
<rect x="479.408" y="642.871" width="185.488" height="50.1031" rx="25.0515" fill="#FFD200"/>
<mask id="mask1_159_2" style="mask-type:alpha" maskUnits="userSpaceOnUse" x="479" y="642" width="186" height="51">
<rect x="479.408" y="642.871" width="185.488" height="50.1031" rx="25.0515" fill="#FFD200"/>
</mask>
<g mask="url(#mask1_159_2)">
<rect x="479.408" y="642.871" width="185.488" height="35.1787" rx="17.5894" fill="#FFE35F"/>
</g>
<rect x="562.559" y="692.974" width="20.2544" height="135.385" fill="#6A737D"/>
<rect x="498.598" y="824.095" width="148.177" height="11.7262" fill="#6A737D"/>
<rect x="498.598" y="848.613" width="24.5185" height="7.46216" transform="rotate(-90 498.598 848.613)" fill="#6A737D"/>
<rect x="568.955" y="848.613" width="24.5185" height="7.46216" transform="rotate(-90 568.955 848.613)" fill="#6A737D"/>
<rect x="639.312" y="848.613" width="24.5185" height="7.46216" transform="rotate(-90 639.312 848.613)" fill="#6A737D"/>
<path d="M836.527 546.396L813.607 533.604V546.396H836.527Z" fill="#FFDAB8"/>
</svg>
