<svg width="1253" height="1080" viewBox="0 0 1253 1080" fill="none" xmlns="http://www.w3.org/2000/svg">
<circle cx="627" cy="520" r="396" fill="#F8F8F8"/>
<path d="M968.376 420.141H705C705 420.141 720.586 394.45 737.293 390.588C752.19 387.145 775.457 399.329 775.457 399.329C775.457 399.329 793.971 371.418 812.364 362.7C853.257 343.317 919.727 406.405 919.727 406.405C919.727 406.405 934.547 400.067 944.052 401.826C955.773 403.996 968.376 420.141 968.376 420.141Z" fill="white"/>
<path d="M448.919 318H358.457C358.457 318 363.81 309.176 369.549 307.849C374.665 306.667 382.657 310.852 382.657 310.852C382.657 310.852 389.016 301.265 395.333 298.271C409.379 291.613 432.209 313.282 432.209 313.282C432.209 313.282 437.299 311.105 440.564 311.71C444.59 312.455 448.919 318 448.919 318Z" fill="white"/>
<path d="M130.222 447.347C107.805 446.599 93.612 461.918 95.1078 473.874C96.6035 485.83 487.777 642.002 761.265 681.979C864.635 697.089 1048.2 715.231 1020.55 681.979C992.902 648.727 618.39 523.191 465.357 469.39C274.065 402.139 235.208 421.567 209.055 426.05C182.902 430.534 156.012 448.206 130.222 447.347Z" fill="#F0F0F0"/>
<path d="M836.735 662.551L839.351 646.859L1039.98 704.77L1014.2 710L836.735 662.551Z" fill="#D7D7D7"/>
<path d="M213.168 466.028L147.785 445.479L196.355 429.04L240.069 442.863L213.168 466.028Z" fill="#6A737D"/>
<path d="M243 476.5L218.5 468L245 445L268 452.5L243 476.5Z" fill="#6A737D"/>
<path d="M287.519 553.081C292.846 539.171 308.068 520.95 308.068 520.95C308.068 520.95 339.888 527.711 359.253 535.147C377.467 542.141 404.087 557.191 404.087 557.191C404.087 557.191 403.096 579.21 398.483 592.311C394.035 604.943 381.67 622.2 381.67 622.2C381.67 622.2 351.748 619.827 333.1 615.475C312.52 610.672 281.914 597.915 281.914 597.915C281.914 597.915 281.207 569.559 287.519 553.081Z" fill="#D7D7D7"/>
<path d="M426.504 566.157L419.031 584.464L538.215 624.442H742.584L745.199 619.584L674.212 600.904L426.504 566.157Z" fill="#D7D7D7"/>
<path d="M1062.77 525.433L877.46 615.101L996.644 673.386L1122.93 543.74L1062.77 525.433Z" fill="#D7D7D7"/>
<path d="M499.5 291.5C519.272 283.623 563.718 266.409 580.5 279.5C599.514 294.332 596.47 338.384 594.5 364C590.999 409.5 491.423 427.995 467 467.5C429.609 527.981 518 617 518 617V625.5V637C518 637 402.014 519.332 408.5 445.5C414.139 381.301 438 316 499.5 291.5Z" fill="#FFDAB8"/>
<path d="M499.5 291.5C519.272 283.623 563.718 266.409 580.5 279.5C599.514 294.332 596.47 338.384 594.5 364C590.999 409.5 500.688 425.648 476.265 465.153L401.251 441.321C406.891 377.122 438 316 499.5 291.5Z" fill="#7546FB"/>
<path d="M718.535 426.258C732.726 330.023 677.32 268.164 607.534 263.258C542.427 258.68 489.858 315.82 483.034 374.758C475.711 438.012 510.333 540.333 518.5 581L686.5 587C693 558.381 704.211 523.392 718.535 426.258Z" fill="#6638EB"/>
<mask id="mask0_143_402" style="mask-type:alpha" maskUnits="userSpaceOnUse" x="482" y="263" width="239" height="324">
<path d="M718.535 426.258C732.726 330.023 677.32 268.164 607.534 263.258C542.427 258.68 489.858 315.82 483.034 374.758C475.711 438.012 510.333 540.333 518.5 581L686.5 587C693 558.381 704.211 523.392 718.535 426.258Z" fill="#6638EB"/>
</mask>
<g mask="url(#mask0_143_402)">
<path d="M505.5 369.5L493 361.5H517.5V366H512L505.5 369.5Z" fill="#FFD200"/>
<path d="M529.5 369.5L542 361.5H517.5V366H523L529.5 369.5Z" fill="#FFD200"/>
<path d="M557.001 498.531L557.001 379.5L570.5 265L596.001 260L624.501 272C624.501 272 598.766 338.595 585 384C571.234 429.405 557.001 498.531 557.001 498.531Z" fill="#F8F8F8"/>
<path d="M557 388.5L589.5 272.5L607.5 259L583.5 390L557 498V388.5Z" fill="#07122A"/>
</g>
<path d="M586.66 269.999L587.304 242.186C587.304 242.186 593.16 240.531 596.582 238.733C602.148 235.809 608.731 228.198 608.731 228.198L613.345 270.596L586.66 269.999Z" fill="#FFDAB8"/>
<path d="M602.6 240.216C606.283 236.398 608.731 228.198 608.731 228.198L587.252 241.746L587.252 245.19L587.252 247.936C587.252 247.936 597.983 245.002 602.6 240.216Z" fill="#EDC199"/>
<ellipse rx="36.5" ry="53.7363" transform="matrix(-0.994081 -0.108639 -0.108639 0.994081 588.121 188.384)" fill="#FFDAB8"/>
<path d="M583 135.252C563.881 132.774 553.502 137.392 557 154C560.499 170.608 572.233 147.326 572.233 147.326C573.347 149.819 576.097 149.659 579.999 156.5C583.902 163.342 594.877 163.28 599.877 162.394L607.628 180.065C607.628 180.065 611.697 168.098 615.957 169.361C620.916 170.831 618.161 193.184 618.161 193.184C638.913 188.834 647.895 172.624 625.5 149.5C616.991 140.713 616.368 139.931 608.499 138.5C597.499 136.5 609.5 138.686 583 135.252Z" fill="#07122A"/>
<path d="M631.699 172C631.699 172 581.247 160.499 548.643 159.922C544.097 159.841 537 159.922 537 159.922L551.748 144.549L562.615 116C562.615 116 569.569 116.892 574.259 120.392C600.135 139.7 648 139.059 648 139.059L646.448 155.529L633.252 159.922L631.699 172Z" fill="#07122A"/>
<path d="M686.08 299.168C666.308 291.291 649.739 288.066 631.58 299.168C609.66 312.568 611.302 362.625 622.999 385.5C645.5 429.5 638.999 414 659.499 454.5C691.612 517.942 639.499 585 639.499 585L686.499 587C686.499 587 694.098 563.721 700.999 530C704.38 513.48 713.679 482.511 711.999 462.5C711.196 452.935 709.999 446.276 704.999 439.5C666.735 387.643 747.58 323.667 686.08 299.168Z" fill="#5226CF"/>
<path d="M686.08 289.168C666.307 281.291 649.739 278.066 631.58 289.168C609.66 302.568 608.301 325.126 619.999 348C642.499 392 685.076 397.995 709.499 437.5C746.89 497.981 741.999 614.5 741.999 614.5C741.999 614.5 740.126 629.001 746 629C751.874 628.999 749.999 614.5 749.999 614.5C749.999 614.5 786.14 495.647 766.999 424C750.365 361.738 747.579 313.667 686.08 289.168Z" fill="#FFDAB8"/>
<path d="M686.08 289.168C666.307 281.291 649.739 278.066 631.58 289.168C609.66 302.568 608.301 325.126 619.999 348C642.499 392 672.076 396.995 696.499 436.5L778.08 426.168C761.446 363.905 747.579 313.667 686.08 289.168Z" fill="#7546FB"/>
<path d="M708 435L768 427.5L769.5 435.5L713.5 444.5L708 435Z" fill="#EDC199"/>
<path d="M755.218 929.117C744.895 921.262 722 929.117 722 929.117V940.572H764C764 940.572 759.704 932.531 755.218 929.117Z" fill="#07122A"/>
<path d="M743.5 923C760.293 923 765 941 765 941H722C722 941 726.707 923 743.5 923Z" fill="#07122A"/>
<path d="M498.782 929.117C509.105 921.262 532 929.117 532 929.117V940.572H490C490 940.572 494.296 932.531 498.782 929.117Z" fill="#07122A"/>
<path d="M510.5 923C493.707 923 489 941 489 941H532C532 941 527.293 923 510.5 923Z" fill="#07122A"/>
<path d="M738 929L686.5 587L518.5 580.5L514.5 929.5H531L596.5 693.5L722.5 929.5L738 929Z" fill="#07122A"/>
<path d="M571.557 263.108C580.404 253.744 615.363 253.518 623.245 263.108C625.882 266.317 624.765 272 624.765 272H569.024C569.024 272 568.577 266.263 571.557 263.108Z" fill="url(#paint0_linear_143_402)"/>
<rect x="588" y="255" width="19" height="19" rx="4" fill="#6A737D"/>
<path d="M643 269.5L687.5 286L670.5 292.5L629.5 276.5L643 269.5Z" fill="#07122A"/>
<path d="M677 284.102L681.172 285.43L669 290.103L665 288.603L677 284.102Z" fill="#F8F8F8"/>
<path d="M668 280.102L672.172 281.43L660 286.103L656 284.603L668 280.102Z" fill="#F8F8F8"/>
<path d="M659 277.102L663.172 278.43L651 283.103L647 281.603L659 277.102Z" fill="#F8F8F8"/>
<path d="M531.585 277.035L485.738 289.307L502.057 297.366L544.372 285.265L531.585 277.035Z" fill="#07122A"/>
<path d="M496.37 288.399L492.093 289.331L503.775 295.12L507.898 294L496.37 288.399Z" fill="#F8F8F8"/>
<path d="M505.704 285.257L501.427 286.189L513.109 291.978L517.232 290.858L505.704 285.257Z" fill="#F8F8F8"/>
<path d="M514.945 283.11L510.668 284.042L522.35 289.831L526.473 288.711L514.945 283.11Z" fill="#F8F8F8"/>
<path d="M556 137.5L619.5 149.5L646 155L553.5 145L556 137.5Z" fill="#FFD200"/>
<ellipse cx="332.604" cy="484.568" rx="7.5" ry="12.5" transform="rotate(28.8745 332.604 484.568)" fill="#D7D7D7"/>
<ellipse cx="355.604" cy="492.568" rx="7.5" ry="12.5" transform="rotate(28.8745 355.604 492.568)" fill="#D7D7D7"/>
<ellipse cx="380.604" cy="498.568" rx="7.5" ry="12.5" transform="rotate(28.8745 380.604 498.568)" fill="#D7D7D7"/>
<path d="M470 463L409 444L408.5 452.5L464.5 471.5L470 463Z" fill="#EDC199"/>
<defs>
<linearGradient id="paint0_linear_143_402" x1="567.074" y1="256.6" x2="568.409" y2="275.854" gradientUnits="userSpaceOnUse">
<stop stop-color="#F0F0F0"/>
<stop offset="1" stop-color="#D1D5DA"/>
</linearGradient>
</defs>
</svg>
