<svg width="1253" height="1080" viewBox="0 0 1253 1080" fill="none" xmlns="http://www.w3.org/2000/svg">
<ellipse rx="400" ry="22" transform="matrix(-1 0 0 1 607 945)" fill="#F0F0F0"/>
<path d="M514.05 586.281C515.437 583.257 501.487 576 501.487 576L498.634 583.899C498.634 583.899 512.664 589.305 514.05 586.281Z" fill="#FFDAB8"/>
<path d="M499.5 291.5C519.272 283.623 563.718 266.409 580.5 279.5C599.514 294.332 596.47 338.384 594.5 364C590.999 409.5 484.423 409.995 460 449.5C422.609 509.981 503 574 503 574V589C503 589 382.014 496.332 388.5 422.5C394.139 358.301 438 316 499.5 291.5Z" fill="#7546FB"/>
<path d="M718.535 426.258C732.726 330.023 677.32 268.164 607.534 263.258C542.427 258.68 489.858 315.82 483.034 374.758C475.711 438.012 510.333 540.333 518.5 581L686.5 587C693 558.381 704.211 523.392 718.535 426.258Z" fill="#6638EB"/>
<mask id="mask0_142_220" style="mask-type:alpha" maskUnits="userSpaceOnUse" x="482" y="263" width="239" height="324">
<path d="M718.535 426.258C732.726 330.023 677.32 268.164 607.534 263.258C542.427 258.68 489.858 315.82 483.034 374.758C475.711 438.012 510.333 540.333 518.5 581L686.5 587C693 558.381 704.211 523.392 718.535 426.258Z" fill="#6638EB"/>
</mask>
<g mask="url(#mask0_142_220)">
<path d="M645 349.5H608C608 349.5 596.313 379.555 608 390.5C613.296 395.46 625 398 625 398C625 398 638.896 396.185 645 390.5C656.716 379.587 645 349.5 645 349.5Z" fill="#FFD200"/>
<path d="M645.194 349H608.194C608.194 349 596.507 379.055 608.194 390C613.49 394.96 625.194 397.5 625.194 397.5C625.194 397.5 633.099 387.086 637.5 380C646.194 366 645.194 349 645.194 349Z" fill="#FFE35F"/>
<path d="M557.001 498.531L557.001 379.5L570.5 265L596 260L624.5 272C624.5 272 598.765 338.595 585 384C571.234 429.405 557.001 498.531 557.001 498.531Z" fill="#F8F8F8"/>
<path d="M557 388.5L589.5 272.5L607.5 259L583.5 390L557 498V388.5Z" fill="#07122A"/>
</g>
<path d="M700.169 586.281C698.783 583.257 712.732 576 712.732 576L715.586 583.899C715.586 583.899 701.555 589.305 700.169 586.281Z" fill="#FFDAB8"/>
<path d="M714.72 291.499C694.948 283.622 676.28 281.908 659.499 294.999C640.485 309.832 644.499 356.5 669.999 378.5C711.557 414.354 729.798 409.995 754.22 449.5C791.611 509.981 711.22 574 711.22 574V589C711.22 589 832.206 496.332 825.72 422.5C820.081 358.301 776.22 315.999 714.72 291.499Z" fill="#7546FB"/>
<path d="M711.509 336.801L712.204 315.494L719.717 323.594L719.857 343.237L695.681 347.599L687.7 341.097L711.509 336.801Z" fill="#FFD200"/>
<path d="M722.95 345.705L723.644 324.398L731.157 332.498L731.297 352.141L707.121 356.503L699.14 350.001L722.95 345.705Z" fill="#FFD200"/>
<path d="M734.457 354.976L735.151 333.669L742.664 341.769L742.804 361.412L718.628 365.774L710.647 359.272L734.457 354.976Z" fill="#FFD200"/>
<path d="M610.831 269.999L610.187 242.185C610.187 242.185 604.331 240.53 600.909 238.732C595.342 235.808 588.76 228.198 588.76 228.198L584.146 270.595L610.831 269.999Z" fill="#FFDAB8"/>
<path d="M594.89 240.215C591.207 236.398 588.759 228.197 588.759 228.197L610.429 242.401L610.238 245.189L610.047 247.978C610.047 247.978 599.507 245.002 594.89 240.215Z" fill="#EDC199"/>
<ellipse cx="609.369" cy="188.383" rx="36.5" ry="53.7363" transform="rotate(-6.23686 609.369 188.383)" fill="#FFDAB8"/>
<path d="M614.49 135.252C633.61 132.774 643.989 137.392 640.49 154C636.991 170.607 625.258 147.326 625.258 147.326C624.143 149.819 621.394 149.658 617.491 156.5C613.588 163.341 602.613 163.28 597.613 162.394L589.862 180.065C589.862 180.065 585.793 168.097 581.533 169.36C576.574 170.831 579.329 193.184 579.329 193.184C558.577 188.834 549.595 172.624 571.99 149.5C580.5 140.713 581.122 139.931 588.991 138.5C599.991 136.5 587.99 138.686 614.49 135.252Z" fill="#07122A"/>
<path d="M565.79 172C565.79 172 616.242 160.499 648.846 159.921C653.393 159.841 660.489 159.921 660.489 159.921L645.741 144.549L634.874 116C634.874 116 627.921 116.892 623.231 120.392C597.354 139.7 549.489 139.058 549.489 139.058L551.042 155.529L564.238 159.921L565.79 172Z" fill="#07122A"/>
<path d="M642 137L578.5 149L552 154.5L644.5 144.5L642 137Z" fill="#FFD200"/>
<path d="M755.218 929.117C744.895 921.262 722 929.117 722 929.117V940.572H764C764 940.572 759.704 932.531 755.218 929.117Z" fill="#07122A"/>
<path d="M743.5 923C760.293 923 765 941 765 941H722C722 941 726.707 923 743.5 923Z" fill="#07122A"/>
<path d="M498.782 929.117C509.105 921.262 532 929.117 532 929.117V940.572H490C490 940.572 494.296 932.531 498.782 929.117Z" fill="#07122A"/>
<path d="M510.5 923C493.707 923 489 941 489 941H532C532 941 527.293 923 510.5 923Z" fill="#07122A"/>
<path d="M738 929L686.5 587L518.5 580.5L514.5 929.5H531L596.5 693.5L722.5 929.5L738 929Z" fill="#07122A"/>
<path d="M571.557 263.108C580.404 253.744 615.363 253.518 623.245 263.108C625.882 266.317 624.765 272 624.765 272H569.024C569.024 272 568.577 266.263 571.557 263.108Z" fill="url(#paint0_linear_142_220)"/>
<rect x="588" y="255" width="19" height="19" rx="4" fill="#6A737D"/>
<path d="M643 269.5L687.5 286L670.5 292.5L629.5 276.5L643 269.5Z" fill="#07122A"/>
<path d="M677 284.102L681.172 285.43L669 290.103L665 288.603L677 284.102Z" fill="#FFD200"/>
<path d="M668 280.102L672.172 281.43L660 286.103L656 284.603L668 280.102Z" fill="#FFD200"/>
<path d="M659 277.102L663.172 278.43L651 283.103L647 281.603L659 277.102Z" fill="#FFD200"/>
<path d="M531.586 277.035L485.739 289.307L502.058 297.366L544.373 285.265L531.586 277.035Z" fill="#07122A"/>
<path d="M496.37 288.399L492.094 289.331L503.776 295.12L507.898 294L496.37 288.399Z" fill="#FFD200"/>
<path d="M505.704 285.257L501.428 286.189L513.11 291.978L517.232 290.858L505.704 285.257Z" fill="#FFD200"/>
<path d="M514.946 283.11L510.669 284.042L522.351 289.831L526.473 288.711L514.946 283.11Z" fill="#FFD200"/>
<rect x="511" y="570" width="187" height="37" rx="3" fill="#6A737D"/>
<rect x="651" y="550" width="42" height="74" rx="7" fill="#6A737D"/>
<circle cx="541.161" cy="639" r="15.9677" stroke="#F8F8F8" stroke-width="4.06452"/>
<rect x="537" y="607" width="6" height="15" fill="#F8F8F8"/>
<circle cx="556.257" cy="639" r="15.9677" stroke="#F8F8F8" stroke-width="4.06452"/>
<rect x="553" y="607" width="6" height="15" fill="#F8F8F8"/>
<rect x="497" y="352" width="44" height="12" fill="#F8F8F8"/>
<defs>
<linearGradient id="paint0_linear_142_220" x1="567.074" y1="256.6" x2="568.409" y2="275.854" gradientUnits="userSpaceOnUse">
<stop stop-color="#F0F0F0"/>
<stop offset="1" stop-color="#D1D5DA"/>
</linearGradient>
</defs>
</svg>
