<svg width="1253" height="1080" viewBox="0 0 1253 1080" fill="none" xmlns="http://www.w3.org/2000/svg">
<ellipse rx="400" ry="22" transform="matrix(-1 0 0 1 453 912)" fill="#F0F0F0"/>
<path d="M363.981 426.973C373.127 423.33 393.686 415.367 401.448 421.422C410.243 428.283 408.836 448.66 407.924 460.509C406.305 481.556 364.53 489.025 353.233 507.299C335.938 535.275 372.538 577.537 372.538 577.537V581.469V586.789C372.538 586.789 315.535 530.427 318.535 496.275C321.143 466.579 335.533 438.306 363.981 426.973Z" fill="#7546FB"/>
<path opacity="0.3" d="M358.316 444.081L361.536 440.695L362.292 443.949L366.833 443.95L363.106 447.453L358.316 444.081Z" fill="#F8F8F8"/>
<path opacity="0.3" d="M404.222 494.738L400.753 492.425V495.432L396.821 496.357L400.753 498.67L404.222 494.738Z" fill="#F8F8F8"/>
<path opacity="0.3" d="M399.829 475.123L401.563 473.923V475.482L403.529 475.962L401.563 477.161L399.829 475.123Z" fill="#F8F8F8"/>
<path opacity="0.3" d="M405.284 465.432L408.505 462.046L409.261 465.3L413.802 465.301L410.074 468.805L405.284 465.432Z" fill="#F8F8F8"/>
<path opacity="0.3" d="M395.203 479.56L391.734 477.161V480.279L387.802 481.239L391.734 483.637L395.203 479.56Z" fill="#F8F8F8"/>
<path opacity="0.3" d="M387.245 442.013C388.56 439.938 381.232 440.163 381.232 440.163L381.695 442.476C381.875 443.379 377.532 442.013 377.532 442.013C377.532 442.013 377.261 443.464 377.532 444.326C378.251 446.616 382.73 444.08 383.314 446.408C383.655 447.768 383.201 448.734 382.389 449.877C380.395 452.683 375.459 446.285 373.6 449.183C372.328 451.165 371.881 454.308 374.062 455.196C374.982 455.571 375.617 455.283 376.606 455.196C379.367 454.955 383.314 452.883 383.314 452.883C383.314 452.883 400.202 456.805 396.728 452.883C394.933 450.857 392.47 452.406 390.483 449.877L385.395 443.401C383.408 440.872 386.762 442.776 387.245 442.013Z" fill="#F8F8F8"/>
<path d="M411.392 374.935V372.623H420.18V374.935H411.392Z" fill="#D9D9D9"/>
<path d="M415.786 400.608C414.491 396.908 413.551 381.874 413.242 374.936H416.943C416.943 374.936 415.589 377.342 416.48 385.806C417.405 394.595 419.101 402.304 420.412 405.234L423.65 405.003L419.487 406.853C418.793 406.313 417.081 404.309 415.786 400.608Z" fill="#6A737D"/>
<path opacity="0.3" d="M356.253 475.781C357.568 473.706 350.24 473.931 350.24 473.931L350.702 476.244C350.883 477.147 346.539 475.781 346.539 475.781C346.539 475.781 346.269 477.232 346.539 478.094C347.259 480.384 351.737 477.848 352.321 480.176C352.663 481.536 352.208 482.502 351.396 483.645C349.402 486.452 344.467 480.053 342.608 482.951C341.336 484.933 340.889 488.076 343.07 488.964C343.99 489.339 344.625 489.051 345.614 488.964C348.374 488.723 352.321 486.651 352.321 486.651C352.321 486.651 369.21 490.573 365.736 486.651C363.941 484.626 361.478 486.174 359.491 483.645L354.403 477.169C352.416 474.64 355.77 476.544 356.253 475.781Z" fill="#F8F8F8"/>
<path opacity="0.3" d="M355.404 453.357C358.463 448.318 346.116 448.929 340.442 450.664C339.448 450.968 338.515 450.767 337.969 451.643C337.117 453.01 341.235 453.547 340.442 454.948C339.925 455.863 338.794 455.393 337.969 456.05C336.418 457.286 334.686 460.08 335.99 460.702L339.329 462.293V469.76H342.544C343.8 469.76 341.279 464.848 343.41 463.885C344.464 463.408 345.296 464.297 346.377 463.885C349.373 462.742 343.034 459.03 344.152 456.05C345.726 451.855 353.076 457.193 355.404 453.357Z" fill="#F8F8F8"/>
<path d="M465.295 489.307C471.86 444.792 446.231 416.179 413.951 413.909C383.834 411.792 359.518 438.223 356.362 465.485C352.974 494.744 368.989 542.074 372.767 560.885L450.477 563.66C453.484 550.422 458.67 534.238 465.295 489.307Z" fill="#6638EB"/>
<mask id="mask0_145_65" style="mask-type:alpha" maskUnits="userSpaceOnUse" x="355" y="413" width="112" height="151">
<path d="M465.295 489.307C471.86 444.792 446.231 416.179 413.951 413.909C383.834 411.792 359.518 438.223 356.362 465.485C352.974 494.744 368.989 542.074 372.767 560.885L450.477 563.66C453.484 550.422 458.67 534.238 465.295 489.307Z" fill="#6638EB"/>
</mask>
<g mask="url(#mask0_145_65)">
<path opacity="0.3" d="M398.902 466.522C404.623 457.001 381.53 458.155 370.917 461.434C369.058 462.008 367.313 461.628 366.292 463.284C364.698 465.867 372.4 466.881 370.917 469.529C369.949 471.257 367.834 470.368 366.292 471.61C363.391 473.946 360.152 479.225 362.591 480.399L368.836 483.406V497.514H374.849C377.197 497.514 372.483 488.233 376.468 486.412C378.439 485.511 379.996 487.191 382.019 486.412C387.622 484.254 375.765 477.239 377.856 471.61C380.8 463.683 394.547 473.77 398.902 466.522Z" fill="#F8F8F8"/>
<path opacity="0.3" d="M389.668 435.78C386.609 430.74 398.956 431.351 404.63 433.087C405.624 433.391 406.557 433.19 407.103 434.066C407.955 435.433 403.838 435.97 404.63 437.371C405.148 438.286 406.279 437.815 407.103 438.473C408.654 439.709 410.386 442.503 409.082 443.125L405.743 444.716V452.183H402.528C401.273 452.183 403.793 447.271 401.663 446.307C400.609 445.831 399.776 446.72 398.695 446.307C395.699 445.165 402.038 441.452 400.921 438.473C399.347 434.277 391.997 439.616 389.668 435.78Z" fill="#F8F8F8"/>
<path opacity="0.3" d="M411.872 484.349C408.813 479.309 421.16 479.92 426.834 481.656C427.828 481.96 428.761 481.759 429.308 482.635C430.159 484.002 426.042 484.539 426.834 485.94C427.352 486.855 428.483 486.384 429.308 487.042C430.858 488.278 432.59 491.072 431.286 491.694L427.947 493.285V500.752H424.732C423.477 500.752 425.997 495.84 423.867 494.876C422.813 494.399 421.981 495.289 420.899 494.876C417.903 493.734 424.243 490.021 423.125 487.042C421.551 482.846 414.201 488.185 411.872 484.349Z" fill="#F8F8F8"/>
</g>
<path d="M419.44 417.644L418.07 404.848C418.07 404.848 415.307 404.312 413.66 403.615C410.981 402.482 407.653 399.228 407.653 399.228L406.874 417.644L419.44 417.644Z" fill="#FFDAB8"/>
<path d="M410.941 404.532C409.096 402.914 407.651 399.229 407.651 399.229L418.188 404.939L418.208 406.232L418.228 407.525C418.228 407.525 413.254 406.56 410.941 404.532Z" fill="#EDC199"/>
<ellipse cx="419.108" cy="381.14" rx="16.8835" ry="24.8564" transform="rotate(0.433924 419.108 381.14)" fill="#FFDAB8"/>
<path d="M429.307 355.479C438.125 354.144 438.961 360.669 437.989 368.46C437.018 376.25 423.93 365.061 423.93 365.061C423.513 366.254 423.073 367.69 421.538 370.994C420.003 374.298 414.942 374.694 412.603 374.478L408.879 381.519C408.879 381.519 406.541 376.16 404.626 376.906C402.397 377.776 404.53 387.973 404.53 387.973C394.796 386.769 390.17 369.508 399.6 357.985C403.184 353.606 408.786 353.143 412.058 353.239C412.614 352.778 416.202 357.465 429.307 355.479Z" fill="#07122A"/>
<path d="M415.322 340.474C442.757 340.474 440.532 372.621 440.532 372.621L388.956 372.621C388.956 372.621 387.888 340.474 415.322 340.474Z" fill="#F0F0F0"/>
<path d="M390.195 361.984L439.737 361.984L440.301 366.147L389.419 366.147L390.195 361.984Z" fill="#6A737D"/>
<path d="M450.284 430.52C441.138 426.877 433.474 425.385 425.074 430.52C414.935 436.719 415.694 459.873 421.105 470.454C431.513 490.807 428.506 483.637 437.989 502.371C452.843 531.717 428.737 562.735 428.737 562.735L450.478 563.66C450.478 563.66 453.992 552.893 457.185 537.294C458.749 529.653 463.05 515.328 462.273 506.071C461.902 501.647 461.348 498.567 459.035 495.432C441.335 471.445 478.731 441.853 450.284 430.52Z" fill="#5226CF"/>
<path d="M450.283 425.894C441.137 422.251 433.473 420.759 425.074 425.894C414.934 432.093 414.306 442.527 419.717 453.108C430.125 473.46 443.806 475.771 455.103 494.045C472.398 522.021 474.337 576.458 474.337 576.458H481.7C481.7 576.458 501.693 522.406 492.839 489.265C485.145 460.465 478.731 437.227 450.283 425.894Z" fill="#7546FB"/>
<path opacity="0.3" d="M459.406 466.993C460.721 464.917 453.392 465.142 453.392 465.142L453.855 467.455C454.035 468.358 449.692 466.993 449.692 466.993C449.692 466.993 449.421 468.444 449.692 469.305C450.411 471.595 454.89 469.059 455.474 471.387C455.815 472.747 455.361 473.713 454.549 474.856C452.555 477.663 447.619 471.265 445.76 474.162C444.488 476.145 444.041 479.287 446.223 480.176C447.143 480.551 447.777 480.262 448.767 480.176C451.527 479.935 455.474 477.863 455.474 477.863C455.474 477.863 472.362 481.784 468.888 477.863C467.093 475.837 464.631 477.385 462.644 474.856L457.555 468.38C455.568 465.851 458.922 467.756 459.406 466.993Z" fill="#F8F8F8"/>
<path opacity="0.3" d="M448.859 455.421L445.39 453.108V456.115L441.458 457.04L445.39 459.353L448.859 455.421Z" fill="#F8F8F8"/>
<path opacity="0.3" d="M441.457 429.62L443.191 428.592V429.929L445.157 430.34L443.191 431.368L441.457 429.62Z" fill="#F8F8F8"/>
<path opacity="0.3" d="M440.996 442.109L442.73 441.081V442.417L444.696 442.829L442.73 443.856L440.996 442.109Z" fill="#F8F8F8"/>
<path opacity="0.3" d="M425.27 440.722L427.005 439.694V441.031L428.971 441.442L427.005 442.47L425.27 440.722Z" fill="#F8F8F8"/>
<path opacity="0.3" d="M449.339 439.942C446.28 434.903 458.627 435.514 464.301 437.249C465.295 437.553 466.228 437.352 466.774 438.229C467.626 439.596 463.509 440.132 464.301 441.534C464.819 442.449 465.95 441.978 466.774 442.636C468.325 443.872 470.057 446.666 468.753 447.287L465.414 448.879V456.346H462.199C460.944 456.346 463.464 451.434 461.334 450.47C460.279 449.993 459.447 450.882 458.366 450.47C455.37 449.328 461.709 445.615 460.592 442.636C459.018 438.44 451.668 443.779 449.339 439.942Z" fill="#F8F8F8"/>
<path d="M451.569 450.927L452.815 441.145L455.922 445.202L455.133 454.254L443.81 455.212L440.417 451.87L451.569 450.927Z" fill="#FFD200"/>
<path d="M456.448 455.524L457.694 445.742L460.801 449.799L460.012 458.851L448.689 459.809L445.296 456.467L456.448 455.524Z" fill="#FFD200"/>
<path d="M461.345 460.293L462.591 450.512L465.699 454.569L464.91 463.62L453.587 464.578L450.194 461.237L461.345 460.293Z" fill="#FFD200"/>
<circle r="43.377" transform="matrix(-1 0 0 1 644.233 853.669)" fill="url(#paint0_linear_145_65)" stroke="#07122A" stroke-width="28.918"/>
<circle r="43.377" transform="matrix(-1 0 0 1 488.11 853.669)" fill="url(#paint1_linear_145_65)" stroke="#07122A" stroke-width="28.918"/>
<circle r="43.377" transform="matrix(-1 0 0 1 331.987 853.669)" fill="url(#paint2_linear_145_65)" stroke="#07122A" stroke-width="28.918"/>
<circle r="43.377" transform="matrix(-1 0 0 1 175.864 853.669)" fill="url(#paint3_linear_145_65)" stroke="#07122A" stroke-width="28.918"/>
<path d="M735.755 853.982L863.875 778.136H66.2264V853.982H735.755Z" fill="#6A737D"/>
<path d="M95.6328 693.18H663.664L771.074 769.606H853.697C860.307 769.606 863.875 778.136 863.875 778.136L861.979 779.4L46.0591 777.869V738.623L95.6328 693.18Z" fill="#D9D9D9"/>
<path d="M127.649 520.259V687.57" stroke="#F8F8F8" stroke-width="4.13114"/>
<path d="M118.354 687.57V693.767H136.944V687.57H118.354Z" fill="#D9D9D9"/>
<path d="M333.174 546.772H403.403V567.428H333.174V546.772Z" fill="#F0F0F0"/>
<path d="M535.599 524.051L554.189 567.428H397.206L417.862 524.051H535.599Z" fill="#D9D9D9"/>
<path d="M535.599 524.051L554.189 567.428C554.189 567.428 477.101 573.02 441.033 546.173C430.997 538.703 417.862 524.051 417.862 524.051H535.599Z" fill="#EBEBEB"/>
<path d="M619.903 697.233V676.229V666.895H296.293V697.233H619.903Z" fill="#07122A"/>
<path d="M717.37 601.279H682.255H680.19V665.311H717.37V601.279Z" fill="#6A737D"/>
<path d="M589.303 566.164C614.09 566.164 660.221 589.574 680.188 601.279V663.245C662.975 670.13 627.723 684.314 624.418 685.966C620.287 688.032 310.452 690.098 283.599 677.704C256.747 665.311 308.386 566.164 308.386 566.164H589.303Z" fill="#D7D7D7"/>
<rect width="95.0162" height="24.7868" transform="matrix(-1 0 0 1 812.385 617.803)" fill="#F0F0F0"/>
<rect width="198.295" height="33.0491" transform="matrix(-1 0 0 1 1010.68 613.672)" fill="#6A737D"/>
<rect width="198.295" height="24.7868" transform="matrix(-1 0 0 1 1208.97 617.803)" fill="#F0F0F0"/>
<rect width="820.402" height="10.1128" transform="matrix(-1 0 0 1 866.403 769.287)" fill="#07122A"/>
<path d="M996 783C1081.92 783 1106 919 1106 919H886C886 919 910.085 783 996 783Z" fill="#F0F0F0"/>
<path d="M984 787C1054 787 1087 919 1087 919L886.5 918.5C886.5 918.5 914 787 984 787Z" fill="#D3D6DA"/>
<ellipse cx="962.672" cy="825.283" rx="4.5" ry="12.5" transform="rotate(20.9483 962.672 825.283)" fill="#6A737D"/>
<ellipse cx="984.819" cy="837.676" rx="2.33874" ry="6.49651" transform="rotate(20.9483 984.819 837.676)" fill="#6A737D"/>
<ellipse cx="1010.57" cy="820.931" rx="1.33166" ry="3.69907" transform="rotate(20.9483 1010.57 820.931)" fill="#6A737D"/>
<path fill-rule="evenodd" clip-rule="evenodd" d="M1184.14 740.041C1187.65 738.3 1192.33 740.319 1190.37 744.922C1188.28 749.851 1180.55 749.912 1176.18 749.814C1176.62 749.791 1178.03 745.271 1178.51 744.588C1179.93 742.574 1181.98 741.113 1184.14 740.041ZM1143.71 829.848C1142.47 830.909 1143.61 829.948 1143.71 829.848V829.848ZM1188.22 762.925C1190.32 764.514 1190.41 767.321 1188.7 769.223C1186.65 771.486 1182.92 771.405 1180.14 771.186C1178.88 771.087 1172.15 770.557 1173.75 769.466C1173.63 769.512 1173.37 769.624 1173.1 769.775C1172.95 770.309 1172.79 770.841 1172.63 771.371C1172.67 771.394 1172.7 771.418 1172.75 771.441C1172.7 771.421 1172.67 771.4 1172.63 771.379C1171.01 776.673 1168.7 781.713 1165.69 786.429C1166.81 785.989 1167.98 785.655 1169.17 785.506C1172.68 785.065 1180.06 787.762 1176.13 792.391C1172.36 796.828 1166.51 792.072 1162.24 791.418C1158.09 797.147 1153.52 802.637 1148.73 807.944C1149.02 808.035 1149.28 808.224 1149.43 808.519C1151.35 807.553 1153.35 806.172 1155.13 805.797C1157.69 805.257 1162.95 804.928 1164.89 807.201C1167.27 809.995 1164.72 812.267 1161.9 812.805C1157.81 813.584 1152.47 811.611 1148.54 810.277C1148.09 810.356 1147.6 810.226 1147.31 809.87C1147.22 809.842 1147.13 809.815 1147.05 809.788C1142.2 815.069 1137.16 820.176 1132.16 825.171C1132.21 825.168 1132.26 825.164 1132.32 825.162C1133.62 824.313 1135.02 823.617 1136.54 823.252C1140.05 822.403 1144.18 822.397 1147.03 824.91C1149.86 827.413 1150.87 831.792 1147.93 834.606C1142.05 840.237 1133.4 827.408 1130.44 826.874C1125.35 831.897 1119.97 836.59 1114.51 841.188C1115.13 841.001 1115.77 840.863 1116.43 840.801C1121.78 840.291 1134.34 846.785 1127.77 853.184C1122.04 858.76 1115.42 848.036 1110.81 844.287C1105.66 848.573 1100.48 852.83 1095.45 857.252C1098.2 856.53 1100.85 856.422 1103.79 857.301C1106.83 858.211 1111.73 860.483 1109.81 864.551C1107.85 868.688 1101.96 866.809 1098.89 865.497C1097.22 864.782 1093.86 862.366 1090.91 861.35C1082.89 868.855 1075.93 877.121 1070.67 886.857C1067.38 892.936 1064.88 899.43 1063.13 906.104C1062 910.364 1059.79 917.519 1060.23 923.062C1058.13 911.966 1061.95 898.637 1066.05 888.717C1069.83 879.594 1075.47 871.585 1082.09 864.374C1080.43 859.434 1066.47 852.315 1074.82 847.72C1079.26 845.291 1083.79 849.316 1084.76 853.581C1085.42 856.512 1084.41 860.195 1083.33 863.04C1085.41 860.842 1087.57 858.715 1089.8 856.658C1092.88 853.815 1096.04 851.055 1099.22 848.329C1093.98 843.453 1089.02 829.509 1096.05 827.224C1106.44 823.86 1101.43 842.887 1100.7 846.453C1100.5 846.465 1100.34 846.404 1100.22 846.272C1100.28 846.598 1100.35 846.947 1100.43 847.3C1106.52 842.11 1112.7 837.022 1118.68 831.709C1118.15 831.315 1117.29 829.809 1116.62 829.008C1115.1 827.201 1113.65 825.314 1112.59 823.201C1110.91 819.86 1109.3 814.532 1113.74 812.564C1118.58 810.421 1120.88 816.447 1120.91 820.043C1120.93 822.53 1120.24 824.892 1119.89 827.33C1119.77 828.09 1120.2 831.517 1119.16 830.043C1119.21 830.587 1119.21 830.98 1119.19 831.26C1120.26 830.301 1121.33 829.332 1122.39 828.356C1122.34 828.233 1122.3 828.098 1122.29 827.943C1122.24 826.871 1123.33 826.457 1124.09 826.771C1125.49 825.456 1126.87 824.125 1128.23 822.767C1131.11 819.891 1134.03 816.933 1136.93 813.911C1136.3 813.376 1136.55 812.635 1135.96 812.067C1135.38 811.501 1134.22 811.188 1133.53 810.661C1131.79 809.337 1130.35 807.407 1129.31 805.507C1127.59 802.369 1125.37 795.784 1130.4 794.285C1135.58 792.737 1138.21 799.076 1138.54 803.039C1138.6 803.807 1138.02 810.727 1137.57 813.239C1142.94 807.624 1148.22 801.799 1153 795.872C1151.55 795.86 1147.44 792.921 1146.61 792.119C1144.59 790.162 1141.37 785.838 1144.92 783.548C1148.08 781.516 1151.98 784.454 1153.33 787.311C1153.55 787.782 1154.33 792.161 1154.39 794.126C1156.37 791.613 1158.26 789.085 1160.02 786.549C1161.19 784.863 1162.28 783.133 1163.31 781.365C1163.06 781.227 1162.83 780.986 1162.61 780.686C1157.34 779.803 1150.63 771.663 1156.82 768.826C1159.77 767.477 1162.96 770.257 1164.4 772.533C1164.7 772.999 1165.18 775.34 1165.57 777.188C1168.51 771.333 1170.77 765.135 1172.49 758.781C1172.03 758.669 1171.64 758.322 1171.59 757.725C1169.03 756.282 1167.01 755.08 1165.22 752.303C1164.12 750.578 1162.12 746.636 1165.38 745.677C1169.62 744.429 1172.29 750.846 1172.63 754.007C1172.67 754.374 1172.67 755.441 1172.66 756.419C1172.8 756.399 1172.95 756.401 1173.1 756.427C1174.07 752.492 1174.85 748.507 1175.48 744.516C1173.16 743.779 1172.77 731.733 1174.31 730.018C1177.76 726.175 1180.19 731.722 1180 734.654C1179.78 738.111 1178.2 741.257 1176.31 744.049C1176.11 744.344 1176.17 744.33 1176.12 743.918C1176.09 744.122 1176.02 744.272 1175.92 744.381C1176.01 746.201 1176.2 748.064 1176.11 749.674C1175.85 754.286 1175.3 758.924 1174.51 763.477C1174.32 764.584 1174.1 765.682 1173.85 766.771C1175.71 765.199 1178.23 763.803 1179.21 763.366C1181.76 762.233 1185.69 761.01 1188.22 762.925ZM1059.82 922.624C1059.94 924.106 1060.3 925.459 1061.02 926.566C1060.49 925.3 1060.1 923.981 1059.82 922.624Z" fill="#E4E7E8"/>
<path fill-rule="evenodd" clip-rule="evenodd" d="M1052.37 701.195C1054.14 697.701 1059.1 696.524 1060.29 701.381C1061.56 706.583 1055.39 711.252 1051.83 713.784C1052.17 713.504 1050.6 709.039 1050.57 708.203C1050.51 705.738 1051.28 703.345 1052.37 701.195ZM1073.61 797.365C1073.25 798.957 1073.59 797.505 1073.61 797.365V797.365ZM1069.31 717.107C1071.95 717.127 1073.7 719.319 1073.46 721.869C1073.18 724.905 1070.14 727.07 1067.77 728.558C1066.7 729.231 1060.99 732.824 1061.62 730.997C1061.55 731.107 1061.41 731.349 1061.28 731.635C1061.48 732.151 1061.68 732.67 1061.86 733.191C1061.91 733.186 1061.95 733.186 1062 733.179C1061.95 733.19 1061.91 733.192 1061.87 733.2C1063.73 738.413 1064.89 743.832 1065.29 749.416C1065.93 748.389 1066.67 747.423 1067.53 746.596C1070.08 744.145 1077.61 741.898 1077.23 747.957C1076.86 753.765 1069.32 753.451 1065.51 755.478C1065.6 762.549 1065.22 769.682 1064.55 776.799C1064.84 776.697 1065.16 776.695 1065.45 776.843C1066.42 774.921 1067.2 772.617 1068.4 771.255C1070.13 769.29 1074.15 765.883 1077.06 766.548C1080.64 767.365 1079.95 770.715 1078.01 772.829C1075.2 775.895 1069.74 777.506 1065.79 778.785C1065.48 779.117 1065.01 779.306 1064.56 779.195C1064.47 779.224 1064.39 779.254 1064.3 779.283C1063.57 786.416 1062.58 793.52 1061.55 800.516C1061.59 800.481 1061.63 800.447 1061.68 800.412C1062.22 798.951 1062.92 797.557 1063.92 796.357C1066.23 793.579 1069.54 791.107 1073.32 791.422C1077.09 791.734 1080.51 794.646 1079.84 798.657C1078.49 806.685 1063.89 801.565 1061.19 802.907C1060.11 809.974 1058.61 816.95 1056.97 823.901C1057.36 823.381 1057.79 822.89 1058.28 822.448C1062.27 818.84 1076.22 816.54 1074.77 825.599C1073.51 833.494 1061.79 828.851 1055.85 828.601C1054.29 835.113 1052.68 841.618 1051.29 848.17C1053.06 845.952 1055.12 844.282 1058 843.23C1060.98 842.143 1066.27 841.033 1067.16 845.445C1068.06 849.933 1062.22 851.947 1058.97 852.729C1057.2 853.156 1053.07 853.224 1050.1 854.169C1048.14 864.983 1047.51 875.766 1049.1 886.72C1050.1 893.558 1051.98 900.257 1054.55 906.659C1056.2 910.745 1058.7 917.803 1062.37 921.986C1054.05 914.343 1049.15 901.376 1046.51 890.968C1044.09 881.397 1043.83 871.6 1044.83 861.867C1040.55 858.895 1025.1 861.526 1029.05 852.854C1031.15 848.257 1037.2 848.773 1040.52 851.615C1042.8 853.569 1044.19 857.129 1045.03 860.055C1045.38 857.049 1045.85 854.051 1046.4 851.07C1047.17 846.95 1048.05 842.853 1048.98 838.765C1041.86 837.987 1029.56 829.766 1033.83 823.732C1040.15 814.831 1047.5 833.08 1049.05 836.374C1048.89 836.506 1048.72 836.553 1048.55 836.518C1048.79 836.745 1049.06 836.984 1049.33 837.218C1051.12 829.416 1053.04 821.641 1054.66 813.808C1053.99 813.814 1052.4 813.117 1051.38 812.876C1049.09 812.334 1046.8 811.689 1044.68 810.628C1041.34 808.95 1036.87 805.642 1039.26 801.408C1041.85 796.799 1047.29 800.26 1049.47 803.125C1050.97 805.106 1051.83 807.41 1053 809.578C1053.37 810.254 1055.76 812.747 1054.04 812.19C1054.4 812.596 1054.64 812.908 1054.79 813.146C1055.08 811.736 1055.35 810.322 1055.62 808.907C1055.51 808.838 1055.4 808.752 1055.3 808.632C1054.61 807.806 1055.24 806.823 1056.04 806.618C1056.37 804.73 1056.69 802.836 1056.97 800.935C1057.56 796.908 1058.13 792.791 1058.65 788.635C1057.83 788.582 1057.59 787.838 1056.78 787.733C1055.97 787.63 1054.85 788.07 1053.98 788.061C1051.8 788.036 1049.49 787.349 1047.52 786.447C1044.27 784.957 1038.56 781.003 1041.69 776.798C1044.92 772.462 1050.81 775.976 1053.44 778.957C1053.95 779.534 1057.62 785.432 1058.76 787.713C1059.71 780.003 1060.47 772.177 1060.76 764.567C1059.59 765.423 1054.54 765.52 1053.4 765.373C1050.6 765.015 1045.44 763.472 1046.92 759.511C1048.24 755.993 1053.12 756.023 1055.91 757.508C1056.37 757.752 1059.61 760.798 1060.83 762.337C1060.92 759.139 1060.92 755.983 1060.82 752.9C1060.75 750.848 1060.59 748.806 1060.36 746.776C1060.08 746.812 1059.75 746.758 1059.39 746.648C1054.64 749.088 1044.39 746.573 1047.66 740.599C1049.22 737.756 1053.44 738.076 1055.96 739.039C1056.47 739.236 1058.26 740.828 1059.67 742.077C1058.54 735.62 1056.64 729.304 1054.22 723.183C1053.79 723.367 1053.27 723.321 1052.87 722.872C1049.96 723.243 1047.62 723.486 1044.53 722.326C1042.61 721.605 1038.66 719.638 1040.7 716.92C1043.35 713.383 1049.32 716.939 1051.49 719.267C1051.74 719.537 1052.38 720.394 1052.95 721.187C1053.06 721.083 1053.18 720.996 1053.31 720.929C1051.74 717.191 1049.98 713.529 1048.1 709.957C1045.8 710.75 1038.29 701.327 1038.5 699.029C1038.97 693.888 1044.23 696.884 1045.83 699.346C1047.72 702.249 1048.33 705.718 1048.49 709.083C1048.5 709.441 1048.54 709.395 1048.25 709.096C1048.35 709.276 1048.39 709.438 1048.37 709.586C1049.53 710.988 1050.8 712.369 1051.69 713.715C1054.23 717.57 1056.57 721.615 1058.65 725.738C1059.16 726.741 1059.64 727.753 1060.09 728.773C1060.65 726.4 1061.83 723.78 1062.35 722.843C1063.72 720.412 1066.14 717.083 1069.31 717.107ZM1061.77 921.884C1062.76 922.999 1063.86 923.865 1065.1 924.324C1063.91 923.624 1062.81 922.803 1061.77 921.884Z" fill="#E4E7E8"/>
<defs>
<linearGradient id="paint0_linear_145_65" x1="-3.97865" y1="4.34063" x2="28.0861" y2="136.417" gradientUnits="userSpaceOnUse">
<stop stop-color="#F0F0F0"/>
<stop offset="1" stop-color="#D1D5DA"/>
</linearGradient>
<linearGradient id="paint1_linear_145_65" x1="-3.97865" y1="4.34063" x2="28.0861" y2="136.417" gradientUnits="userSpaceOnUse">
<stop stop-color="#F0F0F0"/>
<stop offset="1" stop-color="#D1D5DA"/>
</linearGradient>
<linearGradient id="paint2_linear_145_65" x1="-3.97865" y1="4.34063" x2="28.0861" y2="136.417" gradientUnits="userSpaceOnUse">
<stop stop-color="#F0F0F0"/>
<stop offset="1" stop-color="#D1D5DA"/>
</linearGradient>
<linearGradient id="paint3_linear_145_65" x1="-3.97865" y1="4.34063" x2="28.0861" y2="136.417" gradientUnits="userSpaceOnUse">
<stop stop-color="#F0F0F0"/>
<stop offset="1" stop-color="#D1D5DA"/>
</linearGradient>
</defs>
</svg>
