<svg width="1253" height="1080" viewBox="0 0 1253 1080" fill="none" xmlns="http://www.w3.org/2000/svg">
<ellipse rx="400" ry="22" transform="matrix(-1 0 0 1 453 819)" fill="#F0F0F0"/>
<path d="M362.981 333.973C372.127 330.33 392.686 322.367 400.448 328.422C409.243 335.283 407.836 355.66 406.924 367.509C405.305 388.556 363.53 396.025 352.233 414.299C334.938 442.275 371.538 484.537 371.538 484.537V488.469V493.789C371.538 493.789 314.535 437.427 317.535 403.275C320.143 373.579 334.533 345.306 362.981 333.973Z" fill="#7546FB"/>
<path opacity="0.3" d="M357.316 351.081L360.536 347.695L361.292 350.949L365.833 350.95L362.106 354.453L357.316 351.081Z" fill="#F8F8F8"/>
<path opacity="0.3" d="M403.222 401.738L399.753 399.425V402.432L395.821 403.357L399.753 405.67L403.222 401.738Z" fill="#F8F8F8"/>
<path opacity="0.3" d="M398.829 382.123L400.563 380.923V382.482L402.529 382.962L400.563 384.161L398.829 382.123Z" fill="#F8F8F8"/>
<path opacity="0.3" d="M404.284 372.432L407.505 369.046L408.261 372.3L412.802 372.301L409.074 375.805L404.284 372.432Z" fill="#F8F8F8"/>
<path opacity="0.3" d="M394.203 386.56L390.734 384.161V387.279L386.802 388.239L390.734 390.637L394.203 386.56Z" fill="#F8F8F8"/>
<path opacity="0.3" d="M386.245 349.013C387.56 346.938 380.232 347.163 380.232 347.163L380.695 349.476C380.875 350.379 376.532 349.013 376.532 349.013C376.532 349.013 376.261 350.464 376.532 351.326C377.251 353.616 381.73 351.08 382.314 353.408C382.655 354.768 382.201 355.734 381.389 356.877C379.395 359.683 374.459 353.285 372.6 356.183C371.328 358.165 370.881 361.308 373.062 362.196C373.982 362.571 374.617 362.283 375.606 362.196C378.367 361.955 382.314 359.883 382.314 359.883C382.314 359.883 399.202 363.805 395.728 359.883C393.933 357.857 391.47 359.406 389.483 356.877L384.395 350.401C382.408 347.872 385.762 349.776 386.245 349.013Z" fill="#F8F8F8"/>
<path d="M410.392 281.935V279.623H419.18V281.935H410.392Z" fill="#D9D9D9"/>
<path d="M414.786 307.608C413.491 303.908 412.551 288.874 412.242 281.936H415.943C415.943 281.936 414.589 284.342 415.48 292.806C416.405 301.595 418.101 309.304 419.412 312.234L422.65 312.003L418.487 313.853C417.793 313.313 416.081 311.309 414.786 307.608Z" fill="#6A737D"/>
<path opacity="0.3" d="M355.253 382.781C356.568 380.706 349.24 380.931 349.24 380.931L349.702 383.244C349.883 384.147 345.539 382.781 345.539 382.781C345.539 382.781 345.269 384.232 345.539 385.094C346.259 387.384 350.737 384.848 351.321 387.176C351.663 388.536 351.208 389.502 350.396 390.645C348.402 393.452 343.467 387.053 341.608 389.951C340.336 391.933 339.889 395.076 342.07 395.964C342.99 396.339 343.625 396.051 344.614 395.964C347.374 395.723 351.321 393.651 351.321 393.651C351.321 393.651 368.21 397.573 364.736 393.651C362.941 391.626 360.478 393.174 358.491 390.645L353.403 384.169C351.416 381.64 354.77 383.544 355.253 382.781Z" fill="#F8F8F8"/>
<path opacity="0.3" d="M354.404 360.357C357.463 355.318 345.116 355.929 339.442 357.664C338.448 357.968 337.515 357.767 336.969 358.643C336.117 360.01 340.235 360.547 339.442 361.948C338.925 362.863 337.794 362.393 336.969 363.05C335.418 364.286 333.686 367.08 334.99 367.702L338.329 369.293V376.76H341.544C342.8 376.76 340.279 371.848 342.41 370.885C343.464 370.408 344.296 371.297 345.377 370.885C348.373 369.742 342.034 366.03 343.152 363.05C344.726 358.855 352.076 364.193 354.404 360.357Z" fill="#F8F8F8"/>
<path d="M464.295 396.307C470.86 351.792 445.231 323.179 412.951 320.909C382.834 318.792 358.518 345.223 355.362 372.485C351.974 401.744 367.989 449.074 371.767 467.885L449.477 470.66C452.484 457.422 457.67 441.238 464.295 396.307Z" fill="#6638EB"/>
<mask id="mask0_145_65" style="mask-type:alpha" maskUnits="userSpaceOnUse" x="354" y="320" width="112" height="151">
<path d="M464.295 396.307C470.86 351.792 445.231 323.179 412.951 320.909C382.834 318.792 358.518 345.223 355.362 372.485C351.974 401.744 367.989 449.074 371.767 467.885L449.477 470.66C452.484 457.422 457.67 441.238 464.295 396.307Z" fill="#6638EB"/>
</mask>
<g mask="url(#mask0_145_65)">
<path opacity="0.3" d="M397.902 373.522C403.623 364.001 380.53 365.155 369.917 368.434C368.058 369.008 366.313 368.628 365.292 370.284C363.698 372.867 371.4 373.881 369.917 376.529C368.949 378.257 366.834 377.368 365.292 378.61C362.391 380.946 359.152 386.225 361.591 387.399L367.836 390.406V404.514H373.849C376.197 404.514 371.483 395.233 375.468 393.412C377.439 392.511 378.996 394.191 381.019 393.412C386.622 391.254 374.765 384.239 376.856 378.61C379.8 370.683 393.547 380.77 397.902 373.522Z" fill="#F8F8F8"/>
<path opacity="0.3" d="M388.668 342.78C385.609 337.74 397.956 338.351 403.63 340.087C404.624 340.391 405.557 340.19 406.103 341.066C406.955 342.433 402.838 342.97 403.63 344.371C404.148 345.286 405.279 344.815 406.103 345.473C407.654 346.709 409.386 349.503 408.082 350.125L404.743 351.716V359.183H401.528C400.273 359.183 402.793 354.271 400.663 353.307C399.609 352.831 398.776 353.72 397.695 353.307C394.699 352.165 401.038 348.452 399.921 345.473C398.347 341.277 390.997 346.616 388.668 342.78Z" fill="#F8F8F8"/>
<path opacity="0.3" d="M410.872 391.349C407.813 386.309 420.16 386.92 425.834 388.656C426.828 388.96 427.761 388.759 428.308 389.635C429.159 391.002 425.042 391.539 425.834 392.94C426.352 393.855 427.483 393.384 428.308 394.042C429.858 395.278 431.59 398.072 430.286 398.694L426.947 400.285V407.752H423.732C422.477 407.752 424.997 402.84 422.867 401.876C421.813 401.399 420.981 402.289 419.899 401.876C416.903 400.734 423.243 397.021 422.125 394.042C420.551 389.846 413.201 395.185 410.872 391.349Z" fill="#F8F8F8"/>
</g>
<path d="M418.44 324.644L417.07 311.848C417.07 311.848 414.307 311.312 412.66 310.615C409.981 309.482 406.653 306.228 406.653 306.228L405.874 324.644L418.44 324.644Z" fill="#FFDAB8"/>
<path d="M409.941 311.532C408.096 309.914 406.651 306.229 406.651 306.229L417.188 311.939L417.208 313.232L417.228 314.525C417.228 314.525 412.254 313.56 409.941 311.532Z" fill="#EDC199"/>
<ellipse cx="418.108" cy="288.14" rx="16.8835" ry="24.8564" transform="rotate(0.433924 418.108 288.14)" fill="#FFDAB8"/>
<path d="M428.307 262.479C437.125 261.144 437.961 267.669 436.989 275.46C436.018 283.25 422.93 272.061 422.93 272.061C422.513 273.254 422.073 274.69 420.538 277.994C419.003 281.298 413.942 281.694 411.603 281.478L407.879 288.519C407.879 288.519 405.541 283.16 403.626 283.906C401.397 284.776 403.53 294.973 403.53 294.973C393.796 293.769 389.17 276.508 398.6 264.985C402.184 260.606 407.786 260.143 411.058 260.239C411.614 259.778 415.202 264.465 428.307 262.479Z" fill="#07122A"/>
<path d="M414.322 247.474C441.757 247.474 439.532 279.621 439.532 279.621L387.956 279.621C387.956 279.621 386.888 247.474 414.322 247.474Z" fill="#F0F0F0"/>
<path d="M389.195 268.984L438.736 268.984L439.301 273.147L388.419 273.147L389.195 268.984Z" fill="#6A737D"/>
<path d="M449.284 337.52C440.138 333.877 432.474 332.385 424.074 337.52C413.935 343.719 414.694 366.873 420.105 377.454C430.513 397.807 427.506 390.637 436.989 409.371C451.843 438.717 427.737 469.735 427.737 469.735L449.478 470.66C449.478 470.66 452.992 459.893 456.185 444.294C457.749 436.653 462.05 422.328 461.273 413.071C460.902 408.647 460.348 405.567 458.035 402.432C440.335 378.445 477.731 348.853 449.284 337.52Z" fill="#5226CF"/>
<path d="M449.283 332.894C440.137 329.251 432.473 327.759 424.074 332.894C413.934 339.093 413.306 349.527 418.717 360.108C429.125 380.46 442.806 382.771 454.103 401.045C471.398 429.021 473.337 483.458 473.337 483.458H480.7C480.7 483.458 500.693 429.406 491.839 396.265C484.145 367.465 477.731 344.227 449.283 332.894Z" fill="#7546FB"/>
<path opacity="0.3" d="M458.406 373.993C459.721 371.917 452.392 372.142 452.392 372.142L452.855 374.455C453.035 375.358 448.692 373.993 448.692 373.993C448.692 373.993 448.421 375.444 448.692 376.305C449.411 378.595 453.89 376.059 454.474 378.387C454.815 379.747 454.361 380.713 453.549 381.856C451.555 384.663 446.619 378.265 444.76 381.162C443.488 383.145 443.041 386.287 445.223 387.176C446.143 387.551 446.777 387.262 447.767 387.176C450.527 386.935 454.474 384.863 454.474 384.863C454.474 384.863 471.362 388.784 467.888 384.863C466.093 382.837 463.631 384.385 461.644 381.856L456.555 375.38C454.568 372.851 457.922 374.756 458.406 373.993Z" fill="#F8F8F8"/>
<path opacity="0.3" d="M447.859 362.421L444.39 360.108V363.115L440.458 364.04L444.39 366.353L447.859 362.421Z" fill="#F8F8F8"/>
<path opacity="0.3" d="M440.457 336.62L442.191 335.592V336.929L444.157 337.34L442.191 338.368L440.457 336.62Z" fill="#F8F8F8"/>
<path opacity="0.3" d="M439.996 349.109L441.73 348.081V349.417L443.696 349.829L441.73 350.856L439.996 349.109Z" fill="#F8F8F8"/>
<path opacity="0.3" d="M424.27 347.722L426.005 346.694V348.031L427.971 348.442L426.005 349.47L424.27 347.722Z" fill="#F8F8F8"/>
<path opacity="0.3" d="M448.339 346.942C445.28 341.903 457.627 342.514 463.301 344.249C464.295 344.553 465.228 344.352 465.774 345.229C466.626 346.596 462.509 347.132 463.301 348.534C463.819 349.449 464.95 348.978 465.774 349.636C467.325 350.872 469.057 353.666 467.753 354.287L464.414 355.879V363.346H461.199C459.944 363.346 462.464 358.434 460.334 357.47C459.279 356.993 458.447 357.882 457.366 357.47C454.37 356.328 460.709 352.615 459.592 349.636C458.018 345.44 450.668 350.779 448.339 346.942Z" fill="#F8F8F8"/>
<path d="M450.569 357.927L451.815 348.145L454.922 352.202L454.133 361.254L442.81 362.212L439.417 358.87L450.569 357.927Z" fill="#FFD200"/>
<path d="M455.448 362.524L456.694 352.742L459.801 356.799L459.012 365.851L447.689 366.809L444.296 363.467L455.448 362.524Z" fill="#FFD200"/>
<path d="M460.345 367.293L461.591 357.512L464.699 361.569L463.91 370.62L452.587 371.578L449.194 368.237L460.345 367.293Z" fill="#FFD200"/>
<circle r="43.377" transform="matrix(-1 0 0 1 643.233 760.669)" fill="url(#paint0_linear_145_65)" stroke="#07122A" stroke-width="28.918"/>
<circle r="43.377" transform="matrix(-1 0 0 1 487.11 760.669)" fill="url(#paint1_linear_145_65)" stroke="#07122A" stroke-width="28.918"/>
<circle r="43.377" transform="matrix(-1 0 0 1 330.987 760.669)" fill="url(#paint2_linear_145_65)" stroke="#07122A" stroke-width="28.918"/>
<circle r="43.377" transform="matrix(-1 0 0 1 174.864 760.669)" fill="url(#paint3_linear_145_65)" stroke="#07122A" stroke-width="28.918"/>
<path d="M734.755 760.982L862.875 685.136H65.2264V760.982H734.755Z" fill="#6A737D"/>
<path d="M94.6328 600.18H662.664L770.074 676.606H852.697C859.307 676.606 862.875 685.136 862.875 685.136L860.979 686.4L45.0591 684.869V645.623L94.6328 600.18Z" fill="#D9D9D9"/>
<path d="M126.649 427.259V594.57" stroke="#F8F8F8" stroke-width="4.13114"/>
<path d="M117.354 594.57V600.767H135.944V594.57H117.354Z" fill="#D9D9D9"/>
<path d="M332.174 453.772H402.403V474.428H332.174V453.772Z" fill="#F0F0F0"/>
<path d="M534.599 431.051L553.189 474.428H396.206L416.862 431.051H534.599Z" fill="#D9D9D9"/>
<path d="M534.599 431.051L553.189 474.428C553.189 474.428 476.101 480.02 440.033 453.173C429.997 445.703 416.862 431.051 416.862 431.051H534.599Z" fill="#EBEBEB"/>
<path d="M618.903 604.233V583.229V573.895H295.293V604.233H618.903Z" fill="#07122A"/>
<path d="M716.37 508.279H681.255H679.19V572.311H716.37V508.279Z" fill="#6A737D"/>
<path d="M588.303 473.164C613.09 473.164 659.221 496.574 679.188 508.279V570.245C661.975 577.13 626.723 591.314 623.418 592.966C619.287 595.032 309.452 597.098 282.599 584.704C255.747 572.311 307.386 473.164 307.386 473.164H588.303Z" fill="#D7D7D7"/>
<rect width="95.0162" height="24.7868" transform="matrix(-1 0 0 1 811.385 524.803)" fill="#F0F0F0"/>
<rect width="198.295" height="33.0491" transform="matrix(-1 0 0 1 1009.68 520.672)" fill="#6A737D"/>
<rect width="198.295" height="24.7868" transform="matrix(-1 0 0 1 1207.97 524.803)" fill="#F0F0F0"/>
<rect width="820.402" height="10.1128" transform="matrix(-1 0 0 1 865.403 676.287)" fill="#07122A"/>
<path d="M996 690C1081.92 690 1106 826 1106 826H886C886 826 910.085 690 996 690Z" fill="#F0F0F0"/>
<path d="M984 694C1054 694 1087 826 1087 826L886.5 825.5C886.5 825.5 914 694 984 694Z" fill="#D3D6DA"/>
<ellipse cx="962.672" cy="732.283" rx="4.5" ry="12.5" transform="rotate(20.9483 962.672 732.283)" fill="#6A737D"/>
<ellipse cx="984.819" cy="744.676" rx="2.33874" ry="6.49651" transform="rotate(20.9483 984.819 744.676)" fill="#6A737D"/>
<ellipse cx="1010.57" cy="727.931" rx="1.33166" ry="3.69907" transform="rotate(20.9483 1010.57 727.931)" fill="#6A737D"/>
<path fill-rule="evenodd" clip-rule="evenodd" d="M1184.14 647.041C1187.65 645.3 1192.33 647.319 1190.37 651.922C1188.28 656.851 1180.55 656.912 1176.18 656.814C1176.62 656.791 1178.03 652.271 1178.51 651.588C1179.93 649.574 1181.98 648.113 1184.14 647.041ZM1143.71 736.848C1142.47 737.909 1143.61 736.948 1143.71 736.848V736.848ZM1188.22 669.925C1190.32 671.514 1190.41 674.321 1188.7 676.223C1186.65 678.486 1182.92 678.405 1180.14 678.186C1178.88 678.087 1172.15 677.557 1173.75 676.466C1173.63 676.512 1173.37 676.624 1173.1 676.775C1172.95 677.309 1172.79 677.841 1172.63 678.371C1172.67 678.394 1172.7 678.418 1172.75 678.441C1172.7 678.421 1172.67 678.4 1172.63 678.379C1171.01 683.673 1168.7 688.713 1165.69 693.429C1166.81 692.989 1167.98 692.655 1169.17 692.506C1172.68 692.065 1180.06 694.762 1176.13 699.391C1172.36 703.828 1166.51 699.072 1162.24 698.418C1158.09 704.147 1153.52 709.637 1148.73 714.944C1149.02 715.035 1149.28 715.224 1149.43 715.519C1151.35 714.553 1153.35 713.172 1155.13 712.797C1157.69 712.257 1162.95 711.928 1164.89 714.201C1167.27 716.995 1164.72 719.267 1161.9 719.805C1157.81 720.584 1152.47 718.611 1148.54 717.277C1148.09 717.356 1147.6 717.226 1147.31 716.87C1147.22 716.842 1147.13 716.815 1147.05 716.788C1142.2 722.069 1137.16 727.176 1132.16 732.171C1132.21 732.168 1132.26 732.164 1132.32 732.162C1133.62 731.313 1135.02 730.617 1136.54 730.252C1140.05 729.403 1144.18 729.397 1147.03 731.91C1149.86 734.413 1150.87 738.792 1147.93 741.606C1142.05 747.237 1133.4 734.408 1130.44 733.874C1125.35 738.897 1119.97 743.59 1114.51 748.188C1115.13 748.001 1115.77 747.863 1116.43 747.801C1121.78 747.291 1134.34 753.785 1127.77 760.184C1122.04 765.76 1115.42 755.036 1110.81 751.287C1105.66 755.573 1100.48 759.83 1095.45 764.252C1098.2 763.53 1100.85 763.422 1103.79 764.301C1106.83 765.211 1111.73 767.483 1109.81 771.551C1107.85 775.688 1101.96 773.809 1098.89 772.497C1097.22 771.782 1093.86 769.366 1090.91 768.35C1082.89 775.855 1075.93 784.121 1070.67 793.857C1067.38 799.936 1064.88 806.43 1063.13 813.104C1062 817.364 1059.79 824.519 1060.23 830.062C1058.13 818.966 1061.95 805.637 1066.05 795.717C1069.83 786.594 1075.47 778.585 1082.09 771.374C1080.43 766.434 1066.47 759.315 1074.82 754.72C1079.26 752.291 1083.79 756.316 1084.76 760.581C1085.42 763.512 1084.41 767.195 1083.33 770.04C1085.41 767.842 1087.57 765.715 1089.8 763.658C1092.88 760.815 1096.04 758.055 1099.22 755.329C1093.98 750.453 1089.02 736.509 1096.05 734.224C1106.44 730.86 1101.43 749.887 1100.7 753.453C1100.5 753.465 1100.34 753.404 1100.22 753.272C1100.28 753.598 1100.35 753.947 1100.43 754.3C1106.52 749.11 1112.7 744.022 1118.68 738.709C1118.15 738.315 1117.29 736.809 1116.62 736.008C1115.1 734.201 1113.65 732.314 1112.59 730.201C1110.91 726.86 1109.3 721.532 1113.74 719.564C1118.58 717.421 1120.88 723.447 1120.91 727.043C1120.93 729.53 1120.24 731.892 1119.89 734.33C1119.77 735.09 1120.2 738.517 1119.16 737.043C1119.21 737.587 1119.21 737.98 1119.19 738.26C1120.26 737.301 1121.33 736.332 1122.39 735.356C1122.34 735.233 1122.3 735.098 1122.29 734.943C1122.24 733.871 1123.33 733.457 1124.09 733.771C1125.49 732.456 1126.87 731.125 1128.23 729.767C1131.11 726.891 1134.03 723.933 1136.93 720.911C1136.3 720.376 1136.55 719.635 1135.96 719.067C1135.38 718.501 1134.22 718.188 1133.53 717.661C1131.79 716.337 1130.35 714.407 1129.31 712.507C1127.59 709.369 1125.37 702.784 1130.4 701.285C1135.58 699.737 1138.21 706.076 1138.54 710.039C1138.6 710.807 1138.02 717.727 1137.57 720.239C1142.94 714.624 1148.22 708.799 1153 702.872C1151.55 702.86 1147.44 699.921 1146.61 699.119C1144.59 697.162 1141.37 692.838 1144.92 690.548C1148.08 688.516 1151.98 691.454 1153.33 694.311C1153.55 694.782 1154.33 699.161 1154.39 701.126C1156.37 698.613 1158.26 696.085 1160.02 693.549C1161.19 691.863 1162.28 690.133 1163.31 688.365C1163.06 688.227 1162.83 687.986 1162.61 687.686C1157.34 686.803 1150.63 678.663 1156.82 675.826C1159.77 674.477 1162.96 677.257 1164.4 679.533C1164.7 679.999 1165.18 682.34 1165.57 684.188C1168.51 678.333 1170.77 672.135 1172.49 665.781C1172.03 665.669 1171.64 665.322 1171.59 664.725C1169.03 663.282 1167.01 662.08 1165.22 659.303C1164.12 657.578 1162.12 653.636 1165.38 652.677C1169.62 651.429 1172.29 657.846 1172.63 661.007C1172.67 661.374 1172.67 662.441 1172.66 663.419C1172.8 663.399 1172.95 663.401 1173.1 663.427C1174.07 659.492 1174.85 655.507 1175.48 651.516C1173.16 650.779 1172.77 638.733 1174.31 637.018C1177.76 633.175 1180.19 638.722 1180 641.654C1179.78 645.111 1178.2 648.257 1176.31 651.049C1176.11 651.344 1176.17 651.33 1176.12 650.918C1176.09 651.122 1176.02 651.272 1175.92 651.381C1176.01 653.201 1176.2 655.064 1176.11 656.674C1175.85 661.286 1175.3 665.924 1174.51 670.477C1174.32 671.584 1174.1 672.682 1173.85 673.771C1175.71 672.199 1178.23 670.803 1179.21 670.366C1181.76 669.233 1185.69 668.01 1188.22 669.925ZM1059.82 829.624C1059.94 831.106 1060.3 832.459 1061.02 833.566C1060.49 832.3 1060.1 830.981 1059.82 829.624Z" fill="#E4E7E8"/>
<path fill-rule="evenodd" clip-rule="evenodd" d="M1052.37 608.195C1054.14 604.701 1059.1 603.524 1060.29 608.381C1061.56 613.583 1055.39 618.252 1051.83 620.784C1052.17 620.504 1050.6 616.039 1050.57 615.203C1050.51 612.738 1051.28 610.345 1052.37 608.195ZM1073.61 704.365C1073.25 705.957 1073.59 704.505 1073.61 704.365V704.365ZM1069.31 624.107C1071.95 624.127 1073.7 626.319 1073.46 628.869C1073.18 631.905 1070.14 634.07 1067.77 635.558C1066.7 636.231 1060.99 639.824 1061.62 637.997C1061.55 638.107 1061.41 638.349 1061.28 638.635C1061.48 639.151 1061.68 639.67 1061.86 640.191C1061.91 640.186 1061.95 640.186 1062 640.179C1061.95 640.19 1061.91 640.192 1061.87 640.2C1063.73 645.413 1064.89 650.832 1065.29 656.416C1065.93 655.389 1066.67 654.423 1067.53 653.596C1070.08 651.145 1077.61 648.898 1077.23 654.957C1076.86 660.765 1069.32 660.451 1065.51 662.478C1065.6 669.549 1065.22 676.682 1064.55 683.799C1064.84 683.697 1065.16 683.695 1065.45 683.843C1066.42 681.921 1067.2 679.617 1068.4 678.255C1070.13 676.29 1074.15 672.883 1077.06 673.548C1080.64 674.365 1079.95 677.715 1078.01 679.829C1075.2 682.895 1069.74 684.506 1065.79 685.785C1065.48 686.117 1065.01 686.306 1064.56 686.195C1064.47 686.224 1064.39 686.254 1064.3 686.283C1063.57 693.416 1062.58 700.52 1061.55 707.516C1061.59 707.481 1061.63 707.447 1061.68 707.412C1062.22 705.951 1062.92 704.557 1063.92 703.357C1066.23 700.579 1069.54 698.107 1073.32 698.422C1077.09 698.734 1080.51 701.646 1079.84 705.657C1078.49 713.685 1063.89 708.565 1061.19 709.907C1060.11 716.974 1058.61 723.95 1056.97 730.901C1057.36 730.381 1057.79 729.89 1058.28 729.448C1062.27 725.84 1076.22 723.54 1074.77 732.599C1073.51 740.494 1061.79 735.851 1055.85 735.601C1054.29 742.113 1052.68 748.618 1051.29 755.17C1053.06 752.952 1055.12 751.282 1058 750.23C1060.98 749.143 1066.27 748.033 1067.16 752.445C1068.06 756.933 1062.22 758.947 1058.97 759.729C1057.2 760.156 1053.07 760.224 1050.1 761.169C1048.14 771.983 1047.51 782.766 1049.1 793.72C1050.1 800.558 1051.98 807.257 1054.55 813.659C1056.2 817.745 1058.7 824.803 1062.37 828.986C1054.05 821.343 1049.15 808.376 1046.51 797.968C1044.09 788.397 1043.83 778.6 1044.83 768.867C1040.55 765.895 1025.1 768.526 1029.05 759.854C1031.15 755.257 1037.2 755.773 1040.52 758.615C1042.8 760.569 1044.19 764.129 1045.03 767.055C1045.38 764.049 1045.85 761.051 1046.4 758.07C1047.17 753.95 1048.05 749.853 1048.98 745.765C1041.86 744.987 1029.56 736.766 1033.83 730.732C1040.15 721.831 1047.5 740.08 1049.05 743.374C1048.89 743.506 1048.72 743.553 1048.55 743.518C1048.79 743.745 1049.06 743.984 1049.33 744.218C1051.12 736.416 1053.04 728.641 1054.66 720.808C1053.99 720.814 1052.4 720.117 1051.38 719.876C1049.09 719.334 1046.8 718.689 1044.68 717.628C1041.34 715.95 1036.87 712.642 1039.26 708.408C1041.85 703.799 1047.29 707.26 1049.47 710.125C1050.97 712.106 1051.83 714.41 1053 716.578C1053.37 717.254 1055.76 719.747 1054.04 719.19C1054.4 719.596 1054.64 719.908 1054.79 720.146C1055.08 718.736 1055.35 717.322 1055.62 715.907C1055.51 715.838 1055.4 715.752 1055.3 715.632C1054.61 714.806 1055.24 713.823 1056.04 713.618C1056.37 711.73 1056.69 709.836 1056.97 707.935C1057.56 703.908 1058.13 699.791 1058.65 695.635C1057.83 695.582 1057.59 694.838 1056.78 694.733C1055.97 694.63 1054.85 695.07 1053.98 695.061C1051.8 695.036 1049.49 694.349 1047.52 693.447C1044.27 691.957 1038.56 688.003 1041.69 683.798C1044.92 679.462 1050.81 682.976 1053.44 685.957C1053.95 686.534 1057.62 692.432 1058.76 694.713C1059.71 687.003 1060.47 679.177 1060.76 671.567C1059.59 672.423 1054.54 672.52 1053.4 672.373C1050.6 672.015 1045.44 670.472 1046.92 666.511C1048.24 662.993 1053.12 663.023 1055.91 664.508C1056.37 664.752 1059.61 667.798 1060.83 669.337C1060.92 666.139 1060.92 662.983 1060.82 659.9C1060.75 657.848 1060.59 655.806 1060.36 653.776C1060.08 653.812 1059.75 653.758 1059.39 653.648C1054.64 656.088 1044.39 653.573 1047.66 647.599C1049.22 644.756 1053.44 645.076 1055.96 646.039C1056.47 646.236 1058.26 647.828 1059.67 649.077C1058.54 642.62 1056.64 636.304 1054.22 630.183C1053.79 630.367 1053.27 630.321 1052.87 629.872C1049.96 630.243 1047.62 630.486 1044.53 629.326C1042.61 628.605 1038.66 626.638 1040.7 623.92C1043.35 620.383 1049.32 623.939 1051.49 626.267C1051.74 626.537 1052.38 627.394 1052.95 628.187C1053.06 628.083 1053.18 627.996 1053.31 627.929C1051.74 624.191 1049.98 620.529 1048.1 616.957C1045.8 617.75 1038.29 608.327 1038.5 606.029C1038.97 600.888 1044.23 603.884 1045.83 606.346C1047.72 609.249 1048.33 612.718 1048.49 616.083C1048.5 616.441 1048.54 616.395 1048.25 616.096C1048.35 616.276 1048.39 616.438 1048.37 616.586C1049.53 617.988 1050.8 619.369 1051.69 620.715C1054.23 624.57 1056.57 628.615 1058.65 632.738C1059.16 633.741 1059.64 634.753 1060.09 635.773C1060.65 633.4 1061.83 630.78 1062.35 629.843C1063.72 627.412 1066.14 624.083 1069.31 624.107ZM1061.77 828.884C1062.76 829.999 1063.86 830.865 1065.1 831.324C1063.91 830.624 1062.81 829.803 1061.77 828.884Z" fill="#E4E7E8"/>
<defs>
<linearGradient id="paint0_linear_145_65" x1="-3.97865" y1="4.34063" x2="28.0861" y2="136.417" gradientUnits="userSpaceOnUse">
<stop stop-color="#F0F0F0"/>
<stop offset="1" stop-color="#D1D5DA"/>
</linearGradient>
<linearGradient id="paint1_linear_145_65" x1="-3.97865" y1="4.34063" x2="28.0861" y2="136.417" gradientUnits="userSpaceOnUse">
<stop stop-color="#F0F0F0"/>
<stop offset="1" stop-color="#D1D5DA"/>
</linearGradient>
<linearGradient id="paint2_linear_145_65" x1="-3.97865" y1="4.34063" x2="28.0861" y2="136.417" gradientUnits="userSpaceOnUse">
<stop stop-color="#F0F0F0"/>
<stop offset="1" stop-color="#D1D5DA"/>
</linearGradient>
<linearGradient id="paint3_linear_145_65" x1="-3.97865" y1="4.34063" x2="28.0861" y2="136.417" gradientUnits="userSpaceOnUse">
<stop stop-color="#F0F0F0"/>
<stop offset="1" stop-color="#D1D5DA"/>
</linearGradient>
</defs>
</svg>
