<svg width="1253" height="1080" viewBox="0 0 1253 1080" fill="none" xmlns="http://www.w3.org/2000/svg">
<rect x="311" y="202.956" width="743" height="342" rx="20" fill="url(#paint0_linear_151_6)" stroke="url(#paint1_linear_151_6)" stroke-width="14"/>
<g clip-path="url(#clip0_151_6)">
<path d="M743.621 418.215H677.701C674.916 418.215 672.658 420.473 672.658 423.258C672.658 426.042 674.916 428.3 677.701 428.3H689.71L689.709 459.55C689.707 463.213 688.24 466.483 685.842 468.888C683.436 471.284 680.167 472.753 676.505 472.755C673.72 472.755 671.463 475.013 671.463 477.797C671.463 480.582 673.72 482.84 676.505 482.84C689.369 482.836 699.79 472.415 699.794 459.55V428.3H722.406V471.636C722.41 477.826 727.421 482.835 733.61 482.839H737.127C739.912 482.839 742.169 480.581 742.169 477.797C742.169 475.013 739.912 472.755 737.127 472.755H733.61C732.994 472.753 732.492 472.251 732.491 471.636V428.3H743.622C746.406 428.3 748.663 426.042 748.663 423.258C748.663 420.473 746.406 418.215 743.621 418.215Z" fill="#6A737D"/>
<path d="M868.124 362.934L891.618 339.439C893.588 337.471 893.588 334.279 891.618 332.309C889.65 330.34 886.457 330.34 884.488 332.309L860.994 355.804L837.5 332.309C835.531 330.34 832.338 330.34 830.369 332.309C828.4 334.279 828.4 337.47 830.369 339.439L853.864 362.934L830.369 386.428C828.4 388.397 828.4 391.589 830.369 393.558C831.354 394.543 832.644 395.035 833.935 395.035C835.225 395.035 836.515 394.543 837.5 393.558L860.994 370.065L884.488 393.558C885.473 394.543 886.763 395.035 888.054 395.035C889.344 395.035 890.634 394.543 891.618 393.558C893.588 391.589 893.588 388.398 891.618 386.428L868.124 362.934Z" fill="#6A737D"/>
<path d="M592.372 354.693H566.5V328.82C566.5 326.035 564.241 323.777 561.458 323.777C558.672 323.777 556.416 326.035 556.416 328.82V354.693H530.543C527.758 354.693 525.501 356.951 525.501 359.734C525.501 362.52 527.758 364.777 530.543 364.777H556.416V390.65C556.416 393.434 558.673 395.691 561.458 395.691C564.241 395.691 566.5 393.434 566.5 390.65V364.777H592.372C595.157 364.777 597.415 362.52 597.415 359.734C597.415 356.951 595.157 354.693 592.372 354.693Z" fill="#6A737D"/>
<path d="M628.616 364.195C625.831 364.195 623.574 361.938 623.574 359.153C623.574 356.368 625.831 354.111 628.616 354.111H690.446C693.23 354.111 695.487 356.368 695.487 359.153C695.487 361.938 693.23 364.195 690.446 364.195H628.616Z" fill="#6A737D"/>
<path d="M670.964 285.64H717.56C720.344 285.64 722.601 283.382 722.601 280.598C722.601 277.814 720.344 275.556 717.56 275.556H670.964C668.179 275.556 665.922 277.814 665.922 280.598C665.922 283.382 668.179 285.64 670.964 285.64ZM717.561 301.124H670.964C668.179 301.124 665.922 303.381 665.922 306.166C665.922 308.95 668.179 311.208 670.964 311.208H717.56C720.344 311.208 722.601 308.95 722.601 306.166C722.601 303.381 720.345 301.124 717.561 301.124Z" fill="#6A737D"/>
<path d="M827.159 251.014C825.19 249.044 821.997 249.044 820.029 251.014L805.57 265.473H771.577C768.791 265.473 766.535 267.731 766.535 270.516C766.535 273.3 768.791 275.558 771.577 275.558H795.485L780.002 291.041H771.577C768.791 291.041 766.535 293.298 766.535 296.084C766.535 298.365 768.051 300.29 770.131 300.912L762.59 308.453C760.621 310.422 760.621 313.615 762.59 315.583C763.575 316.568 764.865 317.06 766.155 317.06C767.445 317.06 768.736 316.568 769.721 315.583L784.179 301.125H818.173C820.958 301.125 823.215 298.867 823.215 296.084C823.215 293.298 820.958 291.041 818.173 291.041H794.263L809.746 275.558H818.172C820.957 275.558 823.215 273.3 823.215 270.516C823.215 268.234 821.698 266.308 819.618 265.686L827.159 258.144C829.129 256.176 829.129 252.984 827.159 251.014Z" fill="#6A737D"/>
<path d="M732.289 364.777C729.504 364.777 727.248 362.519 727.248 359.735C727.248 356.949 729.504 354.692 732.289 354.692H794.119C796.903 354.692 799.161 356.949 799.161 359.735C799.161 362.519 796.903 364.777 794.119 364.777H732.289Z" fill="#6A737D"/>
<path d="M763.204 343.407C766.395 343.407 768.981 340.82 768.981 337.63C768.981 334.439 766.395 331.852 763.204 331.852C760.013 331.852 757.426 334.439 757.426 337.63C757.426 340.82 760.013 343.407 763.204 343.407Z" fill="#6A737D"/>
<path d="M763.204 391.638C766.395 391.638 768.981 389.051 768.981 385.861C768.981 382.67 766.395 380.083 763.204 380.083C760.013 380.083 757.426 382.67 757.426 385.861C757.426 389.051 760.013 391.638 763.204 391.638Z" fill="#6A737D"/>
<path d="M573.892 446.711L574.578 446.71C581.906 446.707 587.84 440.773 587.844 433.445V425.566C587.84 418.238 581.906 412.304 574.578 412.3H573.892C566.563 412.304 560.63 418.238 560.626 425.566L560.627 433.445C560.63 440.773 566.563 446.707 573.892 446.711ZM573.892 422.385H574.578C576.333 422.387 577.757 423.812 577.759 425.566L577.76 433.445C577.756 435.199 576.333 436.623 574.577 436.626H573.892C572.137 436.623 570.713 435.199 570.71 433.445L570.71 425.566C570.714 423.812 572.138 422.387 573.892 422.385ZM616.749 448.034V448.036H616.064C608.735 448.039 602.802 453.972 602.798 461.301V469.179C602.802 476.508 608.735 482.441 616.064 482.446L616.749 482.445C624.078 482.441 630.011 476.508 630.015 469.179V461.301C630.012 453.972 624.078 448.039 616.749 448.034ZM616.749 472.361L616.064 472.361C614.309 472.357 612.885 470.934 612.882 469.179L612.882 461.301C612.885 459.547 614.309 458.123 616.064 458.119L616.749 458.119V458.119C618.504 458.123 619.928 459.546 619.931 461.301L619.931 469.179C619.928 470.934 618.504 472.357 616.749 472.361ZM625.945 416.748C623.977 414.78 620.784 414.78 618.815 416.748L564.696 470.867C562.726 472.836 562.726 476.028 564.696 477.997C565.68 478.982 566.971 479.475 568.261 479.475C569.551 479.475 570.842 478.982 571.826 477.997L625.945 423.879C627.914 421.91 627.914 418.717 625.945 416.748Z" fill="#6A737D"/>
<path d="M566.732 314.487L555.353 303.109H555.354C553.384 301.14 553.384 297.948 555.353 295.979C557.321 294.009 560.515 294.009 562.483 295.978L568.758 302.253L590.216 255.96C591.039 254.181 592.829 253.038 594.79 253.038L638.33 253.039C641.115 253.039 643.373 255.296 643.373 258.081C643.373 260.865 641.115 263.123 638.33 263.123H598.01L574.871 313.042C574.176 314.541 572.805 315.598 571.178 315.886C570.882 315.938 570.585 315.964 570.29 315.964C568.966 315.964 567.687 315.443 566.732 314.487Z" fill="#6A737D"/>
<path d="M787.595 484.906C785.651 484.906 783.887 483.794 783.048 482.039C782.208 480.285 782.449 478.215 783.67 476.7L805.856 449.161L782.406 420.052C781.185 418.537 780.944 416.467 781.784 414.713C782.623 412.959 784.387 411.847 786.333 411.847H839.415C840.742 411.847 842.041 412.385 842.979 413.324C843.919 414.262 844.457 415.561 844.457 416.889V433.473C844.457 436.259 842.2 438.516 839.415 438.516C836.63 438.516 834.372 436.259 834.372 433.473V421.932H796.869L816.258 445.997C817.748 447.846 817.747 450.475 816.258 452.325L798.132 474.821H845.914C848.699 474.821 850.957 477.079 850.957 479.864C850.957 482.648 848.699 484.906 845.914 484.906H787.595V484.906Z" fill="#6A737D"/>
</g>
<rect x="903" y="516.956" width="89" height="34" fill="#6A737D"/>
<path d="M744.943 563.809C747.904 562.294 741.452 547.955 741.452 547.955L734.317 552.388C734.317 552.388 741.982 565.324 744.943 563.809Z" fill="#FFDAB8"/>
<path d="M730 368.956C727.356 321.358 653.62 287.3 641.5 275.456C641.5 275.456 654.052 394.413 687.5 463.956C704.316 498.918 731.5 555.456 731.5 555.456L746 549.456C746 549.456 726.857 490.259 721.5 450.956C717.249 419.768 732.644 416.553 730 368.956Z" fill="#7546FB"/>
<path d="M574.222 268.448L576.654 240.734C576.654 240.734 582.604 239.459 586.135 237.885C591.878 235.325 598.936 228.153 598.936 228.153L600.813 270.76L574.222 268.448Z" fill="#FFDAB8"/>
<path d="M592.045 239.752C595.966 236.179 598.936 228.153 598.936 228.153L576.397 240.933L576.409 243.728L576.42 246.523C576.42 246.523 587.13 244.232 592.045 239.752Z" fill="#EDC199"/>
<ellipse rx="36.5" ry="53.7363" transform="matrix(-0.990641 0.136496 0.136496 0.990641 572.425 189.55)" fill="#FFDAB8"/>
<path d="M554.243 136.122C533.83 137.591 538 165.956 538 165.956C538 165.956 540 156.456 545.559 150.698C550.509 145.571 563.762 151.991 563.762 151.991C564.263 154.675 562.524 160.778 564.718 168.343C566.913 175.908 583.933 175.031 589.001 175.339L588.313 194.99C588.313 194.99 595.068 184.306 598.914 186.531C603.392 189.12 595.485 210.209 595.485 210.209C616.679 210.833 632.233 175.47 615.867 147.75C609.649 137.216 598.861 137.87 591.836 137.001C589.46 137.088 580.373 134.243 554.243 136.122Z" fill="#07122A"/>
<path d="M674 414.956C688.191 318.721 662.32 262.119 592.534 257.213C527.427 252.636 474.858 309.776 468.034 368.713C460.711 431.967 495.333 534.289 503.5 574.956L671.5 580.956C678 552.336 659.676 512.09 674 414.956Z" fill="#6638EB"/>
<mask id="mask0_151_6" style="mask-type:alpha" maskUnits="userSpaceOnUse" x="482" y="256" width="198" height="325">
<path d="M675.085 413.455C689.276 317.22 671 260.198 590.5 256.456C511 252.759 482 320.124 482 379.455C482 442.955 495.333 534.289 503.5 574.956L671.5 580.956C678 552.336 660.762 510.59 675.085 413.455Z" fill="#6638EB"/>
</mask>
<g mask="url(#mask0_151_6)">
<path d="M620.5 258.456C603.667 257.456 565.5 254.956 563.5 254.956L586 347.956L620.5 258.456Z" fill="#F8F8F8"/>
<path d="M595 324.456L592.5 276.956H586.5L580 324.956L586 348.956L595 324.456Z" fill="#6A737D"/>
<path d="M595 272.456L589 264.456L583 272.456L586.5 276.956H592.5L595 272.456Z" fill="#6A737D"/>
<path d="M581.5 274.956L589 264.456L573 256.956L556 260.956L581.5 274.956Z" fill="#D9D9D9"/>
<path d="M596.5 274.956L589 264.456L605 256.956L622 260.956L596.5 274.956Z" fill="#D9D9D9"/>
</g>
<path d="M480.5 387.956H567L557 509.956H470L480.5 387.956Z" fill="#FFD200"/>
<path d="M546.5 383.456L567 387.956L480.5 388.456L474 382.456L546.5 383.456Z" fill="#F8F8F8"/>
<path d="M463.5 502.956L474 382.456L480.5 388.456L470 509.956L463.5 502.956Z" fill="#D9D9D9"/>
<path d="M456.509 445.766C458 439.831 458.811 434.841 469.5 423.956C469.5 423.956 469.5 406.456 469.5 395.956C469.5 356.418 509 301.456 527.5 273.956C527.5 273.956 439.5 310.456 416.5 342.956C393.5 375.456 382.5 401.956 400.5 452.956C421.733 513.114 520.868 500.798 520.868 500.798V481.21C520.868 481.21 449.518 473.595 456.509 445.766Z" fill="#7546FB"/>
<path d="M536.074 492.747C536.435 489.44 520.909 486.956 520.909 486.956L520.693 495.352C520.693 495.352 535.713 496.054 536.074 492.747Z" fill="#FFDAB8"/>
<path d="M489 406.956L550 407.456L549 418.456L488 417.456L489 406.956Z" fill="#FFE35F"/>
<ellipse rx="400" ry="22" transform="matrix(-1 0 0 1 592 936.456)" fill="#F0F0F0"/>
<path d="M693 920.456L673 567.456H501.5L521 920.956H536.5L597 681.456L677 920.456H693Z" fill="#07122A"/>
<path d="M710.218 920.573C699.895 912.718 677 920.573 677 920.573V932.028H719C719 932.028 714.704 923.987 710.218 920.573Z" fill="#07122A"/>
<path d="M698.5 914.456C715.293 914.456 720 932.456 720 932.456H677C677 932.456 681.707 914.456 698.5 914.456Z" fill="#07122A"/>
<path d="M503.782 920.573C514.105 912.718 537 920.573 537 920.573V932.028H495C495 932.028 499.296 923.987 503.782 920.573Z" fill="#07122A"/>
<path d="M515.5 914.456C498.707 914.456 494 932.456 494 932.456H537C537 932.456 532.293 914.456 515.5 914.456Z" fill="#07122A"/>
<rect x="574.5" y="557.456" width="34" height="26" rx="7.5" fill="#F8F8F8" stroke="#6A737D" stroke-width="7"/>
<rect x="611" y="562.956" width="64" height="17" fill="#6A737D"/>
<rect x="499" y="562.956" width="80" height="17" fill="#6A737D"/>
<rect x="605" y="372.956" width="42" height="1" fill="#F0F0F0"/>
<rect x="609" y="360.956" width="4" height="12" fill="#F0F0F0"/>
<rect x="608" y="355.956" width="6" height="12" fill="#FFD200"/>
<rect x="614" y="355.956" width="3" height="1" fill="#FFD200"/>
<rect x="616" y="364.956" width="8" height="1" transform="rotate(-90 616 364.956)" fill="#FFD200"/>
<defs>
<linearGradient id="paint0_linear_151_6" x1="682.5" y1="195.956" x2="682.5" y2="575.377" gradientUnits="userSpaceOnUse">
<stop stop-color="#F8F8F8"/>
<stop offset="1" stop-color="#F0F0F0"/>
</linearGradient>
<linearGradient id="paint1_linear_151_6" x1="277.962" y1="209.315" x2="326.474" y2="634.222" gradientUnits="userSpaceOnUse">
<stop stop-color="#F0F0F0"/>
<stop offset="1" stop-color="#D1D5DA"/>
</linearGradient>
<clipPath id="clip0_151_6">
<rect width="477" height="333.9" fill="white" transform="translate(472 200.956)"/>
</clipPath>
</defs>
</svg>
