<svg width="1253" height="1080" viewBox="0 0 1253 1080" fill="none" xmlns="http://www.w3.org/2000/svg">
<rect x="321" y="271" width="596" height="493" rx="27" fill="#F0F0F0"/>
<rect x="460" y="490" width="321" height="114" rx="13" fill="#6638EB"/>
<path d="M558.96 558.32C556.613 558.32 554.597 557.851 552.912 556.912C551.248 555.952 549.968 554.608 549.072 552.88C548.176 551.131 547.728 549.072 547.728 546.704C547.728 544.933 547.984 543.344 548.496 541.936C549.008 540.507 549.744 539.291 550.704 538.288C551.664 537.264 552.837 536.485 554.224 535.952C555.632 535.397 557.211 535.12 558.96 535.12C560.133 535.12 561.285 535.269 562.416 535.568C563.547 535.867 564.539 536.293 565.392 536.848C565.84 537.125 566.139 537.467 566.288 537.872C566.437 538.256 566.469 538.64 566.384 539.024C566.299 539.387 566.117 539.696 565.84 539.952C565.584 540.208 565.253 540.357 564.848 540.4C564.464 540.421 564.037 540.283 563.568 539.984C562.907 539.557 562.192 539.248 561.424 539.056C560.656 538.864 559.877 538.768 559.088 538.768C557.573 538.768 556.293 539.077 555.248 539.696C554.203 540.315 553.413 541.211 552.88 542.384C552.347 543.557 552.08 544.997 552.08 546.704C552.08 548.389 552.347 549.829 552.88 551.024C553.413 552.219 554.203 553.125 555.248 553.744C556.293 554.363 557.573 554.672 559.088 554.672C559.899 554.672 560.699 554.576 561.488 554.384C562.277 554.171 563.024 553.851 563.728 553.424C564.197 553.147 564.613 553.029 564.976 553.072C565.36 553.093 565.68 553.221 565.936 553.456C566.192 553.691 566.363 553.989 566.448 554.352C566.533 554.693 566.512 555.056 566.384 555.44C566.256 555.803 566 556.123 565.616 556.4C564.763 557.019 563.739 557.499 562.544 557.84C561.371 558.16 560.176 558.32 558.96 558.32ZM575.174 558.32C573.403 558.32 572.07 557.819 571.174 556.816C570.278 555.792 569.83 554.299 569.83 552.336V537.2C569.83 536.539 570.001 536.037 570.342 535.696C570.683 535.355 571.174 535.184 571.814 535.184C572.454 535.184 572.945 535.355 573.286 535.696C573.649 536.037 573.83 536.539 573.83 537.2V552.144C573.83 553.125 574.033 553.851 574.438 554.32C574.865 554.789 575.462 555.024 576.23 555.024C576.401 555.024 576.561 555.024 576.71 555.024C576.859 555.003 577.009 554.981 577.158 554.96C577.457 554.917 577.659 555.003 577.766 555.216C577.873 555.408 577.926 555.813 577.926 556.432C577.926 556.965 577.819 557.381 577.606 557.68C577.393 557.979 577.041 558.16 576.55 558.224C576.337 558.245 576.113 558.267 575.878 558.288C575.643 558.309 575.409 558.32 575.174 558.32ZM582.033 558.224C581.393 558.224 580.902 558.032 580.561 557.648C580.219 557.264 580.049 556.731 580.049 556.048V544.304C580.049 543.6 580.219 543.067 580.561 542.704C580.902 542.32 581.393 542.128 582.033 542.128C582.673 542.128 583.163 542.32 583.505 542.704C583.867 543.067 584.049 543.6 584.049 544.304V556.048C584.049 556.731 583.878 557.264 583.537 557.648C583.195 558.032 582.694 558.224 582.033 558.224ZM582.033 539.152C581.286 539.152 580.699 538.971 580.273 538.608C579.867 538.224 579.665 537.701 579.665 537.04C579.665 536.357 579.867 535.835 580.273 535.472C580.699 535.109 581.286 534.928 582.033 534.928C582.801 534.928 583.387 535.109 583.793 535.472C584.198 535.835 584.401 536.357 584.401 537.04C584.401 537.701 584.198 538.224 583.793 538.608C583.387 538.971 582.801 539.152 582.033 539.152ZM595.437 558.32C593.794 558.32 592.365 557.989 591.149 557.328C589.933 556.645 588.994 555.685 588.333 554.448C587.672 553.211 587.341 551.76 587.341 550.096C587.341 548.837 587.522 547.717 587.885 546.736C588.269 545.733 588.813 544.891 589.517 544.208C590.221 543.504 591.074 542.971 592.077 542.608C593.08 542.224 594.2 542.032 595.437 542.032C596.141 542.032 596.898 542.128 597.709 542.32C598.541 542.512 599.32 542.832 600.045 543.28C600.386 543.493 600.61 543.749 600.717 544.048C600.824 544.347 600.845 544.656 600.781 544.976C600.717 545.275 600.578 545.541 600.365 545.776C600.173 545.989 599.928 546.128 599.629 546.192C599.33 546.235 599 546.16 598.637 545.968C598.168 545.691 597.688 545.488 597.197 545.36C596.706 545.211 596.237 545.136 595.789 545.136C595.085 545.136 594.466 545.253 593.933 545.488C593.4 545.701 592.941 546.021 592.557 546.448C592.194 546.853 591.917 547.365 591.725 547.984C591.533 548.603 591.437 549.317 591.437 550.128C591.437 551.707 591.81 552.955 592.557 553.872C593.325 554.768 594.402 555.216 595.789 555.216C596.237 555.216 596.696 555.152 597.165 555.024C597.656 554.896 598.146 554.693 598.637 554.416C599 554.224 599.32 554.16 599.597 554.224C599.896 554.288 600.141 554.437 600.333 554.672C600.525 554.885 600.642 555.152 600.685 555.472C600.728 555.771 600.685 556.069 600.557 556.368C600.45 556.667 600.237 556.912 599.917 557.104C599.213 557.531 598.466 557.84 597.677 558.032C596.888 558.224 596.141 558.32 595.437 558.32ZM605.283 558.256C604.643 558.256 604.152 558.085 603.811 557.744C603.469 557.381 603.299 556.869 603.299 556.208V537.2C603.299 536.539 603.469 536.037 603.811 535.696C604.152 535.355 604.643 535.184 605.283 535.184C605.923 535.184 606.413 535.355 606.755 535.696C607.117 536.037 607.299 536.539 607.299 537.2V549.008H607.363L612.643 543.44C613.069 543.013 613.443 542.683 613.763 542.448C614.083 542.213 614.52 542.096 615.075 542.096C615.629 542.096 616.045 542.245 616.323 542.544C616.621 542.821 616.771 543.163 616.771 543.568C616.771 543.973 616.579 544.379 616.195 544.784L610.627 550.672V549.008L616.739 555.6C617.123 556.005 617.293 556.421 617.251 556.848C617.229 557.253 617.059 557.595 616.739 557.872C616.419 558.128 616.013 558.256 615.523 558.256C614.925 558.256 614.445 558.139 614.083 557.904C613.741 557.669 613.357 557.317 612.931 556.848L607.363 551.024H607.299V556.208C607.299 557.573 606.627 558.256 605.283 558.256ZM631.575 558.256C630.913 558.256 630.401 558.075 630.039 557.712C629.697 557.328 629.527 556.805 629.527 556.144V537.296C629.527 536.613 629.697 536.091 630.039 535.728C630.401 535.365 630.913 535.184 631.575 535.184C632.236 535.184 632.737 535.365 633.079 535.728C633.441 536.091 633.623 536.613 633.623 537.296V544.848H645.239V537.296C645.239 536.613 645.409 536.091 645.751 535.728C646.113 535.365 646.625 535.184 647.287 535.184C647.948 535.184 648.449 535.365 648.791 535.728C649.153 536.091 649.335 536.613 649.335 537.296V556.144C649.335 556.805 649.153 557.328 648.791 557.712C648.449 558.075 647.948 558.256 647.287 558.256C646.625 558.256 646.113 558.075 645.751 557.712C645.409 557.328 645.239 556.805 645.239 556.144V548.272H633.623V556.144C633.623 556.805 633.452 557.328 633.111 557.712C632.769 558.075 632.257 558.256 631.575 558.256ZM661.605 558.32C659.834 558.32 658.309 557.989 657.029 557.328C655.749 556.667 654.757 555.728 654.053 554.512C653.37 553.296 653.029 551.856 653.029 550.192C653.029 548.571 653.359 547.152 654.021 545.936C654.703 544.72 655.631 543.771 656.805 543.088C657.999 542.384 659.354 542.032 660.869 542.032C661.978 542.032 662.97 542.213 663.845 542.576C664.741 542.939 665.498 543.461 666.117 544.144C666.757 544.827 667.237 545.659 667.557 546.64C667.898 547.6 668.069 548.688 668.069 549.904C668.069 550.288 667.93 550.587 667.653 550.8C667.397 550.992 667.023 551.088 666.533 551.088H656.261V548.784H665.253L664.741 549.264C664.741 548.283 664.591 547.461 664.293 546.8C664.015 546.139 663.599 545.637 663.045 545.296C662.511 544.933 661.839 544.752 661.029 544.752C660.133 544.752 659.365 544.965 658.725 545.392C658.106 545.797 657.626 546.384 657.285 547.152C656.965 547.899 656.805 548.795 656.805 549.84V550.064C656.805 551.813 657.21 553.125 658.021 554C658.853 554.853 660.069 555.28 661.669 555.28C662.223 555.28 662.842 555.216 663.525 555.088C664.229 554.939 664.89 554.693 665.509 554.352C665.957 554.096 666.351 553.989 666.693 554.032C667.034 554.053 667.301 554.171 667.493 554.384C667.706 554.597 667.834 554.864 667.877 555.184C667.919 555.483 667.855 555.792 667.685 556.112C667.535 556.432 667.269 556.709 666.885 556.944C666.138 557.413 665.274 557.765 664.293 558C663.333 558.213 662.437 558.32 661.605 558.32ZM673.284 558.256C672.623 558.256 672.111 558.085 671.748 557.744C671.407 557.381 671.236 556.869 671.236 556.208V544.112C671.236 543.451 671.407 542.949 671.748 542.608C672.09 542.267 672.57 542.096 673.188 542.096C673.807 542.096 674.287 542.267 674.628 542.608C674.97 542.949 675.14 543.451 675.14 544.112V546.128H674.82C675.119 544.848 675.706 543.877 676.58 543.216C677.455 542.555 678.618 542.16 680.068 542.032C680.516 541.989 680.868 542.107 681.124 542.384C681.402 542.64 681.562 543.045 681.604 543.6C681.647 544.133 681.519 544.571 681.22 544.912C680.943 545.232 680.516 545.424 679.94 545.488L679.236 545.552C677.935 545.68 676.954 546.085 676.292 546.768C675.631 547.429 675.3 548.368 675.3 549.584V556.208C675.3 556.869 675.13 557.381 674.788 557.744C674.447 558.085 673.946 558.256 673.284 558.256ZM691.23 558.32C689.459 558.32 687.934 557.989 686.654 557.328C685.374 556.667 684.382 555.728 683.678 554.512C682.995 553.296 682.654 551.856 682.654 550.192C682.654 548.571 682.984 547.152 683.646 545.936C684.328 544.72 685.256 543.771 686.43 543.088C687.624 542.384 688.979 542.032 690.494 542.032C691.603 542.032 692.595 542.213 693.47 542.576C694.366 542.939 695.123 543.461 695.742 544.144C696.382 544.827 696.862 545.659 697.182 546.64C697.523 547.6 697.694 548.688 697.694 549.904C697.694 550.288 697.555 550.587 697.278 550.8C697.022 550.992 696.648 551.088 696.158 551.088H685.886V548.784H694.878L694.366 549.264C694.366 548.283 694.216 547.461 693.918 546.8C693.64 546.139 693.224 545.637 692.67 545.296C692.136 544.933 691.464 544.752 690.654 544.752C689.758 544.752 688.99 544.965 688.35 545.392C687.731 545.797 687.251 546.384 686.91 547.152C686.59 547.899 686.43 548.795 686.43 549.84V550.064C686.43 551.813 686.835 553.125 687.646 554C688.478 554.853 689.694 555.28 691.294 555.28C691.848 555.28 692.467 555.216 693.15 555.088C693.854 554.939 694.515 554.693 695.134 554.352C695.582 554.096 695.976 553.989 696.318 554.032C696.659 554.053 696.926 554.171 697.118 554.384C697.331 554.597 697.459 554.864 697.502 555.184C697.544 555.483 697.48 555.792 697.31 556.112C697.16 556.432 696.894 556.709 696.51 556.944C695.763 557.413 694.899 557.765 693.918 558C692.958 558.213 692.062 558.32 691.23 558.32ZM702.781 551.504C702.376 551.504 702.056 551.376 701.821 551.12C701.608 550.864 701.48 550.501 701.437 550.032L700.477 537.808C700.413 537.019 700.584 536.389 700.989 535.92C701.395 535.429 701.992 535.184 702.781 535.184C703.549 535.184 704.125 535.429 704.509 535.92C704.915 536.389 705.085 537.019 705.021 537.808L704.061 550.032C704.04 550.501 703.912 550.864 703.677 551.12C703.464 551.376 703.165 551.504 702.781 551.504ZM702.781 558.16C702.056 558.16 701.469 557.936 701.021 557.488C700.595 557.04 700.381 556.464 700.381 555.76C700.381 555.077 700.595 554.523 701.021 554.096C701.469 553.648 702.056 553.424 702.781 553.424C703.528 553.424 704.104 553.648 704.509 554.096C704.936 554.523 705.149 555.077 705.149 555.76C705.149 556.464 704.936 557.04 704.509 557.488C704.104 557.936 703.528 558.16 702.781 558.16Z" fill="white"/>
<circle cx="385.245" cy="335.245" r="14.2449" fill="#07122A"/>
<circle cx="420.997" cy="335.245" r="14.2449" fill="#6638EB"/>
<circle cx="456.749" cy="335.245" r="14.2449" fill="#38C0EB"/>
<circle cx="904.5" cy="281.5" r="72.5" fill="#6638EB"/>
<path d="M923.75 262.25L885.25 300.75" stroke="white" stroke-width="5" stroke-linecap="round" stroke-linejoin="round"/>
<path d="M885.25 262.25L923.75 300.75" stroke="white" stroke-width="5" stroke-linecap="round" stroke-linejoin="round"/>
<rect x="505" y="401" width="243" height="25" rx="6" fill="white"/>
<rect x="564" y="641" width="126" height="34" rx="6" fill="white"/>
<path d="M976.799 804.901L902.5 682L852.299 703.401L899.799 845.401L976.799 804.901Z" fill="url(#paint0_linear_90_48)"/>
<path d="M772.799 547.401C755.799 557.401 803.799 641.401 803.799 641.401H782.299C770.465 641.401 750.795 649.177 755.799 659.901C762.799 674.901 787.701 670.099 801.5 674.5C815.299 678.901 845.1 698.2 851.5 703C857.9 707.8 887.667 690.667 902.5 682C902.5 682 907.058 606.536 884.799 597.401C862.54 588.265 827.299 607.401 827.299 607.401C827.299 607.401 783.214 541.275 772.799 547.401Z" fill="url(#paint1_linear_90_48)"/>
<path d="M852.5 703L902.5 682L909.5 693.5L857 717.5L852.5 703Z" fill="#6A737D"/>
<rect x="805" y="507.039" width="32.1682" height="4" rx="2" transform="rotate(-7.21323 805 507.039)" fill="#D9D9D9"/>
<rect x="796.506" y="494.249" width="32.1682" height="4" rx="2" transform="rotate(-34.3871 796.506 494.249)" fill="#D9D9D9"/>
<rect x="784.92" y="481.893" width="32.1682" height="4" rx="2" transform="rotate(-72.2154 784.92 481.893)" fill="#D9D9D9"/>
<defs>
<linearGradient id="paint0_linear_90_48" x1="848.017" y1="688.132" x2="905.052" y2="870.378" gradientUnits="userSpaceOnUse">
<stop offset="0.521494" stop-color="#F0F0F0"/>
<stop offset="1" stop-color="#D1D5DA"/>
</linearGradient>
<linearGradient id="paint1_linear_90_48" x1="773" y1="555.5" x2="885" y2="704" gradientUnits="userSpaceOnUse">
<stop stop-color="white"/>
<stop offset="1" stop-color="white"/>
</linearGradient>
</defs>
</svg>
